%TF.GenerationSoftware,KiCad,Pcbnew,7.0.1*%
%TF.CreationDate,2023-07-17T15:28:08+02:00*%
%TF.ProjectId,Had_Konzole,4861645f-4b6f-46e7-9a6f-6c652e6b6963,rev?*%
%TF.SameCoordinates,Original*%
%TF.FileFunction,Paste,Top*%
%TF.FilePolarity,Positive*%
%FSLAX46Y46*%
G04 Gerber Fmt 4.6, Leading zero omitted, Abs format (unit mm)*
G04 Created by KiCad (PCBNEW 7.0.1) date 2023-07-17 15:28:08*
%MOMM*%
%LPD*%
G01*
G04 APERTURE LIST*
G04 Aperture macros list*
%AMRoundRect*
0 Rectangle with rounded corners*
0 $1 Rounding radius*
0 $2 $3 $4 $5 $6 $7 $8 $9 X,Y pos of 4 corners*
0 Add a 4 corners polygon primitive as box body*
4,1,4,$2,$3,$4,$5,$6,$7,$8,$9,$2,$3,0*
0 Add four circle primitives for the rounded corners*
1,1,$1+$1,$2,$3*
1,1,$1+$1,$4,$5*
1,1,$1+$1,$6,$7*
1,1,$1+$1,$8,$9*
0 Add four rect primitives between the rounded corners*
20,1,$1+$1,$2,$3,$4,$5,0*
20,1,$1+$1,$4,$5,$6,$7,0*
20,1,$1+$1,$6,$7,$8,$9,0*
20,1,$1+$1,$8,$9,$2,$3,0*%
G04 Aperture macros list end*
%ADD10RoundRect,0.225000X-0.225000X-0.250000X0.225000X-0.250000X0.225000X0.250000X-0.225000X0.250000X0*%
%ADD11RoundRect,0.225000X-0.250000X0.225000X-0.250000X-0.225000X0.250000X-0.225000X0.250000X0.225000X0*%
%ADD12RoundRect,0.200000X-0.200000X-0.275000X0.200000X-0.275000X0.200000X0.275000X-0.200000X0.275000X0*%
%ADD13RoundRect,0.225000X0.250000X-0.225000X0.250000X0.225000X-0.250000X0.225000X-0.250000X-0.225000X0*%
%ADD14R,1.600000X0.550000*%
%ADD15R,0.550000X1.600000*%
%ADD16RoundRect,0.200000X0.275000X-0.200000X0.275000X0.200000X-0.275000X0.200000X-0.275000X-0.200000X0*%
%ADD17R,1.400000X1.200000*%
%ADD18R,0.600000X1.150000*%
%ADD19R,0.300000X1.150000*%
%ADD20R,1.200000X0.400000*%
%ADD21RoundRect,0.200000X0.200000X0.275000X-0.200000X0.275000X-0.200000X-0.275000X0.200000X-0.275000X0*%
G04 APERTURE END LIST*
D10*
%TO.C,C6*%
X103225000Y-76200000D03*
X104775000Y-76200000D03*
%TD*%
D11*
%TO.C,C4*%
X126500000Y-76725000D03*
X126500000Y-78275000D03*
%TD*%
D12*
%TO.C,R2*%
X117325000Y-67500000D03*
X118975000Y-67500000D03*
%TD*%
D13*
%TO.C,C5*%
X113000000Y-72975000D03*
X113000000Y-71425000D03*
%TD*%
%TO.C,C3*%
X113000000Y-76575000D03*
X113000000Y-75025000D03*
%TD*%
D14*
%TO.C,U1*%
X115500000Y-71400000D03*
X115500000Y-72200000D03*
X115500000Y-73000000D03*
X115500000Y-73800000D03*
X115500000Y-74600000D03*
X115500000Y-75400000D03*
X115500000Y-76200000D03*
X115500000Y-77000000D03*
D15*
X116950000Y-78450000D03*
X117750000Y-78450000D03*
X118550000Y-78450000D03*
X119350000Y-78450000D03*
X120150000Y-78450000D03*
X120950000Y-78450000D03*
X121750000Y-78450000D03*
X122550000Y-78450000D03*
D14*
X124000000Y-77000000D03*
X124000000Y-76200000D03*
X124000000Y-75400000D03*
X124000000Y-74600000D03*
X124000000Y-73800000D03*
X124000000Y-73000000D03*
X124000000Y-72200000D03*
X124000000Y-71400000D03*
D15*
X122550000Y-69950000D03*
X121750000Y-69950000D03*
X120950000Y-69950000D03*
X120150000Y-69950000D03*
X119350000Y-69950000D03*
X118550000Y-69950000D03*
X117750000Y-69950000D03*
X116950000Y-69950000D03*
%TD*%
D16*
%TO.C,R5*%
X138200000Y-104500000D03*
X138200000Y-102850000D03*
%TD*%
%TO.C,R4*%
X134200000Y-104500000D03*
X134200000Y-102850000D03*
%TD*%
D17*
%TO.C,Y1*%
X102750000Y-73850000D03*
X104950000Y-73850000D03*
X104950000Y-72150000D03*
X102750000Y-72150000D03*
%TD*%
D16*
%TO.C,R6*%
X126200000Y-104500000D03*
X126200000Y-102850000D03*
%TD*%
D18*
%TO.C,J4*%
X113100000Y-106700000D03*
X117900000Y-106700000D03*
D19*
X116750000Y-106700000D03*
X113750000Y-106700000D03*
X115250000Y-106700000D03*
X116250000Y-106700000D03*
X115750000Y-106700000D03*
X114750000Y-106700000D03*
X114250000Y-106700000D03*
X117250000Y-106700000D03*
D18*
X112300000Y-106700000D03*
X118700000Y-106700000D03*
%TD*%
D16*
%TO.C,R3*%
X107500000Y-73825000D03*
X107500000Y-72175000D03*
%TD*%
D20*
%TO.C,U2*%
X112900000Y-86865000D03*
X112900000Y-87500000D03*
X112900000Y-88135000D03*
X112900000Y-88770000D03*
X112900000Y-89405000D03*
X112900000Y-90040000D03*
X112900000Y-90675000D03*
X112900000Y-91310000D03*
X112900000Y-91945000D03*
X112900000Y-92580000D03*
X118100000Y-92580000D03*
X118100000Y-91945000D03*
X118100000Y-91310000D03*
X118100000Y-90675000D03*
X118100000Y-90040000D03*
X118100000Y-89405000D03*
X118100000Y-88770000D03*
X118100000Y-88135000D03*
X118100000Y-87500000D03*
X118100000Y-86865000D03*
%TD*%
D13*
%TO.C,C10*%
X126500000Y-75175000D03*
X126500000Y-73625000D03*
%TD*%
D21*
%TO.C,R8*%
X113875000Y-100800000D03*
X112225000Y-100800000D03*
%TD*%
D12*
%TO.C,R9*%
X117075000Y-100850000D03*
X118725000Y-100850000D03*
%TD*%
D10*
%TO.C,C7*%
X103125000Y-70000000D03*
X104675000Y-70000000D03*
%TD*%
D13*
%TO.C,C8*%
X120500000Y-91275000D03*
X120500000Y-89725000D03*
%TD*%
D16*
%TO.C,R7*%
X130200000Y-104500000D03*
X130200000Y-102850000D03*
%TD*%
M02*
