%TF.GenerationSoftware,KiCad,Pcbnew,7.0.1*%
%TF.CreationDate,2023-07-17T15:28:08+02:00*%
%TF.ProjectId,Had_Konzole,4861645f-4b6f-46e7-9a6f-6c652e6b6963,rev?*%
%TF.SameCoordinates,Original*%
%TF.FileFunction,Copper,L1,Top*%
%TF.FilePolarity,Positive*%
%FSLAX46Y46*%
G04 Gerber Fmt 4.6, Leading zero omitted, Abs format (unit mm)*
G04 Created by KiCad (PCBNEW 7.0.1) date 2023-07-17 15:28:08*
%MOMM*%
%LPD*%
G01*
G04 APERTURE LIST*
G04 Aperture macros list*
%AMRoundRect*
0 Rectangle with rounded corners*
0 $1 Rounding radius*
0 $2 $3 $4 $5 $6 $7 $8 $9 X,Y pos of 4 corners*
0 Add a 4 corners polygon primitive as box body*
4,1,4,$2,$3,$4,$5,$6,$7,$8,$9,$2,$3,0*
0 Add four circle primitives for the rounded corners*
1,1,$1+$1,$2,$3*
1,1,$1+$1,$4,$5*
1,1,$1+$1,$6,$7*
1,1,$1+$1,$8,$9*
0 Add four rect primitives between the rounded corners*
20,1,$1+$1,$2,$3,$4,$5,0*
20,1,$1+$1,$4,$5,$6,$7,0*
20,1,$1+$1,$6,$7,$8,$9,0*
20,1,$1+$1,$8,$9,$2,$3,0*%
G04 Aperture macros list end*
%TA.AperFunction,EtchedComponent*%
%ADD10C,0.010000*%
%TD*%
%TA.AperFunction,SMDPad,CuDef*%
%ADD11RoundRect,0.225000X-0.225000X-0.250000X0.225000X-0.250000X0.225000X0.250000X-0.225000X0.250000X0*%
%TD*%
%TA.AperFunction,SMDPad,CuDef*%
%ADD12RoundRect,0.225000X-0.250000X0.225000X-0.250000X-0.225000X0.250000X-0.225000X0.250000X0.225000X0*%
%TD*%
%TA.AperFunction,SMDPad,CuDef*%
%ADD13RoundRect,0.200000X-0.200000X-0.275000X0.200000X-0.275000X0.200000X0.275000X-0.200000X0.275000X0*%
%TD*%
%TA.AperFunction,SMDPad,CuDef*%
%ADD14C,2.000000*%
%TD*%
%TA.AperFunction,SMDPad,CuDef*%
%ADD15RoundRect,0.225000X0.250000X-0.225000X0.250000X0.225000X-0.250000X0.225000X-0.250000X-0.225000X0*%
%TD*%
%TA.AperFunction,ComponentPad*%
%ADD16C,6.400000*%
%TD*%
%TA.AperFunction,SMDPad,CuDef*%
%ADD17R,1.600000X0.550000*%
%TD*%
%TA.AperFunction,SMDPad,CuDef*%
%ADD18R,0.550000X1.600000*%
%TD*%
%TA.AperFunction,SMDPad,CuDef*%
%ADD19RoundRect,0.200000X0.275000X-0.200000X0.275000X0.200000X-0.275000X0.200000X-0.275000X-0.200000X0*%
%TD*%
%TA.AperFunction,SMDPad,CuDef*%
%ADD20R,1.400000X1.200000*%
%TD*%
%TA.AperFunction,SMDPad,CuDef*%
%ADD21R,0.600000X1.150000*%
%TD*%
%TA.AperFunction,SMDPad,CuDef*%
%ADD22R,0.300000X1.150000*%
%TD*%
%TA.AperFunction,ComponentPad*%
%ADD23C,1.000000*%
%TD*%
%TA.AperFunction,ComponentPad*%
%ADD24O,1.000000X1.800000*%
%TD*%
%TA.AperFunction,SMDPad,CuDef*%
%ADD25R,1.200000X0.400000*%
%TD*%
%TA.AperFunction,SMDPad,CuDef*%
%ADD26RoundRect,0.200000X0.200000X0.275000X-0.200000X0.275000X-0.200000X-0.275000X0.200000X-0.275000X0*%
%TD*%
%TA.AperFunction,ComponentPad*%
%ADD27R,1.650000X1.650000*%
%TD*%
%TA.AperFunction,ComponentPad*%
%ADD28C,1.650000*%
%TD*%
%TA.AperFunction,ComponentPad*%
%ADD29R,1.800000X1.800000*%
%TD*%
%TA.AperFunction,ComponentPad*%
%ADD30C,1.800000*%
%TD*%
%TA.AperFunction,ViaPad*%
%ADD31C,0.800000*%
%TD*%
%TA.AperFunction,Conductor*%
%ADD32C,0.500000*%
%TD*%
%TA.AperFunction,Conductor*%
%ADD33C,0.250000*%
%TD*%
%TA.AperFunction,Conductor*%
%ADD34C,0.300000*%
%TD*%
%TA.AperFunction,Conductor*%
%ADD35C,0.200000*%
%TD*%
G04 APERTURE END LIST*
%TO.C,J4*%
D10*
X111206000Y-110176000D02*
X111232000Y-110178000D01*
X111258000Y-110181000D01*
X111284000Y-110186000D01*
X111309000Y-110192000D01*
X111335000Y-110199000D01*
X111359000Y-110208000D01*
X111383000Y-110218000D01*
X111407000Y-110229000D01*
X111430000Y-110242000D01*
X111452000Y-110256000D01*
X111474000Y-110270000D01*
X111495000Y-110286000D01*
X111515000Y-110303000D01*
X111534000Y-110321000D01*
X111552000Y-110340000D01*
X111569000Y-110360000D01*
X111585000Y-110381000D01*
X111599000Y-110403000D01*
X111613000Y-110425000D01*
X111626000Y-110448000D01*
X111637000Y-110472000D01*
X111647000Y-110496000D01*
X111656000Y-110520000D01*
X111663000Y-110546000D01*
X111669000Y-110571000D01*
X111674000Y-110597000D01*
X111677000Y-110623000D01*
X111679000Y-110649000D01*
X111680000Y-110675000D01*
X111680000Y-111875000D01*
X111679000Y-111901000D01*
X111677000Y-111927000D01*
X111674000Y-111953000D01*
X111669000Y-111979000D01*
X111663000Y-112004000D01*
X111656000Y-112030000D01*
X111647000Y-112054000D01*
X111637000Y-112078000D01*
X111626000Y-112102000D01*
X111613000Y-112125000D01*
X111599000Y-112147000D01*
X111585000Y-112169000D01*
X111569000Y-112190000D01*
X111552000Y-112210000D01*
X111534000Y-112229000D01*
X111515000Y-112247000D01*
X111495000Y-112264000D01*
X111474000Y-112280000D01*
X111452000Y-112294000D01*
X111430000Y-112308000D01*
X111407000Y-112321000D01*
X111383000Y-112332000D01*
X111359000Y-112342000D01*
X111335000Y-112351000D01*
X111309000Y-112358000D01*
X111284000Y-112364000D01*
X111258000Y-112369000D01*
X111232000Y-112372000D01*
X111206000Y-112374000D01*
X111180000Y-112375000D01*
X111154000Y-112374000D01*
X111128000Y-112372000D01*
X111102000Y-112369000D01*
X111076000Y-112364000D01*
X111051000Y-112358000D01*
X111025000Y-112351000D01*
X111001000Y-112342000D01*
X110977000Y-112332000D01*
X110953000Y-112321000D01*
X110930000Y-112308000D01*
X110908000Y-112294000D01*
X110886000Y-112280000D01*
X110865000Y-112264000D01*
X110845000Y-112247000D01*
X110826000Y-112229000D01*
X110808000Y-112210000D01*
X110791000Y-112190000D01*
X110775000Y-112169000D01*
X110761000Y-112147000D01*
X110747000Y-112125000D01*
X110734000Y-112102000D01*
X110723000Y-112078000D01*
X110713000Y-112054000D01*
X110704000Y-112030000D01*
X110697000Y-112004000D01*
X110691000Y-111979000D01*
X110686000Y-111953000D01*
X110683000Y-111927000D01*
X110681000Y-111901000D01*
X110680000Y-111875000D01*
X110680000Y-110675000D01*
X110681000Y-110649000D01*
X110683000Y-110623000D01*
X110686000Y-110597000D01*
X110691000Y-110571000D01*
X110697000Y-110546000D01*
X110704000Y-110520000D01*
X110713000Y-110496000D01*
X110723000Y-110472000D01*
X110734000Y-110448000D01*
X110747000Y-110425000D01*
X110761000Y-110403000D01*
X110775000Y-110381000D01*
X110791000Y-110360000D01*
X110808000Y-110340000D01*
X110826000Y-110321000D01*
X110845000Y-110303000D01*
X110865000Y-110286000D01*
X110886000Y-110270000D01*
X110908000Y-110256000D01*
X110930000Y-110242000D01*
X110953000Y-110229000D01*
X110977000Y-110218000D01*
X111001000Y-110208000D01*
X111025000Y-110199000D01*
X111051000Y-110192000D01*
X111076000Y-110186000D01*
X111102000Y-110181000D01*
X111128000Y-110178000D01*
X111154000Y-110176000D01*
X111180000Y-110175000D01*
X111206000Y-110176000D01*
%TA.AperFunction,EtchedComponent*%
G36*
X111206000Y-110176000D02*
G01*
X111232000Y-110178000D01*
X111258000Y-110181000D01*
X111284000Y-110186000D01*
X111309000Y-110192000D01*
X111335000Y-110199000D01*
X111359000Y-110208000D01*
X111383000Y-110218000D01*
X111407000Y-110229000D01*
X111430000Y-110242000D01*
X111452000Y-110256000D01*
X111474000Y-110270000D01*
X111495000Y-110286000D01*
X111515000Y-110303000D01*
X111534000Y-110321000D01*
X111552000Y-110340000D01*
X111569000Y-110360000D01*
X111585000Y-110381000D01*
X111599000Y-110403000D01*
X111613000Y-110425000D01*
X111626000Y-110448000D01*
X111637000Y-110472000D01*
X111647000Y-110496000D01*
X111656000Y-110520000D01*
X111663000Y-110546000D01*
X111669000Y-110571000D01*
X111674000Y-110597000D01*
X111677000Y-110623000D01*
X111679000Y-110649000D01*
X111680000Y-110675000D01*
X111680000Y-111875000D01*
X111679000Y-111901000D01*
X111677000Y-111927000D01*
X111674000Y-111953000D01*
X111669000Y-111979000D01*
X111663000Y-112004000D01*
X111656000Y-112030000D01*
X111647000Y-112054000D01*
X111637000Y-112078000D01*
X111626000Y-112102000D01*
X111613000Y-112125000D01*
X111599000Y-112147000D01*
X111585000Y-112169000D01*
X111569000Y-112190000D01*
X111552000Y-112210000D01*
X111534000Y-112229000D01*
X111515000Y-112247000D01*
X111495000Y-112264000D01*
X111474000Y-112280000D01*
X111452000Y-112294000D01*
X111430000Y-112308000D01*
X111407000Y-112321000D01*
X111383000Y-112332000D01*
X111359000Y-112342000D01*
X111335000Y-112351000D01*
X111309000Y-112358000D01*
X111284000Y-112364000D01*
X111258000Y-112369000D01*
X111232000Y-112372000D01*
X111206000Y-112374000D01*
X111180000Y-112375000D01*
X111154000Y-112374000D01*
X111128000Y-112372000D01*
X111102000Y-112369000D01*
X111076000Y-112364000D01*
X111051000Y-112358000D01*
X111025000Y-112351000D01*
X111001000Y-112342000D01*
X110977000Y-112332000D01*
X110953000Y-112321000D01*
X110930000Y-112308000D01*
X110908000Y-112294000D01*
X110886000Y-112280000D01*
X110865000Y-112264000D01*
X110845000Y-112247000D01*
X110826000Y-112229000D01*
X110808000Y-112210000D01*
X110791000Y-112190000D01*
X110775000Y-112169000D01*
X110761000Y-112147000D01*
X110747000Y-112125000D01*
X110734000Y-112102000D01*
X110723000Y-112078000D01*
X110713000Y-112054000D01*
X110704000Y-112030000D01*
X110697000Y-112004000D01*
X110691000Y-111979000D01*
X110686000Y-111953000D01*
X110683000Y-111927000D01*
X110681000Y-111901000D01*
X110680000Y-111875000D01*
X110680000Y-110675000D01*
X110681000Y-110649000D01*
X110683000Y-110623000D01*
X110686000Y-110597000D01*
X110691000Y-110571000D01*
X110697000Y-110546000D01*
X110704000Y-110520000D01*
X110713000Y-110496000D01*
X110723000Y-110472000D01*
X110734000Y-110448000D01*
X110747000Y-110425000D01*
X110761000Y-110403000D01*
X110775000Y-110381000D01*
X110791000Y-110360000D01*
X110808000Y-110340000D01*
X110826000Y-110321000D01*
X110845000Y-110303000D01*
X110865000Y-110286000D01*
X110886000Y-110270000D01*
X110908000Y-110256000D01*
X110930000Y-110242000D01*
X110953000Y-110229000D01*
X110977000Y-110218000D01*
X111001000Y-110208000D01*
X111025000Y-110199000D01*
X111051000Y-110192000D01*
X111076000Y-110186000D01*
X111102000Y-110181000D01*
X111128000Y-110178000D01*
X111154000Y-110176000D01*
X111180000Y-110175000D01*
X111206000Y-110176000D01*
G37*
%TD.AperFunction*%
X119846000Y-110176000D02*
X119872000Y-110178000D01*
X119898000Y-110181000D01*
X119924000Y-110186000D01*
X119949000Y-110192000D01*
X119975000Y-110199000D01*
X119999000Y-110208000D01*
X120023000Y-110218000D01*
X120047000Y-110229000D01*
X120070000Y-110242000D01*
X120092000Y-110256000D01*
X120114000Y-110270000D01*
X120135000Y-110286000D01*
X120155000Y-110303000D01*
X120174000Y-110321000D01*
X120192000Y-110340000D01*
X120209000Y-110360000D01*
X120225000Y-110381000D01*
X120239000Y-110403000D01*
X120253000Y-110425000D01*
X120266000Y-110448000D01*
X120277000Y-110472000D01*
X120287000Y-110496000D01*
X120296000Y-110520000D01*
X120303000Y-110546000D01*
X120309000Y-110571000D01*
X120314000Y-110597000D01*
X120317000Y-110623000D01*
X120319000Y-110649000D01*
X120320000Y-110675000D01*
X120320000Y-111875000D01*
X120319000Y-111901000D01*
X120317000Y-111927000D01*
X120314000Y-111953000D01*
X120309000Y-111979000D01*
X120303000Y-112004000D01*
X120296000Y-112030000D01*
X120287000Y-112054000D01*
X120277000Y-112078000D01*
X120266000Y-112102000D01*
X120253000Y-112125000D01*
X120239000Y-112147000D01*
X120225000Y-112169000D01*
X120209000Y-112190000D01*
X120192000Y-112210000D01*
X120174000Y-112229000D01*
X120155000Y-112247000D01*
X120135000Y-112264000D01*
X120114000Y-112280000D01*
X120092000Y-112294000D01*
X120070000Y-112308000D01*
X120047000Y-112321000D01*
X120023000Y-112332000D01*
X119999000Y-112342000D01*
X119975000Y-112351000D01*
X119949000Y-112358000D01*
X119924000Y-112364000D01*
X119898000Y-112369000D01*
X119872000Y-112372000D01*
X119846000Y-112374000D01*
X119820000Y-112375000D01*
X119794000Y-112374000D01*
X119768000Y-112372000D01*
X119742000Y-112369000D01*
X119716000Y-112364000D01*
X119691000Y-112358000D01*
X119665000Y-112351000D01*
X119641000Y-112342000D01*
X119617000Y-112332000D01*
X119593000Y-112321000D01*
X119570000Y-112308000D01*
X119548000Y-112294000D01*
X119526000Y-112280000D01*
X119505000Y-112264000D01*
X119485000Y-112247000D01*
X119466000Y-112229000D01*
X119448000Y-112210000D01*
X119431000Y-112190000D01*
X119415000Y-112169000D01*
X119401000Y-112147000D01*
X119387000Y-112125000D01*
X119374000Y-112102000D01*
X119363000Y-112078000D01*
X119353000Y-112054000D01*
X119344000Y-112030000D01*
X119337000Y-112004000D01*
X119331000Y-111979000D01*
X119326000Y-111953000D01*
X119323000Y-111927000D01*
X119321000Y-111901000D01*
X119320000Y-111875000D01*
X119320000Y-110675000D01*
X119321000Y-110649000D01*
X119323000Y-110623000D01*
X119326000Y-110597000D01*
X119331000Y-110571000D01*
X119337000Y-110546000D01*
X119344000Y-110520000D01*
X119353000Y-110496000D01*
X119363000Y-110472000D01*
X119374000Y-110448000D01*
X119387000Y-110425000D01*
X119401000Y-110403000D01*
X119415000Y-110381000D01*
X119431000Y-110360000D01*
X119448000Y-110340000D01*
X119466000Y-110321000D01*
X119485000Y-110303000D01*
X119505000Y-110286000D01*
X119526000Y-110270000D01*
X119548000Y-110256000D01*
X119570000Y-110242000D01*
X119593000Y-110229000D01*
X119617000Y-110218000D01*
X119641000Y-110208000D01*
X119665000Y-110199000D01*
X119691000Y-110192000D01*
X119716000Y-110186000D01*
X119742000Y-110181000D01*
X119768000Y-110178000D01*
X119794000Y-110176000D01*
X119820000Y-110175000D01*
X119846000Y-110176000D01*
%TA.AperFunction,EtchedComponent*%
G36*
X119846000Y-110176000D02*
G01*
X119872000Y-110178000D01*
X119898000Y-110181000D01*
X119924000Y-110186000D01*
X119949000Y-110192000D01*
X119975000Y-110199000D01*
X119999000Y-110208000D01*
X120023000Y-110218000D01*
X120047000Y-110229000D01*
X120070000Y-110242000D01*
X120092000Y-110256000D01*
X120114000Y-110270000D01*
X120135000Y-110286000D01*
X120155000Y-110303000D01*
X120174000Y-110321000D01*
X120192000Y-110340000D01*
X120209000Y-110360000D01*
X120225000Y-110381000D01*
X120239000Y-110403000D01*
X120253000Y-110425000D01*
X120266000Y-110448000D01*
X120277000Y-110472000D01*
X120287000Y-110496000D01*
X120296000Y-110520000D01*
X120303000Y-110546000D01*
X120309000Y-110571000D01*
X120314000Y-110597000D01*
X120317000Y-110623000D01*
X120319000Y-110649000D01*
X120320000Y-110675000D01*
X120320000Y-111875000D01*
X120319000Y-111901000D01*
X120317000Y-111927000D01*
X120314000Y-111953000D01*
X120309000Y-111979000D01*
X120303000Y-112004000D01*
X120296000Y-112030000D01*
X120287000Y-112054000D01*
X120277000Y-112078000D01*
X120266000Y-112102000D01*
X120253000Y-112125000D01*
X120239000Y-112147000D01*
X120225000Y-112169000D01*
X120209000Y-112190000D01*
X120192000Y-112210000D01*
X120174000Y-112229000D01*
X120155000Y-112247000D01*
X120135000Y-112264000D01*
X120114000Y-112280000D01*
X120092000Y-112294000D01*
X120070000Y-112308000D01*
X120047000Y-112321000D01*
X120023000Y-112332000D01*
X119999000Y-112342000D01*
X119975000Y-112351000D01*
X119949000Y-112358000D01*
X119924000Y-112364000D01*
X119898000Y-112369000D01*
X119872000Y-112372000D01*
X119846000Y-112374000D01*
X119820000Y-112375000D01*
X119794000Y-112374000D01*
X119768000Y-112372000D01*
X119742000Y-112369000D01*
X119716000Y-112364000D01*
X119691000Y-112358000D01*
X119665000Y-112351000D01*
X119641000Y-112342000D01*
X119617000Y-112332000D01*
X119593000Y-112321000D01*
X119570000Y-112308000D01*
X119548000Y-112294000D01*
X119526000Y-112280000D01*
X119505000Y-112264000D01*
X119485000Y-112247000D01*
X119466000Y-112229000D01*
X119448000Y-112210000D01*
X119431000Y-112190000D01*
X119415000Y-112169000D01*
X119401000Y-112147000D01*
X119387000Y-112125000D01*
X119374000Y-112102000D01*
X119363000Y-112078000D01*
X119353000Y-112054000D01*
X119344000Y-112030000D01*
X119337000Y-112004000D01*
X119331000Y-111979000D01*
X119326000Y-111953000D01*
X119323000Y-111927000D01*
X119321000Y-111901000D01*
X119320000Y-111875000D01*
X119320000Y-110675000D01*
X119321000Y-110649000D01*
X119323000Y-110623000D01*
X119326000Y-110597000D01*
X119331000Y-110571000D01*
X119337000Y-110546000D01*
X119344000Y-110520000D01*
X119353000Y-110496000D01*
X119363000Y-110472000D01*
X119374000Y-110448000D01*
X119387000Y-110425000D01*
X119401000Y-110403000D01*
X119415000Y-110381000D01*
X119431000Y-110360000D01*
X119448000Y-110340000D01*
X119466000Y-110321000D01*
X119485000Y-110303000D01*
X119505000Y-110286000D01*
X119526000Y-110270000D01*
X119548000Y-110256000D01*
X119570000Y-110242000D01*
X119593000Y-110229000D01*
X119617000Y-110218000D01*
X119641000Y-110208000D01*
X119665000Y-110199000D01*
X119691000Y-110192000D01*
X119716000Y-110186000D01*
X119742000Y-110181000D01*
X119768000Y-110178000D01*
X119794000Y-110176000D01*
X119820000Y-110175000D01*
X119846000Y-110176000D01*
G37*
%TD.AperFunction*%
%TD*%
D11*
%TO.P,C6,1*%
%TO.N,HSE_IN*%
X103225000Y-76200000D03*
%TO.P,C6,2*%
%TO.N,GND*%
X104775000Y-76200000D03*
%TD*%
D12*
%TO.P,C4,1*%
%TO.N,+3V3*%
X126500000Y-76725000D03*
%TO.P,C4,2*%
%TO.N,GND*%
X126500000Y-78275000D03*
%TD*%
D13*
%TO.P,R2,1*%
%TO.N,+3V3*%
X117325000Y-67500000D03*
%TO.P,R2,2*%
%TO.N,RST_PROG*%
X118975000Y-67500000D03*
%TD*%
D14*
%TO.P,J14,1,Pin_1*%
%TO.N,+3V3*%
X106300000Y-93000000D03*
%TD*%
%TO.P,J8,1,Pin_1*%
%TO.N,Button_Up*%
X134200000Y-109075000D03*
%TD*%
D15*
%TO.P,C5,1*%
%TO.N,+3V3*%
X113000000Y-72975000D03*
%TO.P,C5,2*%
%TO.N,GND*%
X113000000Y-71425000D03*
%TD*%
D16*
%TO.P,H4,1,1*%
%TO.N,GND*%
X145600000Y-108800000D03*
%TD*%
D15*
%TO.P,C3,1*%
%TO.N,+3V3*%
X113000000Y-76575000D03*
%TO.P,C3,2*%
%TO.N,GND*%
X113000000Y-75025000D03*
%TD*%
D14*
%TO.P,J13,1,Pin_1*%
%TO.N,3.3 Out*%
X102600000Y-93100000D03*
%TD*%
D16*
%TO.P,H1,1,1*%
%TO.N,GND*%
X100600000Y-62800000D03*
%TD*%
D17*
%TO.P,U1,1,PD3*%
%TO.N,Button_Up*%
X115500000Y-71400000D03*
%TO.P,U1,2,PD4*%
%TO.N,Button_Down*%
X115500000Y-72200000D03*
%TO.P,U1,3,GND*%
%TO.N,GND*%
X115500000Y-73000000D03*
%TO.P,U1,4,VCC*%
%TO.N,+3V3*%
X115500000Y-73800000D03*
%TO.P,U1,5,GND*%
%TO.N,GND*%
X115500000Y-74600000D03*
%TO.P,U1,6,VCC*%
%TO.N,+3V3*%
X115500000Y-75400000D03*
%TO.P,U1,7,XTAL1/PB6*%
%TO.N,HSE_IN*%
X115500000Y-76200000D03*
%TO.P,U1,8,XTAL2/PB7*%
%TO.N,HSE_OUT*%
X115500000Y-77000000D03*
D18*
%TO.P,U1,9,PD5*%
%TO.N,Button_Left*%
X116950000Y-78450000D03*
%TO.P,U1,10,PD6*%
%TO.N,Button_Right*%
X117750000Y-78450000D03*
%TO.P,U1,11,PD7*%
%TO.N,unconnected-(U1-PD7-Pad11)*%
X118550000Y-78450000D03*
%TO.P,U1,12,PB0*%
%TO.N,unconnected-(U1-PB0-Pad12)*%
X119350000Y-78450000D03*
%TO.P,U1,13,PB1*%
%TO.N,unconnected-(U1-PB1-Pad13)*%
X120150000Y-78450000D03*
%TO.P,U1,14,PB2*%
%TO.N,unconnected-(U1-PB2-Pad14)*%
X120950000Y-78450000D03*
%TO.P,U1,15,PB3*%
%TO.N,MOSI*%
X121750000Y-78450000D03*
%TO.P,U1,16,PB4*%
%TO.N,MISO*%
X122550000Y-78450000D03*
D17*
%TO.P,U1,17,PB5*%
%TO.N,SCK*%
X124000000Y-77000000D03*
%TO.P,U1,18,AVCC*%
%TO.N,+3V3*%
X124000000Y-76200000D03*
%TO.P,U1,19,ADC6*%
%TO.N,unconnected-(U1-ADC6-Pad19)*%
X124000000Y-75400000D03*
%TO.P,U1,20,AREF*%
%TO.N,Net-(U1-AREF)*%
X124000000Y-74600000D03*
%TO.P,U1,21,GND*%
%TO.N,GND*%
X124000000Y-73800000D03*
%TO.P,U1,22,ADC7*%
%TO.N,unconnected-(U1-ADC7-Pad22)*%
X124000000Y-73000000D03*
%TO.P,U1,23,PC0*%
%TO.N,CLK*%
X124000000Y-72200000D03*
%TO.P,U1,24,PC1*%
%TO.N,DIN*%
X124000000Y-71400000D03*
D18*
%TO.P,U1,25,PC2*%
%TO.N,DC*%
X122550000Y-69950000D03*
%TO.P,U1,26,PC3*%
%TO.N,CE*%
X121750000Y-69950000D03*
%TO.P,U1,27,PC4*%
%TO.N,RST*%
X120950000Y-69950000D03*
%TO.P,U1,28,PC5*%
%TO.N,unconnected-(U1-PC5-Pad28)*%
X120150000Y-69950000D03*
%TO.P,U1,29,~{RESET}/PC6*%
%TO.N,RST_PROG*%
X119350000Y-69950000D03*
%TO.P,U1,30,PD0*%
%TO.N,TX*%
X118550000Y-69950000D03*
%TO.P,U1,31,PD1*%
%TO.N,RX*%
X117750000Y-69950000D03*
%TO.P,U1,32,PD2*%
%TO.N,unconnected-(U1-PD2-Pad32)*%
X116950000Y-69950000D03*
%TD*%
D19*
%TO.P,R5,1*%
%TO.N,Button_Left*%
X138200000Y-104500000D03*
%TO.P,R5,2*%
%TO.N,GND*%
X138200000Y-102850000D03*
%TD*%
D14*
%TO.P,J21,1,Pin_1*%
%TO.N,GND*%
X145900000Y-88100000D03*
%TD*%
%TO.P,J12,1,Pin_1*%
%TO.N,Button_Right*%
X126200000Y-109075000D03*
%TD*%
%TO.P,J16,1,Pin_1*%
%TO.N,CE*%
X145900000Y-72100000D03*
%TD*%
D16*
%TO.P,H2,1,1*%
%TO.N,GND*%
X145600000Y-62800000D03*
%TD*%
D14*
%TO.P,J1,1,Pin_1*%
%TO.N,+5V*%
X102500000Y-98500000D03*
%TD*%
D19*
%TO.P,R4,1*%
%TO.N,Button_Up*%
X134200000Y-104500000D03*
%TO.P,R4,2*%
%TO.N,GND*%
X134200000Y-102850000D03*
%TD*%
D20*
%TO.P,Y1,1,1*%
%TO.N,HSE_IN*%
X102750000Y-73850000D03*
%TO.P,Y1,2,2*%
%TO.N,GND*%
X104950000Y-73850000D03*
%TO.P,Y1,3,3*%
X104950000Y-72150000D03*
%TO.P,Y1,4,4*%
%TO.N,Net-(C7-Pad1)*%
X102750000Y-72150000D03*
%TD*%
D14*
%TO.P,J18,1,Pin_1*%
%TO.N,DIN*%
X138400000Y-72100000D03*
%TD*%
%TO.P,J10,1,Pin_1*%
%TO.N,Button_Left*%
X138200000Y-109075000D03*
%TD*%
D19*
%TO.P,R6,1*%
%TO.N,Button_Right*%
X126200000Y-104500000D03*
%TO.P,R6,2*%
%TO.N,GND*%
X126200000Y-102850000D03*
%TD*%
D14*
%TO.P,TP11,1,1*%
%TO.N,DTR*%
X106700000Y-87300000D03*
%TD*%
D21*
%TO.P,J4,1,VBUS*%
%TO.N,+5V*%
X113100000Y-106700000D03*
X117900000Y-106700000D03*
D22*
%TO.P,J4,2,SBU1*%
%TO.N,unconnected-(J4-SBU1-Pad2)*%
X116750000Y-106700000D03*
%TO.P,J4,3,SBU2*%
%TO.N,unconnected-(J4-SBU2-Pad3)*%
X113750000Y-106700000D03*
%TO.P,J4,4,D+*%
%TO.N,USB_Conn_D-*%
X115250000Y-106700000D03*
%TO.P,J4,5,D+*%
X116250000Y-106700000D03*
%TO.P,J4,6,D-*%
%TO.N,USB_Conn_D+*%
X115750000Y-106700000D03*
%TO.P,J4,7,D-*%
X114750000Y-106700000D03*
%TO.P,J4,8,CC1*%
%TO.N,Net-(J4-CC1)*%
X114250000Y-106700000D03*
%TO.P,J4,9,CC2*%
%TO.N,Net-(J4-CC2)*%
X117250000Y-106700000D03*
D21*
%TO.P,J4,10,GND*%
%TO.N,GND*%
X112300000Y-106700000D03*
X118700000Y-106700000D03*
D23*
%TO.P,J4,S1,SHIELD*%
%TO.N,unconnected-(J4-SHIELD-PadS1)*%
X111180000Y-111275000D03*
%TO.P,J4,S2,SHIELD*%
X119820000Y-111275000D03*
D24*
%TO.P,J4,S3,SHIELD*%
X111180000Y-107275000D03*
%TO.P,J4,S4,SHIELD*%
X119820000Y-107275000D03*
%TD*%
D19*
%TO.P,R3,1*%
%TO.N,HSE_OUT*%
X107500000Y-73825000D03*
%TO.P,R3,2*%
%TO.N,Net-(C7-Pad1)*%
X107500000Y-72175000D03*
%TD*%
D25*
%TO.P,U2,1,~{DTR}*%
%TO.N,DTR*%
X112900000Y-86865000D03*
%TO.P,U2,2,~{RTS}*%
%TO.N,unconnected-(U2-~{RTS}-Pad2)*%
X112900000Y-87500000D03*
%TO.P,U2,3,VCCIO*%
%TO.N,+3V3*%
X112900000Y-88135000D03*
%TO.P,U2,4,RXD*%
%TO.N,RX*%
X112900000Y-88770000D03*
%TO.P,U2,5,~{RI}*%
%TO.N,unconnected-(U2-~{RI}-Pad5)*%
X112900000Y-89405000D03*
%TO.P,U2,6,GND*%
%TO.N,GND*%
X112900000Y-90040000D03*
%TO.P,U2,7,~{DSR}*%
%TO.N,unconnected-(U2-~{DSR}-Pad7)*%
X112900000Y-90675000D03*
%TO.P,U2,8,~{DCD}*%
%TO.N,unconnected-(U2-~{DCD}-Pad8)*%
X112900000Y-91310000D03*
%TO.P,U2,9,~{CTS}*%
%TO.N,unconnected-(U2-~{CTS}-Pad9)*%
X112900000Y-91945000D03*
%TO.P,U2,10,CBUS2*%
%TO.N,unconnected-(U2-CBUS2-Pad10)*%
X112900000Y-92580000D03*
%TO.P,U2,11,USBDP*%
%TO.N,USB_Conn_D+*%
X118100000Y-92580000D03*
%TO.P,U2,12,USBDM*%
%TO.N,USB_Conn_D-*%
X118100000Y-91945000D03*
%TO.P,U2,13,3V3OUT*%
%TO.N,+3V3*%
X118100000Y-91310000D03*
%TO.P,U2,14,~{RESET}*%
X118100000Y-90675000D03*
%TO.P,U2,15,VCC*%
X118100000Y-90040000D03*
%TO.P,U2,16,GND*%
%TO.N,GND*%
X118100000Y-89405000D03*
%TO.P,U2,17,CBUS1*%
%TO.N,unconnected-(U2-CBUS1-Pad17)*%
X118100000Y-88770000D03*
%TO.P,U2,18,CBUS0*%
%TO.N,unconnected-(U2-CBUS0-Pad18)*%
X118100000Y-88135000D03*
%TO.P,U2,19,CBUS3*%
%TO.N,unconnected-(U2-CBUS3-Pad19)*%
X118100000Y-87500000D03*
%TO.P,U2,20,TXD*%
%TO.N,TX*%
X118100000Y-86865000D03*
%TD*%
D14*
%TO.P,J19,1,Pin_1*%
%TO.N,CLK*%
X145900000Y-76100000D03*
%TD*%
D15*
%TO.P,C10,1*%
%TO.N,Net-(U1-AREF)*%
X126500000Y-75175000D03*
%TO.P,C10,2*%
%TO.N,GND*%
X126500000Y-73625000D03*
%TD*%
D26*
%TO.P,R8,1*%
%TO.N,Net-(J4-CC1)*%
X113875000Y-100800000D03*
%TO.P,R8,2*%
%TO.N,GND*%
X112225000Y-100800000D03*
%TD*%
D14*
%TO.P,J3,1,Pin_1*%
%TO.N,RST*%
X145900000Y-84100000D03*
%TD*%
%TO.P,TP10,1,1*%
%TO.N,Reset*%
X109100000Y-78800000D03*
%TD*%
D13*
%TO.P,R9,1*%
%TO.N,Net-(J4-CC2)*%
X117075000Y-100850000D03*
%TO.P,R9,2*%
%TO.N,GND*%
X118725000Y-100850000D03*
%TD*%
D11*
%TO.P,C7,1*%
%TO.N,Net-(C7-Pad1)*%
X103125000Y-70000000D03*
%TO.P,C7,2*%
%TO.N,GND*%
X104675000Y-70000000D03*
%TD*%
D14*
%TO.P,TP12,1,1*%
%TO.N,RST_PROG*%
X102900000Y-84800000D03*
%TD*%
%TO.P,J15,1,Pin_1*%
%TO.N,GND*%
X106300000Y-98500000D03*
%TD*%
D16*
%TO.P,H3,1,1*%
%TO.N,GND*%
X100600000Y-108800000D03*
%TD*%
D15*
%TO.P,C8,1*%
%TO.N,+3V3*%
X120500000Y-91275000D03*
%TO.P,C8,2*%
%TO.N,GND*%
X120500000Y-89725000D03*
%TD*%
D19*
%TO.P,R7,1*%
%TO.N,Button_Down*%
X130200000Y-104500000D03*
%TO.P,R7,2*%
%TO.N,GND*%
X130200000Y-102850000D03*
%TD*%
D14*
%TO.P,J20,1,Pin_1*%
%TO.N,+3V3*%
X138400000Y-68100000D03*
%TD*%
%TO.P,J17,1,Pin_1*%
%TO.N,DC*%
X145900000Y-80100000D03*
%TD*%
%TO.P,J5,1,Pin_1*%
%TO.N,Button_Down*%
X130200000Y-109075000D03*
%TD*%
D27*
%TO.P,J2,1,Pin_1*%
%TO.N,Reset*%
X134400000Y-87840000D03*
D28*
%TO.P,J2,2,Pin_2*%
%TO.N,MOSI*%
X134400000Y-85300000D03*
%TO.P,J2,3,Pin_3*%
%TO.N,MISO*%
X134400000Y-82760000D03*
%TO.P,J2,4,Pin_4*%
%TO.N,SCK*%
X134400000Y-80220000D03*
%TD*%
D29*
%TO.P,D1,1,K*%
%TO.N,Net-(D1-K)*%
X139125000Y-92525000D03*
D30*
%TO.P,D1,2,A*%
%TO.N,+3V3*%
X139125000Y-95065000D03*
%TD*%
D31*
%TO.N,GND*%
X118750000Y-109000000D03*
X127700000Y-78350000D03*
X130250000Y-101700000D03*
X108350000Y-98500000D03*
X105900000Y-70000000D03*
X127700000Y-73550000D03*
X138250000Y-101700000D03*
X112600000Y-108500000D03*
X134300000Y-101700000D03*
X134850000Y-94250000D03*
X106000000Y-76250000D03*
X113000000Y-70200000D03*
X111500000Y-90050000D03*
X119900000Y-100800000D03*
X126150000Y-101700000D03*
X120500000Y-88500000D03*
X111100000Y-100800000D03*
X123900000Y-98150000D03*
X147950000Y-88150000D03*
X131100000Y-98150000D03*
%TO.N,3.3 Out*%
X100100000Y-93500000D03*
%TO.N,+3V3*%
X111750000Y-75950000D03*
X111800000Y-73050000D03*
X132200000Y-109100000D03*
X128200000Y-109100000D03*
X124200000Y-109100000D03*
X136200000Y-109150000D03*
X127700000Y-76700000D03*
X116150000Y-67500000D03*
X140400000Y-68100000D03*
X111550000Y-88100000D03*
X106250000Y-91000000D03*
X120600000Y-92450000D03*
%TO.N,+5V*%
X110900000Y-99300000D03*
%TO.N,SCK*%
X126500000Y-80200000D03*
%TO.N,MISO*%
X122600000Y-80600000D03*
%TO.N,MOSI*%
X121700000Y-81500000D03*
%TO.N,DTR*%
X108800000Y-88400000D03*
X111000000Y-86800000D03*
%TO.N,RST*%
X125500000Y-65000000D03*
X132100000Y-74400000D03*
%TO.N,DC*%
X130100000Y-73300000D03*
X126000000Y-67900000D03*
%TO.N,HSE_OUT*%
X111300000Y-76975500D03*
X113800000Y-78800000D03*
%TO.N,Button_Up*%
X120992893Y-75700000D03*
X130800000Y-81500000D03*
%TO.N,Button_Left*%
X133600000Y-92200000D03*
X119200000Y-84400000D03*
%TO.N,Button_Down*%
X127700000Y-86900000D03*
X118400000Y-76700000D03*
%TO.N,TX*%
X119550000Y-72050000D03*
X116800000Y-83600000D03*
X115800000Y-80400000D03*
%TO.N,RX*%
X114650000Y-81050000D03*
X118450000Y-72100000D03*
%TO.N,USB_Conn_D+*%
X110300000Y-97500000D03*
%TO.N,USB_Conn_D-*%
X116500000Y-109200000D03*
X116100000Y-103500000D03*
%TO.N,Reset*%
X106500000Y-79900000D03*
%TO.N,RST_PROG*%
X102100000Y-80000000D03*
X119000000Y-66400000D03*
%TD*%
D32*
%TO.N,GND*%
X113000000Y-71425000D02*
X114575000Y-73000000D01*
D33*
X118700000Y-106700000D02*
X118700000Y-108950000D01*
X145900000Y-88100000D02*
X147900000Y-88100000D01*
X130250000Y-102800000D02*
X130200000Y-102850000D01*
X112300000Y-106700000D02*
X112300000Y-108200000D01*
X126150000Y-101700000D02*
X126150000Y-102800000D01*
X118700000Y-108950000D02*
X118750000Y-109000000D01*
X147900000Y-88100000D02*
X147950000Y-88150000D01*
X120500000Y-89725000D02*
X120180000Y-89405000D01*
X112900000Y-90040000D02*
X111510000Y-90040000D01*
X126150000Y-102800000D02*
X126200000Y-102850000D01*
X104950000Y-73850000D02*
X104950000Y-76025000D01*
X120180000Y-89405000D02*
X118100000Y-89405000D01*
X104775000Y-76200000D02*
X105950000Y-76200000D01*
X134300000Y-102750000D02*
X134200000Y-102850000D01*
D32*
X126325000Y-73800000D02*
X124000000Y-73800000D01*
D33*
X112225000Y-100800000D02*
X111100000Y-100800000D01*
X138250000Y-101700000D02*
X138250000Y-102800000D01*
D32*
X127625000Y-73625000D02*
X127700000Y-73550000D01*
D33*
X111510000Y-90040000D02*
X111500000Y-90050000D01*
D32*
X114575000Y-73000000D02*
X115500000Y-73000000D01*
X126500000Y-73625000D02*
X127625000Y-73625000D01*
D33*
X104950000Y-76025000D02*
X104775000Y-76200000D01*
X120500000Y-89725000D02*
X120500000Y-88500000D01*
X119850000Y-100850000D02*
X119900000Y-100800000D01*
X104950000Y-72150000D02*
X104950000Y-73850000D01*
X118725000Y-100850000D02*
X119850000Y-100850000D01*
X105950000Y-76200000D02*
X106000000Y-76250000D01*
X104675000Y-70000000D02*
X104675000Y-71875000D01*
D32*
X113000000Y-75025000D02*
X113425000Y-74600000D01*
D33*
X104675000Y-71875000D02*
X104950000Y-72150000D01*
X138250000Y-102800000D02*
X138200000Y-102850000D01*
X134300000Y-101700000D02*
X134300000Y-102750000D01*
D32*
X113425000Y-74600000D02*
X115500000Y-74600000D01*
D33*
X106300000Y-98500000D02*
X108350000Y-98500000D01*
X130250000Y-101700000D02*
X130250000Y-102800000D01*
X112300000Y-108200000D02*
X112600000Y-108500000D01*
X126500000Y-78275000D02*
X127625000Y-78275000D01*
D32*
X126500000Y-73625000D02*
X126325000Y-73800000D01*
D33*
X127625000Y-78275000D02*
X127700000Y-78350000D01*
X104675000Y-70000000D02*
X105900000Y-70000000D01*
D32*
X113000000Y-71425000D02*
X113000000Y-70200000D01*
D34*
%TO.N,3.3 Out*%
X102200000Y-93500000D02*
X102600000Y-93100000D01*
X100100000Y-93500000D02*
X102200000Y-93500000D01*
D32*
%TO.N,+3V3*%
X113000000Y-72975000D02*
X113825000Y-73800000D01*
D33*
X120500000Y-92350000D02*
X120600000Y-92450000D01*
X112900000Y-88135000D02*
X111585000Y-88135000D01*
X106300000Y-93000000D02*
X106300000Y-91050000D01*
X106300000Y-91050000D02*
X106250000Y-91000000D01*
X112375000Y-75950000D02*
X113000000Y-76575000D01*
X112925000Y-73050000D02*
X113000000Y-72975000D01*
X138400000Y-68100000D02*
X140400000Y-68100000D01*
X111800000Y-73050000D02*
X112925000Y-73050000D01*
X111585000Y-88135000D02*
X111550000Y-88100000D01*
D32*
X113825000Y-73800000D02*
X115500000Y-73800000D01*
X126500000Y-76725000D02*
X125975000Y-76200000D01*
D33*
X126525000Y-76700000D02*
X126500000Y-76725000D01*
X117325000Y-67500000D02*
X116150000Y-67500000D01*
X127700000Y-76700000D02*
X126525000Y-76700000D01*
X120500000Y-91275000D02*
X118135000Y-91275000D01*
D32*
X125975000Y-76200000D02*
X124000000Y-76200000D01*
D33*
X118135000Y-91275000D02*
X118100000Y-91310000D01*
D32*
X114175000Y-75400000D02*
X115500000Y-75400000D01*
X113000000Y-76575000D02*
X114175000Y-75400000D01*
D33*
X120500000Y-91275000D02*
X120500000Y-92350000D01*
X118100000Y-91310000D02*
X118100000Y-90040000D01*
X111750000Y-75950000D02*
X112375000Y-75950000D01*
%TO.N,HSE_IN*%
X103225000Y-76200000D02*
X102750000Y-75725000D01*
X114700000Y-76200000D02*
X113200000Y-77700000D01*
X113200000Y-77700000D02*
X103700000Y-77700000D01*
X115500000Y-76200000D02*
X114700000Y-76200000D01*
X103225000Y-77225000D02*
X103225000Y-76200000D01*
X103700000Y-77700000D02*
X103225000Y-77225000D01*
X102750000Y-75725000D02*
X102750000Y-73850000D01*
D32*
%TO.N,+5V*%
X107450000Y-103450000D02*
X107450000Y-102750000D01*
X107450000Y-103450000D02*
X108300000Y-104300000D01*
X113100000Y-105500000D02*
X113100000Y-106700000D01*
X115825000Y-110400000D02*
X116700000Y-110400000D01*
X106650000Y-102650000D02*
X107100000Y-103100000D01*
X102500000Y-98500000D02*
X106650000Y-102650000D01*
X116700000Y-110400000D02*
X117900000Y-109200000D01*
X113100000Y-106700000D02*
X113100000Y-107675000D01*
X107450000Y-102750000D02*
X106750000Y-102750000D01*
X117900000Y-109200000D02*
X117900000Y-106700000D01*
X113100000Y-107675000D02*
X115825000Y-110400000D01*
X111900000Y-104300000D02*
X113100000Y-105500000D01*
X108300000Y-104300000D02*
X111900000Y-104300000D01*
X107100000Y-103100000D02*
X107450000Y-102750000D01*
X107100000Y-103100000D02*
X107450000Y-103450000D01*
X110900000Y-99300000D02*
X107450000Y-102750000D01*
X106750000Y-102750000D02*
X106650000Y-102650000D01*
%TO.N,Net-(U1-AREF)*%
X126500000Y-75175000D02*
X125925000Y-74600000D01*
X125925000Y-74600000D02*
X124000000Y-74600000D01*
D33*
%TO.N,SCK*%
X124000000Y-77700000D02*
X124000000Y-77000000D01*
X126500000Y-80200000D02*
X124000000Y-77700000D01*
%TO.N,MISO*%
X122600000Y-80600000D02*
X122550000Y-80550000D01*
X122550000Y-80550000D02*
X122550000Y-78450000D01*
%TO.N,MOSI*%
X121750000Y-81450000D02*
X121750000Y-78450000D01*
X121700000Y-81500000D02*
X121750000Y-81450000D01*
%TO.N,DTR*%
X111000000Y-86800000D02*
X112835000Y-86800000D01*
X112835000Y-86800000D02*
X112900000Y-86865000D01*
X107800000Y-88400000D02*
X106700000Y-87300000D01*
X108800000Y-88400000D02*
X107800000Y-88400000D01*
%TO.N,RST*%
X120950000Y-68900000D02*
X120950000Y-69950000D01*
X124850000Y-65000000D02*
X120950000Y-68900000D01*
X145900000Y-84100000D02*
X141800000Y-84100000D01*
X141800000Y-84100000D02*
X132100000Y-74400000D01*
X125500000Y-65000000D02*
X124850000Y-65000000D01*
%TO.N,CE*%
X145900000Y-72100000D02*
X140000000Y-66200000D01*
X124450000Y-66200000D02*
X121750000Y-68900000D01*
X140000000Y-66200000D02*
X124450000Y-66200000D01*
X121750000Y-68900000D02*
X121750000Y-69950000D01*
%TO.N,DC*%
X142213604Y-80100000D02*
X135413604Y-73300000D01*
X123500000Y-67900000D02*
X122550000Y-68850000D01*
X126000000Y-67900000D02*
X123500000Y-67900000D01*
X135413604Y-73300000D02*
X130100000Y-73300000D01*
X122550000Y-68850000D02*
X122550000Y-69950000D01*
X145900000Y-80100000D02*
X142213604Y-80100000D01*
%TO.N,DIN*%
X138400000Y-72100000D02*
X137700000Y-71400000D01*
X137700000Y-71400000D02*
X124000000Y-71400000D01*
%TO.N,HSE_OUT*%
X107500000Y-73825000D02*
X110650500Y-76975500D01*
X113800000Y-78800000D02*
X115500000Y-77100000D01*
X110650500Y-76975500D02*
X111300000Y-76975500D01*
X115500000Y-77100000D02*
X115500000Y-77000000D01*
%TO.N,Button_Up*%
X132300000Y-103600000D02*
X132300000Y-83000000D01*
X134200000Y-109075000D02*
X132300000Y-107175000D01*
X132300000Y-107175000D02*
X132300000Y-103600000D01*
X132300000Y-83000000D02*
X130800000Y-81500000D01*
X120992893Y-75700000D02*
X116692893Y-71400000D01*
X116692893Y-71400000D02*
X115500000Y-71400000D01*
X134200000Y-109075000D02*
X134200000Y-104500000D01*
%TO.N,Button_Left*%
X134650000Y-92200000D02*
X133600000Y-92200000D01*
X136600000Y-94150000D02*
X134650000Y-92200000D01*
X116950000Y-82150000D02*
X116950000Y-78450000D01*
X119200000Y-84400000D02*
X116950000Y-82150000D01*
X138200000Y-109075000D02*
X138200000Y-104500000D01*
X136600000Y-107475000D02*
X136600000Y-94150000D01*
X138200000Y-109075000D02*
X136600000Y-107475000D01*
%TO.N,Button_Right*%
X126200000Y-109075000D02*
X122200000Y-105075000D01*
X117750000Y-81250000D02*
X117750000Y-78450000D01*
X126200000Y-109075000D02*
X126200000Y-104500000D01*
X122200000Y-105075000D02*
X122200000Y-85700000D01*
X122200000Y-85700000D02*
X117750000Y-81250000D01*
%TO.N,Button_Down*%
X118400000Y-74175000D02*
X116425000Y-72200000D01*
X130200000Y-109075000D02*
X130200000Y-104500000D01*
X116425000Y-72200000D02*
X115500000Y-72200000D01*
X130200000Y-109075000D02*
X127700000Y-106575000D01*
X118400000Y-76700000D02*
X118400000Y-74175000D01*
X127700000Y-106575000D02*
X127700000Y-86900000D01*
%TO.N,CLK*%
X134950000Y-72200000D02*
X124000000Y-72200000D01*
X145610000Y-75810000D02*
X138560000Y-75810000D01*
X145900000Y-76100000D02*
X145610000Y-75810000D01*
X138560000Y-75810000D02*
X134950000Y-72200000D01*
%TO.N,TX*%
X118550000Y-71050000D02*
X118550000Y-69950000D01*
X118100000Y-84900000D02*
X116800000Y-83600000D01*
X115800000Y-84565000D02*
X115800000Y-80400000D01*
X119550000Y-72050000D02*
X118550000Y-71050000D01*
X118100000Y-86865000D02*
X115800000Y-84565000D01*
X118100000Y-86865000D02*
X118100000Y-84900000D01*
%TO.N,RX*%
X113750000Y-88770000D02*
X112900000Y-88770000D01*
X114650000Y-87870000D02*
X113750000Y-88770000D01*
X118450000Y-72100000D02*
X117750000Y-71400000D01*
X114650000Y-81050000D02*
X114650000Y-87870000D01*
X117750000Y-71400000D02*
X117750000Y-69950000D01*
D35*
%TO.N,USB_Conn_D+*%
X119180000Y-92580000D02*
X118100000Y-92580000D01*
X116100000Y-97500000D02*
X110300000Y-97500000D01*
X116050000Y-97750000D02*
X116300000Y-97500000D01*
X116100000Y-97700000D02*
X116100000Y-97500000D01*
X114750000Y-104650000D02*
X115100000Y-104300000D01*
X116300000Y-97500000D02*
X116100000Y-97500000D01*
X114750000Y-106700000D02*
X114750000Y-104650000D01*
X116050000Y-97750000D02*
X116100000Y-97700000D01*
X115750000Y-104950000D02*
X115750000Y-106700000D01*
X119400000Y-92800000D02*
X119180000Y-92580000D01*
X115100000Y-104300000D02*
X115750000Y-104950000D01*
X119400000Y-94400000D02*
X119400000Y-92800000D01*
X116300000Y-97500000D02*
X119400000Y-94400000D01*
X115100000Y-98700000D02*
X116050000Y-97750000D01*
X115100000Y-104300000D02*
X115100000Y-98700000D01*
%TO.N,USB_Conn_D-*%
X115250000Y-106700000D02*
X115250000Y-108150000D01*
X119800000Y-94565685D02*
X119800000Y-92634314D01*
X115800000Y-108700000D02*
X116250000Y-108250000D01*
X119110686Y-91945000D02*
X118100000Y-91945000D01*
X115250000Y-108150000D02*
X115800000Y-108700000D01*
X116250000Y-108250000D02*
X116250000Y-106700000D01*
X115800000Y-108700000D02*
X116300000Y-109200000D01*
X115500000Y-98865686D02*
X119800000Y-94565685D01*
X115500000Y-102900000D02*
X115500000Y-98865686D01*
X119800000Y-92634314D02*
X119110686Y-91945000D01*
X116100000Y-103500000D02*
X115500000Y-102900000D01*
X116300000Y-109200000D02*
X116500000Y-109200000D01*
D33*
%TO.N,Net-(J4-CC1)*%
X114250000Y-106700000D02*
X114250000Y-101175000D01*
X114250000Y-101175000D02*
X113875000Y-100800000D01*
%TO.N,Net-(J4-CC2)*%
X117250000Y-101025000D02*
X117075000Y-100850000D01*
X117250000Y-106700000D02*
X117250000Y-101025000D01*
%TO.N,Net-(C7-Pad1)*%
X107500000Y-70500000D02*
X105600000Y-68600000D01*
X103700000Y-68600000D02*
X103125000Y-69175000D01*
X107500000Y-72175000D02*
X107500000Y-70500000D01*
X105600000Y-68600000D02*
X103700000Y-68600000D01*
X103125000Y-70000000D02*
X103125000Y-71775000D01*
X103125000Y-69175000D02*
X103125000Y-70000000D01*
X103125000Y-71775000D02*
X102750000Y-72150000D01*
%TO.N,Reset*%
X108000000Y-79900000D02*
X109100000Y-78800000D01*
X106500000Y-79900000D02*
X108000000Y-79900000D01*
%TO.N,RST_PROG*%
X102100000Y-84000000D02*
X102900000Y-84800000D01*
X119000000Y-66400000D02*
X119000000Y-67475000D01*
X119000000Y-67475000D02*
X118975000Y-67500000D01*
D32*
X119350000Y-69950000D02*
X119350000Y-67875000D01*
D33*
X102100000Y-80000000D02*
X102100000Y-84000000D01*
D32*
X119350000Y-67875000D02*
X118975000Y-67500000D01*
%TD*%
M02*
