%TF.GenerationSoftware,KiCad,Pcbnew,7.0.1*%
%TF.CreationDate,2023-07-17T15:28:08+02:00*%
%TF.ProjectId,Had_Konzole,4861645f-4b6f-46e7-9a6f-6c652e6b6963,rev?*%
%TF.SameCoordinates,Original*%
%TF.FileFunction,Copper,L3,Inr*%
%TF.FilePolarity,Positive*%
%FSLAX46Y46*%
G04 Gerber Fmt 4.6, Leading zero omitted, Abs format (unit mm)*
G04 Created by KiCad (PCBNEW 7.0.1) date 2023-07-17 15:28:08*
%MOMM*%
%LPD*%
G01*
G04 APERTURE LIST*
%TA.AperFunction,ComponentPad*%
%ADD10C,6.400000*%
%TD*%
%TA.AperFunction,ComponentPad*%
%ADD11C,1.000000*%
%TD*%
%TA.AperFunction,ComponentPad*%
%ADD12O,1.000000X1.800000*%
%TD*%
%TA.AperFunction,ComponentPad*%
%ADD13R,1.650000X1.650000*%
%TD*%
%TA.AperFunction,ComponentPad*%
%ADD14C,1.650000*%
%TD*%
%TA.AperFunction,ComponentPad*%
%ADD15R,1.800000X1.800000*%
%TD*%
%TA.AperFunction,ComponentPad*%
%ADD16C,1.800000*%
%TD*%
%TA.AperFunction,ViaPad*%
%ADD17C,0.800000*%
%TD*%
G04 APERTURE END LIST*
D10*
%TO.N,GND*%
%TO.C,H4*%
X145600000Y-108800000D03*
%TD*%
%TO.N,GND*%
%TO.C,H1*%
X100600000Y-62800000D03*
%TD*%
%TO.N,GND*%
%TO.C,H2*%
X145600000Y-62800000D03*
%TD*%
D11*
%TO.N,unconnected-(J4-SHIELD-PadS1)*%
%TO.C,J4*%
X111180000Y-111275000D03*
X119820000Y-111275000D03*
D12*
X111180000Y-107275000D03*
X119820000Y-107275000D03*
%TD*%
D10*
%TO.N,GND*%
%TO.C,H3*%
X100600000Y-108800000D03*
%TD*%
D13*
%TO.N,Reset*%
%TO.C,J2*%
X134400000Y-87840000D03*
D14*
%TO.N,MOSI*%
X134400000Y-85300000D03*
%TO.N,MISO*%
X134400000Y-82760000D03*
%TO.N,SCK*%
X134400000Y-80220000D03*
%TD*%
D15*
%TO.N,Net-(D1-K)*%
%TO.C,D1*%
X139125000Y-92525000D03*
D16*
%TO.N,+3V3*%
X139125000Y-95065000D03*
%TD*%
D17*
%TO.N,GND*%
X118750000Y-109000000D03*
X127700000Y-78350000D03*
X130250000Y-101700000D03*
X108350000Y-98500000D03*
X105900000Y-70000000D03*
X127700000Y-73550000D03*
X138250000Y-101700000D03*
X112600000Y-108500000D03*
X134300000Y-101700000D03*
X134850000Y-94250000D03*
X106000000Y-76250000D03*
X113000000Y-70200000D03*
X111500000Y-90050000D03*
X119900000Y-100800000D03*
X126150000Y-101700000D03*
X120500000Y-88500000D03*
X111100000Y-100800000D03*
X123900000Y-98150000D03*
X147950000Y-88150000D03*
X131100000Y-98150000D03*
%TO.N,3.3 Out*%
X100100000Y-93500000D03*
%TO.N,+3V3*%
X111750000Y-75950000D03*
X111800000Y-73050000D03*
X132200000Y-109100000D03*
X128200000Y-109100000D03*
X124200000Y-109100000D03*
X136200000Y-109150000D03*
X127700000Y-76700000D03*
X116150000Y-67500000D03*
X140400000Y-68100000D03*
X111550000Y-88100000D03*
X106250000Y-91000000D03*
X120600000Y-92450000D03*
%TO.N,+5V*%
X110900000Y-99300000D03*
%TO.N,SCK*%
X126500000Y-80200000D03*
%TO.N,MISO*%
X122600000Y-80600000D03*
%TO.N,MOSI*%
X121700000Y-81500000D03*
%TO.N,DTR*%
X108800000Y-88400000D03*
X111000000Y-86800000D03*
%TO.N,RST*%
X125500000Y-65000000D03*
X132100000Y-74400000D03*
%TO.N,DC*%
X130100000Y-73300000D03*
X126000000Y-67900000D03*
%TO.N,HSE_OUT*%
X111300000Y-76975500D03*
X113800000Y-78800000D03*
%TO.N,Button_Up*%
X120992893Y-75700000D03*
X130800000Y-81500000D03*
%TO.N,Button_Left*%
X133600000Y-92200000D03*
X119200000Y-84400000D03*
%TO.N,Button_Down*%
X127700000Y-86900000D03*
X118400000Y-76700000D03*
%TO.N,TX*%
X119550000Y-72050000D03*
X116800000Y-83600000D03*
X115800000Y-80400000D03*
%TO.N,RX*%
X114650000Y-81050000D03*
X118450000Y-72100000D03*
%TO.N,USB_Conn_D+*%
X110300000Y-97500000D03*
%TO.N,USB_Conn_D-*%
X116500000Y-109200000D03*
X116100000Y-103500000D03*
%TO.N,Reset*%
X106500000Y-79900000D03*
%TO.N,RST_PROG*%
X102100000Y-80000000D03*
X119000000Y-66400000D03*
%TD*%
%TA.AperFunction,Conductor*%
%TO.N,GND*%
G36*
X145602854Y-58800632D02*
G01*
X145618811Y-58801369D01*
X145773088Y-58808502D01*
X145969795Y-58818166D01*
X145980787Y-58819201D01*
X146162876Y-58844601D01*
X146163781Y-58844732D01*
X146347261Y-58871949D01*
X146357413Y-58873892D01*
X146538614Y-58916510D01*
X146540023Y-58916852D01*
X146717874Y-58961401D01*
X146727091Y-58964096D01*
X146904478Y-59023550D01*
X146906618Y-59024292D01*
X147078220Y-59085692D01*
X147086519Y-59089004D01*
X147257980Y-59164712D01*
X147260909Y-59166051D01*
X147347263Y-59206892D01*
X147425119Y-59243715D01*
X147432411Y-59247465D01*
X147529135Y-59301341D01*
X147596435Y-59338827D01*
X147599810Y-59340777D01*
X147755371Y-59434017D01*
X147761670Y-59438058D01*
X147916699Y-59544256D01*
X147920459Y-59546935D01*
X148066009Y-59654882D01*
X148071305Y-59659040D01*
X148216009Y-59779200D01*
X148219947Y-59782617D01*
X148354206Y-59904303D01*
X148358590Y-59908478D01*
X148491520Y-60041408D01*
X148495698Y-60045795D01*
X148617375Y-60180045D01*
X148620805Y-60183998D01*
X148740951Y-60328684D01*
X148745124Y-60334000D01*
X148767855Y-60364649D01*
X148853041Y-60479509D01*
X148855742Y-60483299D01*
X148961940Y-60638328D01*
X148965999Y-60644656D01*
X149059200Y-60800153D01*
X149061171Y-60803563D01*
X149152525Y-60967573D01*
X149156291Y-60974896D01*
X149233947Y-61139089D01*
X149235286Y-61142018D01*
X149310994Y-61313479D01*
X149314311Y-61321791D01*
X149375666Y-61493265D01*
X149376487Y-61495634D01*
X149435894Y-61672881D01*
X149438606Y-61682157D01*
X149483104Y-61859803D01*
X149483526Y-61861543D01*
X149526101Y-62042562D01*
X149528053Y-62052758D01*
X149555257Y-62236156D01*
X149555410Y-62237218D01*
X149580794Y-62419184D01*
X149581834Y-62430232D01*
X149591512Y-62627238D01*
X149591529Y-62627595D01*
X149599368Y-62797145D01*
X149599500Y-62802872D01*
X149599500Y-108797128D01*
X149599368Y-108802855D01*
X149591529Y-108972404D01*
X149591512Y-108972761D01*
X149581834Y-109169766D01*
X149580794Y-109180814D01*
X149555410Y-109362780D01*
X149555257Y-109363842D01*
X149528053Y-109547240D01*
X149526101Y-109557436D01*
X149483526Y-109738455D01*
X149483104Y-109740195D01*
X149438606Y-109917841D01*
X149435894Y-109927117D01*
X149376487Y-110104364D01*
X149375666Y-110106733D01*
X149314311Y-110278207D01*
X149310994Y-110286519D01*
X149235286Y-110457980D01*
X149233947Y-110460909D01*
X149156291Y-110625102D01*
X149152525Y-110632425D01*
X149061171Y-110796435D01*
X149059200Y-110799845D01*
X148965999Y-110955342D01*
X148961940Y-110961670D01*
X148855742Y-111116699D01*
X148853041Y-111120489D01*
X148745135Y-111265984D01*
X148740935Y-111271334D01*
X148620851Y-111415947D01*
X148617331Y-111420004D01*
X148495717Y-111554183D01*
X148491520Y-111558590D01*
X148358590Y-111691520D01*
X148354183Y-111695717D01*
X148220004Y-111817331D01*
X148215947Y-111820851D01*
X148071334Y-111940935D01*
X148065984Y-111945135D01*
X147920489Y-112053041D01*
X147916699Y-112055742D01*
X147761670Y-112161940D01*
X147755342Y-112165999D01*
X147599845Y-112259200D01*
X147596435Y-112261171D01*
X147432425Y-112352525D01*
X147425102Y-112356291D01*
X147260909Y-112433947D01*
X147257980Y-112435286D01*
X147086519Y-112510994D01*
X147078207Y-112514311D01*
X146906733Y-112575666D01*
X146904364Y-112576487D01*
X146727117Y-112635894D01*
X146717841Y-112638606D01*
X146540195Y-112683104D01*
X146538455Y-112683526D01*
X146357436Y-112726101D01*
X146347240Y-112728053D01*
X146163842Y-112755257D01*
X146162780Y-112755410D01*
X145980814Y-112780794D01*
X145969766Y-112781834D01*
X145772931Y-112791503D01*
X145772575Y-112791520D01*
X145607393Y-112799158D01*
X145602854Y-112799368D01*
X145597128Y-112799500D01*
X100700099Y-112799500D01*
X100602872Y-112799500D01*
X100597145Y-112799368D01*
X100592305Y-112799144D01*
X100427423Y-112791520D01*
X100427067Y-112791503D01*
X100230232Y-112781834D01*
X100219184Y-112780794D01*
X100037218Y-112755410D01*
X100036156Y-112755257D01*
X99852758Y-112728053D01*
X99842562Y-112726101D01*
X99661543Y-112683526D01*
X99659803Y-112683104D01*
X99482157Y-112638606D01*
X99472881Y-112635894D01*
X99295634Y-112576487D01*
X99293265Y-112575666D01*
X99121791Y-112514311D01*
X99113479Y-112510994D01*
X98942018Y-112435286D01*
X98939089Y-112433947D01*
X98774896Y-112356291D01*
X98767573Y-112352525D01*
X98603563Y-112261171D01*
X98600153Y-112259200D01*
X98475952Y-112184757D01*
X98444645Y-112165992D01*
X98438328Y-112161940D01*
X98283299Y-112055742D01*
X98279509Y-112053041D01*
X98134000Y-111945124D01*
X98128684Y-111940951D01*
X97983998Y-111820805D01*
X97980045Y-111817375D01*
X97845795Y-111695698D01*
X97841408Y-111691520D01*
X97738791Y-111588903D01*
X98164648Y-111588903D01*
X98164649Y-111588904D01*
X98422207Y-111797469D01*
X98747456Y-112008690D01*
X99093009Y-112184757D01*
X99455068Y-112323739D01*
X99829674Y-112424114D01*
X100212711Y-112484780D01*
X100600000Y-112505077D01*
X100987288Y-112484780D01*
X101370325Y-112424114D01*
X101744931Y-112323739D01*
X102106990Y-112184757D01*
X102452543Y-112008690D01*
X102777786Y-111797473D01*
X103035349Y-111588902D01*
X102721446Y-111274999D01*
X110174659Y-111274999D01*
X110193976Y-111471133D01*
X110251185Y-111659726D01*
X110324811Y-111797469D01*
X110344090Y-111833538D01*
X110469117Y-111985883D01*
X110621462Y-112110910D01*
X110795273Y-112203814D01*
X110983868Y-112261024D01*
X111180000Y-112280341D01*
X111376132Y-112261024D01*
X111564727Y-112203814D01*
X111738538Y-112110910D01*
X111890883Y-111985883D01*
X112015910Y-111833538D01*
X112108814Y-111659727D01*
X112166024Y-111471132D01*
X112185341Y-111275000D01*
X112185341Y-111274999D01*
X118814659Y-111274999D01*
X118833976Y-111471133D01*
X118891185Y-111659726D01*
X118964811Y-111797469D01*
X118984090Y-111833538D01*
X119109117Y-111985883D01*
X119261462Y-112110910D01*
X119435273Y-112203814D01*
X119623868Y-112261024D01*
X119820000Y-112280341D01*
X120016132Y-112261024D01*
X120204727Y-112203814D01*
X120378538Y-112110910D01*
X120530883Y-111985883D01*
X120655910Y-111833538D01*
X120748814Y-111659727D01*
X120770298Y-111588903D01*
X143164648Y-111588903D01*
X143164649Y-111588904D01*
X143422207Y-111797469D01*
X143747456Y-112008690D01*
X144093009Y-112184757D01*
X144455068Y-112323739D01*
X144829674Y-112424114D01*
X145212711Y-112484780D01*
X145600000Y-112505077D01*
X145987288Y-112484780D01*
X146370325Y-112424114D01*
X146744931Y-112323739D01*
X147106990Y-112184757D01*
X147452543Y-112008690D01*
X147777786Y-111797473D01*
X148035349Y-111588902D01*
X145600000Y-109153553D01*
X143164648Y-111588903D01*
X120770298Y-111588903D01*
X120806024Y-111471132D01*
X120825341Y-111275000D01*
X120806024Y-111078868D01*
X120748814Y-110890273D01*
X120655910Y-110716462D01*
X120530883Y-110564117D01*
X120378538Y-110439090D01*
X120338356Y-110417612D01*
X120204726Y-110346185D01*
X120016133Y-110288976D01*
X119820000Y-110269659D01*
X119623866Y-110288976D01*
X119435273Y-110346185D01*
X119261463Y-110439089D01*
X119109117Y-110564117D01*
X118984089Y-110716463D01*
X118891185Y-110890273D01*
X118833976Y-111078866D01*
X118814659Y-111274999D01*
X112185341Y-111274999D01*
X112166024Y-111078868D01*
X112108814Y-110890273D01*
X112015910Y-110716462D01*
X111890883Y-110564117D01*
X111738538Y-110439090D01*
X111698356Y-110417612D01*
X111564726Y-110346185D01*
X111376133Y-110288976D01*
X111180000Y-110269659D01*
X110983866Y-110288976D01*
X110795273Y-110346185D01*
X110621463Y-110439089D01*
X110469117Y-110564117D01*
X110344089Y-110716463D01*
X110251185Y-110890273D01*
X110193976Y-111078866D01*
X110174659Y-111274999D01*
X102721446Y-111274999D01*
X100600000Y-109153553D01*
X98164648Y-111588903D01*
X97738791Y-111588903D01*
X97708478Y-111558590D01*
X97704303Y-111554206D01*
X97582617Y-111419947D01*
X97579200Y-111416009D01*
X97459040Y-111271305D01*
X97454882Y-111266009D01*
X97346935Y-111120459D01*
X97344256Y-111116699D01*
X97238058Y-110961670D01*
X97234017Y-110955371D01*
X97140777Y-110799810D01*
X97138827Y-110796435D01*
X97112261Y-110748740D01*
X97047465Y-110632411D01*
X97043715Y-110625119D01*
X97006892Y-110547263D01*
X96966051Y-110460909D01*
X96964712Y-110457980D01*
X96889004Y-110286519D01*
X96885692Y-110278220D01*
X96824292Y-110106618D01*
X96823550Y-110104478D01*
X96764096Y-109927091D01*
X96761401Y-109917874D01*
X96716852Y-109740023D01*
X96716510Y-109738614D01*
X96673892Y-109557413D01*
X96671949Y-109547261D01*
X96644732Y-109363781D01*
X96644588Y-109362780D01*
X96619201Y-109180787D01*
X96618166Y-109169795D01*
X96608480Y-108972611D01*
X96600632Y-108802854D01*
X96600566Y-108800000D01*
X96894922Y-108800000D01*
X96915219Y-109187288D01*
X96975885Y-109570325D01*
X97076260Y-109944931D01*
X97215242Y-110306990D01*
X97391309Y-110652543D01*
X97602530Y-110977792D01*
X97811095Y-111235350D01*
X97811096Y-111235350D01*
X100246447Y-108800000D01*
X100953553Y-108800000D01*
X103388902Y-111235349D01*
X103597473Y-110977786D01*
X103808690Y-110652543D01*
X103984757Y-110306990D01*
X104123739Y-109944931D01*
X104224114Y-109570325D01*
X104282767Y-109200000D01*
X115594540Y-109200000D01*
X115614326Y-109388257D01*
X115672820Y-109568284D01*
X115767466Y-109732216D01*
X115894129Y-109872889D01*
X116047269Y-109984151D01*
X116220197Y-110061144D01*
X116405352Y-110100500D01*
X116405354Y-110100500D01*
X116594646Y-110100500D01*
X116594648Y-110100500D01*
X116718084Y-110074262D01*
X116779803Y-110061144D01*
X116952730Y-109984151D01*
X117006712Y-109944931D01*
X117105870Y-109872889D01*
X117232533Y-109732216D01*
X117327179Y-109568284D01*
X117359671Y-109468284D01*
X117385674Y-109388256D01*
X117405460Y-109200000D01*
X117394950Y-109100000D01*
X123294540Y-109100000D01*
X123314326Y-109288257D01*
X123372820Y-109468284D01*
X123467466Y-109632216D01*
X123594129Y-109772889D01*
X123747269Y-109884151D01*
X123920197Y-109961144D01*
X124105352Y-110000500D01*
X124105354Y-110000500D01*
X124294646Y-110000500D01*
X124294648Y-110000500D01*
X124418084Y-109974262D01*
X124479803Y-109961144D01*
X124652730Y-109884151D01*
X124805871Y-109772888D01*
X124932533Y-109632216D01*
X125027179Y-109468284D01*
X125085674Y-109288256D01*
X125105460Y-109100000D01*
X127294540Y-109100000D01*
X127314326Y-109288257D01*
X127372820Y-109468284D01*
X127467466Y-109632216D01*
X127594129Y-109772889D01*
X127747269Y-109884151D01*
X127920197Y-109961144D01*
X128105352Y-110000500D01*
X128105354Y-110000500D01*
X128294646Y-110000500D01*
X128294648Y-110000500D01*
X128418084Y-109974262D01*
X128479803Y-109961144D01*
X128652730Y-109884151D01*
X128805871Y-109772888D01*
X128932533Y-109632216D01*
X129027179Y-109468284D01*
X129085674Y-109288256D01*
X129105460Y-109100000D01*
X131294540Y-109100000D01*
X131314326Y-109288257D01*
X131372820Y-109468284D01*
X131467466Y-109632216D01*
X131594129Y-109772889D01*
X131747269Y-109884151D01*
X131920197Y-109961144D01*
X132105352Y-110000500D01*
X132105354Y-110000500D01*
X132294646Y-110000500D01*
X132294648Y-110000500D01*
X132418084Y-109974262D01*
X132479803Y-109961144D01*
X132652730Y-109884151D01*
X132805871Y-109772888D01*
X132932533Y-109632216D01*
X133027179Y-109468284D01*
X133085674Y-109288256D01*
X133100205Y-109150000D01*
X135294540Y-109150000D01*
X135314326Y-109338257D01*
X135372820Y-109518284D01*
X135467466Y-109682216D01*
X135594129Y-109822889D01*
X135747269Y-109934151D01*
X135920197Y-110011144D01*
X136105352Y-110050500D01*
X136105354Y-110050500D01*
X136294646Y-110050500D01*
X136294648Y-110050500D01*
X136418083Y-110024262D01*
X136479803Y-110011144D01*
X136652730Y-109934151D01*
X136662412Y-109927117D01*
X136805870Y-109822889D01*
X136932533Y-109682216D01*
X137027179Y-109518284D01*
X137043425Y-109468284D01*
X137085674Y-109338256D01*
X137105460Y-109150000D01*
X137085674Y-108961744D01*
X137033120Y-108800000D01*
X141894922Y-108800000D01*
X141915219Y-109187288D01*
X141975885Y-109570325D01*
X142076260Y-109944931D01*
X142215242Y-110306990D01*
X142391309Y-110652543D01*
X142602530Y-110977792D01*
X142811095Y-111235350D01*
X142811096Y-111235350D01*
X145246447Y-108800000D01*
X145953553Y-108800000D01*
X148388902Y-111235349D01*
X148597473Y-110977786D01*
X148808690Y-110652543D01*
X148984757Y-110306990D01*
X149123739Y-109944931D01*
X149224114Y-109570325D01*
X149284780Y-109187288D01*
X149305077Y-108800000D01*
X149284780Y-108412711D01*
X149224114Y-108029674D01*
X149123739Y-107655068D01*
X148984757Y-107293009D01*
X148808690Y-106947456D01*
X148597469Y-106622207D01*
X148388904Y-106364649D01*
X148388903Y-106364648D01*
X145953553Y-108800000D01*
X145246447Y-108800000D01*
X142811096Y-106364648D01*
X142602526Y-106622214D01*
X142391309Y-106947456D01*
X142215242Y-107293009D01*
X142076260Y-107655068D01*
X141975885Y-108029674D01*
X141915219Y-108412711D01*
X141894922Y-108800000D01*
X137033120Y-108800000D01*
X137027179Y-108781715D01*
X136932533Y-108617783D01*
X136805870Y-108477110D01*
X136652730Y-108365848D01*
X136479802Y-108288855D01*
X136294648Y-108249500D01*
X136294646Y-108249500D01*
X136105354Y-108249500D01*
X136105352Y-108249500D01*
X135920197Y-108288855D01*
X135747269Y-108365848D01*
X135594129Y-108477110D01*
X135467466Y-108617783D01*
X135372820Y-108781715D01*
X135314326Y-108961742D01*
X135294540Y-109150000D01*
X133100205Y-109150000D01*
X133105460Y-109100000D01*
X133085674Y-108911744D01*
X133049366Y-108800000D01*
X133027179Y-108731715D01*
X132932533Y-108567783D01*
X132805870Y-108427110D01*
X132652730Y-108315848D01*
X132479802Y-108238855D01*
X132294648Y-108199500D01*
X132294646Y-108199500D01*
X132105354Y-108199500D01*
X132105352Y-108199500D01*
X131920197Y-108238855D01*
X131747269Y-108315848D01*
X131594129Y-108427110D01*
X131467466Y-108567783D01*
X131372820Y-108731715D01*
X131314326Y-108911742D01*
X131294540Y-109100000D01*
X129105460Y-109100000D01*
X129085674Y-108911744D01*
X129049366Y-108800000D01*
X129027179Y-108731715D01*
X128932533Y-108567783D01*
X128805870Y-108427110D01*
X128652730Y-108315848D01*
X128479802Y-108238855D01*
X128294648Y-108199500D01*
X128294646Y-108199500D01*
X128105354Y-108199500D01*
X128105352Y-108199500D01*
X127920197Y-108238855D01*
X127747269Y-108315848D01*
X127594129Y-108427110D01*
X127467466Y-108567783D01*
X127372820Y-108731715D01*
X127314326Y-108911742D01*
X127294540Y-109100000D01*
X125105460Y-109100000D01*
X125085674Y-108911744D01*
X125049366Y-108800000D01*
X125027179Y-108731715D01*
X124932533Y-108567783D01*
X124805870Y-108427110D01*
X124652730Y-108315848D01*
X124479802Y-108238855D01*
X124294648Y-108199500D01*
X124294646Y-108199500D01*
X124105354Y-108199500D01*
X124105352Y-108199500D01*
X123920197Y-108238855D01*
X123747269Y-108315848D01*
X123594129Y-108427110D01*
X123467466Y-108567783D01*
X123372820Y-108731715D01*
X123314326Y-108911742D01*
X123294540Y-109100000D01*
X117394950Y-109100000D01*
X117385674Y-109011744D01*
X117327179Y-108831716D01*
X117327179Y-108831715D01*
X117232533Y-108667783D01*
X117105870Y-108527110D01*
X116952730Y-108415848D01*
X116779802Y-108338855D01*
X116594648Y-108299500D01*
X116594646Y-108299500D01*
X116405354Y-108299500D01*
X116405352Y-108299500D01*
X116220197Y-108338855D01*
X116047269Y-108415848D01*
X115894129Y-108527110D01*
X115767466Y-108667783D01*
X115672820Y-108831715D01*
X115614326Y-109011742D01*
X115594540Y-109200000D01*
X104282767Y-109200000D01*
X104284780Y-109187288D01*
X104305077Y-108800000D01*
X104284780Y-108412711D01*
X104224114Y-108029674D01*
X104142675Y-107725740D01*
X110179500Y-107725740D01*
X110194926Y-107877440D01*
X110225868Y-107976058D01*
X110255841Y-108071588D01*
X110354591Y-108249502D01*
X110487134Y-108403895D01*
X110648042Y-108528448D01*
X110830729Y-108618060D01*
X111027715Y-108669063D01*
X111230936Y-108679369D01*
X111230936Y-108679368D01*
X111230937Y-108679369D01*
X111432071Y-108648556D01*
X111514413Y-108618060D01*
X111622887Y-108577886D01*
X111795571Y-108470252D01*
X111943053Y-108330059D01*
X112059295Y-108163049D01*
X112139540Y-107976058D01*
X112180500Y-107776741D01*
X112180500Y-107725740D01*
X118819500Y-107725740D01*
X118834926Y-107877440D01*
X118865868Y-107976058D01*
X118895841Y-108071588D01*
X118994591Y-108249502D01*
X119127134Y-108403895D01*
X119288042Y-108528448D01*
X119470729Y-108618060D01*
X119667715Y-108669063D01*
X119870936Y-108679369D01*
X119870936Y-108679368D01*
X119870937Y-108679369D01*
X120072071Y-108648556D01*
X120154413Y-108618060D01*
X120262887Y-108577886D01*
X120435571Y-108470252D01*
X120583053Y-108330059D01*
X120699295Y-108163049D01*
X120779540Y-107976058D01*
X120820500Y-107776741D01*
X120820500Y-106824258D01*
X120805074Y-106672562D01*
X120744159Y-106478412D01*
X120645409Y-106300498D01*
X120512866Y-106146105D01*
X120351958Y-106021552D01*
X120351957Y-106021551D01*
X120330643Y-106011096D01*
X143164648Y-106011096D01*
X145600000Y-108446447D01*
X145600001Y-108446447D01*
X148035350Y-106011096D01*
X148035350Y-106011095D01*
X147777792Y-105802530D01*
X147452543Y-105591309D01*
X147106990Y-105415242D01*
X146744931Y-105276260D01*
X146370325Y-105175885D01*
X145987288Y-105115219D01*
X145600000Y-105094922D01*
X145212711Y-105115219D01*
X144829674Y-105175885D01*
X144455068Y-105276260D01*
X144093009Y-105415242D01*
X143747456Y-105591309D01*
X143422214Y-105802526D01*
X143164648Y-106011096D01*
X120330643Y-106011096D01*
X120169272Y-105931940D01*
X120103608Y-105914938D01*
X119972285Y-105880937D01*
X119951670Y-105879891D01*
X119769062Y-105870630D01*
X119567928Y-105901443D01*
X119377113Y-105972113D01*
X119204431Y-106079745D01*
X119134623Y-106146104D01*
X119056947Y-106219941D01*
X119056946Y-106219943D01*
X118940705Y-106386950D01*
X118901455Y-106478412D01*
X118860460Y-106573942D01*
X118840194Y-106672562D01*
X118819500Y-106773261D01*
X118819500Y-107725740D01*
X112180500Y-107725740D01*
X112180500Y-106824258D01*
X112165074Y-106672562D01*
X112104159Y-106478412D01*
X112005409Y-106300498D01*
X111872866Y-106146105D01*
X111711958Y-106021552D01*
X111711957Y-106021551D01*
X111529272Y-105931940D01*
X111463608Y-105914938D01*
X111332285Y-105880937D01*
X111311670Y-105879891D01*
X111129062Y-105870630D01*
X110927928Y-105901443D01*
X110737113Y-105972113D01*
X110564431Y-106079745D01*
X110494623Y-106146104D01*
X110416947Y-106219941D01*
X110416946Y-106219943D01*
X110300705Y-106386950D01*
X110261455Y-106478412D01*
X110220460Y-106573942D01*
X110200194Y-106672562D01*
X110179500Y-106773261D01*
X110179500Y-107725740D01*
X104142675Y-107725740D01*
X104123739Y-107655068D01*
X103984757Y-107293009D01*
X103808690Y-106947456D01*
X103597469Y-106622207D01*
X103388904Y-106364649D01*
X103388903Y-106364648D01*
X100953553Y-108800000D01*
X100246447Y-108800000D01*
X97811096Y-106364648D01*
X97602526Y-106622214D01*
X97391309Y-106947456D01*
X97215242Y-107293009D01*
X97076260Y-107655068D01*
X96975885Y-108029674D01*
X96915219Y-108412711D01*
X96894922Y-108800000D01*
X96600566Y-108800000D01*
X96600500Y-108797128D01*
X96600500Y-106011096D01*
X98164648Y-106011096D01*
X100600000Y-108446447D01*
X100600001Y-108446447D01*
X103035350Y-106011096D01*
X103035350Y-106011095D01*
X102777792Y-105802530D01*
X102452543Y-105591309D01*
X102106990Y-105415242D01*
X101744931Y-105276260D01*
X101370325Y-105175885D01*
X100987288Y-105115219D01*
X100600000Y-105094922D01*
X100212711Y-105115219D01*
X99829674Y-105175885D01*
X99455068Y-105276260D01*
X99093009Y-105415242D01*
X98747456Y-105591309D01*
X98422214Y-105802526D01*
X98164648Y-106011096D01*
X96600500Y-106011096D01*
X96600500Y-103500000D01*
X115194540Y-103500000D01*
X115214326Y-103688257D01*
X115272820Y-103868284D01*
X115367466Y-104032216D01*
X115494129Y-104172889D01*
X115647269Y-104284151D01*
X115820197Y-104361144D01*
X116005352Y-104400500D01*
X116005354Y-104400500D01*
X116194646Y-104400500D01*
X116194648Y-104400500D01*
X116318084Y-104374262D01*
X116379803Y-104361144D01*
X116552730Y-104284151D01*
X116705871Y-104172888D01*
X116832533Y-104032216D01*
X116927179Y-103868284D01*
X116985674Y-103688256D01*
X117005460Y-103500000D01*
X116985674Y-103311744D01*
X116927179Y-103131716D01*
X116927179Y-103131715D01*
X116832533Y-102967783D01*
X116705870Y-102827110D01*
X116552730Y-102715848D01*
X116379802Y-102638855D01*
X116194648Y-102599500D01*
X116194646Y-102599500D01*
X116005354Y-102599500D01*
X116005352Y-102599500D01*
X115820197Y-102638855D01*
X115647269Y-102715848D01*
X115494129Y-102827110D01*
X115367466Y-102967783D01*
X115272820Y-103131715D01*
X115214326Y-103311742D01*
X115194540Y-103500000D01*
X96600500Y-103500000D01*
X96600500Y-97500000D01*
X109394540Y-97500000D01*
X109414326Y-97688257D01*
X109472820Y-97868284D01*
X109567466Y-98032216D01*
X109694129Y-98172889D01*
X109847269Y-98284151D01*
X110020197Y-98361144D01*
X110205352Y-98400500D01*
X110224401Y-98400500D01*
X110284139Y-98415838D01*
X110329098Y-98458058D01*
X110348156Y-98516715D01*
X110336599Y-98577298D01*
X110297285Y-98624819D01*
X110294128Y-98627112D01*
X110167466Y-98767783D01*
X110072820Y-98931715D01*
X110014326Y-99111742D01*
X109994540Y-99300000D01*
X110014326Y-99488257D01*
X110072820Y-99668284D01*
X110167466Y-99832216D01*
X110294129Y-99972889D01*
X110447269Y-100084151D01*
X110620197Y-100161144D01*
X110805352Y-100200500D01*
X110805354Y-100200500D01*
X110994646Y-100200500D01*
X110994648Y-100200500D01*
X111118083Y-100174262D01*
X111179803Y-100161144D01*
X111352730Y-100084151D01*
X111505871Y-99972888D01*
X111632533Y-99832216D01*
X111727179Y-99668284D01*
X111785674Y-99488256D01*
X111805460Y-99300000D01*
X111785674Y-99111744D01*
X111727179Y-98931716D01*
X111727179Y-98931715D01*
X111632533Y-98767783D01*
X111505870Y-98627110D01*
X111352730Y-98515848D01*
X111179802Y-98438855D01*
X110994648Y-98399500D01*
X110994646Y-98399500D01*
X110975599Y-98399500D01*
X110915861Y-98384162D01*
X110870902Y-98341942D01*
X110851844Y-98283285D01*
X110863401Y-98222702D01*
X110902715Y-98175181D01*
X110902839Y-98175090D01*
X110905871Y-98172888D01*
X111032533Y-98032216D01*
X111127179Y-97868284D01*
X111185674Y-97688256D01*
X111205460Y-97500000D01*
X111185674Y-97311744D01*
X111127179Y-97131716D01*
X111127179Y-97131715D01*
X111032533Y-96967783D01*
X110905870Y-96827110D01*
X110752730Y-96715848D01*
X110579802Y-96638855D01*
X110394648Y-96599500D01*
X110394646Y-96599500D01*
X110205354Y-96599500D01*
X110205352Y-96599500D01*
X110020197Y-96638855D01*
X109847269Y-96715848D01*
X109694129Y-96827110D01*
X109567466Y-96967783D01*
X109472820Y-97131715D01*
X109414326Y-97311742D01*
X109394540Y-97500000D01*
X96600500Y-97500000D01*
X96600500Y-95065000D01*
X137719699Y-95065000D01*
X137738865Y-95296299D01*
X137738865Y-95296301D01*
X137738866Y-95296305D01*
X137795843Y-95521300D01*
X137889076Y-95733849D01*
X138016021Y-95928153D01*
X138173216Y-96098913D01*
X138356374Y-96241470D01*
X138560497Y-96351936D01*
X138670257Y-96389616D01*
X138780015Y-96427297D01*
X138780017Y-96427297D01*
X138780019Y-96427298D01*
X139008951Y-96465500D01*
X139241048Y-96465500D01*
X139241049Y-96465500D01*
X139469981Y-96427298D01*
X139689503Y-96351936D01*
X139893626Y-96241470D01*
X140076784Y-96098913D01*
X140233979Y-95928153D01*
X140360924Y-95733849D01*
X140454157Y-95521300D01*
X140511134Y-95296305D01*
X140530300Y-95065000D01*
X140511134Y-94833695D01*
X140454157Y-94608700D01*
X140360924Y-94396151D01*
X140233979Y-94201847D01*
X140139195Y-94098884D01*
X140110424Y-94046134D01*
X140109831Y-93986047D01*
X140137558Y-93932737D01*
X140187092Y-93898722D01*
X140267331Y-93868796D01*
X140382546Y-93782546D01*
X140468796Y-93667331D01*
X140519091Y-93532483D01*
X140525500Y-93472873D01*
X140525499Y-91577128D01*
X140519091Y-91517517D01*
X140468796Y-91382669D01*
X140382546Y-91267454D01*
X140267331Y-91181204D01*
X140132483Y-91130909D01*
X140072873Y-91124500D01*
X140072869Y-91124500D01*
X138177130Y-91124500D01*
X138117515Y-91130909D01*
X137982669Y-91181204D01*
X137867454Y-91267454D01*
X137781204Y-91382668D01*
X137730909Y-91517516D01*
X137724500Y-91577130D01*
X137724500Y-93472869D01*
X137727417Y-93499999D01*
X137730909Y-93532483D01*
X137781204Y-93667331D01*
X137867454Y-93782546D01*
X137982669Y-93868796D01*
X138062905Y-93898722D01*
X138112441Y-93932737D01*
X138140168Y-93986047D01*
X138139575Y-94046134D01*
X138110802Y-94098887D01*
X138016020Y-94201848D01*
X137889076Y-94396150D01*
X137795844Y-94608696D01*
X137738865Y-94833700D01*
X137719699Y-95065000D01*
X96600500Y-95065000D01*
X96600500Y-93499999D01*
X99194540Y-93499999D01*
X99214326Y-93688257D01*
X99272820Y-93868284D01*
X99367466Y-94032216D01*
X99494129Y-94172889D01*
X99647269Y-94284151D01*
X99820197Y-94361144D01*
X100005352Y-94400500D01*
X100005354Y-94400500D01*
X100194646Y-94400500D01*
X100194648Y-94400500D01*
X100318083Y-94374262D01*
X100379803Y-94361144D01*
X100552730Y-94284151D01*
X100705871Y-94172888D01*
X100832533Y-94032216D01*
X100927179Y-93868284D01*
X100985674Y-93688256D01*
X101005460Y-93500000D01*
X100985674Y-93311744D01*
X100927179Y-93131716D01*
X100927179Y-93131715D01*
X100832533Y-92967783D01*
X100705870Y-92827110D01*
X100552730Y-92715848D01*
X100379802Y-92638855D01*
X100194648Y-92599500D01*
X100194646Y-92599500D01*
X100005354Y-92599500D01*
X100005352Y-92599500D01*
X99820197Y-92638855D01*
X99647269Y-92715848D01*
X99494129Y-92827110D01*
X99367466Y-92967783D01*
X99272820Y-93131715D01*
X99214326Y-93311742D01*
X99194540Y-93499999D01*
X96600500Y-93499999D01*
X96600500Y-92449999D01*
X119694540Y-92449999D01*
X119714326Y-92638257D01*
X119772820Y-92818284D01*
X119867466Y-92982216D01*
X119994129Y-93122889D01*
X120147269Y-93234151D01*
X120320197Y-93311144D01*
X120505352Y-93350500D01*
X120505354Y-93350500D01*
X120694646Y-93350500D01*
X120694648Y-93350500D01*
X120818084Y-93324262D01*
X120879803Y-93311144D01*
X121052730Y-93234151D01*
X121052729Y-93234151D01*
X121205870Y-93122889D01*
X121332533Y-92982216D01*
X121427179Y-92818284D01*
X121460462Y-92715849D01*
X121485674Y-92638256D01*
X121505460Y-92450000D01*
X121485674Y-92261744D01*
X121465612Y-92199999D01*
X132694540Y-92199999D01*
X132714326Y-92388257D01*
X132772820Y-92568284D01*
X132867466Y-92732216D01*
X132994129Y-92872889D01*
X133147269Y-92984151D01*
X133320197Y-93061144D01*
X133505352Y-93100500D01*
X133505354Y-93100500D01*
X133694646Y-93100500D01*
X133694648Y-93100500D01*
X133818083Y-93074262D01*
X133879803Y-93061144D01*
X134052730Y-92984151D01*
X134205871Y-92872888D01*
X134332533Y-92732216D01*
X134427179Y-92568284D01*
X134485674Y-92388256D01*
X134505460Y-92200000D01*
X134485674Y-92011744D01*
X134427179Y-91831716D01*
X134427179Y-91831715D01*
X134332533Y-91667783D01*
X134205870Y-91527110D01*
X134052730Y-91415848D01*
X133879802Y-91338855D01*
X133694648Y-91299500D01*
X133694646Y-91299500D01*
X133505354Y-91299500D01*
X133505352Y-91299500D01*
X133320197Y-91338855D01*
X133147269Y-91415848D01*
X132994129Y-91527110D01*
X132867466Y-91667783D01*
X132772820Y-91831715D01*
X132714326Y-92011742D01*
X132694540Y-92199999D01*
X121465612Y-92199999D01*
X121427179Y-92081716D01*
X121427179Y-92081715D01*
X121332533Y-91917783D01*
X121205870Y-91777110D01*
X121052730Y-91665848D01*
X120879802Y-91588855D01*
X120694648Y-91549500D01*
X120694646Y-91549500D01*
X120505354Y-91549500D01*
X120505352Y-91549500D01*
X120320197Y-91588855D01*
X120147269Y-91665848D01*
X119994129Y-91777110D01*
X119867466Y-91917783D01*
X119772820Y-92081715D01*
X119714326Y-92261742D01*
X119694540Y-92449999D01*
X96600500Y-92449999D01*
X96600500Y-91000000D01*
X105344540Y-91000000D01*
X105364326Y-91188257D01*
X105422820Y-91368284D01*
X105517466Y-91532216D01*
X105644129Y-91672889D01*
X105797269Y-91784151D01*
X105970197Y-91861144D01*
X106155352Y-91900500D01*
X106155354Y-91900500D01*
X106344646Y-91900500D01*
X106344648Y-91900500D01*
X106468084Y-91874262D01*
X106529803Y-91861144D01*
X106702730Y-91784151D01*
X106855871Y-91672888D01*
X106982533Y-91532216D01*
X107077179Y-91368284D01*
X107135674Y-91188256D01*
X107155460Y-91000000D01*
X107135674Y-90811744D01*
X107077179Y-90631716D01*
X107077179Y-90631715D01*
X106982533Y-90467783D01*
X106855870Y-90327110D01*
X106702730Y-90215848D01*
X106529802Y-90138855D01*
X106344648Y-90099500D01*
X106344646Y-90099500D01*
X106155354Y-90099500D01*
X106155352Y-90099500D01*
X105970197Y-90138855D01*
X105797269Y-90215848D01*
X105644129Y-90327110D01*
X105517466Y-90467783D01*
X105422820Y-90631715D01*
X105364326Y-90811742D01*
X105344540Y-91000000D01*
X96600500Y-91000000D01*
X96600500Y-88400000D01*
X107894540Y-88400000D01*
X107914326Y-88588257D01*
X107972820Y-88768284D01*
X108067466Y-88932216D01*
X108194129Y-89072889D01*
X108347269Y-89184151D01*
X108520197Y-89261144D01*
X108705352Y-89300500D01*
X108705354Y-89300500D01*
X108894646Y-89300500D01*
X108894648Y-89300500D01*
X109018083Y-89274262D01*
X109079803Y-89261144D01*
X109252730Y-89184151D01*
X109405871Y-89072888D01*
X109532533Y-88932216D01*
X109627179Y-88768284D01*
X109685674Y-88588256D01*
X109705460Y-88400000D01*
X109685674Y-88211744D01*
X109627179Y-88031716D01*
X109627179Y-88031715D01*
X109532533Y-87867783D01*
X109405870Y-87727110D01*
X109252730Y-87615848D01*
X109079802Y-87538855D01*
X108894648Y-87499500D01*
X108894646Y-87499500D01*
X108705354Y-87499500D01*
X108705352Y-87499500D01*
X108520197Y-87538855D01*
X108347269Y-87615848D01*
X108194129Y-87727110D01*
X108067466Y-87867783D01*
X107972820Y-88031715D01*
X107914326Y-88211742D01*
X107894540Y-88400000D01*
X96600500Y-88400000D01*
X96600500Y-86800000D01*
X110094540Y-86800000D01*
X110114326Y-86988257D01*
X110172820Y-87168284D01*
X110267466Y-87332216D01*
X110394129Y-87472889D01*
X110547267Y-87584150D01*
X110588857Y-87602666D01*
X110640524Y-87625670D01*
X110687801Y-87662608D01*
X110712204Y-87717417D01*
X110708019Y-87777267D01*
X110664326Y-87911740D01*
X110644540Y-88100000D01*
X110664326Y-88288257D01*
X110722820Y-88468284D01*
X110817466Y-88632216D01*
X110944129Y-88772889D01*
X111097269Y-88884151D01*
X111270197Y-88961144D01*
X111455352Y-89000500D01*
X111455354Y-89000500D01*
X111644646Y-89000500D01*
X111644648Y-89000500D01*
X111768083Y-88974262D01*
X111829803Y-88961144D01*
X112002730Y-88884151D01*
X112155871Y-88772888D01*
X112282533Y-88632216D01*
X112377179Y-88468284D01*
X112435674Y-88288256D01*
X112455460Y-88100000D01*
X112435674Y-87911744D01*
X112377179Y-87731716D01*
X112377179Y-87731715D01*
X112282533Y-87567783D01*
X112155870Y-87427110D01*
X112002732Y-87315849D01*
X111933412Y-87284986D01*
X111909474Y-87274328D01*
X111862197Y-87237391D01*
X111837794Y-87182581D01*
X111841978Y-87122735D01*
X111885674Y-86988256D01*
X111894950Y-86899999D01*
X126794540Y-86899999D01*
X126814326Y-87088257D01*
X126872820Y-87268284D01*
X126967466Y-87432216D01*
X127094129Y-87572889D01*
X127247269Y-87684151D01*
X127420197Y-87761144D01*
X127605352Y-87800500D01*
X127605354Y-87800500D01*
X127794646Y-87800500D01*
X127794648Y-87800500D01*
X127918083Y-87774262D01*
X127979803Y-87761144D01*
X128152730Y-87684151D01*
X128246740Y-87615849D01*
X128305870Y-87572889D01*
X128310468Y-87567783D01*
X128432533Y-87432216D01*
X128527179Y-87268284D01*
X128585674Y-87088256D01*
X128605460Y-86900000D01*
X128585674Y-86711744D01*
X128527179Y-86531716D01*
X128527179Y-86531715D01*
X128432533Y-86367783D01*
X128305870Y-86227110D01*
X128152730Y-86115848D01*
X127979802Y-86038855D01*
X127794648Y-85999500D01*
X127794646Y-85999500D01*
X127605354Y-85999500D01*
X127605352Y-85999500D01*
X127420197Y-86038855D01*
X127247269Y-86115848D01*
X127094129Y-86227110D01*
X126967466Y-86367783D01*
X126872820Y-86531715D01*
X126814326Y-86711742D01*
X126794540Y-86899999D01*
X111894950Y-86899999D01*
X111905460Y-86800000D01*
X111885674Y-86611744D01*
X111829710Y-86439505D01*
X111827179Y-86431715D01*
X111732533Y-86267783D01*
X111605870Y-86127110D01*
X111452730Y-86015848D01*
X111279802Y-85938855D01*
X111094648Y-85899500D01*
X111094646Y-85899500D01*
X110905354Y-85899500D01*
X110905352Y-85899500D01*
X110720197Y-85938855D01*
X110547269Y-86015848D01*
X110394129Y-86127110D01*
X110267466Y-86267783D01*
X110172820Y-86431715D01*
X110114326Y-86611742D01*
X110094540Y-86800000D01*
X96600500Y-86800000D01*
X96600500Y-83600000D01*
X115894540Y-83600000D01*
X115914326Y-83788257D01*
X115972820Y-83968284D01*
X116067466Y-84132216D01*
X116194129Y-84272889D01*
X116347269Y-84384151D01*
X116520197Y-84461144D01*
X116705352Y-84500500D01*
X116705354Y-84500500D01*
X116894646Y-84500500D01*
X116894648Y-84500500D01*
X117018083Y-84474262D01*
X117079803Y-84461144D01*
X117217133Y-84400000D01*
X118294540Y-84400000D01*
X118314326Y-84588257D01*
X118372820Y-84768284D01*
X118467466Y-84932216D01*
X118594129Y-85072889D01*
X118747269Y-85184151D01*
X118920197Y-85261144D01*
X119105352Y-85300500D01*
X119105354Y-85300500D01*
X119294646Y-85300500D01*
X119294648Y-85300500D01*
X119297000Y-85300000D01*
X133069436Y-85300000D01*
X133089650Y-85531047D01*
X133089651Y-85531050D01*
X133149680Y-85755079D01*
X133247699Y-85965282D01*
X133380730Y-86155269D01*
X133380733Y-86155272D01*
X133536034Y-86310573D01*
X133569279Y-86370814D01*
X133565291Y-86439504D01*
X133525298Y-86495493D01*
X133481363Y-86513464D01*
X133482110Y-86515466D01*
X133332669Y-86571204D01*
X133217454Y-86657454D01*
X133131204Y-86772668D01*
X133080909Y-86907516D01*
X133074500Y-86967130D01*
X133074500Y-88712869D01*
X133080909Y-88772483D01*
X133131204Y-88907331D01*
X133217454Y-89022546D01*
X133332669Y-89108796D01*
X133467517Y-89159091D01*
X133527127Y-89165500D01*
X135272872Y-89165499D01*
X135332483Y-89159091D01*
X135467331Y-89108796D01*
X135582546Y-89022546D01*
X135668796Y-88907331D01*
X135719091Y-88772483D01*
X135725500Y-88712873D01*
X135725499Y-86967128D01*
X135719091Y-86907517D01*
X135668796Y-86772669D01*
X135582546Y-86657454D01*
X135467331Y-86571204D01*
X135361458Y-86531716D01*
X135317890Y-86515466D01*
X135318636Y-86513464D01*
X135274703Y-86495495D01*
X135234709Y-86439505D01*
X135230720Y-86370814D01*
X135263962Y-86310576D01*
X135419270Y-86155269D01*
X135552301Y-85965282D01*
X135650320Y-85755079D01*
X135710349Y-85531050D01*
X135730563Y-85300000D01*
X135710349Y-85068950D01*
X135650320Y-84844921D01*
X135552301Y-84634719D01*
X135419270Y-84444731D01*
X135255269Y-84280730D01*
X135065282Y-84147699D01*
X135065278Y-84147697D01*
X135065277Y-84147696D01*
X135053875Y-84142379D01*
X135001701Y-84096620D01*
X134982284Y-84029994D01*
X135001706Y-83963370D01*
X135053881Y-83917617D01*
X135065282Y-83912301D01*
X135255269Y-83779270D01*
X135419270Y-83615269D01*
X135552301Y-83425282D01*
X135650320Y-83215079D01*
X135710349Y-82991050D01*
X135730563Y-82760000D01*
X135710349Y-82528950D01*
X135650320Y-82304921D01*
X135552301Y-82094719D01*
X135419270Y-81904731D01*
X135255269Y-81740730D01*
X135065282Y-81607699D01*
X135065278Y-81607697D01*
X135065277Y-81607696D01*
X135053875Y-81602379D01*
X135001701Y-81556620D01*
X134982284Y-81489994D01*
X135001706Y-81423370D01*
X135053881Y-81377617D01*
X135065282Y-81372301D01*
X135255269Y-81239270D01*
X135419270Y-81075269D01*
X135552301Y-80885282D01*
X135650320Y-80675079D01*
X135710349Y-80451050D01*
X135730563Y-80220000D01*
X135710349Y-79988950D01*
X135650320Y-79764921D01*
X135552301Y-79554719D01*
X135419270Y-79364731D01*
X135255269Y-79200730D01*
X135065282Y-79067699D01*
X134968365Y-79022506D01*
X134855080Y-78969680D01*
X134631047Y-78909650D01*
X134399999Y-78889436D01*
X134168952Y-78909650D01*
X133944919Y-78969680D01*
X133734721Y-79067698D01*
X133734719Y-79067699D01*
X133591069Y-79168284D01*
X133544727Y-79200733D01*
X133380733Y-79364727D01*
X133380730Y-79364730D01*
X133380730Y-79364731D01*
X133258807Y-79538856D01*
X133247698Y-79554721D01*
X133149680Y-79764919D01*
X133089650Y-79988952D01*
X133069436Y-80220000D01*
X133089650Y-80451047D01*
X133149680Y-80675080D01*
X133153910Y-80684151D01*
X133247699Y-80885282D01*
X133380730Y-81075269D01*
X133544731Y-81239270D01*
X133734718Y-81372301D01*
X133734721Y-81372302D01*
X133734722Y-81372303D01*
X133746120Y-81377618D01*
X133798296Y-81423374D01*
X133817716Y-81489999D01*
X133798297Y-81556624D01*
X133746123Y-81602381D01*
X133734722Y-81607697D01*
X133734719Y-81607698D01*
X133734719Y-81607699D01*
X133732146Y-81609501D01*
X133544727Y-81740733D01*
X133380733Y-81904727D01*
X133247698Y-82094721D01*
X133149680Y-82304919D01*
X133089650Y-82528952D01*
X133069436Y-82759999D01*
X133089650Y-82991047D01*
X133089651Y-82991050D01*
X133149680Y-83215079D01*
X133247699Y-83425282D01*
X133380730Y-83615269D01*
X133544731Y-83779270D01*
X133734718Y-83912301D01*
X133734721Y-83912302D01*
X133734722Y-83912303D01*
X133746120Y-83917618D01*
X133798296Y-83963374D01*
X133817716Y-84029999D01*
X133798297Y-84096624D01*
X133746123Y-84142381D01*
X133734722Y-84147697D01*
X133544727Y-84280733D01*
X133380733Y-84444727D01*
X133380730Y-84444730D01*
X133380730Y-84444731D01*
X133369238Y-84461144D01*
X133247698Y-84634721D01*
X133149680Y-84844919D01*
X133089650Y-85068952D01*
X133069436Y-85300000D01*
X119297000Y-85300000D01*
X119418084Y-85274262D01*
X119479803Y-85261144D01*
X119652730Y-85184151D01*
X119805871Y-85072888D01*
X119932533Y-84932216D01*
X120027179Y-84768284D01*
X120085674Y-84588256D01*
X120105460Y-84400000D01*
X120085674Y-84211744D01*
X120027179Y-84031716D01*
X120027179Y-84031715D01*
X119932533Y-83867783D01*
X119805870Y-83727110D01*
X119652730Y-83615848D01*
X119479802Y-83538855D01*
X119294648Y-83499500D01*
X119294646Y-83499500D01*
X119105354Y-83499500D01*
X119105352Y-83499500D01*
X118920197Y-83538855D01*
X118747269Y-83615848D01*
X118594129Y-83727110D01*
X118467466Y-83867783D01*
X118372820Y-84031715D01*
X118314326Y-84211742D01*
X118294540Y-84400000D01*
X117217133Y-84400000D01*
X117252730Y-84384151D01*
X117252730Y-84384150D01*
X117405870Y-84272889D01*
X117532533Y-84132216D01*
X117627179Y-83968284D01*
X117645369Y-83912301D01*
X117685674Y-83788256D01*
X117705460Y-83600000D01*
X117685674Y-83411744D01*
X117627179Y-83231716D01*
X117627179Y-83231715D01*
X117532533Y-83067783D01*
X117405870Y-82927110D01*
X117252730Y-82815848D01*
X117079802Y-82738855D01*
X116894648Y-82699500D01*
X116894646Y-82699500D01*
X116705354Y-82699500D01*
X116705352Y-82699500D01*
X116520197Y-82738855D01*
X116347269Y-82815848D01*
X116194129Y-82927110D01*
X116067466Y-83067783D01*
X115972820Y-83231715D01*
X115914326Y-83411742D01*
X115894540Y-83600000D01*
X96600500Y-83600000D01*
X96600500Y-81050000D01*
X113744540Y-81050000D01*
X113764326Y-81238257D01*
X113822820Y-81418284D01*
X113917466Y-81582216D01*
X114044129Y-81722889D01*
X114197269Y-81834151D01*
X114370197Y-81911144D01*
X114555352Y-81950500D01*
X114555354Y-81950500D01*
X114744646Y-81950500D01*
X114744648Y-81950500D01*
X114868084Y-81924262D01*
X114929803Y-81911144D01*
X115102730Y-81834151D01*
X115102730Y-81834150D01*
X115255870Y-81722889D01*
X115382533Y-81582216D01*
X115395093Y-81560462D01*
X115430001Y-81500000D01*
X120794540Y-81500000D01*
X120814326Y-81688257D01*
X120872820Y-81868284D01*
X120967466Y-82032216D01*
X121094129Y-82172889D01*
X121247269Y-82284151D01*
X121420197Y-82361144D01*
X121605352Y-82400500D01*
X121605354Y-82400500D01*
X121794646Y-82400500D01*
X121794648Y-82400500D01*
X121918083Y-82374262D01*
X121979803Y-82361144D01*
X122152730Y-82284151D01*
X122305871Y-82172888D01*
X122432533Y-82032216D01*
X122527179Y-81868284D01*
X122585674Y-81688256D01*
X122593951Y-81609496D01*
X122609884Y-81560462D01*
X122644386Y-81522143D01*
X122691490Y-81501171D01*
X122696999Y-81500000D01*
X129894540Y-81500000D01*
X129914326Y-81688257D01*
X129972820Y-81868284D01*
X130067466Y-82032216D01*
X130194129Y-82172889D01*
X130347269Y-82284151D01*
X130520197Y-82361144D01*
X130705352Y-82400500D01*
X130705354Y-82400500D01*
X130894646Y-82400500D01*
X130894648Y-82400500D01*
X131018083Y-82374262D01*
X131079803Y-82361144D01*
X131252730Y-82284151D01*
X131405871Y-82172888D01*
X131532533Y-82032216D01*
X131627179Y-81868284D01*
X131685674Y-81688256D01*
X131705460Y-81500000D01*
X131685674Y-81311744D01*
X131644216Y-81184151D01*
X131627179Y-81131715D01*
X131532533Y-80967783D01*
X131405870Y-80827110D01*
X131252730Y-80715848D01*
X131079802Y-80638855D01*
X130894648Y-80599500D01*
X130894646Y-80599500D01*
X130705354Y-80599500D01*
X130705352Y-80599500D01*
X130520197Y-80638855D01*
X130347269Y-80715848D01*
X130194129Y-80827110D01*
X130067466Y-80967783D01*
X129972820Y-81131715D01*
X129914326Y-81311742D01*
X129894540Y-81500000D01*
X122696999Y-81500000D01*
X122879803Y-81461144D01*
X123052730Y-81384151D01*
X123205870Y-81272889D01*
X123215007Y-81262742D01*
X123332533Y-81132216D01*
X123427179Y-80968284D01*
X123485674Y-80788256D01*
X123505460Y-80600000D01*
X123485674Y-80411744D01*
X123427179Y-80231716D01*
X123427179Y-80231715D01*
X123408868Y-80199999D01*
X125594540Y-80199999D01*
X125614326Y-80388257D01*
X125672820Y-80568284D01*
X125767466Y-80732216D01*
X125894129Y-80872889D01*
X126047269Y-80984151D01*
X126220197Y-81061144D01*
X126405352Y-81100500D01*
X126405354Y-81100500D01*
X126594646Y-81100500D01*
X126594648Y-81100500D01*
X126724551Y-81072888D01*
X126779803Y-81061144D01*
X126952730Y-80984151D01*
X127088812Y-80885282D01*
X127105870Y-80872889D01*
X127232533Y-80732216D01*
X127327179Y-80568284D01*
X127338898Y-80532216D01*
X127385674Y-80388256D01*
X127405460Y-80200000D01*
X127385674Y-80011744D01*
X127327179Y-79831716D01*
X127327179Y-79831715D01*
X127232533Y-79667783D01*
X127105870Y-79527110D01*
X126952730Y-79415848D01*
X126779802Y-79338855D01*
X126594648Y-79299500D01*
X126594646Y-79299500D01*
X126405354Y-79299500D01*
X126405352Y-79299500D01*
X126220197Y-79338855D01*
X126047269Y-79415848D01*
X125894129Y-79527110D01*
X125767466Y-79667783D01*
X125672820Y-79831715D01*
X125614326Y-80011742D01*
X125594540Y-80199999D01*
X123408868Y-80199999D01*
X123332533Y-80067783D01*
X123205870Y-79927110D01*
X123052730Y-79815848D01*
X122879802Y-79738855D01*
X122694648Y-79699500D01*
X122694646Y-79699500D01*
X122505354Y-79699500D01*
X122505352Y-79699500D01*
X122320197Y-79738855D01*
X122147269Y-79815848D01*
X121994129Y-79927110D01*
X121867466Y-80067783D01*
X121772820Y-80231715D01*
X121714326Y-80411742D01*
X121706049Y-80490500D01*
X121690115Y-80539538D01*
X121655613Y-80577856D01*
X121608509Y-80598828D01*
X121420197Y-80638855D01*
X121247269Y-80715848D01*
X121094129Y-80827110D01*
X120967466Y-80967783D01*
X120872820Y-81131715D01*
X120814326Y-81311742D01*
X120794540Y-81500000D01*
X115430001Y-81500000D01*
X115477179Y-81418284D01*
X115493216Y-81368924D01*
X115525007Y-81318048D01*
X115576967Y-81288049D01*
X115636925Y-81285955D01*
X115705354Y-81300500D01*
X115894646Y-81300500D01*
X115894648Y-81300500D01*
X116024551Y-81272888D01*
X116079803Y-81261144D01*
X116252730Y-81184151D01*
X116405871Y-81072888D01*
X116532533Y-80932216D01*
X116627179Y-80768284D01*
X116685674Y-80588256D01*
X116705460Y-80400000D01*
X116685674Y-80211744D01*
X116655332Y-80118363D01*
X116627179Y-80031715D01*
X116532533Y-79867783D01*
X116405870Y-79727110D01*
X116252730Y-79615848D01*
X116079802Y-79538855D01*
X115894648Y-79499500D01*
X115894646Y-79499500D01*
X115705354Y-79499500D01*
X115705352Y-79499500D01*
X115520197Y-79538855D01*
X115347269Y-79615848D01*
X115194129Y-79727110D01*
X115067466Y-79867783D01*
X114972819Y-80031718D01*
X114956782Y-80081073D01*
X114924989Y-80131952D01*
X114873031Y-80161949D01*
X114813072Y-80164044D01*
X114797364Y-80160705D01*
X114744646Y-80149500D01*
X114555354Y-80149500D01*
X114555352Y-80149500D01*
X114370197Y-80188855D01*
X114197269Y-80265848D01*
X114044129Y-80377110D01*
X113917466Y-80517783D01*
X113822820Y-80681715D01*
X113764326Y-80861742D01*
X113744540Y-81050000D01*
X96600500Y-81050000D01*
X96600500Y-80000000D01*
X101194540Y-80000000D01*
X101214326Y-80188257D01*
X101272820Y-80368284D01*
X101367466Y-80532216D01*
X101494129Y-80672889D01*
X101647269Y-80784151D01*
X101820197Y-80861144D01*
X102005352Y-80900500D01*
X102005354Y-80900500D01*
X102194646Y-80900500D01*
X102194648Y-80900500D01*
X102324551Y-80872888D01*
X102379803Y-80861144D01*
X102552730Y-80784151D01*
X102646740Y-80715849D01*
X102705870Y-80672889D01*
X102736515Y-80638855D01*
X102832533Y-80532216D01*
X102927179Y-80368284D01*
X102985674Y-80188256D01*
X103005460Y-80000000D01*
X102994950Y-79899999D01*
X105594540Y-79899999D01*
X105614326Y-80088257D01*
X105672820Y-80268284D01*
X105767466Y-80432216D01*
X105894129Y-80572889D01*
X106047269Y-80684151D01*
X106220197Y-80761144D01*
X106405352Y-80800500D01*
X106405354Y-80800500D01*
X106594646Y-80800500D01*
X106594648Y-80800500D01*
X106718083Y-80774262D01*
X106779803Y-80761144D01*
X106952730Y-80684151D01*
X106968232Y-80672888D01*
X107105870Y-80572889D01*
X107135900Y-80539538D01*
X107232533Y-80432216D01*
X107327179Y-80268284D01*
X107385674Y-80088256D01*
X107405460Y-79900000D01*
X107385674Y-79711744D01*
X107327179Y-79531716D01*
X107327179Y-79531715D01*
X107232533Y-79367783D01*
X107105870Y-79227110D01*
X106952730Y-79115848D01*
X106779802Y-79038855D01*
X106594648Y-78999500D01*
X106594646Y-78999500D01*
X106405354Y-78999500D01*
X106405352Y-78999500D01*
X106220197Y-79038855D01*
X106047269Y-79115848D01*
X105894129Y-79227110D01*
X105767466Y-79367783D01*
X105672820Y-79531715D01*
X105614326Y-79711742D01*
X105594540Y-79899999D01*
X102994950Y-79899999D01*
X102985674Y-79811744D01*
X102949528Y-79700500D01*
X102927179Y-79631715D01*
X102832533Y-79467783D01*
X102705870Y-79327110D01*
X102552730Y-79215848D01*
X102379802Y-79138855D01*
X102194648Y-79099500D01*
X102194646Y-79099500D01*
X102005354Y-79099500D01*
X102005352Y-79099500D01*
X101820197Y-79138855D01*
X101647269Y-79215848D01*
X101494129Y-79327110D01*
X101367466Y-79467783D01*
X101272820Y-79631715D01*
X101214326Y-79811742D01*
X101194540Y-80000000D01*
X96600500Y-80000000D01*
X96600500Y-78799999D01*
X112894540Y-78799999D01*
X112914326Y-78988257D01*
X112972820Y-79168284D01*
X113067466Y-79332216D01*
X113194129Y-79472889D01*
X113347269Y-79584151D01*
X113520197Y-79661144D01*
X113705352Y-79700500D01*
X113705354Y-79700500D01*
X113894646Y-79700500D01*
X113894648Y-79700500D01*
X114018083Y-79674262D01*
X114079803Y-79661144D01*
X114252730Y-79584151D01*
X114293240Y-79554719D01*
X114405870Y-79472889D01*
X114410468Y-79467783D01*
X114532533Y-79332216D01*
X114627179Y-79168284D01*
X114685674Y-78988256D01*
X114705460Y-78800000D01*
X114685674Y-78611744D01*
X114627179Y-78431716D01*
X114627179Y-78431715D01*
X114532533Y-78267783D01*
X114405870Y-78127110D01*
X114252730Y-78015848D01*
X114079802Y-77938855D01*
X113894648Y-77899500D01*
X113894646Y-77899500D01*
X113705354Y-77899500D01*
X113705352Y-77899500D01*
X113520197Y-77938855D01*
X113347269Y-78015848D01*
X113194129Y-78127110D01*
X113067466Y-78267783D01*
X112972820Y-78431715D01*
X112914326Y-78611742D01*
X112894540Y-78799999D01*
X96600500Y-78799999D01*
X96600500Y-76975499D01*
X110394540Y-76975499D01*
X110414326Y-77163757D01*
X110472820Y-77343784D01*
X110567466Y-77507716D01*
X110694129Y-77648389D01*
X110847269Y-77759651D01*
X111020197Y-77836644D01*
X111205352Y-77876000D01*
X111205354Y-77876000D01*
X111394646Y-77876000D01*
X111394648Y-77876000D01*
X111518083Y-77849762D01*
X111579803Y-77836644D01*
X111752730Y-77759651D01*
X111905871Y-77648388D01*
X112032533Y-77507716D01*
X112127179Y-77343784D01*
X112185674Y-77163756D01*
X112205460Y-76975500D01*
X112189182Y-76820626D01*
X112199224Y-76757232D01*
X112239615Y-76707352D01*
X112249736Y-76699999D01*
X117494540Y-76699999D01*
X117514326Y-76888257D01*
X117572820Y-77068284D01*
X117667466Y-77232216D01*
X117794129Y-77372889D01*
X117947269Y-77484151D01*
X118120197Y-77561144D01*
X118305352Y-77600500D01*
X118305354Y-77600500D01*
X118494646Y-77600500D01*
X118494648Y-77600500D01*
X118618083Y-77574262D01*
X118679803Y-77561144D01*
X118852730Y-77484151D01*
X119005871Y-77372888D01*
X119132533Y-77232216D01*
X119227179Y-77068284D01*
X119285674Y-76888256D01*
X119305460Y-76700000D01*
X119305460Y-76699999D01*
X126794540Y-76699999D01*
X126814326Y-76888257D01*
X126872820Y-77068284D01*
X126967466Y-77232216D01*
X127094129Y-77372889D01*
X127247269Y-77484151D01*
X127420197Y-77561144D01*
X127605352Y-77600500D01*
X127605354Y-77600500D01*
X127794646Y-77600500D01*
X127794648Y-77600500D01*
X127918083Y-77574262D01*
X127979803Y-77561144D01*
X128152730Y-77484151D01*
X128305871Y-77372888D01*
X128432533Y-77232216D01*
X128527179Y-77068284D01*
X128585674Y-76888256D01*
X128605460Y-76700000D01*
X128585674Y-76511744D01*
X128527179Y-76331716D01*
X128527179Y-76331715D01*
X128432533Y-76167783D01*
X128305870Y-76027110D01*
X128152730Y-75915848D01*
X127979802Y-75838855D01*
X127794648Y-75799500D01*
X127794646Y-75799500D01*
X127605354Y-75799500D01*
X127605352Y-75799500D01*
X127420197Y-75838855D01*
X127247269Y-75915848D01*
X127094129Y-76027110D01*
X126967466Y-76167783D01*
X126872820Y-76331715D01*
X126814326Y-76511742D01*
X126794540Y-76699999D01*
X119305460Y-76699999D01*
X119285674Y-76511744D01*
X119227179Y-76331716D01*
X119227179Y-76331715D01*
X119132533Y-76167783D01*
X119005870Y-76027110D01*
X118852730Y-75915848D01*
X118679802Y-75838855D01*
X118494648Y-75799500D01*
X118494646Y-75799500D01*
X118305354Y-75799500D01*
X118305352Y-75799500D01*
X118120197Y-75838855D01*
X117947269Y-75915848D01*
X117794129Y-76027110D01*
X117667466Y-76167783D01*
X117572820Y-76331715D01*
X117514326Y-76511742D01*
X117494540Y-76699999D01*
X112249736Y-76699999D01*
X112355871Y-76622888D01*
X112482533Y-76482216D01*
X112577179Y-76318284D01*
X112635674Y-76138256D01*
X112655460Y-75950000D01*
X112635674Y-75761744D01*
X112615612Y-75700000D01*
X120087433Y-75700000D01*
X120107219Y-75888257D01*
X120165713Y-76068284D01*
X120260359Y-76232216D01*
X120387022Y-76372889D01*
X120540162Y-76484151D01*
X120713090Y-76561144D01*
X120898245Y-76600500D01*
X120898247Y-76600500D01*
X121087539Y-76600500D01*
X121087541Y-76600500D01*
X121210976Y-76574262D01*
X121272696Y-76561144D01*
X121445623Y-76484151D01*
X121598764Y-76372888D01*
X121725426Y-76232216D01*
X121820072Y-76068284D01*
X121878567Y-75888256D01*
X121898353Y-75700000D01*
X121878567Y-75511744D01*
X121820072Y-75331716D01*
X121820072Y-75331715D01*
X121725426Y-75167783D01*
X121598763Y-75027110D01*
X121445623Y-74915848D01*
X121272695Y-74838855D01*
X121087541Y-74799500D01*
X121087539Y-74799500D01*
X120898247Y-74799500D01*
X120898245Y-74799500D01*
X120713090Y-74838855D01*
X120540162Y-74915848D01*
X120387022Y-75027110D01*
X120260359Y-75167783D01*
X120165713Y-75331715D01*
X120107219Y-75511742D01*
X120087433Y-75700000D01*
X112615612Y-75700000D01*
X112577179Y-75581716D01*
X112577179Y-75581715D01*
X112482533Y-75417783D01*
X112355870Y-75277110D01*
X112202730Y-75165848D01*
X112029802Y-75088855D01*
X111844648Y-75049500D01*
X111844646Y-75049500D01*
X111655354Y-75049500D01*
X111655352Y-75049500D01*
X111470197Y-75088855D01*
X111297269Y-75165848D01*
X111144129Y-75277110D01*
X111017466Y-75417783D01*
X110922820Y-75581715D01*
X110864326Y-75761742D01*
X110844540Y-75950000D01*
X110860817Y-76104870D01*
X110850776Y-76168267D01*
X110810382Y-76218149D01*
X110694127Y-76302612D01*
X110567466Y-76443283D01*
X110472820Y-76607215D01*
X110414326Y-76787242D01*
X110394540Y-76975499D01*
X96600500Y-76975499D01*
X96600500Y-74400000D01*
X131194540Y-74400000D01*
X131214326Y-74588257D01*
X131272820Y-74768284D01*
X131367466Y-74932216D01*
X131494129Y-75072889D01*
X131647269Y-75184151D01*
X131820197Y-75261144D01*
X132005352Y-75300500D01*
X132005354Y-75300500D01*
X132194646Y-75300500D01*
X132194648Y-75300500D01*
X132318083Y-75274262D01*
X132379803Y-75261144D01*
X132552730Y-75184151D01*
X132683893Y-75088856D01*
X132705870Y-75072889D01*
X132832533Y-74932216D01*
X132927179Y-74768284D01*
X132927178Y-74768284D01*
X132985674Y-74588256D01*
X133005460Y-74400000D01*
X132985674Y-74211744D01*
X132927179Y-74031716D01*
X132927179Y-74031715D01*
X132832533Y-73867783D01*
X132705870Y-73727110D01*
X132552730Y-73615848D01*
X132379802Y-73538855D01*
X132194648Y-73499500D01*
X132194646Y-73499500D01*
X132005354Y-73499500D01*
X132005352Y-73499500D01*
X131820197Y-73538855D01*
X131647269Y-73615848D01*
X131494129Y-73727110D01*
X131367466Y-73867783D01*
X131272820Y-74031715D01*
X131214326Y-74211742D01*
X131194540Y-74400000D01*
X96600500Y-74400000D01*
X96600500Y-73050000D01*
X110894540Y-73050000D01*
X110914326Y-73238257D01*
X110972820Y-73418284D01*
X111067466Y-73582216D01*
X111194129Y-73722889D01*
X111347269Y-73834151D01*
X111520197Y-73911144D01*
X111705352Y-73950500D01*
X111705354Y-73950500D01*
X111894646Y-73950500D01*
X111894648Y-73950500D01*
X112018084Y-73924262D01*
X112079803Y-73911144D01*
X112252730Y-73834151D01*
X112255393Y-73832216D01*
X112405870Y-73722889D01*
X112532533Y-73582216D01*
X112627179Y-73418284D01*
X112665612Y-73299999D01*
X129194540Y-73299999D01*
X129214326Y-73488257D01*
X129272820Y-73668284D01*
X129367466Y-73832216D01*
X129494129Y-73972889D01*
X129647269Y-74084151D01*
X129820197Y-74161144D01*
X130005352Y-74200500D01*
X130005354Y-74200500D01*
X130194646Y-74200500D01*
X130194648Y-74200500D01*
X130318084Y-74174262D01*
X130379803Y-74161144D01*
X130552730Y-74084151D01*
X130705871Y-73972888D01*
X130832533Y-73832216D01*
X130927179Y-73668284D01*
X130985674Y-73488256D01*
X131005460Y-73300000D01*
X130985674Y-73111744D01*
X130936741Y-72961144D01*
X130927179Y-72931715D01*
X130832533Y-72767783D01*
X130705870Y-72627110D01*
X130552730Y-72515848D01*
X130379802Y-72438855D01*
X130194648Y-72399500D01*
X130194646Y-72399500D01*
X130005354Y-72399500D01*
X130005352Y-72399500D01*
X129820197Y-72438855D01*
X129647269Y-72515848D01*
X129494129Y-72627110D01*
X129367466Y-72767783D01*
X129272820Y-72931715D01*
X129214326Y-73111742D01*
X129194540Y-73299999D01*
X112665612Y-73299999D01*
X112685674Y-73238256D01*
X112705460Y-73050000D01*
X112685674Y-72861744D01*
X112627179Y-72681716D01*
X112627179Y-72681715D01*
X112532533Y-72517783D01*
X112405870Y-72377110D01*
X112252730Y-72265848D01*
X112079802Y-72188855D01*
X111894648Y-72149500D01*
X111894646Y-72149500D01*
X111705354Y-72149500D01*
X111705352Y-72149500D01*
X111520197Y-72188855D01*
X111347269Y-72265848D01*
X111194129Y-72377110D01*
X111067466Y-72517783D01*
X110972820Y-72681715D01*
X110914326Y-72861742D01*
X110894540Y-73050000D01*
X96600500Y-73050000D01*
X96600500Y-72100000D01*
X117544540Y-72100000D01*
X117564326Y-72288257D01*
X117622820Y-72468284D01*
X117717466Y-72632216D01*
X117844129Y-72772889D01*
X117997269Y-72884151D01*
X118170197Y-72961144D01*
X118355352Y-73000500D01*
X118355354Y-73000500D01*
X118544646Y-73000500D01*
X118544648Y-73000500D01*
X118668084Y-72974262D01*
X118729803Y-72961144D01*
X118902730Y-72884151D01*
X118961526Y-72841432D01*
X119008636Y-72820460D01*
X119060209Y-72820466D01*
X119084315Y-72831205D01*
X119085364Y-72828851D01*
X119270197Y-72911144D01*
X119455352Y-72950500D01*
X119455354Y-72950500D01*
X119644646Y-72950500D01*
X119644648Y-72950500D01*
X119768084Y-72924262D01*
X119829803Y-72911144D01*
X120002730Y-72834151D01*
X120155871Y-72722888D01*
X120282533Y-72582216D01*
X120377179Y-72418284D01*
X120435674Y-72238256D01*
X120455460Y-72050000D01*
X120435674Y-71861744D01*
X120377179Y-71681716D01*
X120377179Y-71681715D01*
X120282533Y-71517783D01*
X120155870Y-71377110D01*
X120002730Y-71265848D01*
X119829802Y-71188855D01*
X119644648Y-71149500D01*
X119644646Y-71149500D01*
X119455354Y-71149500D01*
X119455352Y-71149500D01*
X119270197Y-71188855D01*
X119097271Y-71265847D01*
X119038472Y-71308566D01*
X118991386Y-71329533D01*
X118939843Y-71329544D01*
X118915682Y-71318797D01*
X118914635Y-71321149D01*
X118729802Y-71238855D01*
X118544648Y-71199500D01*
X118544646Y-71199500D01*
X118355354Y-71199500D01*
X118355352Y-71199500D01*
X118170197Y-71238855D01*
X117997269Y-71315848D01*
X117844129Y-71427110D01*
X117717466Y-71567783D01*
X117622820Y-71731715D01*
X117564326Y-71911742D01*
X117544540Y-72100000D01*
X96600500Y-72100000D01*
X96600500Y-67499999D01*
X115244540Y-67499999D01*
X115264326Y-67688257D01*
X115322820Y-67868284D01*
X115417466Y-68032216D01*
X115544129Y-68172889D01*
X115697269Y-68284151D01*
X115870197Y-68361144D01*
X116055352Y-68400500D01*
X116055354Y-68400500D01*
X116244646Y-68400500D01*
X116244648Y-68400500D01*
X116368083Y-68374262D01*
X116429803Y-68361144D01*
X116602730Y-68284151D01*
X116755871Y-68172888D01*
X116882533Y-68032216D01*
X116958868Y-67900000D01*
X125094540Y-67900000D01*
X125114326Y-68088257D01*
X125172820Y-68268284D01*
X125267466Y-68432216D01*
X125394129Y-68572889D01*
X125547269Y-68684151D01*
X125720197Y-68761144D01*
X125905352Y-68800500D01*
X125905354Y-68800500D01*
X126094646Y-68800500D01*
X126094648Y-68800500D01*
X126224551Y-68772888D01*
X126279803Y-68761144D01*
X126452730Y-68684151D01*
X126605871Y-68572888D01*
X126732533Y-68432216D01*
X126827179Y-68268284D01*
X126881858Y-68099999D01*
X139494540Y-68099999D01*
X139514326Y-68288257D01*
X139572820Y-68468284D01*
X139667466Y-68632216D01*
X139794129Y-68772889D01*
X139947269Y-68884151D01*
X140120197Y-68961144D01*
X140305352Y-69000500D01*
X140305354Y-69000500D01*
X140494646Y-69000500D01*
X140494648Y-69000500D01*
X140618084Y-68974262D01*
X140679803Y-68961144D01*
X140852730Y-68884151D01*
X141005871Y-68772888D01*
X141132533Y-68632216D01*
X141227179Y-68468284D01*
X141285674Y-68288256D01*
X141305460Y-68100000D01*
X141285674Y-67911744D01*
X141227179Y-67731716D01*
X141227179Y-67731715D01*
X141132533Y-67567783D01*
X141005870Y-67427110D01*
X140852730Y-67315848D01*
X140679802Y-67238855D01*
X140494648Y-67199500D01*
X140494646Y-67199500D01*
X140305354Y-67199500D01*
X140305352Y-67199500D01*
X140120197Y-67238855D01*
X139947269Y-67315848D01*
X139794129Y-67427110D01*
X139667466Y-67567783D01*
X139572820Y-67731715D01*
X139514326Y-67911742D01*
X139494540Y-68099999D01*
X126881858Y-68099999D01*
X126885674Y-68088256D01*
X126905460Y-67900000D01*
X126885674Y-67711744D01*
X126827179Y-67531716D01*
X126827179Y-67531715D01*
X126732533Y-67367783D01*
X126605870Y-67227110D01*
X126452730Y-67115848D01*
X126279802Y-67038855D01*
X126094648Y-66999500D01*
X126094646Y-66999500D01*
X125905354Y-66999500D01*
X125905352Y-66999500D01*
X125720197Y-67038855D01*
X125547269Y-67115848D01*
X125394129Y-67227110D01*
X125267466Y-67367783D01*
X125172820Y-67531715D01*
X125114326Y-67711742D01*
X125094540Y-67900000D01*
X116958868Y-67900000D01*
X116977179Y-67868284D01*
X117035674Y-67688256D01*
X117055460Y-67500000D01*
X117035674Y-67311744D01*
X117005332Y-67218363D01*
X116977179Y-67131715D01*
X116882533Y-66967783D01*
X116755870Y-66827110D01*
X116602730Y-66715848D01*
X116429802Y-66638855D01*
X116244648Y-66599500D01*
X116244646Y-66599500D01*
X116055354Y-66599500D01*
X116055352Y-66599500D01*
X115870197Y-66638855D01*
X115697269Y-66715848D01*
X115544129Y-66827110D01*
X115417466Y-66967783D01*
X115322820Y-67131715D01*
X115264326Y-67311742D01*
X115244540Y-67499999D01*
X96600500Y-67499999D01*
X96600500Y-65588903D01*
X98164648Y-65588903D01*
X98164649Y-65588904D01*
X98422207Y-65797469D01*
X98747456Y-66008690D01*
X99093009Y-66184757D01*
X99455068Y-66323739D01*
X99829674Y-66424114D01*
X100212711Y-66484780D01*
X100600000Y-66505077D01*
X100987288Y-66484780D01*
X101370325Y-66424114D01*
X101460324Y-66399999D01*
X118094540Y-66399999D01*
X118114326Y-66588257D01*
X118172820Y-66768284D01*
X118267466Y-66932216D01*
X118394129Y-67072889D01*
X118547269Y-67184151D01*
X118720197Y-67261144D01*
X118905352Y-67300500D01*
X118905354Y-67300500D01*
X119094646Y-67300500D01*
X119094648Y-67300500D01*
X119218084Y-67274262D01*
X119279803Y-67261144D01*
X119452730Y-67184151D01*
X119546740Y-67115849D01*
X119605870Y-67072889D01*
X119636515Y-67038855D01*
X119732533Y-66932216D01*
X119827179Y-66768284D01*
X119885674Y-66588256D01*
X119905460Y-66400000D01*
X119885674Y-66211744D01*
X119827179Y-66031716D01*
X119827179Y-66031715D01*
X119732533Y-65867783D01*
X119605870Y-65727110D01*
X119452730Y-65615848D01*
X119279802Y-65538855D01*
X119094648Y-65499500D01*
X119094646Y-65499500D01*
X118905354Y-65499500D01*
X118905352Y-65499500D01*
X118720197Y-65538855D01*
X118547269Y-65615848D01*
X118394129Y-65727110D01*
X118267466Y-65867783D01*
X118172820Y-66031715D01*
X118114326Y-66211742D01*
X118094540Y-66399999D01*
X101460324Y-66399999D01*
X101744931Y-66323739D01*
X102106990Y-66184757D01*
X102452543Y-66008690D01*
X102777786Y-65797473D01*
X103035349Y-65588902D01*
X100600000Y-63153553D01*
X98164648Y-65588903D01*
X96600500Y-65588903D01*
X96600500Y-62802872D01*
X96600566Y-62799999D01*
X96894922Y-62799999D01*
X96915219Y-63187288D01*
X96975885Y-63570325D01*
X97076260Y-63944931D01*
X97215242Y-64306990D01*
X97391309Y-64652543D01*
X97602530Y-64977792D01*
X97811095Y-65235350D01*
X97811096Y-65235350D01*
X100246447Y-62800000D01*
X100953553Y-62800000D01*
X103388902Y-65235349D01*
X103579485Y-64999999D01*
X124594540Y-64999999D01*
X124614326Y-65188257D01*
X124672820Y-65368284D01*
X124767466Y-65532216D01*
X124894129Y-65672889D01*
X125047269Y-65784151D01*
X125220197Y-65861144D01*
X125405352Y-65900500D01*
X125405354Y-65900500D01*
X125594646Y-65900500D01*
X125594648Y-65900500D01*
X125718084Y-65874262D01*
X125779803Y-65861144D01*
X125952730Y-65784151D01*
X126105871Y-65672888D01*
X126181492Y-65588903D01*
X143164648Y-65588903D01*
X143164649Y-65588904D01*
X143422207Y-65797469D01*
X143747456Y-66008690D01*
X144093009Y-66184757D01*
X144455068Y-66323739D01*
X144829674Y-66424114D01*
X145212711Y-66484780D01*
X145600000Y-66505077D01*
X145987288Y-66484780D01*
X146370325Y-66424114D01*
X146744931Y-66323739D01*
X147106990Y-66184757D01*
X147452543Y-66008690D01*
X147777786Y-65797473D01*
X148035349Y-65588902D01*
X145600000Y-63153553D01*
X143164648Y-65588903D01*
X126181492Y-65588903D01*
X126232533Y-65532216D01*
X126327179Y-65368284D01*
X126385674Y-65188256D01*
X126405460Y-65000000D01*
X126385674Y-64811744D01*
X126327179Y-64631716D01*
X126327179Y-64631715D01*
X126232533Y-64467783D01*
X126105870Y-64327110D01*
X125952730Y-64215848D01*
X125779802Y-64138855D01*
X125594648Y-64099500D01*
X125594646Y-64099500D01*
X125405354Y-64099500D01*
X125405352Y-64099500D01*
X125220197Y-64138855D01*
X125047269Y-64215848D01*
X124894129Y-64327110D01*
X124767466Y-64467783D01*
X124672820Y-64631715D01*
X124614326Y-64811742D01*
X124594540Y-64999999D01*
X103579485Y-64999999D01*
X103597473Y-64977786D01*
X103808690Y-64652543D01*
X103984757Y-64306990D01*
X104123739Y-63944931D01*
X104224114Y-63570325D01*
X104284780Y-63187288D01*
X104305077Y-62799999D01*
X141894922Y-62799999D01*
X141915219Y-63187288D01*
X141975885Y-63570325D01*
X142076260Y-63944931D01*
X142215242Y-64306990D01*
X142391309Y-64652543D01*
X142602530Y-64977792D01*
X142811095Y-65235350D01*
X142811096Y-65235350D01*
X145246447Y-62800000D01*
X145953553Y-62800000D01*
X148388902Y-65235349D01*
X148597473Y-64977786D01*
X148808690Y-64652543D01*
X148984757Y-64306990D01*
X149123739Y-63944931D01*
X149224114Y-63570325D01*
X149284780Y-63187288D01*
X149305077Y-62799999D01*
X149284780Y-62412711D01*
X149224114Y-62029674D01*
X149123739Y-61655068D01*
X148984757Y-61293009D01*
X148808690Y-60947456D01*
X148597469Y-60622207D01*
X148388904Y-60364649D01*
X148388903Y-60364648D01*
X145953553Y-62800000D01*
X145246447Y-62800000D01*
X142811096Y-60364648D01*
X142602526Y-60622214D01*
X142391309Y-60947456D01*
X142215242Y-61293009D01*
X142076260Y-61655068D01*
X141975885Y-62029674D01*
X141915219Y-62412711D01*
X141894922Y-62799999D01*
X104305077Y-62799999D01*
X104284780Y-62412711D01*
X104224114Y-62029674D01*
X104123739Y-61655068D01*
X103984757Y-61293009D01*
X103808690Y-60947456D01*
X103597469Y-60622207D01*
X103388904Y-60364649D01*
X103388903Y-60364648D01*
X100953553Y-62800000D01*
X100246447Y-62800000D01*
X97811096Y-60364648D01*
X97602526Y-60622214D01*
X97391309Y-60947456D01*
X97215242Y-61293009D01*
X97076260Y-61655068D01*
X96975885Y-62029674D01*
X96915219Y-62412711D01*
X96894922Y-62799999D01*
X96600566Y-62799999D01*
X96600632Y-62797146D01*
X96601221Y-62784396D01*
X96608490Y-62627168D01*
X96618166Y-62430200D01*
X96619200Y-62419217D01*
X96644611Y-62237054D01*
X96644722Y-62236286D01*
X96671950Y-62052729D01*
X96673890Y-62042595D01*
X96716526Y-61861318D01*
X96716837Y-61860037D01*
X96761405Y-61682111D01*
X96764091Y-61672922D01*
X96823572Y-61495457D01*
X96824270Y-61493442D01*
X96885699Y-61321759D01*
X96888996Y-61313497D01*
X96964713Y-61142015D01*
X96966051Y-61139089D01*
X97043727Y-60974855D01*
X97047452Y-60967612D01*
X97138864Y-60803497D01*
X97140745Y-60800243D01*
X97234036Y-60644598D01*
X97238034Y-60638363D01*
X97344270Y-60483278D01*
X97346899Y-60479590D01*
X97454909Y-60333954D01*
X97459011Y-60328728D01*
X97579239Y-60183944D01*
X97582577Y-60180097D01*
X97704340Y-60045752D01*
X97708437Y-60041450D01*
X97738791Y-60011096D01*
X98164648Y-60011096D01*
X100600000Y-62446447D01*
X100600001Y-62446447D01*
X103035350Y-60011096D01*
X143164648Y-60011096D01*
X145600000Y-62446447D01*
X145600001Y-62446447D01*
X148035350Y-60011096D01*
X148035350Y-60011095D01*
X147777792Y-59802530D01*
X147452543Y-59591309D01*
X147106990Y-59415242D01*
X146744931Y-59276260D01*
X146370325Y-59175885D01*
X145987288Y-59115219D01*
X145600000Y-59094922D01*
X145212711Y-59115219D01*
X144829674Y-59175885D01*
X144455068Y-59276260D01*
X144093009Y-59415242D01*
X143747456Y-59591309D01*
X143422214Y-59802526D01*
X143164648Y-60011096D01*
X103035350Y-60011096D01*
X103035350Y-60011095D01*
X102777792Y-59802530D01*
X102452543Y-59591309D01*
X102106990Y-59415242D01*
X101744931Y-59276260D01*
X101370325Y-59175885D01*
X100987288Y-59115219D01*
X100600000Y-59094922D01*
X100212711Y-59115219D01*
X99829674Y-59175885D01*
X99455068Y-59276260D01*
X99093009Y-59415242D01*
X98747456Y-59591309D01*
X98422214Y-59802526D01*
X98164648Y-60011096D01*
X97738791Y-60011096D01*
X97841450Y-59908437D01*
X97845752Y-59904340D01*
X97980097Y-59782577D01*
X97983944Y-59779239D01*
X98128728Y-59659011D01*
X98133954Y-59654909D01*
X98279590Y-59546899D01*
X98283278Y-59544270D01*
X98438363Y-59438034D01*
X98444598Y-59434036D01*
X98600243Y-59340745D01*
X98603497Y-59338864D01*
X98767612Y-59247452D01*
X98774855Y-59243727D01*
X98939098Y-59166046D01*
X98942018Y-59164712D01*
X99006007Y-59136458D01*
X99113497Y-59088996D01*
X99121759Y-59085699D01*
X99293442Y-59024270D01*
X99295457Y-59023572D01*
X99472922Y-58964091D01*
X99482111Y-58961405D01*
X99660037Y-58916837D01*
X99661318Y-58916526D01*
X99842595Y-58873890D01*
X99852729Y-58871950D01*
X100036286Y-58844722D01*
X100037054Y-58844611D01*
X100219217Y-58819200D01*
X100230200Y-58818166D01*
X100426898Y-58808502D01*
X100591674Y-58800884D01*
X100597146Y-58800632D01*
X100602872Y-58800500D01*
X145597128Y-58800500D01*
X145602854Y-58800632D01*
G37*
%TD.AperFunction*%
%TD*%
M02*
