%TF.GenerationSoftware,KiCad,Pcbnew,7.0.1*%
%TF.CreationDate,2023-07-17T15:28:08+02:00*%
%TF.ProjectId,Had_Konzole,4861645f-4b6f-46e7-9a6f-6c652e6b6963,rev?*%
%TF.SameCoordinates,Original*%
%TF.FileFunction,Soldermask,Bot*%
%TF.FilePolarity,Negative*%
%FSLAX46Y46*%
G04 Gerber Fmt 4.6, Leading zero omitted, Abs format (unit mm)*
G04 Created by KiCad (PCBNEW 7.0.1) date 2023-07-17 15:28:08*
%MOMM*%
%LPD*%
G01*
G04 APERTURE LIST*
G04 Aperture macros list*
%AMRoundRect*
0 Rectangle with rounded corners*
0 $1 Rounding radius*
0 $2 $3 $4 $5 $6 $7 $8 $9 X,Y pos of 4 corners*
0 Add a 4 corners polygon primitive as box body*
4,1,4,$2,$3,$4,$5,$6,$7,$8,$9,$2,$3,0*
0 Add four circle primitives for the rounded corners*
1,1,$1+$1,$2,$3*
1,1,$1+$1,$4,$5*
1,1,$1+$1,$6,$7*
1,1,$1+$1,$8,$9*
0 Add four rect primitives between the rounded corners*
20,1,$1+$1,$2,$3,$4,$5,0*
20,1,$1+$1,$4,$5,$6,$7,0*
20,1,$1+$1,$6,$7,$8,$9,0*
20,1,$1+$1,$8,$9,$2,$3,0*%
G04 Aperture macros list end*
%ADD10C,0.010000*%
%ADD11C,6.400000*%
%ADD12O,1.000000X1.800000*%
%ADD13R,1.650000X1.650000*%
%ADD14C,1.650000*%
%ADD15C,2.000000*%
%ADD16RoundRect,0.225000X-0.250000X0.225000X-0.250000X-0.225000X0.250000X-0.225000X0.250000X0.225000X0*%
%ADD17R,1.800000X1.800000*%
%ADD18C,1.800000*%
%ADD19RoundRect,0.200000X-0.275000X0.200000X-0.275000X-0.200000X0.275000X-0.200000X0.275000X0.200000X0*%
%ADD20RoundRect,0.150000X0.512500X0.150000X-0.512500X0.150000X-0.512500X-0.150000X0.512500X-0.150000X0*%
%ADD21R,1.600000X1.000000*%
G04 APERTURE END LIST*
%TO.C,J4*%
D10*
X111210000Y-110100000D02*
X111240000Y-110102000D01*
X111270000Y-110106000D01*
X111300000Y-110111000D01*
X111329000Y-110118000D01*
X111358000Y-110127000D01*
X111386000Y-110137000D01*
X111414000Y-110149000D01*
X111442000Y-110162000D01*
X111468000Y-110176000D01*
X111494000Y-110192000D01*
X111519000Y-110209000D01*
X111543000Y-110227000D01*
X111566000Y-110247000D01*
X111587000Y-110268000D01*
X111608000Y-110289000D01*
X111628000Y-110312000D01*
X111646000Y-110336000D01*
X111663000Y-110361000D01*
X111679000Y-110387000D01*
X111693000Y-110413000D01*
X111706000Y-110441000D01*
X111718000Y-110469000D01*
X111728000Y-110497000D01*
X111737000Y-110526000D01*
X111744000Y-110555000D01*
X111749000Y-110585000D01*
X111753000Y-110615000D01*
X111755000Y-110645000D01*
X111756000Y-110675000D01*
X111756000Y-111875000D01*
X111755000Y-111905000D01*
X111753000Y-111935000D01*
X111749000Y-111965000D01*
X111744000Y-111995000D01*
X111737000Y-112024000D01*
X111728000Y-112053000D01*
X111718000Y-112081000D01*
X111706000Y-112109000D01*
X111693000Y-112137000D01*
X111679000Y-112163000D01*
X111663000Y-112189000D01*
X111646000Y-112214000D01*
X111628000Y-112238000D01*
X111608000Y-112261000D01*
X111587000Y-112282000D01*
X111566000Y-112303000D01*
X111543000Y-112323000D01*
X111519000Y-112341000D01*
X111494000Y-112358000D01*
X111468000Y-112374000D01*
X111442000Y-112388000D01*
X111414000Y-112401000D01*
X111386000Y-112413000D01*
X111358000Y-112423000D01*
X111329000Y-112432000D01*
X111300000Y-112439000D01*
X111270000Y-112444000D01*
X111240000Y-112448000D01*
X111210000Y-112450000D01*
X111180000Y-112451000D01*
X111150000Y-112450000D01*
X111120000Y-112448000D01*
X111090000Y-112444000D01*
X111060000Y-112439000D01*
X111031000Y-112432000D01*
X111002000Y-112423000D01*
X110974000Y-112413000D01*
X110946000Y-112401000D01*
X110918000Y-112388000D01*
X110892000Y-112374000D01*
X110866000Y-112358000D01*
X110841000Y-112341000D01*
X110817000Y-112323000D01*
X110794000Y-112303000D01*
X110773000Y-112282000D01*
X110752000Y-112261000D01*
X110732000Y-112238000D01*
X110714000Y-112214000D01*
X110697000Y-112189000D01*
X110681000Y-112163000D01*
X110667000Y-112137000D01*
X110654000Y-112109000D01*
X110642000Y-112081000D01*
X110632000Y-112053000D01*
X110623000Y-112024000D01*
X110616000Y-111995000D01*
X110611000Y-111965000D01*
X110607000Y-111935000D01*
X110605000Y-111905000D01*
X110604000Y-111875000D01*
X110603800Y-110675000D01*
X110604000Y-110675000D01*
X110605000Y-110645000D01*
X110607000Y-110615000D01*
X110611000Y-110585000D01*
X110616000Y-110555000D01*
X110623000Y-110526000D01*
X110632000Y-110497000D01*
X110642000Y-110469000D01*
X110654000Y-110441000D01*
X110667000Y-110413000D01*
X110681000Y-110387000D01*
X110697000Y-110361000D01*
X110714000Y-110336000D01*
X110732000Y-110312000D01*
X110752000Y-110289000D01*
X110773000Y-110268000D01*
X110794000Y-110247000D01*
X110817000Y-110227000D01*
X110841000Y-110209000D01*
X110866000Y-110192000D01*
X110892000Y-110176000D01*
X110918000Y-110162000D01*
X110946000Y-110149000D01*
X110974000Y-110137000D01*
X111002000Y-110127000D01*
X111031000Y-110118000D01*
X111060000Y-110111000D01*
X111090000Y-110106000D01*
X111120000Y-110102000D01*
X111150000Y-110100000D01*
X111180000Y-110099000D01*
X111210000Y-110100000D01*
G36*
X111210000Y-110100000D02*
G01*
X111240000Y-110102000D01*
X111270000Y-110106000D01*
X111300000Y-110111000D01*
X111329000Y-110118000D01*
X111358000Y-110127000D01*
X111386000Y-110137000D01*
X111414000Y-110149000D01*
X111442000Y-110162000D01*
X111468000Y-110176000D01*
X111494000Y-110192000D01*
X111519000Y-110209000D01*
X111543000Y-110227000D01*
X111566000Y-110247000D01*
X111587000Y-110268000D01*
X111608000Y-110289000D01*
X111628000Y-110312000D01*
X111646000Y-110336000D01*
X111663000Y-110361000D01*
X111679000Y-110387000D01*
X111693000Y-110413000D01*
X111706000Y-110441000D01*
X111718000Y-110469000D01*
X111728000Y-110497000D01*
X111737000Y-110526000D01*
X111744000Y-110555000D01*
X111749000Y-110585000D01*
X111753000Y-110615000D01*
X111755000Y-110645000D01*
X111756000Y-110675000D01*
X111756000Y-111875000D01*
X111755000Y-111905000D01*
X111753000Y-111935000D01*
X111749000Y-111965000D01*
X111744000Y-111995000D01*
X111737000Y-112024000D01*
X111728000Y-112053000D01*
X111718000Y-112081000D01*
X111706000Y-112109000D01*
X111693000Y-112137000D01*
X111679000Y-112163000D01*
X111663000Y-112189000D01*
X111646000Y-112214000D01*
X111628000Y-112238000D01*
X111608000Y-112261000D01*
X111587000Y-112282000D01*
X111566000Y-112303000D01*
X111543000Y-112323000D01*
X111519000Y-112341000D01*
X111494000Y-112358000D01*
X111468000Y-112374000D01*
X111442000Y-112388000D01*
X111414000Y-112401000D01*
X111386000Y-112413000D01*
X111358000Y-112423000D01*
X111329000Y-112432000D01*
X111300000Y-112439000D01*
X111270000Y-112444000D01*
X111240000Y-112448000D01*
X111210000Y-112450000D01*
X111180000Y-112451000D01*
X111150000Y-112450000D01*
X111120000Y-112448000D01*
X111090000Y-112444000D01*
X111060000Y-112439000D01*
X111031000Y-112432000D01*
X111002000Y-112423000D01*
X110974000Y-112413000D01*
X110946000Y-112401000D01*
X110918000Y-112388000D01*
X110892000Y-112374000D01*
X110866000Y-112358000D01*
X110841000Y-112341000D01*
X110817000Y-112323000D01*
X110794000Y-112303000D01*
X110773000Y-112282000D01*
X110752000Y-112261000D01*
X110732000Y-112238000D01*
X110714000Y-112214000D01*
X110697000Y-112189000D01*
X110681000Y-112163000D01*
X110667000Y-112137000D01*
X110654000Y-112109000D01*
X110642000Y-112081000D01*
X110632000Y-112053000D01*
X110623000Y-112024000D01*
X110616000Y-111995000D01*
X110611000Y-111965000D01*
X110607000Y-111935000D01*
X110605000Y-111905000D01*
X110604000Y-111875000D01*
X110603800Y-110675000D01*
X110604000Y-110675000D01*
X110605000Y-110645000D01*
X110607000Y-110615000D01*
X110611000Y-110585000D01*
X110616000Y-110555000D01*
X110623000Y-110526000D01*
X110632000Y-110497000D01*
X110642000Y-110469000D01*
X110654000Y-110441000D01*
X110667000Y-110413000D01*
X110681000Y-110387000D01*
X110697000Y-110361000D01*
X110714000Y-110336000D01*
X110732000Y-110312000D01*
X110752000Y-110289000D01*
X110773000Y-110268000D01*
X110794000Y-110247000D01*
X110817000Y-110227000D01*
X110841000Y-110209000D01*
X110866000Y-110192000D01*
X110892000Y-110176000D01*
X110918000Y-110162000D01*
X110946000Y-110149000D01*
X110974000Y-110137000D01*
X111002000Y-110127000D01*
X111031000Y-110118000D01*
X111060000Y-110111000D01*
X111090000Y-110106000D01*
X111120000Y-110102000D01*
X111150000Y-110100000D01*
X111180000Y-110099000D01*
X111210000Y-110100000D01*
G37*
X119850000Y-110100000D02*
X119880000Y-110102000D01*
X119910000Y-110106000D01*
X119940000Y-110111000D01*
X119969000Y-110118000D01*
X119998000Y-110127000D01*
X120026000Y-110137000D01*
X120054000Y-110149000D01*
X120082000Y-110162000D01*
X120108000Y-110176000D01*
X120134000Y-110192000D01*
X120159000Y-110209000D01*
X120183000Y-110227000D01*
X120206000Y-110247000D01*
X120227000Y-110268000D01*
X120248000Y-110289000D01*
X120268000Y-110312000D01*
X120286000Y-110336000D01*
X120303000Y-110361000D01*
X120319000Y-110387000D01*
X120333000Y-110413000D01*
X120346000Y-110441000D01*
X120358000Y-110469000D01*
X120368000Y-110497000D01*
X120377000Y-110526000D01*
X120384000Y-110555000D01*
X120389000Y-110585000D01*
X120393000Y-110615000D01*
X120395000Y-110645000D01*
X120396000Y-110675000D01*
X120396000Y-111875000D01*
X120395000Y-111905000D01*
X120393000Y-111935000D01*
X120389000Y-111965000D01*
X120384000Y-111995000D01*
X120377000Y-112024000D01*
X120368000Y-112053000D01*
X120358000Y-112081000D01*
X120346000Y-112109000D01*
X120333000Y-112137000D01*
X120319000Y-112163000D01*
X120303000Y-112189000D01*
X120286000Y-112214000D01*
X120268000Y-112238000D01*
X120248000Y-112261000D01*
X120227000Y-112282000D01*
X120206000Y-112303000D01*
X120183000Y-112323000D01*
X120159000Y-112341000D01*
X120134000Y-112358000D01*
X120108000Y-112374000D01*
X120082000Y-112388000D01*
X120054000Y-112401000D01*
X120026000Y-112413000D01*
X119998000Y-112423000D01*
X119969000Y-112432000D01*
X119940000Y-112439000D01*
X119910000Y-112444000D01*
X119880000Y-112448000D01*
X119850000Y-112450000D01*
X119820000Y-112451000D01*
X119790000Y-112450000D01*
X119760000Y-112448000D01*
X119730000Y-112444000D01*
X119700000Y-112439000D01*
X119671000Y-112432000D01*
X119642000Y-112423000D01*
X119614000Y-112413000D01*
X119586000Y-112401000D01*
X119558000Y-112388000D01*
X119532000Y-112374000D01*
X119506000Y-112358000D01*
X119481000Y-112341000D01*
X119457000Y-112323000D01*
X119434000Y-112303000D01*
X119413000Y-112282000D01*
X119392000Y-112261000D01*
X119372000Y-112238000D01*
X119354000Y-112214000D01*
X119337000Y-112189000D01*
X119321000Y-112163000D01*
X119307000Y-112137000D01*
X119294000Y-112109000D01*
X119282000Y-112081000D01*
X119272000Y-112053000D01*
X119263000Y-112024000D01*
X119256000Y-111995000D01*
X119251000Y-111965000D01*
X119247000Y-111935000D01*
X119245000Y-111905000D01*
X119244000Y-111875000D01*
X119243800Y-110675000D01*
X119244000Y-110675000D01*
X119245000Y-110645000D01*
X119247000Y-110615000D01*
X119251000Y-110585000D01*
X119256000Y-110555000D01*
X119263000Y-110526000D01*
X119272000Y-110497000D01*
X119282000Y-110469000D01*
X119294000Y-110441000D01*
X119307000Y-110413000D01*
X119321000Y-110387000D01*
X119337000Y-110361000D01*
X119354000Y-110336000D01*
X119372000Y-110312000D01*
X119392000Y-110289000D01*
X119413000Y-110268000D01*
X119434000Y-110247000D01*
X119457000Y-110227000D01*
X119481000Y-110209000D01*
X119506000Y-110192000D01*
X119532000Y-110176000D01*
X119558000Y-110162000D01*
X119586000Y-110149000D01*
X119614000Y-110137000D01*
X119642000Y-110127000D01*
X119671000Y-110118000D01*
X119700000Y-110111000D01*
X119730000Y-110106000D01*
X119760000Y-110102000D01*
X119790000Y-110100000D01*
X119820000Y-110099000D01*
X119850000Y-110100000D01*
G36*
X119850000Y-110100000D02*
G01*
X119880000Y-110102000D01*
X119910000Y-110106000D01*
X119940000Y-110111000D01*
X119969000Y-110118000D01*
X119998000Y-110127000D01*
X120026000Y-110137000D01*
X120054000Y-110149000D01*
X120082000Y-110162000D01*
X120108000Y-110176000D01*
X120134000Y-110192000D01*
X120159000Y-110209000D01*
X120183000Y-110227000D01*
X120206000Y-110247000D01*
X120227000Y-110268000D01*
X120248000Y-110289000D01*
X120268000Y-110312000D01*
X120286000Y-110336000D01*
X120303000Y-110361000D01*
X120319000Y-110387000D01*
X120333000Y-110413000D01*
X120346000Y-110441000D01*
X120358000Y-110469000D01*
X120368000Y-110497000D01*
X120377000Y-110526000D01*
X120384000Y-110555000D01*
X120389000Y-110585000D01*
X120393000Y-110615000D01*
X120395000Y-110645000D01*
X120396000Y-110675000D01*
X120396000Y-111875000D01*
X120395000Y-111905000D01*
X120393000Y-111935000D01*
X120389000Y-111965000D01*
X120384000Y-111995000D01*
X120377000Y-112024000D01*
X120368000Y-112053000D01*
X120358000Y-112081000D01*
X120346000Y-112109000D01*
X120333000Y-112137000D01*
X120319000Y-112163000D01*
X120303000Y-112189000D01*
X120286000Y-112214000D01*
X120268000Y-112238000D01*
X120248000Y-112261000D01*
X120227000Y-112282000D01*
X120206000Y-112303000D01*
X120183000Y-112323000D01*
X120159000Y-112341000D01*
X120134000Y-112358000D01*
X120108000Y-112374000D01*
X120082000Y-112388000D01*
X120054000Y-112401000D01*
X120026000Y-112413000D01*
X119998000Y-112423000D01*
X119969000Y-112432000D01*
X119940000Y-112439000D01*
X119910000Y-112444000D01*
X119880000Y-112448000D01*
X119850000Y-112450000D01*
X119820000Y-112451000D01*
X119790000Y-112450000D01*
X119760000Y-112448000D01*
X119730000Y-112444000D01*
X119700000Y-112439000D01*
X119671000Y-112432000D01*
X119642000Y-112423000D01*
X119614000Y-112413000D01*
X119586000Y-112401000D01*
X119558000Y-112388000D01*
X119532000Y-112374000D01*
X119506000Y-112358000D01*
X119481000Y-112341000D01*
X119457000Y-112323000D01*
X119434000Y-112303000D01*
X119413000Y-112282000D01*
X119392000Y-112261000D01*
X119372000Y-112238000D01*
X119354000Y-112214000D01*
X119337000Y-112189000D01*
X119321000Y-112163000D01*
X119307000Y-112137000D01*
X119294000Y-112109000D01*
X119282000Y-112081000D01*
X119272000Y-112053000D01*
X119263000Y-112024000D01*
X119256000Y-111995000D01*
X119251000Y-111965000D01*
X119247000Y-111935000D01*
X119245000Y-111905000D01*
X119244000Y-111875000D01*
X119243800Y-110675000D01*
X119244000Y-110675000D01*
X119245000Y-110645000D01*
X119247000Y-110615000D01*
X119251000Y-110585000D01*
X119256000Y-110555000D01*
X119263000Y-110526000D01*
X119272000Y-110497000D01*
X119282000Y-110469000D01*
X119294000Y-110441000D01*
X119307000Y-110413000D01*
X119321000Y-110387000D01*
X119337000Y-110361000D01*
X119354000Y-110336000D01*
X119372000Y-110312000D01*
X119392000Y-110289000D01*
X119413000Y-110268000D01*
X119434000Y-110247000D01*
X119457000Y-110227000D01*
X119481000Y-110209000D01*
X119506000Y-110192000D01*
X119532000Y-110176000D01*
X119558000Y-110162000D01*
X119586000Y-110149000D01*
X119614000Y-110137000D01*
X119642000Y-110127000D01*
X119671000Y-110118000D01*
X119700000Y-110111000D01*
X119730000Y-110106000D01*
X119760000Y-110102000D01*
X119790000Y-110100000D01*
X119820000Y-110099000D01*
X119850000Y-110100000D01*
G37*
%TD*%
D11*
%TO.C,H4*%
X145600000Y-108800000D03*
%TD*%
%TO.C,H1*%
X100600000Y-62800000D03*
%TD*%
%TO.C,H2*%
X145600000Y-62800000D03*
%TD*%
D12*
%TO.C,J4*%
X111180000Y-107275000D03*
X119820000Y-107275000D03*
%TD*%
D11*
%TO.C,H3*%
X100600000Y-108800000D03*
%TD*%
D13*
%TO.C,J2*%
X134400000Y-87840000D03*
D14*
X134400000Y-85300000D03*
X134400000Y-82760000D03*
X134400000Y-80220000D03*
%TD*%
D15*
%TO.C,TP2*%
X145900000Y-76100000D03*
%TD*%
%TO.C,TP1*%
X145900000Y-72100000D03*
%TD*%
D16*
%TO.C,C2*%
X123900000Y-95425000D03*
X123900000Y-96975000D03*
%TD*%
D15*
%TO.C,TP6*%
X109100000Y-78800000D03*
%TD*%
%TO.C,TP5*%
X111900000Y-82800000D03*
%TD*%
%TO.C,TP3*%
X145900000Y-80100000D03*
%TD*%
%TO.C,TP8*%
X113200000Y-102600000D03*
%TD*%
%TO.C,TP9*%
X143100000Y-100000000D03*
%TD*%
D17*
%TO.C,D1*%
X139125000Y-92525000D03*
D18*
X139125000Y-95065000D03*
%TD*%
D19*
%TO.C,R1*%
X136100000Y-92575000D03*
X136100000Y-94225000D03*
%TD*%
D15*
%TO.C,TP4*%
X145900000Y-84100000D03*
%TD*%
D20*
%TO.C,U4*%
X128600000Y-95250000D03*
X128600000Y-96200000D03*
X128600000Y-97150000D03*
X126325000Y-97150000D03*
X126325000Y-95250000D03*
%TD*%
D15*
%TO.C,J7*%
X126200000Y-109075000D03*
%TD*%
%TO.C,J6*%
X130200000Y-109075000D03*
%TD*%
%TO.C,TP7*%
X119800000Y-103700000D03*
%TD*%
D21*
%TO.C,SW6*%
X105700000Y-83250000D03*
X103400000Y-85000000D03*
X105700000Y-86750000D03*
%TD*%
D16*
%TO.C,C1*%
X131100000Y-95425000D03*
X131100000Y-96975000D03*
%TD*%
D15*
%TO.C,J9*%
X134200000Y-109075000D03*
%TD*%
%TO.C,J11*%
X138200000Y-109075000D03*
%TD*%
M02*
