%TF.GenerationSoftware,KiCad,Pcbnew,7.0.1*%
%TF.CreationDate,2023-07-17T15:28:08+02:00*%
%TF.ProjectId,Had_Konzole,4861645f-4b6f-46e7-9a6f-6c652e6b6963,rev?*%
%TF.SameCoordinates,Original*%
%TF.FileFunction,Copper,L4,Bot*%
%TF.FilePolarity,Positive*%
%FSLAX46Y46*%
G04 Gerber Fmt 4.6, Leading zero omitted, Abs format (unit mm)*
G04 Created by KiCad (PCBNEW 7.0.1) date 2023-07-17 15:28:08*
%MOMM*%
%LPD*%
G01*
G04 APERTURE LIST*
G04 Aperture macros list*
%AMRoundRect*
0 Rectangle with rounded corners*
0 $1 Rounding radius*
0 $2 $3 $4 $5 $6 $7 $8 $9 X,Y pos of 4 corners*
0 Add a 4 corners polygon primitive as box body*
4,1,4,$2,$3,$4,$5,$6,$7,$8,$9,$2,$3,0*
0 Add four circle primitives for the rounded corners*
1,1,$1+$1,$2,$3*
1,1,$1+$1,$4,$5*
1,1,$1+$1,$6,$7*
1,1,$1+$1,$8,$9*
0 Add four rect primitives between the rounded corners*
20,1,$1+$1,$2,$3,$4,$5,0*
20,1,$1+$1,$4,$5,$6,$7,0*
20,1,$1+$1,$6,$7,$8,$9,0*
20,1,$1+$1,$8,$9,$2,$3,0*%
G04 Aperture macros list end*
%TA.AperFunction,EtchedComponent*%
%ADD10C,0.010000*%
%TD*%
%TA.AperFunction,ComponentPad*%
%ADD11C,6.400000*%
%TD*%
%TA.AperFunction,ComponentPad*%
%ADD12C,1.000000*%
%TD*%
%TA.AperFunction,ComponentPad*%
%ADD13O,1.000000X1.800000*%
%TD*%
%TA.AperFunction,ComponentPad*%
%ADD14R,1.650000X1.650000*%
%TD*%
%TA.AperFunction,ComponentPad*%
%ADD15C,1.650000*%
%TD*%
%TA.AperFunction,SMDPad,CuDef*%
%ADD16C,2.000000*%
%TD*%
%TA.AperFunction,SMDPad,CuDef*%
%ADD17RoundRect,0.225000X-0.250000X0.225000X-0.250000X-0.225000X0.250000X-0.225000X0.250000X0.225000X0*%
%TD*%
%TA.AperFunction,ComponentPad*%
%ADD18R,1.800000X1.800000*%
%TD*%
%TA.AperFunction,ComponentPad*%
%ADD19C,1.800000*%
%TD*%
%TA.AperFunction,SMDPad,CuDef*%
%ADD20RoundRect,0.200000X-0.275000X0.200000X-0.275000X-0.200000X0.275000X-0.200000X0.275000X0.200000X0*%
%TD*%
%TA.AperFunction,SMDPad,CuDef*%
%ADD21RoundRect,0.150000X0.512500X0.150000X-0.512500X0.150000X-0.512500X-0.150000X0.512500X-0.150000X0*%
%TD*%
%TA.AperFunction,SMDPad,CuDef*%
%ADD22R,1.600000X1.000000*%
%TD*%
%TA.AperFunction,ViaPad*%
%ADD23C,0.800000*%
%TD*%
%TA.AperFunction,Conductor*%
%ADD24C,0.500000*%
%TD*%
%TA.AperFunction,Conductor*%
%ADD25C,0.250000*%
%TD*%
%TA.AperFunction,Conductor*%
%ADD26C,0.300000*%
%TD*%
%TA.AperFunction,Conductor*%
%ADD27C,0.200000*%
%TD*%
G04 APERTURE END LIST*
%TO.C,J4*%
D10*
X111206000Y-110176000D02*
X111232000Y-110178000D01*
X111258000Y-110181000D01*
X111284000Y-110186000D01*
X111309000Y-110192000D01*
X111335000Y-110199000D01*
X111359000Y-110208000D01*
X111383000Y-110218000D01*
X111407000Y-110229000D01*
X111430000Y-110242000D01*
X111452000Y-110256000D01*
X111474000Y-110270000D01*
X111495000Y-110286000D01*
X111515000Y-110303000D01*
X111534000Y-110321000D01*
X111552000Y-110340000D01*
X111569000Y-110360000D01*
X111585000Y-110381000D01*
X111599000Y-110403000D01*
X111613000Y-110425000D01*
X111626000Y-110448000D01*
X111637000Y-110472000D01*
X111647000Y-110496000D01*
X111656000Y-110520000D01*
X111663000Y-110546000D01*
X111669000Y-110571000D01*
X111674000Y-110597000D01*
X111677000Y-110623000D01*
X111679000Y-110649000D01*
X111680000Y-110675000D01*
X111680000Y-111875000D01*
X111679000Y-111901000D01*
X111677000Y-111927000D01*
X111674000Y-111953000D01*
X111669000Y-111979000D01*
X111663000Y-112004000D01*
X111656000Y-112030000D01*
X111647000Y-112054000D01*
X111637000Y-112078000D01*
X111626000Y-112102000D01*
X111613000Y-112125000D01*
X111599000Y-112147000D01*
X111585000Y-112169000D01*
X111569000Y-112190000D01*
X111552000Y-112210000D01*
X111534000Y-112229000D01*
X111515000Y-112247000D01*
X111495000Y-112264000D01*
X111474000Y-112280000D01*
X111452000Y-112294000D01*
X111430000Y-112308000D01*
X111407000Y-112321000D01*
X111383000Y-112332000D01*
X111359000Y-112342000D01*
X111335000Y-112351000D01*
X111309000Y-112358000D01*
X111284000Y-112364000D01*
X111258000Y-112369000D01*
X111232000Y-112372000D01*
X111206000Y-112374000D01*
X111180000Y-112375000D01*
X111154000Y-112374000D01*
X111128000Y-112372000D01*
X111102000Y-112369000D01*
X111076000Y-112364000D01*
X111051000Y-112358000D01*
X111025000Y-112351000D01*
X111001000Y-112342000D01*
X110977000Y-112332000D01*
X110953000Y-112321000D01*
X110930000Y-112308000D01*
X110908000Y-112294000D01*
X110886000Y-112280000D01*
X110865000Y-112264000D01*
X110845000Y-112247000D01*
X110826000Y-112229000D01*
X110808000Y-112210000D01*
X110791000Y-112190000D01*
X110775000Y-112169000D01*
X110761000Y-112147000D01*
X110747000Y-112125000D01*
X110734000Y-112102000D01*
X110723000Y-112078000D01*
X110713000Y-112054000D01*
X110704000Y-112030000D01*
X110697000Y-112004000D01*
X110691000Y-111979000D01*
X110686000Y-111953000D01*
X110683000Y-111927000D01*
X110681000Y-111901000D01*
X110680000Y-111875000D01*
X110680000Y-110675000D01*
X110681000Y-110649000D01*
X110683000Y-110623000D01*
X110686000Y-110597000D01*
X110691000Y-110571000D01*
X110697000Y-110546000D01*
X110704000Y-110520000D01*
X110713000Y-110496000D01*
X110723000Y-110472000D01*
X110734000Y-110448000D01*
X110747000Y-110425000D01*
X110761000Y-110403000D01*
X110775000Y-110381000D01*
X110791000Y-110360000D01*
X110808000Y-110340000D01*
X110826000Y-110321000D01*
X110845000Y-110303000D01*
X110865000Y-110286000D01*
X110886000Y-110270000D01*
X110908000Y-110256000D01*
X110930000Y-110242000D01*
X110953000Y-110229000D01*
X110977000Y-110218000D01*
X111001000Y-110208000D01*
X111025000Y-110199000D01*
X111051000Y-110192000D01*
X111076000Y-110186000D01*
X111102000Y-110181000D01*
X111128000Y-110178000D01*
X111154000Y-110176000D01*
X111180000Y-110175000D01*
X111206000Y-110176000D01*
%TA.AperFunction,EtchedComponent*%
G36*
X111206000Y-110176000D02*
G01*
X111232000Y-110178000D01*
X111258000Y-110181000D01*
X111284000Y-110186000D01*
X111309000Y-110192000D01*
X111335000Y-110199000D01*
X111359000Y-110208000D01*
X111383000Y-110218000D01*
X111407000Y-110229000D01*
X111430000Y-110242000D01*
X111452000Y-110256000D01*
X111474000Y-110270000D01*
X111495000Y-110286000D01*
X111515000Y-110303000D01*
X111534000Y-110321000D01*
X111552000Y-110340000D01*
X111569000Y-110360000D01*
X111585000Y-110381000D01*
X111599000Y-110403000D01*
X111613000Y-110425000D01*
X111626000Y-110448000D01*
X111637000Y-110472000D01*
X111647000Y-110496000D01*
X111656000Y-110520000D01*
X111663000Y-110546000D01*
X111669000Y-110571000D01*
X111674000Y-110597000D01*
X111677000Y-110623000D01*
X111679000Y-110649000D01*
X111680000Y-110675000D01*
X111680000Y-111875000D01*
X111679000Y-111901000D01*
X111677000Y-111927000D01*
X111674000Y-111953000D01*
X111669000Y-111979000D01*
X111663000Y-112004000D01*
X111656000Y-112030000D01*
X111647000Y-112054000D01*
X111637000Y-112078000D01*
X111626000Y-112102000D01*
X111613000Y-112125000D01*
X111599000Y-112147000D01*
X111585000Y-112169000D01*
X111569000Y-112190000D01*
X111552000Y-112210000D01*
X111534000Y-112229000D01*
X111515000Y-112247000D01*
X111495000Y-112264000D01*
X111474000Y-112280000D01*
X111452000Y-112294000D01*
X111430000Y-112308000D01*
X111407000Y-112321000D01*
X111383000Y-112332000D01*
X111359000Y-112342000D01*
X111335000Y-112351000D01*
X111309000Y-112358000D01*
X111284000Y-112364000D01*
X111258000Y-112369000D01*
X111232000Y-112372000D01*
X111206000Y-112374000D01*
X111180000Y-112375000D01*
X111154000Y-112374000D01*
X111128000Y-112372000D01*
X111102000Y-112369000D01*
X111076000Y-112364000D01*
X111051000Y-112358000D01*
X111025000Y-112351000D01*
X111001000Y-112342000D01*
X110977000Y-112332000D01*
X110953000Y-112321000D01*
X110930000Y-112308000D01*
X110908000Y-112294000D01*
X110886000Y-112280000D01*
X110865000Y-112264000D01*
X110845000Y-112247000D01*
X110826000Y-112229000D01*
X110808000Y-112210000D01*
X110791000Y-112190000D01*
X110775000Y-112169000D01*
X110761000Y-112147000D01*
X110747000Y-112125000D01*
X110734000Y-112102000D01*
X110723000Y-112078000D01*
X110713000Y-112054000D01*
X110704000Y-112030000D01*
X110697000Y-112004000D01*
X110691000Y-111979000D01*
X110686000Y-111953000D01*
X110683000Y-111927000D01*
X110681000Y-111901000D01*
X110680000Y-111875000D01*
X110680000Y-110675000D01*
X110681000Y-110649000D01*
X110683000Y-110623000D01*
X110686000Y-110597000D01*
X110691000Y-110571000D01*
X110697000Y-110546000D01*
X110704000Y-110520000D01*
X110713000Y-110496000D01*
X110723000Y-110472000D01*
X110734000Y-110448000D01*
X110747000Y-110425000D01*
X110761000Y-110403000D01*
X110775000Y-110381000D01*
X110791000Y-110360000D01*
X110808000Y-110340000D01*
X110826000Y-110321000D01*
X110845000Y-110303000D01*
X110865000Y-110286000D01*
X110886000Y-110270000D01*
X110908000Y-110256000D01*
X110930000Y-110242000D01*
X110953000Y-110229000D01*
X110977000Y-110218000D01*
X111001000Y-110208000D01*
X111025000Y-110199000D01*
X111051000Y-110192000D01*
X111076000Y-110186000D01*
X111102000Y-110181000D01*
X111128000Y-110178000D01*
X111154000Y-110176000D01*
X111180000Y-110175000D01*
X111206000Y-110176000D01*
G37*
%TD.AperFunction*%
X119846000Y-110176000D02*
X119872000Y-110178000D01*
X119898000Y-110181000D01*
X119924000Y-110186000D01*
X119949000Y-110192000D01*
X119975000Y-110199000D01*
X119999000Y-110208000D01*
X120023000Y-110218000D01*
X120047000Y-110229000D01*
X120070000Y-110242000D01*
X120092000Y-110256000D01*
X120114000Y-110270000D01*
X120135000Y-110286000D01*
X120155000Y-110303000D01*
X120174000Y-110321000D01*
X120192000Y-110340000D01*
X120209000Y-110360000D01*
X120225000Y-110381000D01*
X120239000Y-110403000D01*
X120253000Y-110425000D01*
X120266000Y-110448000D01*
X120277000Y-110472000D01*
X120287000Y-110496000D01*
X120296000Y-110520000D01*
X120303000Y-110546000D01*
X120309000Y-110571000D01*
X120314000Y-110597000D01*
X120317000Y-110623000D01*
X120319000Y-110649000D01*
X120320000Y-110675000D01*
X120320000Y-111875000D01*
X120319000Y-111901000D01*
X120317000Y-111927000D01*
X120314000Y-111953000D01*
X120309000Y-111979000D01*
X120303000Y-112004000D01*
X120296000Y-112030000D01*
X120287000Y-112054000D01*
X120277000Y-112078000D01*
X120266000Y-112102000D01*
X120253000Y-112125000D01*
X120239000Y-112147000D01*
X120225000Y-112169000D01*
X120209000Y-112190000D01*
X120192000Y-112210000D01*
X120174000Y-112229000D01*
X120155000Y-112247000D01*
X120135000Y-112264000D01*
X120114000Y-112280000D01*
X120092000Y-112294000D01*
X120070000Y-112308000D01*
X120047000Y-112321000D01*
X120023000Y-112332000D01*
X119999000Y-112342000D01*
X119975000Y-112351000D01*
X119949000Y-112358000D01*
X119924000Y-112364000D01*
X119898000Y-112369000D01*
X119872000Y-112372000D01*
X119846000Y-112374000D01*
X119820000Y-112375000D01*
X119794000Y-112374000D01*
X119768000Y-112372000D01*
X119742000Y-112369000D01*
X119716000Y-112364000D01*
X119691000Y-112358000D01*
X119665000Y-112351000D01*
X119641000Y-112342000D01*
X119617000Y-112332000D01*
X119593000Y-112321000D01*
X119570000Y-112308000D01*
X119548000Y-112294000D01*
X119526000Y-112280000D01*
X119505000Y-112264000D01*
X119485000Y-112247000D01*
X119466000Y-112229000D01*
X119448000Y-112210000D01*
X119431000Y-112190000D01*
X119415000Y-112169000D01*
X119401000Y-112147000D01*
X119387000Y-112125000D01*
X119374000Y-112102000D01*
X119363000Y-112078000D01*
X119353000Y-112054000D01*
X119344000Y-112030000D01*
X119337000Y-112004000D01*
X119331000Y-111979000D01*
X119326000Y-111953000D01*
X119323000Y-111927000D01*
X119321000Y-111901000D01*
X119320000Y-111875000D01*
X119320000Y-110675000D01*
X119321000Y-110649000D01*
X119323000Y-110623000D01*
X119326000Y-110597000D01*
X119331000Y-110571000D01*
X119337000Y-110546000D01*
X119344000Y-110520000D01*
X119353000Y-110496000D01*
X119363000Y-110472000D01*
X119374000Y-110448000D01*
X119387000Y-110425000D01*
X119401000Y-110403000D01*
X119415000Y-110381000D01*
X119431000Y-110360000D01*
X119448000Y-110340000D01*
X119466000Y-110321000D01*
X119485000Y-110303000D01*
X119505000Y-110286000D01*
X119526000Y-110270000D01*
X119548000Y-110256000D01*
X119570000Y-110242000D01*
X119593000Y-110229000D01*
X119617000Y-110218000D01*
X119641000Y-110208000D01*
X119665000Y-110199000D01*
X119691000Y-110192000D01*
X119716000Y-110186000D01*
X119742000Y-110181000D01*
X119768000Y-110178000D01*
X119794000Y-110176000D01*
X119820000Y-110175000D01*
X119846000Y-110176000D01*
%TA.AperFunction,EtchedComponent*%
G36*
X119846000Y-110176000D02*
G01*
X119872000Y-110178000D01*
X119898000Y-110181000D01*
X119924000Y-110186000D01*
X119949000Y-110192000D01*
X119975000Y-110199000D01*
X119999000Y-110208000D01*
X120023000Y-110218000D01*
X120047000Y-110229000D01*
X120070000Y-110242000D01*
X120092000Y-110256000D01*
X120114000Y-110270000D01*
X120135000Y-110286000D01*
X120155000Y-110303000D01*
X120174000Y-110321000D01*
X120192000Y-110340000D01*
X120209000Y-110360000D01*
X120225000Y-110381000D01*
X120239000Y-110403000D01*
X120253000Y-110425000D01*
X120266000Y-110448000D01*
X120277000Y-110472000D01*
X120287000Y-110496000D01*
X120296000Y-110520000D01*
X120303000Y-110546000D01*
X120309000Y-110571000D01*
X120314000Y-110597000D01*
X120317000Y-110623000D01*
X120319000Y-110649000D01*
X120320000Y-110675000D01*
X120320000Y-111875000D01*
X120319000Y-111901000D01*
X120317000Y-111927000D01*
X120314000Y-111953000D01*
X120309000Y-111979000D01*
X120303000Y-112004000D01*
X120296000Y-112030000D01*
X120287000Y-112054000D01*
X120277000Y-112078000D01*
X120266000Y-112102000D01*
X120253000Y-112125000D01*
X120239000Y-112147000D01*
X120225000Y-112169000D01*
X120209000Y-112190000D01*
X120192000Y-112210000D01*
X120174000Y-112229000D01*
X120155000Y-112247000D01*
X120135000Y-112264000D01*
X120114000Y-112280000D01*
X120092000Y-112294000D01*
X120070000Y-112308000D01*
X120047000Y-112321000D01*
X120023000Y-112332000D01*
X119999000Y-112342000D01*
X119975000Y-112351000D01*
X119949000Y-112358000D01*
X119924000Y-112364000D01*
X119898000Y-112369000D01*
X119872000Y-112372000D01*
X119846000Y-112374000D01*
X119820000Y-112375000D01*
X119794000Y-112374000D01*
X119768000Y-112372000D01*
X119742000Y-112369000D01*
X119716000Y-112364000D01*
X119691000Y-112358000D01*
X119665000Y-112351000D01*
X119641000Y-112342000D01*
X119617000Y-112332000D01*
X119593000Y-112321000D01*
X119570000Y-112308000D01*
X119548000Y-112294000D01*
X119526000Y-112280000D01*
X119505000Y-112264000D01*
X119485000Y-112247000D01*
X119466000Y-112229000D01*
X119448000Y-112210000D01*
X119431000Y-112190000D01*
X119415000Y-112169000D01*
X119401000Y-112147000D01*
X119387000Y-112125000D01*
X119374000Y-112102000D01*
X119363000Y-112078000D01*
X119353000Y-112054000D01*
X119344000Y-112030000D01*
X119337000Y-112004000D01*
X119331000Y-111979000D01*
X119326000Y-111953000D01*
X119323000Y-111927000D01*
X119321000Y-111901000D01*
X119320000Y-111875000D01*
X119320000Y-110675000D01*
X119321000Y-110649000D01*
X119323000Y-110623000D01*
X119326000Y-110597000D01*
X119331000Y-110571000D01*
X119337000Y-110546000D01*
X119344000Y-110520000D01*
X119353000Y-110496000D01*
X119363000Y-110472000D01*
X119374000Y-110448000D01*
X119387000Y-110425000D01*
X119401000Y-110403000D01*
X119415000Y-110381000D01*
X119431000Y-110360000D01*
X119448000Y-110340000D01*
X119466000Y-110321000D01*
X119485000Y-110303000D01*
X119505000Y-110286000D01*
X119526000Y-110270000D01*
X119548000Y-110256000D01*
X119570000Y-110242000D01*
X119593000Y-110229000D01*
X119617000Y-110218000D01*
X119641000Y-110208000D01*
X119665000Y-110199000D01*
X119691000Y-110192000D01*
X119716000Y-110186000D01*
X119742000Y-110181000D01*
X119768000Y-110178000D01*
X119794000Y-110176000D01*
X119820000Y-110175000D01*
X119846000Y-110176000D01*
G37*
%TD.AperFunction*%
%TD*%
D11*
%TO.P,H4,1,1*%
%TO.N,GND*%
X145600000Y-108800000D03*
%TD*%
%TO.P,H1,1,1*%
%TO.N,GND*%
X100600000Y-62800000D03*
%TD*%
%TO.P,H2,1,1*%
%TO.N,GND*%
X145600000Y-62800000D03*
%TD*%
D12*
%TO.P,J4,S1,SHIELD*%
%TO.N,unconnected-(J4-SHIELD-PadS1)*%
X111180000Y-111275000D03*
%TO.P,J4,S2,SHIELD*%
X119820000Y-111275000D03*
D13*
%TO.P,J4,S3,SHIELD*%
X111180000Y-107275000D03*
%TO.P,J4,S4,SHIELD*%
X119820000Y-107275000D03*
%TD*%
D11*
%TO.P,H3,1,1*%
%TO.N,GND*%
X100600000Y-108800000D03*
%TD*%
D14*
%TO.P,J2,1,Pin_1*%
%TO.N,Reset*%
X134400000Y-87840000D03*
D15*
%TO.P,J2,2,Pin_2*%
%TO.N,MOSI*%
X134400000Y-85300000D03*
%TO.P,J2,3,Pin_3*%
%TO.N,MISO*%
X134400000Y-82760000D03*
%TO.P,J2,4,Pin_4*%
%TO.N,SCK*%
X134400000Y-80220000D03*
%TD*%
D16*
%TO.P,TP2,1,1*%
%TO.N,MISO*%
X145900000Y-76100000D03*
%TD*%
%TO.P,TP1,1,1*%
%TO.N,SCK*%
X145900000Y-72100000D03*
%TD*%
D17*
%TO.P,C2,1*%
%TO.N,3.3 Out*%
X123900000Y-95425000D03*
%TO.P,C2,2*%
%TO.N,GND*%
X123900000Y-96975000D03*
%TD*%
D16*
%TO.P,TP6,1,1*%
%TO.N,RX*%
X109100000Y-78800000D03*
%TD*%
%TO.P,TP5,1,1*%
%TO.N,TX*%
X111900000Y-82800000D03*
%TD*%
%TO.P,TP3,1,1*%
%TO.N,MOSI*%
X145900000Y-80100000D03*
%TD*%
%TO.P,TP8,1,1*%
%TO.N,USB_Conn_D+*%
X113200000Y-102600000D03*
%TD*%
%TO.P,TP9,1,1*%
%TO.N,+3V3*%
X143100000Y-100000000D03*
%TD*%
D18*
%TO.P,D1,1,K*%
%TO.N,Net-(D1-K)*%
X139125000Y-92525000D03*
D19*
%TO.P,D1,2,A*%
%TO.N,+3V3*%
X139125000Y-95065000D03*
%TD*%
D20*
%TO.P,R1,1*%
%TO.N,Net-(D1-K)*%
X136100000Y-92575000D03*
%TO.P,R1,2*%
%TO.N,GND*%
X136100000Y-94225000D03*
%TD*%
D16*
%TO.P,TP4,1,1*%
%TO.N,Reset*%
X145900000Y-84100000D03*
%TD*%
D21*
%TO.P,U4,1,VIN*%
%TO.N,+5V*%
X128600000Y-95250000D03*
%TO.P,U4,2,GND*%
%TO.N,GND*%
X128600000Y-96200000D03*
%TO.P,U4,3,EN*%
%TO.N,unconnected-(U4-EN-Pad3)*%
X128600000Y-97150000D03*
%TO.P,U4,4,NC*%
%TO.N,unconnected-(U4-NC-Pad4)*%
X126325000Y-97150000D03*
%TO.P,U4,5,VOUT*%
%TO.N,3.3 Out*%
X126325000Y-95250000D03*
%TD*%
D16*
%TO.P,J7,1,Pin_1*%
%TO.N,+3V3*%
X126200000Y-109075000D03*
%TD*%
%TO.P,J6,1,Pin_1*%
%TO.N,+3V3*%
X130200000Y-109075000D03*
%TD*%
%TO.P,TP7,1,1*%
%TO.N,USB_Conn_D-*%
X119800000Y-103700000D03*
%TD*%
D22*
%TO.P,SW6,1,A*%
%TO.N,Reset*%
X105700000Y-83250000D03*
%TO.P,SW6,2,B*%
%TO.N,RST_PROG*%
X103400000Y-85000000D03*
%TO.P,SW6,3,C*%
%TO.N,DTR*%
X105700000Y-86750000D03*
%TD*%
D17*
%TO.P,C1,1*%
%TO.N,+5V*%
X131100000Y-95425000D03*
%TO.P,C1,2*%
%TO.N,GND*%
X131100000Y-96975000D03*
%TD*%
D16*
%TO.P,J9,1,Pin_1*%
%TO.N,+3V3*%
X134200000Y-109075000D03*
%TD*%
%TO.P,J11,1,Pin_1*%
%TO.N,+3V3*%
X138200000Y-109075000D03*
%TD*%
D23*
%TO.N,GND*%
X118750000Y-109000000D03*
X127700000Y-78350000D03*
X130250000Y-101700000D03*
X108350000Y-98500000D03*
X105900000Y-70000000D03*
X127700000Y-73550000D03*
X138250000Y-101700000D03*
X112600000Y-108500000D03*
X134300000Y-101700000D03*
X134850000Y-94250000D03*
X106000000Y-76250000D03*
X113000000Y-70200000D03*
X111500000Y-90050000D03*
X119900000Y-100800000D03*
X126150000Y-101700000D03*
X120500000Y-88500000D03*
X111100000Y-100800000D03*
X123900000Y-98150000D03*
X147950000Y-88150000D03*
X131100000Y-98150000D03*
%TO.N,3.3 Out*%
X100100000Y-93500000D03*
%TO.N,+3V3*%
X111750000Y-75950000D03*
X111800000Y-73050000D03*
X132200000Y-109100000D03*
X128200000Y-109100000D03*
X124200000Y-109100000D03*
X136200000Y-109150000D03*
X127700000Y-76700000D03*
X116150000Y-67500000D03*
X140400000Y-68100000D03*
X111550000Y-88100000D03*
X106250000Y-91000000D03*
X120600000Y-92450000D03*
%TO.N,+5V*%
X110900000Y-99300000D03*
%TO.N,SCK*%
X126500000Y-80200000D03*
%TO.N,MISO*%
X122600000Y-80600000D03*
%TO.N,MOSI*%
X121700000Y-81500000D03*
%TO.N,DTR*%
X108800000Y-88400000D03*
X111000000Y-86800000D03*
%TO.N,RST*%
X125500000Y-65000000D03*
X132100000Y-74400000D03*
%TO.N,DC*%
X130100000Y-73300000D03*
X126000000Y-67900000D03*
%TO.N,HSE_OUT*%
X111300000Y-76975500D03*
X113800000Y-78800000D03*
%TO.N,Button_Up*%
X120992893Y-75700000D03*
X130800000Y-81500000D03*
%TO.N,Button_Left*%
X133600000Y-92200000D03*
X119200000Y-84400000D03*
%TO.N,Button_Down*%
X127700000Y-86900000D03*
X118400000Y-76700000D03*
%TO.N,TX*%
X119550000Y-72050000D03*
X116800000Y-83600000D03*
X115800000Y-80400000D03*
%TO.N,RX*%
X114650000Y-81050000D03*
X118450000Y-72100000D03*
%TO.N,USB_Conn_D+*%
X110300000Y-97500000D03*
%TO.N,USB_Conn_D-*%
X116500000Y-109200000D03*
X116100000Y-103500000D03*
%TO.N,Reset*%
X106500000Y-79900000D03*
%TO.N,RST_PROG*%
X102100000Y-80000000D03*
X119000000Y-66400000D03*
%TD*%
D24*
%TO.N,GND*%
X131100000Y-96975000D02*
X130325000Y-96200000D01*
D25*
X136100000Y-94225000D02*
X134875000Y-94225000D01*
X123900000Y-96975000D02*
X123900000Y-98150000D01*
X134875000Y-94225000D02*
X134850000Y-94250000D01*
D24*
X130325000Y-96200000D02*
X128600000Y-96200000D01*
X131100000Y-96975000D02*
X131100000Y-98150000D01*
D26*
%TO.N,3.3 Out*%
X123900000Y-95425000D02*
X102025000Y-95425000D01*
X126150000Y-95425000D02*
X126325000Y-95250000D01*
X102025000Y-95425000D02*
X100100000Y-93500000D01*
X123900000Y-95425000D02*
X126150000Y-95425000D01*
D25*
%TO.N,+3V3*%
X126175000Y-109100000D02*
X126200000Y-109075000D01*
X128200000Y-109100000D02*
X130175000Y-109100000D01*
X139125000Y-96025000D02*
X139125000Y-95065000D01*
X136200000Y-109150000D02*
X138125000Y-109150000D01*
X132200000Y-109100000D02*
X134175000Y-109100000D01*
X138125000Y-109150000D02*
X138200000Y-109075000D01*
X143100000Y-100000000D02*
X139125000Y-96025000D01*
X134175000Y-109100000D02*
X134200000Y-109075000D01*
X124200000Y-109100000D02*
X126175000Y-109100000D01*
X130175000Y-109100000D02*
X130200000Y-109075000D01*
D24*
%TO.N,+5V*%
X133800000Y-95800000D02*
X133300000Y-95300000D01*
X110900000Y-99300000D02*
X132500000Y-99300000D01*
X133800000Y-98000000D02*
X133800000Y-95800000D01*
X131225000Y-95300000D02*
X131100000Y-95425000D01*
X131100000Y-95425000D02*
X128775000Y-95425000D01*
X132500000Y-99300000D02*
X133800000Y-98000000D01*
X128775000Y-95425000D02*
X128600000Y-95250000D01*
X133300000Y-95300000D02*
X131225000Y-95300000D01*
D25*
%TO.N,Net-(D1-K)*%
X136100000Y-92575000D02*
X136150000Y-92525000D01*
X136150000Y-92525000D02*
X139125000Y-92525000D01*
%TO.N,SCK*%
X126520000Y-80220000D02*
X126500000Y-80200000D01*
X142520000Y-72100000D02*
X145900000Y-72100000D01*
X131000000Y-80220000D02*
X126520000Y-80220000D01*
X134400000Y-80220000D02*
X131000000Y-80220000D01*
X134400000Y-80220000D02*
X142520000Y-72100000D01*
%TO.N,MISO*%
X136040000Y-82760000D02*
X142700000Y-76100000D01*
X142700000Y-76100000D02*
X145900000Y-76100000D01*
X122600000Y-80800000D02*
X124560000Y-82760000D01*
X124560000Y-82760000D02*
X134400000Y-82760000D01*
X122600000Y-80600000D02*
X122600000Y-80800000D01*
X134400000Y-82760000D02*
X136040000Y-82760000D01*
%TO.N,MOSI*%
X134400000Y-85300000D02*
X125500000Y-85300000D01*
X125500000Y-85300000D02*
X121700000Y-81500000D01*
X142400000Y-80100000D02*
X145900000Y-80100000D01*
X137200000Y-85300000D02*
X142400000Y-80100000D01*
X134400000Y-85300000D02*
X137200000Y-85300000D01*
%TO.N,DTR*%
X108900000Y-88300000D02*
X108800000Y-88400000D01*
X108900000Y-86750000D02*
X108900000Y-88300000D01*
X108900000Y-86750000D02*
X110950000Y-86750000D01*
X110950000Y-86750000D02*
X111000000Y-86800000D01*
X105700000Y-86750000D02*
X108900000Y-86750000D01*
%TO.N,RST*%
X132100000Y-74400000D02*
X132100000Y-71600000D01*
X132100000Y-71600000D02*
X125500000Y-65000000D01*
%TO.N,DC*%
X130100000Y-73300000D02*
X130100000Y-72000000D01*
X130100000Y-72000000D02*
X126000000Y-67900000D01*
%TO.N,HSE_OUT*%
X111300000Y-76975500D02*
X111300000Y-77300000D01*
X112800000Y-78800000D02*
X113800000Y-78800000D01*
X111300000Y-77300000D02*
X112800000Y-78800000D01*
%TO.N,Button_Up*%
X126774695Y-81500000D02*
X130800000Y-81500000D01*
X120992893Y-75718198D02*
X126774695Y-81500000D01*
X120992893Y-75700000D02*
X120992893Y-75718198D01*
%TO.N,Button_Left*%
X133600000Y-92200000D02*
X127000000Y-92200000D01*
X127000000Y-92200000D02*
X119200000Y-84400000D01*
%TO.N,Button_Down*%
X126074695Y-86900000D02*
X127700000Y-86900000D01*
X118400000Y-76700000D02*
X118400000Y-79225305D01*
X118400000Y-79225305D02*
X126074695Y-86900000D01*
%TO.N,TX*%
X116000000Y-82800000D02*
X111900000Y-82800000D01*
X117750000Y-75500000D02*
X119550000Y-73700000D01*
X116800000Y-83600000D02*
X116000000Y-82800000D01*
X115800000Y-77450000D02*
X117750000Y-75500000D01*
X119550000Y-73700000D02*
X119550000Y-72050000D01*
X115800000Y-80400000D02*
X115800000Y-77450000D01*
%TO.N,RX*%
X114650000Y-81050000D02*
X114650000Y-79600000D01*
X118450000Y-73100000D02*
X118450000Y-72100000D01*
X114650000Y-79600000D02*
X112700000Y-79600000D01*
X114650000Y-76900000D02*
X118450000Y-73100000D01*
X112700000Y-79600000D02*
X111900000Y-78800000D01*
X114650000Y-79600000D02*
X114650000Y-76900000D01*
X111900000Y-78800000D02*
X109100000Y-78800000D01*
D27*
%TO.N,USB_Conn_D+*%
X108400000Y-100100000D02*
X110900000Y-102600000D01*
X110900000Y-102600000D02*
X113200000Y-102600000D01*
X110300000Y-97500000D02*
X110300000Y-98200000D01*
X110300000Y-98200000D02*
X108400000Y-100100000D01*
%TO.N,USB_Conn_D-*%
X118800000Y-104700000D02*
X119800000Y-103700000D01*
X116500000Y-104700000D02*
X118800000Y-104700000D01*
X116500000Y-103900000D02*
X116100000Y-103500000D01*
X116500000Y-109200000D02*
X116500000Y-104700000D01*
X116500000Y-104700000D02*
X116500000Y-103900000D01*
D25*
%TO.N,Reset*%
X113900000Y-82100000D02*
X119200000Y-82100000D01*
X142500000Y-84100000D02*
X145900000Y-84100000D01*
X124940000Y-87840000D02*
X134400000Y-87840000D01*
X134400000Y-87840000D02*
X138760000Y-87840000D01*
X107675000Y-81275000D02*
X108250000Y-80700000D01*
X119200000Y-82100000D02*
X124940000Y-87840000D01*
X105700000Y-83250000D02*
X107675000Y-81275000D01*
X107675000Y-81275000D02*
X106500000Y-80100000D01*
X108250000Y-80700000D02*
X112500000Y-80700000D01*
X138760000Y-87840000D02*
X142500000Y-84100000D01*
X112500000Y-80700000D02*
X113900000Y-82100000D01*
X106500000Y-80100000D02*
X106500000Y-79900000D01*
%TO.N,RST_PROG*%
X114800000Y-66700000D02*
X115100000Y-66400000D01*
X103900000Y-80050000D02*
X102150000Y-80050000D01*
X103950000Y-80350000D02*
X104250000Y-80050000D01*
X103400000Y-85000000D02*
X103400000Y-80900000D01*
X104250000Y-80050000D02*
X103900000Y-80050000D01*
X110700000Y-70800000D02*
X114800000Y-66700000D01*
X103900000Y-80300000D02*
X103900000Y-80050000D01*
X115100000Y-66400000D02*
X119000000Y-66400000D01*
X102150000Y-80050000D02*
X102100000Y-80000000D01*
X103950000Y-80350000D02*
X103900000Y-80300000D01*
X110700000Y-73600000D02*
X110700000Y-70800000D01*
X104250000Y-80050000D02*
X110700000Y-73600000D01*
X103400000Y-80900000D02*
X103950000Y-80350000D01*
%TD*%
M02*
