M48
; DRILL file {KiCad 7.0.1} date Mon Jul 17 15:28:01 2023
; FORMAT={-:-/ absolute / inch / decimal}
; #@! TF.CreationDate,2023-07-17T15:28:01+02:00
; #@! TF.GenerationSoftware,Kicad,Pcbnew,7.0.1
; #@! TF.FileFunction,Plated,1,4,PTH
FMAT,2
INCH
; #@! TA.AperFunction,Plated,PTH,ViaDrill
T1C0.0157
; #@! TA.AperFunction,Plated,PTH,ComponentDrill
T2C0.0236
; #@! TA.AperFunction,Plated,PTH,ComponentDrill
T3C0.0354
; #@! TA.AperFunction,Plated,PTH,ComponentDrill
T4C0.0433
; #@! TA.AperFunction,Plated,PTH,ComponentDrill
T5C0.1260
%
G90
G05
T1
X3.9409Y-3.6811
X4.0197Y-3.1496
X4.1693Y-2.7559
X4.1732Y-3.002
X4.1831Y-3.5827
X4.1929Y-3.1457
X4.2657Y-3.878
X4.2835Y-3.4803
X4.3425Y-3.8386
X4.3661Y-3.9094
X4.3701Y-3.4173
X4.374Y-3.9685
X4.3819Y-3.0305
X4.3898Y-3.5453
X4.3917Y-3.4685
X4.3996Y-2.9902
X4.4016Y-2.876
X4.4331Y-4.2717
X4.4488Y-2.7638
X4.4803Y-3.1024
X4.5138Y-3.1909
X4.5591Y-3.1654
X4.5709Y-4.0748
X4.5728Y-2.6575
X4.5866Y-4.2992
X4.5984Y-3.2913
X4.6614Y-3.0197
X4.6634Y-2.8386
X4.6752Y-4.2913
X4.685Y-2.6142
X4.6929Y-3.3228
X4.7067Y-2.8366
X4.7205Y-3.9685
X4.7441Y-3.4843
X4.748Y-3.6398
X4.7635Y-2.9803
X4.7913Y-3.2087
X4.8268Y-3.1732
X4.878Y-3.8642
X4.8898Y-4.2953
X4.9409Y-2.5591
X4.9606Y-2.6732
X4.9665Y-4.0039
X4.9803Y-3.1575
X5.0276Y-2.8957
X5.0276Y-3.0197
X5.0276Y-3.0846
X5.0276Y-3.4213
X5.0472Y-4.2953
X5.122Y-2.8858
X5.128Y-4.0039
X5.1496Y-3.2087
X5.1614Y-3.8642
X5.2008Y-2.9291
X5.2047Y-4.2953
X5.2598Y-3.6299
X5.2874Y-4.0039
X5.3091Y-3.7106
X5.3622Y-4.2972
X5.4429Y-4.0039
X5.5276Y-2.6811
X5.8248Y-3.4705
T2
X4.3772Y-4.3809
X4.7173Y-4.3809
T3
X5.4774Y-3.6427
X5.4774Y-3.7427
T4
X5.2913Y-3.1583
X5.2913Y-3.2583
X5.2913Y-3.3583
X5.2913Y-3.4583
T5
X3.9606Y-2.4724
X3.9606Y-4.2835
X5.7323Y-2.4724
X5.7323Y-4.2835
T2
G00X4.3772Y-4.2077
M15
G01X4.3772Y-4.2392
M16
G05
G00X4.7173Y-4.2077
M15
G01X4.7173Y-4.2392
M16
G05
T0
M30
