%TF.GenerationSoftware,KiCad,Pcbnew,7.0.1*%
%TF.CreationDate,2023-06-17T09:34:48+02:00*%
%TF.ProjectId,Had_Konzole,4861645f-4b6f-46e7-9a6f-6c652e6b6963,rev?*%
%TF.SameCoordinates,Original*%
%TF.FileFunction,Copper,L2,Inr*%
%TF.FilePolarity,Positive*%
%FSLAX46Y46*%
G04 Gerber Fmt 4.6, Leading zero omitted, Abs format (unit mm)*
G04 Created by KiCad (PCBNEW 7.0.1) date 2023-06-17 09:34:48*
%MOMM*%
%LPD*%
G01*
G04 APERTURE LIST*
%TA.AperFunction,ComponentPad*%
%ADD10C,6.400000*%
%TD*%
%TA.AperFunction,ComponentPad*%
%ADD11R,1.800000X1.800000*%
%TD*%
%TA.AperFunction,ComponentPad*%
%ADD12C,1.800000*%
%TD*%
%TA.AperFunction,ComponentPad*%
%ADD13C,1.000000*%
%TD*%
%TA.AperFunction,ComponentPad*%
%ADD14O,1.000000X1.800000*%
%TD*%
%TA.AperFunction,ComponentPad*%
%ADD15R,1.650000X1.650000*%
%TD*%
%TA.AperFunction,ComponentPad*%
%ADD16C,1.650000*%
%TD*%
%TA.AperFunction,ViaPad*%
%ADD17C,0.800000*%
%TD*%
G04 APERTURE END LIST*
D10*
%TO.N,GND*%
%TO.C,H1*%
X145000000Y-41000000D03*
%TD*%
%TO.N,GND*%
%TO.C,H3*%
X145000000Y-102000000D03*
%TD*%
D11*
%TO.N,Net-(D1-K)*%
%TO.C,D1*%
X181725000Y-84275000D03*
D12*
%TO.N,+3V3*%
X181725000Y-81735000D03*
%TD*%
D10*
%TO.N,GND*%
%TO.C,H2*%
X188000000Y-41000000D03*
%TD*%
%TO.N,GND*%
%TO.C,H4*%
X188000000Y-102000000D03*
%TD*%
D13*
%TO.N,unconnected-(J4-SHIELD-PadS1)*%
%TO.C,J4*%
X153980000Y-104575000D03*
X162620000Y-104575000D03*
D14*
X153980000Y-100575000D03*
X162620000Y-100575000D03*
%TD*%
D15*
%TO.N,Reset*%
%TO.C,J2*%
X176037500Y-62140000D03*
D16*
%TO.N,MOSI*%
X176037500Y-59600000D03*
%TO.N,MISO*%
X176037500Y-57060000D03*
%TO.N,SCK*%
X176037500Y-54520000D03*
%TD*%
D17*
%TO.N,USB_Conn_D-*%
X160400000Y-93700000D03*
X158400000Y-101800000D03*
%TO.N,GND*%
X146100000Y-53000000D03*
X147200000Y-45900000D03*
X154000000Y-45400000D03*
X161200000Y-56300000D03*
X148700000Y-65900000D03*
X161400000Y-76600000D03*
X173000000Y-66900000D03*
X177300000Y-86000000D03*
X154700000Y-98800000D03*
X161700000Y-98800000D03*
X171300000Y-97200000D03*
X174000000Y-94800000D03*
X167600000Y-93200000D03*
X164000000Y-94800000D03*
X162200000Y-91100000D03*
X157600000Y-90100000D03*
X150100000Y-92200000D03*
X154800000Y-90800000D03*
%TO.N,+3V3*%
X150100000Y-88900000D03*
X164200000Y-50300000D03*
X158500000Y-49500000D03*
X154600000Y-48800000D03*
X151900000Y-47800000D03*
X152100000Y-41000000D03*
%TO.N,RST_PROG*%
X153481207Y-43799521D03*
%TO.N,DTR*%
X145634952Y-66056808D03*
%TO.N,Reset*%
X152400000Y-63500000D03*
X160409444Y-65112559D03*
%TO.N,GND*%
X169600000Y-51900000D03*
X179200000Y-57200000D03*
X169600000Y-47200000D03*
X179200000Y-58500000D03*
%TO.N,+3V3*%
X163200000Y-83300000D03*
X172100000Y-82200000D03*
X171800000Y-64000000D03*
X175800000Y-72600000D03*
X169600000Y-50300000D03*
X179200000Y-56000000D03*
X160000000Y-90800000D03*
X184900000Y-73700000D03*
X179900000Y-81700000D03*
X159494500Y-71500000D03*
X160100000Y-92100000D03*
X150400000Y-72600000D03*
X157600000Y-91500000D03*
X162800000Y-63000000D03*
X165000000Y-100000000D03*
%TO.N,+5V*%
X168000000Y-96000000D03*
%TO.N,SCK*%
X168200000Y-53526000D03*
%TO.N,MISO*%
X165000000Y-54275500D03*
%TO.N,MOSI*%
X164000000Y-55000000D03*
%TO.N,Button_Up*%
X160300000Y-46420000D03*
X161100000Y-60600000D03*
%TO.N,Button_Down*%
X159500000Y-48100000D03*
X159230000Y-79290000D03*
%TO.N,TX*%
X157300000Y-80600000D03*
X158000000Y-41800000D03*
%TO.N,RX*%
X156000000Y-42600000D03*
X155400000Y-80800000D03*
%TD*%
%TA.AperFunction,Conductor*%
%TO.N,GND*%
G36*
X188002854Y-37000632D02*
G01*
X188018811Y-37001369D01*
X188173088Y-37008502D01*
X188369795Y-37018166D01*
X188380787Y-37019201D01*
X188562876Y-37044601D01*
X188563781Y-37044732D01*
X188747261Y-37071949D01*
X188757413Y-37073892D01*
X188938614Y-37116510D01*
X188940023Y-37116852D01*
X189117874Y-37161401D01*
X189127091Y-37164096D01*
X189304478Y-37223550D01*
X189306618Y-37224292D01*
X189478220Y-37285692D01*
X189486519Y-37289004D01*
X189657980Y-37364712D01*
X189660909Y-37366051D01*
X189747263Y-37406892D01*
X189825119Y-37443715D01*
X189832411Y-37447465D01*
X189929135Y-37501341D01*
X189996435Y-37538827D01*
X189999810Y-37540777D01*
X190155371Y-37634017D01*
X190161670Y-37638058D01*
X190316699Y-37744256D01*
X190320459Y-37746935D01*
X190466009Y-37854882D01*
X190471305Y-37859040D01*
X190616009Y-37979200D01*
X190619947Y-37982617D01*
X190754206Y-38104303D01*
X190758590Y-38108478D01*
X190891520Y-38241408D01*
X190895698Y-38245795D01*
X191017375Y-38380045D01*
X191020805Y-38383998D01*
X191140951Y-38528684D01*
X191145124Y-38534000D01*
X191167855Y-38564649D01*
X191253041Y-38679509D01*
X191255742Y-38683299D01*
X191361940Y-38838328D01*
X191365999Y-38844656D01*
X191459200Y-39000153D01*
X191461171Y-39003563D01*
X191552525Y-39167573D01*
X191556291Y-39174896D01*
X191633947Y-39339089D01*
X191635286Y-39342018D01*
X191710994Y-39513479D01*
X191714311Y-39521791D01*
X191775666Y-39693265D01*
X191776487Y-39695634D01*
X191835894Y-39872881D01*
X191838606Y-39882157D01*
X191883104Y-40059803D01*
X191883526Y-40061543D01*
X191926101Y-40242562D01*
X191928053Y-40252758D01*
X191955257Y-40436156D01*
X191955410Y-40437218D01*
X191980794Y-40619184D01*
X191981834Y-40630232D01*
X191991512Y-40827238D01*
X191991529Y-40827595D01*
X191999368Y-40997145D01*
X191999500Y-41002872D01*
X191999500Y-101997128D01*
X191999368Y-102002855D01*
X191991529Y-102172404D01*
X191991512Y-102172761D01*
X191981834Y-102369766D01*
X191980794Y-102380814D01*
X191955410Y-102562780D01*
X191955257Y-102563842D01*
X191928053Y-102747240D01*
X191926101Y-102757436D01*
X191883526Y-102938455D01*
X191883104Y-102940195D01*
X191838606Y-103117841D01*
X191835894Y-103127117D01*
X191776487Y-103304364D01*
X191775666Y-103306733D01*
X191714311Y-103478207D01*
X191710994Y-103486519D01*
X191635286Y-103657980D01*
X191633947Y-103660909D01*
X191556291Y-103825102D01*
X191552525Y-103832425D01*
X191461171Y-103996435D01*
X191459200Y-103999845D01*
X191365999Y-104155342D01*
X191361940Y-104161670D01*
X191255742Y-104316699D01*
X191253041Y-104320489D01*
X191145135Y-104465984D01*
X191140935Y-104471334D01*
X191020851Y-104615947D01*
X191017331Y-104620004D01*
X190895717Y-104754183D01*
X190891520Y-104758590D01*
X190758590Y-104891520D01*
X190754183Y-104895717D01*
X190620004Y-105017331D01*
X190615947Y-105020851D01*
X190471334Y-105140935D01*
X190465984Y-105145135D01*
X190320489Y-105253041D01*
X190316699Y-105255742D01*
X190161670Y-105361940D01*
X190155342Y-105365999D01*
X189999845Y-105459200D01*
X189996435Y-105461171D01*
X189832425Y-105552525D01*
X189825102Y-105556291D01*
X189660909Y-105633947D01*
X189657980Y-105635286D01*
X189486519Y-105710994D01*
X189478207Y-105714311D01*
X189306733Y-105775666D01*
X189304364Y-105776487D01*
X189127117Y-105835894D01*
X189117841Y-105838606D01*
X188940195Y-105883104D01*
X188938455Y-105883526D01*
X188757436Y-105926101D01*
X188747240Y-105928053D01*
X188563842Y-105955257D01*
X188562780Y-105955410D01*
X188380814Y-105980794D01*
X188369766Y-105981834D01*
X188172931Y-105991503D01*
X188172575Y-105991520D01*
X188007393Y-105999158D01*
X188002854Y-105999368D01*
X187997128Y-105999500D01*
X145002872Y-105999500D01*
X144997145Y-105999368D01*
X144992305Y-105999144D01*
X144827423Y-105991520D01*
X144827067Y-105991503D01*
X144630232Y-105981834D01*
X144619184Y-105980794D01*
X144437218Y-105955410D01*
X144436156Y-105955257D01*
X144252758Y-105928053D01*
X144242562Y-105926101D01*
X144061543Y-105883526D01*
X144059803Y-105883104D01*
X143882157Y-105838606D01*
X143872881Y-105835894D01*
X143695634Y-105776487D01*
X143693265Y-105775666D01*
X143521791Y-105714311D01*
X143513479Y-105710994D01*
X143342018Y-105635286D01*
X143339089Y-105633947D01*
X143174896Y-105556291D01*
X143167573Y-105552525D01*
X143003563Y-105461171D01*
X143000153Y-105459200D01*
X142919586Y-105410910D01*
X142844645Y-105365992D01*
X142838328Y-105361940D01*
X142683299Y-105255742D01*
X142679509Y-105253041D01*
X142534000Y-105145124D01*
X142528684Y-105140951D01*
X142383998Y-105020805D01*
X142380045Y-105017375D01*
X142245795Y-104895698D01*
X142241408Y-104891520D01*
X142138791Y-104788903D01*
X142564648Y-104788903D01*
X142564649Y-104788904D01*
X142822207Y-104997469D01*
X143147456Y-105208690D01*
X143493009Y-105384757D01*
X143855068Y-105523739D01*
X144229674Y-105624114D01*
X144612711Y-105684780D01*
X144999999Y-105705077D01*
X145387288Y-105684780D01*
X145770325Y-105624114D01*
X146144931Y-105523739D01*
X146506990Y-105384757D01*
X146852543Y-105208690D01*
X147177786Y-104997473D01*
X147435349Y-104788902D01*
X147221447Y-104575000D01*
X152974659Y-104575000D01*
X152993976Y-104771133D01*
X153051185Y-104959726D01*
X153083857Y-105020851D01*
X153144090Y-105133538D01*
X153269117Y-105285883D01*
X153421462Y-105410910D01*
X153595273Y-105503814D01*
X153783868Y-105561024D01*
X153980000Y-105580341D01*
X154176132Y-105561024D01*
X154364727Y-105503814D01*
X154538538Y-105410910D01*
X154690883Y-105285883D01*
X154815910Y-105133538D01*
X154908814Y-104959727D01*
X154966024Y-104771132D01*
X154985341Y-104575000D01*
X161614659Y-104575000D01*
X161633976Y-104771133D01*
X161691185Y-104959726D01*
X161723857Y-105020851D01*
X161784090Y-105133538D01*
X161909117Y-105285883D01*
X162061462Y-105410910D01*
X162235273Y-105503814D01*
X162423868Y-105561024D01*
X162620000Y-105580341D01*
X162816132Y-105561024D01*
X163004727Y-105503814D01*
X163178538Y-105410910D01*
X163330883Y-105285883D01*
X163455910Y-105133538D01*
X163548814Y-104959727D01*
X163600633Y-104788903D01*
X185564648Y-104788903D01*
X185564649Y-104788904D01*
X185822207Y-104997469D01*
X186147456Y-105208690D01*
X186493009Y-105384757D01*
X186855068Y-105523739D01*
X187229674Y-105624114D01*
X187612711Y-105684780D01*
X187999999Y-105705077D01*
X188387288Y-105684780D01*
X188770325Y-105624114D01*
X189144931Y-105523739D01*
X189506990Y-105384757D01*
X189852543Y-105208690D01*
X190177786Y-104997473D01*
X190435349Y-104788902D01*
X188000000Y-102353553D01*
X185564648Y-104788903D01*
X163600633Y-104788903D01*
X163606024Y-104771132D01*
X163625341Y-104575000D01*
X163606024Y-104378868D01*
X163548814Y-104190273D01*
X163455910Y-104016462D01*
X163330883Y-103864117D01*
X163178538Y-103739090D01*
X163032272Y-103660909D01*
X163004726Y-103646185D01*
X162816133Y-103588976D01*
X162620000Y-103569659D01*
X162423866Y-103588976D01*
X162235273Y-103646185D01*
X162061463Y-103739089D01*
X161909117Y-103864117D01*
X161784089Y-104016463D01*
X161691185Y-104190273D01*
X161633976Y-104378866D01*
X161614659Y-104575000D01*
X154985341Y-104575000D01*
X154966024Y-104378868D01*
X154908814Y-104190273D01*
X154815910Y-104016462D01*
X154690883Y-103864117D01*
X154538538Y-103739090D01*
X154392272Y-103660909D01*
X154364726Y-103646185D01*
X154176133Y-103588976D01*
X153980000Y-103569659D01*
X153783866Y-103588976D01*
X153595273Y-103646185D01*
X153421463Y-103739089D01*
X153269117Y-103864117D01*
X153144089Y-104016463D01*
X153051185Y-104190273D01*
X152993976Y-104378866D01*
X152974659Y-104575000D01*
X147221447Y-104575000D01*
X145000000Y-102353553D01*
X142564648Y-104788903D01*
X142138791Y-104788903D01*
X142108478Y-104758590D01*
X142104303Y-104754206D01*
X141982617Y-104619947D01*
X141979200Y-104616009D01*
X141859040Y-104471305D01*
X141854882Y-104466009D01*
X141746935Y-104320459D01*
X141744256Y-104316699D01*
X141638058Y-104161670D01*
X141634017Y-104155371D01*
X141540777Y-103999810D01*
X141538827Y-103996435D01*
X141458679Y-103852543D01*
X141447465Y-103832411D01*
X141443715Y-103825119D01*
X141403027Y-103739089D01*
X141366051Y-103660909D01*
X141364712Y-103657980D01*
X141289004Y-103486519D01*
X141285692Y-103478220D01*
X141224292Y-103306618D01*
X141223550Y-103304478D01*
X141164096Y-103127091D01*
X141161401Y-103117874D01*
X141116852Y-102940023D01*
X141116510Y-102938614D01*
X141073892Y-102757413D01*
X141071949Y-102747261D01*
X141044732Y-102563781D01*
X141044588Y-102562780D01*
X141019201Y-102380787D01*
X141018166Y-102369795D01*
X141008480Y-102172611D01*
X141000632Y-102002854D01*
X141000566Y-101999999D01*
X141294922Y-101999999D01*
X141315219Y-102387288D01*
X141375885Y-102770325D01*
X141476260Y-103144931D01*
X141615242Y-103506990D01*
X141791309Y-103852543D01*
X142002530Y-104177792D01*
X142211095Y-104435350D01*
X142211096Y-104435350D01*
X144646447Y-102000001D01*
X144646447Y-102000000D01*
X145353553Y-102000000D01*
X147788902Y-104435349D01*
X147997473Y-104177786D01*
X148208690Y-103852543D01*
X148384757Y-103506990D01*
X148523739Y-103144931D01*
X148624114Y-102770325D01*
X148684780Y-102387288D01*
X148705077Y-101999999D01*
X148684780Y-101612711D01*
X148624114Y-101229674D01*
X148569470Y-101025740D01*
X152979500Y-101025740D01*
X152994926Y-101177440D01*
X153011315Y-101229674D01*
X153055841Y-101371588D01*
X153154591Y-101549502D01*
X153287134Y-101703895D01*
X153448042Y-101828448D01*
X153630729Y-101918060D01*
X153827715Y-101969063D01*
X154030936Y-101979369D01*
X154030936Y-101979368D01*
X154030937Y-101979369D01*
X154232071Y-101948556D01*
X154314413Y-101918060D01*
X154422887Y-101877886D01*
X154547844Y-101800000D01*
X157494540Y-101800000D01*
X157514326Y-101988257D01*
X157572820Y-102168284D01*
X157667466Y-102332216D01*
X157794129Y-102472889D01*
X157947269Y-102584151D01*
X158120197Y-102661144D01*
X158305352Y-102700500D01*
X158305354Y-102700500D01*
X158494646Y-102700500D01*
X158494648Y-102700500D01*
X158618083Y-102674262D01*
X158679803Y-102661144D01*
X158852730Y-102584151D01*
X159005871Y-102472888D01*
X159132533Y-102332216D01*
X159227179Y-102168284D01*
X159281858Y-101999999D01*
X184294922Y-101999999D01*
X184315219Y-102387288D01*
X184375885Y-102770325D01*
X184476260Y-103144931D01*
X184615242Y-103506990D01*
X184791309Y-103852543D01*
X185002530Y-104177792D01*
X185211095Y-104435350D01*
X185211096Y-104435350D01*
X187646447Y-102000001D01*
X187646447Y-102000000D01*
X188353553Y-102000000D01*
X190788902Y-104435349D01*
X190997473Y-104177786D01*
X191208690Y-103852543D01*
X191384757Y-103506990D01*
X191523739Y-103144931D01*
X191624114Y-102770325D01*
X191684780Y-102387288D01*
X191705077Y-101999999D01*
X191684780Y-101612711D01*
X191624114Y-101229674D01*
X191523739Y-100855068D01*
X191384757Y-100493009D01*
X191208690Y-100147456D01*
X190997469Y-99822207D01*
X190788904Y-99564649D01*
X190788903Y-99564648D01*
X188353553Y-102000000D01*
X187646447Y-102000000D01*
X185211096Y-99564648D01*
X185002526Y-99822214D01*
X184791309Y-100147456D01*
X184615242Y-100493009D01*
X184476260Y-100855068D01*
X184375885Y-101229674D01*
X184315219Y-101612711D01*
X184294922Y-101999999D01*
X159281858Y-101999999D01*
X159285674Y-101988256D01*
X159305460Y-101800000D01*
X159285674Y-101611744D01*
X159227179Y-101431716D01*
X159227179Y-101431715D01*
X159132533Y-101267783D01*
X159005870Y-101127110D01*
X158866345Y-101025740D01*
X161619500Y-101025740D01*
X161634926Y-101177440D01*
X161651315Y-101229674D01*
X161695841Y-101371588D01*
X161794591Y-101549502D01*
X161927134Y-101703895D01*
X162088042Y-101828448D01*
X162270729Y-101918060D01*
X162467715Y-101969063D01*
X162670936Y-101979369D01*
X162670936Y-101979368D01*
X162670937Y-101979369D01*
X162872071Y-101948556D01*
X162954413Y-101918060D01*
X163062887Y-101877886D01*
X163235571Y-101770252D01*
X163383053Y-101630059D01*
X163499295Y-101463049D01*
X163579540Y-101276058D01*
X163620500Y-101076741D01*
X163620500Y-100124258D01*
X163607864Y-100000000D01*
X164094540Y-100000000D01*
X164114326Y-100188257D01*
X164172820Y-100368284D01*
X164267466Y-100532216D01*
X164394129Y-100672889D01*
X164547269Y-100784151D01*
X164720197Y-100861144D01*
X164905352Y-100900500D01*
X164905354Y-100900500D01*
X165094646Y-100900500D01*
X165094648Y-100900500D01*
X165218084Y-100874262D01*
X165279803Y-100861144D01*
X165452730Y-100784151D01*
X165605871Y-100672888D01*
X165732533Y-100532216D01*
X165827179Y-100368284D01*
X165885674Y-100188256D01*
X165905460Y-100000000D01*
X165885674Y-99811744D01*
X165827179Y-99631716D01*
X165827179Y-99631715D01*
X165732533Y-99467783D01*
X165605870Y-99327110D01*
X165452730Y-99215848D01*
X165442057Y-99211096D01*
X185564648Y-99211096D01*
X188000000Y-101646447D01*
X188000001Y-101646447D01*
X190435350Y-99211096D01*
X190435350Y-99211095D01*
X190177792Y-99002530D01*
X189852543Y-98791309D01*
X189506990Y-98615242D01*
X189144931Y-98476260D01*
X188770325Y-98375885D01*
X188387288Y-98315219D01*
X188000000Y-98294922D01*
X187612711Y-98315219D01*
X187229674Y-98375885D01*
X186855068Y-98476260D01*
X186493009Y-98615242D01*
X186147456Y-98791309D01*
X185822214Y-99002526D01*
X185564648Y-99211096D01*
X165442057Y-99211096D01*
X165279802Y-99138855D01*
X165094648Y-99099500D01*
X165094646Y-99099500D01*
X164905354Y-99099500D01*
X164905352Y-99099500D01*
X164720197Y-99138855D01*
X164547269Y-99215848D01*
X164394129Y-99327110D01*
X164267466Y-99467783D01*
X164172820Y-99631715D01*
X164114326Y-99811742D01*
X164094540Y-100000000D01*
X163607864Y-100000000D01*
X163605074Y-99972562D01*
X163544159Y-99778412D01*
X163445409Y-99600498D01*
X163312866Y-99446105D01*
X163159141Y-99327112D01*
X163151957Y-99321551D01*
X162969272Y-99231940D01*
X162888766Y-99211096D01*
X162772285Y-99180937D01*
X162751671Y-99179891D01*
X162569062Y-99170630D01*
X162367928Y-99201443D01*
X162177113Y-99272113D01*
X162004431Y-99379745D01*
X161934623Y-99446104D01*
X161856947Y-99519941D01*
X161815063Y-99580117D01*
X161740705Y-99686950D01*
X161687151Y-99811744D01*
X161660460Y-99873942D01*
X161640194Y-99972562D01*
X161619500Y-100073261D01*
X161619500Y-101025740D01*
X158866345Y-101025740D01*
X158852730Y-101015848D01*
X158679802Y-100938855D01*
X158494648Y-100899500D01*
X158494646Y-100899500D01*
X158305354Y-100899500D01*
X158305352Y-100899500D01*
X158120197Y-100938855D01*
X157947269Y-101015848D01*
X157794129Y-101127110D01*
X157667466Y-101267783D01*
X157572820Y-101431715D01*
X157514326Y-101611742D01*
X157494540Y-101800000D01*
X154547844Y-101800000D01*
X154595571Y-101770252D01*
X154743053Y-101630059D01*
X154859295Y-101463049D01*
X154939540Y-101276058D01*
X154980500Y-101076741D01*
X154980500Y-100124258D01*
X154965074Y-99972562D01*
X154904159Y-99778412D01*
X154805409Y-99600498D01*
X154672866Y-99446105D01*
X154519141Y-99327112D01*
X154511957Y-99321551D01*
X154329272Y-99231940D01*
X154248766Y-99211096D01*
X154132285Y-99180937D01*
X154111671Y-99179891D01*
X153929062Y-99170630D01*
X153727928Y-99201443D01*
X153537113Y-99272113D01*
X153364431Y-99379745D01*
X153294623Y-99446104D01*
X153216947Y-99519941D01*
X153175063Y-99580117D01*
X153100705Y-99686950D01*
X153047151Y-99811744D01*
X153020460Y-99873942D01*
X153000194Y-99972562D01*
X152979500Y-100073261D01*
X152979500Y-101025740D01*
X148569470Y-101025740D01*
X148523739Y-100855068D01*
X148384757Y-100493009D01*
X148208690Y-100147456D01*
X147997469Y-99822207D01*
X147788904Y-99564649D01*
X147788903Y-99564648D01*
X145353553Y-102000000D01*
X144646447Y-102000000D01*
X142211096Y-99564648D01*
X142002526Y-99822214D01*
X141791309Y-100147456D01*
X141615242Y-100493009D01*
X141476260Y-100855068D01*
X141375885Y-101229674D01*
X141315219Y-101612711D01*
X141294922Y-101999999D01*
X141000566Y-101999999D01*
X141000500Y-101997128D01*
X141000500Y-99211096D01*
X142564648Y-99211096D01*
X145000000Y-101646447D01*
X145000001Y-101646447D01*
X147435350Y-99211096D01*
X147435350Y-99211095D01*
X147177792Y-99002530D01*
X146852543Y-98791309D01*
X146506990Y-98615242D01*
X146144931Y-98476260D01*
X145770325Y-98375885D01*
X145387288Y-98315219D01*
X145000000Y-98294922D01*
X144612711Y-98315219D01*
X144229674Y-98375885D01*
X143855068Y-98476260D01*
X143493009Y-98615242D01*
X143147456Y-98791309D01*
X142822214Y-99002526D01*
X142564648Y-99211096D01*
X141000500Y-99211096D01*
X141000500Y-95999999D01*
X167094540Y-95999999D01*
X167114326Y-96188257D01*
X167172820Y-96368284D01*
X167267466Y-96532216D01*
X167394129Y-96672889D01*
X167547269Y-96784151D01*
X167720197Y-96861144D01*
X167905352Y-96900500D01*
X167905354Y-96900500D01*
X168094646Y-96900500D01*
X168094648Y-96900500D01*
X168218083Y-96874262D01*
X168279803Y-96861144D01*
X168452730Y-96784151D01*
X168605871Y-96672888D01*
X168732533Y-96532216D01*
X168827179Y-96368284D01*
X168885674Y-96188256D01*
X168905460Y-96000000D01*
X168885674Y-95811744D01*
X168827179Y-95631716D01*
X168827179Y-95631715D01*
X168732533Y-95467783D01*
X168605870Y-95327110D01*
X168452730Y-95215848D01*
X168279802Y-95138855D01*
X168094648Y-95099500D01*
X168094646Y-95099500D01*
X167905354Y-95099500D01*
X167905352Y-95099500D01*
X167720197Y-95138855D01*
X167547269Y-95215848D01*
X167394129Y-95327110D01*
X167267466Y-95467783D01*
X167172820Y-95631715D01*
X167114326Y-95811742D01*
X167094540Y-95999999D01*
X141000500Y-95999999D01*
X141000500Y-91500000D01*
X156694540Y-91500000D01*
X156714326Y-91688257D01*
X156772820Y-91868284D01*
X156867466Y-92032216D01*
X156994129Y-92172889D01*
X157147269Y-92284151D01*
X157320197Y-92361144D01*
X157505352Y-92400500D01*
X157505354Y-92400500D01*
X157694646Y-92400500D01*
X157694648Y-92400500D01*
X157818084Y-92374262D01*
X157879803Y-92361144D01*
X158052730Y-92284151D01*
X158205871Y-92172888D01*
X158332533Y-92032216D01*
X158427179Y-91868284D01*
X158485674Y-91688256D01*
X158505460Y-91500000D01*
X158485674Y-91311744D01*
X158427179Y-91131716D01*
X158427179Y-91131715D01*
X158332533Y-90967783D01*
X158205870Y-90827110D01*
X158168556Y-90800000D01*
X159094540Y-90800000D01*
X159114326Y-90988257D01*
X159172820Y-91168284D01*
X159267466Y-91332216D01*
X159350983Y-91424970D01*
X159376764Y-91469624D01*
X159382154Y-91520903D01*
X159366220Y-91569942D01*
X159272820Y-91731715D01*
X159214326Y-91911742D01*
X159194540Y-92100000D01*
X159214326Y-92288257D01*
X159272820Y-92468284D01*
X159367466Y-92632216D01*
X159494129Y-92772889D01*
X159647269Y-92884151D01*
X159688073Y-92902319D01*
X159734004Y-92937563D01*
X159758927Y-92989817D01*
X159757412Y-93047692D01*
X159729787Y-93098570D01*
X159667466Y-93167783D01*
X159572820Y-93331715D01*
X159514326Y-93511742D01*
X159494540Y-93700000D01*
X159514326Y-93888257D01*
X159572820Y-94068284D01*
X159667466Y-94232216D01*
X159794129Y-94372889D01*
X159947269Y-94484151D01*
X160120197Y-94561144D01*
X160305352Y-94600500D01*
X160305354Y-94600500D01*
X160494646Y-94600500D01*
X160494648Y-94600500D01*
X160618083Y-94574262D01*
X160679803Y-94561144D01*
X160852730Y-94484151D01*
X161005871Y-94372888D01*
X161132533Y-94232216D01*
X161227179Y-94068284D01*
X161285674Y-93888256D01*
X161305460Y-93700000D01*
X161285674Y-93511744D01*
X161227179Y-93331716D01*
X161227179Y-93331715D01*
X161132533Y-93167783D01*
X161005870Y-93027110D01*
X160852732Y-92915849D01*
X160811927Y-92897682D01*
X160765996Y-92862438D01*
X160741072Y-92810183D01*
X160742587Y-92752308D01*
X160770213Y-92701429D01*
X160832533Y-92632216D01*
X160927179Y-92468284D01*
X160961991Y-92361144D01*
X160985674Y-92288256D01*
X161005460Y-92100000D01*
X160985674Y-91911744D01*
X160927179Y-91731716D01*
X160927179Y-91731715D01*
X160832533Y-91567784D01*
X160749016Y-91475029D01*
X160723235Y-91430375D01*
X160717845Y-91379095D01*
X160733779Y-91330057D01*
X160744354Y-91311742D01*
X160827179Y-91168284D01*
X160885674Y-90988256D01*
X160905460Y-90800000D01*
X160885674Y-90611744D01*
X160827179Y-90431716D01*
X160827179Y-90431715D01*
X160732533Y-90267783D01*
X160605870Y-90127110D01*
X160452730Y-90015848D01*
X160279802Y-89938855D01*
X160094648Y-89899500D01*
X160094646Y-89899500D01*
X159905354Y-89899500D01*
X159905352Y-89899500D01*
X159720197Y-89938855D01*
X159547269Y-90015848D01*
X159394129Y-90127110D01*
X159267466Y-90267783D01*
X159172820Y-90431715D01*
X159114326Y-90611742D01*
X159094540Y-90800000D01*
X158168556Y-90800000D01*
X158052730Y-90715848D01*
X157879802Y-90638855D01*
X157694648Y-90599500D01*
X157694646Y-90599500D01*
X157505354Y-90599500D01*
X157505352Y-90599500D01*
X157320197Y-90638855D01*
X157147269Y-90715848D01*
X156994129Y-90827110D01*
X156867466Y-90967783D01*
X156772820Y-91131715D01*
X156714326Y-91311742D01*
X156694540Y-91500000D01*
X141000500Y-91500000D01*
X141000500Y-88899999D01*
X149194540Y-88899999D01*
X149214326Y-89088257D01*
X149272820Y-89268284D01*
X149367466Y-89432216D01*
X149494129Y-89572889D01*
X149647269Y-89684151D01*
X149820197Y-89761144D01*
X150005352Y-89800500D01*
X150005354Y-89800500D01*
X150194646Y-89800500D01*
X150194648Y-89800500D01*
X150318083Y-89774262D01*
X150379803Y-89761144D01*
X150552730Y-89684151D01*
X150705871Y-89572888D01*
X150832533Y-89432216D01*
X150927179Y-89268284D01*
X150985674Y-89088256D01*
X151005460Y-88900000D01*
X150985674Y-88711744D01*
X150927179Y-88531716D01*
X150927179Y-88531715D01*
X150832533Y-88367783D01*
X150705870Y-88227110D01*
X150552730Y-88115848D01*
X150379802Y-88038855D01*
X150194648Y-87999500D01*
X150194646Y-87999500D01*
X150005354Y-87999500D01*
X150005352Y-87999500D01*
X149820197Y-88038855D01*
X149647269Y-88115848D01*
X149494129Y-88227110D01*
X149367466Y-88367783D01*
X149272820Y-88531715D01*
X149214326Y-88711742D01*
X149194540Y-88899999D01*
X141000500Y-88899999D01*
X141000500Y-83299999D01*
X162294540Y-83299999D01*
X162314326Y-83488257D01*
X162372820Y-83668284D01*
X162467466Y-83832216D01*
X162594129Y-83972889D01*
X162747269Y-84084151D01*
X162920197Y-84161144D01*
X163105352Y-84200500D01*
X163105354Y-84200500D01*
X163294646Y-84200500D01*
X163294648Y-84200500D01*
X163418083Y-84174262D01*
X163479803Y-84161144D01*
X163652730Y-84084151D01*
X163805871Y-83972888D01*
X163932533Y-83832216D01*
X164027179Y-83668284D01*
X164085674Y-83488256D01*
X164105460Y-83300000D01*
X164085674Y-83111744D01*
X164027179Y-82931716D01*
X164027179Y-82931715D01*
X163932533Y-82767783D01*
X163805870Y-82627110D01*
X163652730Y-82515848D01*
X163479802Y-82438855D01*
X163294648Y-82399500D01*
X163294646Y-82399500D01*
X163105354Y-82399500D01*
X163105352Y-82399500D01*
X162920197Y-82438855D01*
X162747269Y-82515848D01*
X162594129Y-82627110D01*
X162467466Y-82767783D01*
X162372820Y-82931715D01*
X162314326Y-83111742D01*
X162294540Y-83299999D01*
X141000500Y-83299999D01*
X141000500Y-82199999D01*
X171194540Y-82199999D01*
X171214326Y-82388257D01*
X171272820Y-82568284D01*
X171367466Y-82732216D01*
X171494129Y-82872889D01*
X171647269Y-82984151D01*
X171820197Y-83061144D01*
X172005352Y-83100500D01*
X172005354Y-83100500D01*
X172194646Y-83100500D01*
X172194648Y-83100500D01*
X172318083Y-83074262D01*
X172379803Y-83061144D01*
X172552730Y-82984151D01*
X172625606Y-82931204D01*
X172705870Y-82872889D01*
X172710938Y-82867261D01*
X172832533Y-82732216D01*
X172927179Y-82568284D01*
X172985674Y-82388256D01*
X173005460Y-82200000D01*
X172985674Y-82011744D01*
X172955332Y-81918363D01*
X172927179Y-81831715D01*
X172851133Y-81700000D01*
X178994540Y-81700000D01*
X179014326Y-81888257D01*
X179072820Y-82068284D01*
X179167466Y-82232216D01*
X179294129Y-82372889D01*
X179447269Y-82484151D01*
X179620197Y-82561144D01*
X179805352Y-82600500D01*
X179805354Y-82600500D01*
X179994646Y-82600500D01*
X179994648Y-82600500D01*
X180118083Y-82574262D01*
X180179803Y-82561144D01*
X180352730Y-82484151D01*
X180375344Y-82467720D01*
X180437306Y-82444521D01*
X180502381Y-82456489D01*
X180552035Y-82500215D01*
X180616021Y-82598153D01*
X180710803Y-82701114D01*
X180739575Y-82753865D01*
X180740168Y-82813951D01*
X180712441Y-82867261D01*
X180662906Y-82901276D01*
X180582671Y-82931202D01*
X180467454Y-83017454D01*
X180381204Y-83132668D01*
X180330909Y-83267516D01*
X180324500Y-83327130D01*
X180324500Y-85222869D01*
X180330909Y-85282483D01*
X180381204Y-85417331D01*
X180467454Y-85532546D01*
X180582669Y-85618796D01*
X180717517Y-85669091D01*
X180777127Y-85675500D01*
X182672872Y-85675499D01*
X182732483Y-85669091D01*
X182867331Y-85618796D01*
X182982546Y-85532546D01*
X183068796Y-85417331D01*
X183119091Y-85282483D01*
X183125500Y-85222873D01*
X183125499Y-83327128D01*
X183119091Y-83267517D01*
X183068796Y-83132669D01*
X182982546Y-83017454D01*
X182867331Y-82931204D01*
X182814357Y-82911446D01*
X182787093Y-82901277D01*
X182737558Y-82867261D01*
X182709831Y-82813951D01*
X182710424Y-82753864D01*
X182739196Y-82701114D01*
X182833979Y-82598153D01*
X182960924Y-82403849D01*
X183054157Y-82191300D01*
X183111134Y-81966305D01*
X183130300Y-81735000D01*
X183111134Y-81503695D01*
X183054157Y-81278700D01*
X182960924Y-81066151D01*
X182833979Y-80871847D01*
X182676784Y-80701087D01*
X182493626Y-80558530D01*
X182289503Y-80448064D01*
X182289499Y-80448062D01*
X182289498Y-80448062D01*
X182069984Y-80372702D01*
X181898282Y-80344050D01*
X181841049Y-80334500D01*
X181608951Y-80334500D01*
X181563164Y-80342140D01*
X181380015Y-80372702D01*
X181160501Y-80448062D01*
X180956372Y-80558531D01*
X180773215Y-80701087D01*
X180616019Y-80871849D01*
X180583047Y-80922315D01*
X180533392Y-80966042D01*
X180468318Y-80978009D01*
X180406354Y-80954809D01*
X180352727Y-80915847D01*
X180179802Y-80838855D01*
X179994648Y-80799500D01*
X179994646Y-80799500D01*
X179805354Y-80799500D01*
X179805352Y-80799500D01*
X179620197Y-80838855D01*
X179447269Y-80915848D01*
X179294129Y-81027110D01*
X179167466Y-81167783D01*
X179072820Y-81331715D01*
X179014326Y-81511742D01*
X178994540Y-81700000D01*
X172851133Y-81700000D01*
X172832533Y-81667783D01*
X172705870Y-81527110D01*
X172552730Y-81415848D01*
X172379802Y-81338855D01*
X172194648Y-81299500D01*
X172194646Y-81299500D01*
X172005354Y-81299500D01*
X172005352Y-81299500D01*
X171820197Y-81338855D01*
X171647269Y-81415848D01*
X171494129Y-81527110D01*
X171367466Y-81667783D01*
X171272820Y-81831715D01*
X171214326Y-82011742D01*
X171194540Y-82199999D01*
X141000500Y-82199999D01*
X141000500Y-80800000D01*
X154494540Y-80800000D01*
X154514326Y-80988257D01*
X154572820Y-81168284D01*
X154667466Y-81332216D01*
X154794129Y-81472889D01*
X154947269Y-81584151D01*
X155120197Y-81661144D01*
X155305352Y-81700500D01*
X155305354Y-81700500D01*
X155494646Y-81700500D01*
X155494648Y-81700500D01*
X155618083Y-81674262D01*
X155679803Y-81661144D01*
X155852730Y-81584151D01*
X156005871Y-81472888D01*
X156132533Y-81332216D01*
X156227179Y-81168284D01*
X156271157Y-81032934D01*
X156300492Y-80984495D01*
X156348307Y-80954150D01*
X156404628Y-80948231D01*
X156457708Y-80967971D01*
X156496474Y-81009253D01*
X156567466Y-81132216D01*
X156694129Y-81272889D01*
X156847269Y-81384151D01*
X157020197Y-81461144D01*
X157205352Y-81500500D01*
X157205354Y-81500500D01*
X157394646Y-81500500D01*
X157394648Y-81500500D01*
X157524551Y-81472888D01*
X157579803Y-81461144D01*
X157752730Y-81384151D01*
X157752729Y-81384151D01*
X157905870Y-81272889D01*
X158032533Y-81132216D01*
X158127179Y-80968284D01*
X158144216Y-80915849D01*
X158185674Y-80788256D01*
X158205460Y-80600000D01*
X158185674Y-80411744D01*
X158127179Y-80231716D01*
X158127179Y-80231715D01*
X158032533Y-80067783D01*
X157905870Y-79927110D01*
X157752730Y-79815848D01*
X157579802Y-79738855D01*
X157394648Y-79699500D01*
X157394646Y-79699500D01*
X157205354Y-79699500D01*
X157205352Y-79699500D01*
X157020197Y-79738855D01*
X156847269Y-79815848D01*
X156694129Y-79927110D01*
X156567466Y-80067783D01*
X156472820Y-80231715D01*
X156428843Y-80367064D01*
X156399506Y-80415504D01*
X156351691Y-80445849D01*
X156295370Y-80451768D01*
X156242291Y-80432028D01*
X156203525Y-80390746D01*
X156132533Y-80267783D01*
X156005870Y-80127110D01*
X155852730Y-80015848D01*
X155679802Y-79938855D01*
X155494648Y-79899500D01*
X155494646Y-79899500D01*
X155305354Y-79899500D01*
X155305352Y-79899500D01*
X155120197Y-79938855D01*
X154947269Y-80015848D01*
X154794129Y-80127110D01*
X154667466Y-80267783D01*
X154572820Y-80431715D01*
X154514326Y-80611742D01*
X154494540Y-80800000D01*
X141000500Y-80800000D01*
X141000500Y-79289999D01*
X158324540Y-79289999D01*
X158344326Y-79478257D01*
X158402820Y-79658284D01*
X158497466Y-79822216D01*
X158624129Y-79962889D01*
X158777269Y-80074151D01*
X158950197Y-80151144D01*
X159135352Y-80190500D01*
X159135354Y-80190500D01*
X159324646Y-80190500D01*
X159324648Y-80190500D01*
X159448084Y-80164262D01*
X159509803Y-80151144D01*
X159682730Y-80074151D01*
X159835871Y-79962888D01*
X159962533Y-79822216D01*
X160057179Y-79658284D01*
X160115674Y-79478256D01*
X160135460Y-79290000D01*
X160115674Y-79101744D01*
X160057179Y-78921716D01*
X160057179Y-78921715D01*
X159962533Y-78757783D01*
X159835870Y-78617110D01*
X159682730Y-78505848D01*
X159509802Y-78428855D01*
X159324648Y-78389500D01*
X159324646Y-78389500D01*
X159135354Y-78389500D01*
X159135352Y-78389500D01*
X158950197Y-78428855D01*
X158777269Y-78505848D01*
X158624129Y-78617110D01*
X158497466Y-78757783D01*
X158402820Y-78921715D01*
X158344326Y-79101742D01*
X158324540Y-79289999D01*
X141000500Y-79289999D01*
X141000500Y-73700000D01*
X183994540Y-73700000D01*
X184014326Y-73888257D01*
X184072820Y-74068284D01*
X184167466Y-74232216D01*
X184294129Y-74372889D01*
X184447269Y-74484151D01*
X184620197Y-74561144D01*
X184805352Y-74600500D01*
X184805354Y-74600500D01*
X184994646Y-74600500D01*
X184994648Y-74600500D01*
X185118083Y-74574262D01*
X185179803Y-74561144D01*
X185352730Y-74484151D01*
X185505871Y-74372888D01*
X185632533Y-74232216D01*
X185727179Y-74068284D01*
X185785674Y-73888256D01*
X185805460Y-73700000D01*
X185785674Y-73511744D01*
X185727179Y-73331716D01*
X185727179Y-73331715D01*
X185632533Y-73167783D01*
X185505870Y-73027110D01*
X185352730Y-72915848D01*
X185179802Y-72838855D01*
X184994648Y-72799500D01*
X184994646Y-72799500D01*
X184805354Y-72799500D01*
X184805352Y-72799500D01*
X184620197Y-72838855D01*
X184447269Y-72915848D01*
X184294129Y-73027110D01*
X184167466Y-73167783D01*
X184072820Y-73331715D01*
X184014326Y-73511742D01*
X183994540Y-73700000D01*
X141000500Y-73700000D01*
X141000500Y-72600000D01*
X149494540Y-72600000D01*
X149514326Y-72788257D01*
X149572820Y-72968284D01*
X149667466Y-73132216D01*
X149794129Y-73272889D01*
X149947269Y-73384151D01*
X150120197Y-73461144D01*
X150305352Y-73500500D01*
X150305354Y-73500500D01*
X150494646Y-73500500D01*
X150494648Y-73500500D01*
X150618084Y-73474262D01*
X150679803Y-73461144D01*
X150852730Y-73384151D01*
X151005871Y-73272888D01*
X151132533Y-73132216D01*
X151227179Y-72968284D01*
X151285674Y-72788256D01*
X151305460Y-72600000D01*
X174894540Y-72600000D01*
X174914326Y-72788257D01*
X174972820Y-72968284D01*
X175067466Y-73132216D01*
X175194129Y-73272889D01*
X175347269Y-73384151D01*
X175520197Y-73461144D01*
X175705352Y-73500500D01*
X175705354Y-73500500D01*
X175894646Y-73500500D01*
X175894648Y-73500500D01*
X176018084Y-73474262D01*
X176079803Y-73461144D01*
X176252730Y-73384151D01*
X176405871Y-73272888D01*
X176532533Y-73132216D01*
X176627179Y-72968284D01*
X176685674Y-72788256D01*
X176705460Y-72600000D01*
X176685674Y-72411744D01*
X176627179Y-72231716D01*
X176627179Y-72231715D01*
X176532533Y-72067783D01*
X176405870Y-71927110D01*
X176252730Y-71815848D01*
X176079802Y-71738855D01*
X175894648Y-71699500D01*
X175894646Y-71699500D01*
X175705354Y-71699500D01*
X175705352Y-71699500D01*
X175520197Y-71738855D01*
X175347269Y-71815848D01*
X175194129Y-71927110D01*
X175067466Y-72067783D01*
X174972820Y-72231715D01*
X174914326Y-72411742D01*
X174894540Y-72600000D01*
X151305460Y-72600000D01*
X151285674Y-72411744D01*
X151227179Y-72231716D01*
X151227179Y-72231715D01*
X151132533Y-72067783D01*
X151005870Y-71927110D01*
X150852730Y-71815848D01*
X150679802Y-71738855D01*
X150494648Y-71699500D01*
X150494646Y-71699500D01*
X150305354Y-71699500D01*
X150305352Y-71699500D01*
X150120197Y-71738855D01*
X149947269Y-71815848D01*
X149794129Y-71927110D01*
X149667466Y-72067783D01*
X149572820Y-72231715D01*
X149514326Y-72411742D01*
X149494540Y-72600000D01*
X141000500Y-72600000D01*
X141000500Y-71499999D01*
X158589040Y-71499999D01*
X158608826Y-71688257D01*
X158667320Y-71868284D01*
X158761966Y-72032216D01*
X158888629Y-72172889D01*
X159041769Y-72284151D01*
X159214697Y-72361144D01*
X159399852Y-72400500D01*
X159399854Y-72400500D01*
X159589146Y-72400500D01*
X159589148Y-72400500D01*
X159712584Y-72374262D01*
X159774303Y-72361144D01*
X159947230Y-72284151D01*
X160100371Y-72172888D01*
X160227033Y-72032216D01*
X160321679Y-71868284D01*
X160380174Y-71688256D01*
X160399960Y-71500000D01*
X160380174Y-71311744D01*
X160321679Y-71131716D01*
X160321679Y-71131715D01*
X160227033Y-70967783D01*
X160100370Y-70827110D01*
X159947230Y-70715848D01*
X159774302Y-70638855D01*
X159589148Y-70599500D01*
X159589146Y-70599500D01*
X159399854Y-70599500D01*
X159399852Y-70599500D01*
X159214697Y-70638855D01*
X159041769Y-70715848D01*
X158888629Y-70827110D01*
X158761966Y-70967783D01*
X158667320Y-71131715D01*
X158608826Y-71311742D01*
X158589040Y-71499999D01*
X141000500Y-71499999D01*
X141000500Y-66056808D01*
X144729492Y-66056808D01*
X144749278Y-66245065D01*
X144807772Y-66425092D01*
X144902418Y-66589024D01*
X145029081Y-66729697D01*
X145182221Y-66840959D01*
X145355149Y-66917952D01*
X145540304Y-66957308D01*
X145540306Y-66957308D01*
X145729598Y-66957308D01*
X145729600Y-66957308D01*
X145853035Y-66931070D01*
X145914755Y-66917952D01*
X146087682Y-66840959D01*
X146240823Y-66729696D01*
X146367485Y-66589024D01*
X146462131Y-66425092D01*
X146520626Y-66245064D01*
X146540412Y-66056808D01*
X146520626Y-65868552D01*
X146462131Y-65688524D01*
X146462131Y-65688523D01*
X146367485Y-65524591D01*
X146240822Y-65383918D01*
X146087682Y-65272656D01*
X145914754Y-65195663D01*
X145729600Y-65156308D01*
X145729598Y-65156308D01*
X145540306Y-65156308D01*
X145540304Y-65156308D01*
X145355149Y-65195663D01*
X145182221Y-65272656D01*
X145029081Y-65383918D01*
X144902418Y-65524591D01*
X144807772Y-65688523D01*
X144749278Y-65868550D01*
X144729492Y-66056808D01*
X141000500Y-66056808D01*
X141000500Y-65112559D01*
X159503984Y-65112559D01*
X159523770Y-65300816D01*
X159582264Y-65480843D01*
X159676910Y-65644775D01*
X159803573Y-65785448D01*
X159956713Y-65896710D01*
X160129641Y-65973703D01*
X160314796Y-66013059D01*
X160314798Y-66013059D01*
X160504090Y-66013059D01*
X160504092Y-66013059D01*
X160627528Y-65986821D01*
X160689247Y-65973703D01*
X160862174Y-65896710D01*
X161015315Y-65785447D01*
X161141977Y-65644775D01*
X161236623Y-65480843D01*
X161295118Y-65300815D01*
X161314904Y-65112559D01*
X161295118Y-64924303D01*
X161236623Y-64744275D01*
X161236623Y-64744274D01*
X161141977Y-64580342D01*
X161015314Y-64439669D01*
X160862174Y-64328407D01*
X160689246Y-64251414D01*
X160504092Y-64212059D01*
X160504090Y-64212059D01*
X160314798Y-64212059D01*
X160314796Y-64212059D01*
X160129641Y-64251414D01*
X159956713Y-64328407D01*
X159803573Y-64439669D01*
X159676910Y-64580342D01*
X159582264Y-64744274D01*
X159523770Y-64924301D01*
X159503984Y-65112559D01*
X141000500Y-65112559D01*
X141000500Y-63499999D01*
X151494540Y-63499999D01*
X151514326Y-63688257D01*
X151572820Y-63868284D01*
X151667466Y-64032216D01*
X151794129Y-64172889D01*
X151947269Y-64284151D01*
X152120197Y-64361144D01*
X152305352Y-64400500D01*
X152305354Y-64400500D01*
X152494646Y-64400500D01*
X152494648Y-64400500D01*
X152618084Y-64374262D01*
X152679803Y-64361144D01*
X152852730Y-64284151D01*
X152852730Y-64284150D01*
X153005870Y-64172889D01*
X153132533Y-64032216D01*
X153151133Y-64000000D01*
X170894540Y-64000000D01*
X170914326Y-64188257D01*
X170972820Y-64368284D01*
X171067466Y-64532216D01*
X171194129Y-64672889D01*
X171347269Y-64784151D01*
X171520197Y-64861144D01*
X171705352Y-64900500D01*
X171705354Y-64900500D01*
X171894646Y-64900500D01*
X171894648Y-64900500D01*
X172018084Y-64874262D01*
X172079803Y-64861144D01*
X172252730Y-64784151D01*
X172405871Y-64672888D01*
X172532533Y-64532216D01*
X172627179Y-64368284D01*
X172685674Y-64188256D01*
X172705460Y-64000000D01*
X172685674Y-63811744D01*
X172655332Y-63718363D01*
X172627179Y-63631715D01*
X172532533Y-63467783D01*
X172405870Y-63327110D01*
X172252730Y-63215848D01*
X172079802Y-63138855D01*
X171894648Y-63099500D01*
X171894646Y-63099500D01*
X171705354Y-63099500D01*
X171705352Y-63099500D01*
X171520197Y-63138855D01*
X171347269Y-63215848D01*
X171194129Y-63327110D01*
X171067466Y-63467783D01*
X170972820Y-63631715D01*
X170914326Y-63811742D01*
X170894540Y-64000000D01*
X153151133Y-64000000D01*
X153227179Y-63868284D01*
X153245551Y-63811742D01*
X153285674Y-63688256D01*
X153305460Y-63500000D01*
X153285674Y-63311744D01*
X153251748Y-63207330D01*
X153227179Y-63131715D01*
X153151133Y-62999999D01*
X161894540Y-62999999D01*
X161914326Y-63188257D01*
X161972820Y-63368284D01*
X162067466Y-63532216D01*
X162194129Y-63672889D01*
X162347269Y-63784151D01*
X162520197Y-63861144D01*
X162705352Y-63900500D01*
X162705354Y-63900500D01*
X162894646Y-63900500D01*
X162894648Y-63900500D01*
X163018083Y-63874262D01*
X163079803Y-63861144D01*
X163252730Y-63784151D01*
X163252730Y-63784150D01*
X163405870Y-63672889D01*
X163442943Y-63631716D01*
X163532533Y-63532216D01*
X163627179Y-63368284D01*
X163685674Y-63188256D01*
X163705460Y-63000000D01*
X163685674Y-62811744D01*
X163627179Y-62631716D01*
X163627179Y-62631715D01*
X163532533Y-62467783D01*
X163405870Y-62327110D01*
X163252730Y-62215848D01*
X163079802Y-62138855D01*
X162894648Y-62099500D01*
X162894646Y-62099500D01*
X162705354Y-62099500D01*
X162705352Y-62099500D01*
X162520197Y-62138855D01*
X162347269Y-62215848D01*
X162194129Y-62327110D01*
X162067466Y-62467783D01*
X161972820Y-62631715D01*
X161914326Y-62811742D01*
X161894540Y-62999999D01*
X153151133Y-62999999D01*
X153132533Y-62967783D01*
X153005870Y-62827110D01*
X152852730Y-62715848D01*
X152679802Y-62638855D01*
X152494648Y-62599500D01*
X152494646Y-62599500D01*
X152305354Y-62599500D01*
X152305352Y-62599500D01*
X152120197Y-62638855D01*
X151947269Y-62715848D01*
X151794129Y-62827110D01*
X151667466Y-62967783D01*
X151572820Y-63131715D01*
X151514326Y-63311742D01*
X151494540Y-63499999D01*
X141000500Y-63499999D01*
X141000500Y-60599999D01*
X160194540Y-60599999D01*
X160214326Y-60788257D01*
X160272820Y-60968284D01*
X160367466Y-61132216D01*
X160494129Y-61272889D01*
X160647269Y-61384151D01*
X160820197Y-61461144D01*
X161005352Y-61500500D01*
X161005354Y-61500500D01*
X161194646Y-61500500D01*
X161194648Y-61500500D01*
X161318083Y-61474262D01*
X161379803Y-61461144D01*
X161552730Y-61384151D01*
X161705871Y-61272888D01*
X161832533Y-61132216D01*
X161927179Y-60968284D01*
X161985674Y-60788256D01*
X162005460Y-60600000D01*
X161985674Y-60411744D01*
X161955332Y-60318363D01*
X161927179Y-60231715D01*
X161832533Y-60067783D01*
X161705870Y-59927110D01*
X161552730Y-59815848D01*
X161379802Y-59738855D01*
X161194648Y-59699500D01*
X161194646Y-59699500D01*
X161005354Y-59699500D01*
X161005352Y-59699500D01*
X160820197Y-59738855D01*
X160647269Y-59815848D01*
X160494129Y-59927110D01*
X160367466Y-60067783D01*
X160272820Y-60231715D01*
X160214326Y-60411742D01*
X160194540Y-60599999D01*
X141000500Y-60599999D01*
X141000500Y-59599999D01*
X174706936Y-59599999D01*
X174727150Y-59831047D01*
X174727151Y-59831050D01*
X174787180Y-60055079D01*
X174885199Y-60265282D01*
X175018230Y-60455269D01*
X175018233Y-60455271D01*
X175018233Y-60455272D01*
X175173534Y-60610573D01*
X175206779Y-60670814D01*
X175202791Y-60739504D01*
X175162798Y-60795493D01*
X175118863Y-60813464D01*
X175119610Y-60815466D01*
X174970169Y-60871204D01*
X174854954Y-60957454D01*
X174768704Y-61072668D01*
X174718409Y-61207516D01*
X174712000Y-61267130D01*
X174712000Y-63012869D01*
X174718409Y-63072484D01*
X174743556Y-63139906D01*
X174768704Y-63207331D01*
X174854954Y-63322546D01*
X174970169Y-63408796D01*
X175105017Y-63459091D01*
X175164627Y-63465500D01*
X176910372Y-63465499D01*
X176969983Y-63459091D01*
X177104831Y-63408796D01*
X177220046Y-63322546D01*
X177306296Y-63207331D01*
X177356591Y-63072483D01*
X177363000Y-63012873D01*
X177362999Y-61267128D01*
X177356591Y-61207517D01*
X177306296Y-61072669D01*
X177220046Y-60957454D01*
X177104831Y-60871204D01*
X176969983Y-60820909D01*
X176955390Y-60815466D01*
X176956136Y-60813464D01*
X176912203Y-60795495D01*
X176872209Y-60739505D01*
X176868220Y-60670814D01*
X176901462Y-60610576D01*
X177056770Y-60455269D01*
X177189801Y-60265282D01*
X177287820Y-60055079D01*
X177347849Y-59831050D01*
X177368063Y-59600000D01*
X177347849Y-59368950D01*
X177287820Y-59144921D01*
X177189801Y-58934719D01*
X177056770Y-58744731D01*
X176892769Y-58580730D01*
X176702782Y-58447699D01*
X176702778Y-58447697D01*
X176702777Y-58447696D01*
X176691380Y-58442382D01*
X176639204Y-58396625D01*
X176619784Y-58330000D01*
X176639204Y-58263375D01*
X176691380Y-58217618D01*
X176695312Y-58215784D01*
X176702782Y-58212301D01*
X176892769Y-58079270D01*
X177056770Y-57915269D01*
X177189801Y-57725282D01*
X177287820Y-57515079D01*
X177347849Y-57291050D01*
X177368063Y-57060000D01*
X177347849Y-56828950D01*
X177287820Y-56604921D01*
X177189801Y-56394719D01*
X177056770Y-56204731D01*
X176892769Y-56040730D01*
X176834601Y-56000000D01*
X178294540Y-56000000D01*
X178314326Y-56188257D01*
X178372820Y-56368284D01*
X178467466Y-56532216D01*
X178594129Y-56672889D01*
X178747269Y-56784151D01*
X178920197Y-56861144D01*
X179105352Y-56900500D01*
X179105354Y-56900500D01*
X179294646Y-56900500D01*
X179294648Y-56900500D01*
X179418084Y-56874262D01*
X179479803Y-56861144D01*
X179652730Y-56784151D01*
X179805871Y-56672888D01*
X179932533Y-56532216D01*
X180027179Y-56368284D01*
X180085674Y-56188256D01*
X180105460Y-56000000D01*
X180085674Y-55811744D01*
X180027179Y-55631716D01*
X180027179Y-55631715D01*
X179932533Y-55467783D01*
X179805870Y-55327110D01*
X179652730Y-55215848D01*
X179479802Y-55138855D01*
X179294648Y-55099500D01*
X179294646Y-55099500D01*
X179105354Y-55099500D01*
X179105352Y-55099500D01*
X178920197Y-55138855D01*
X178747269Y-55215848D01*
X178594129Y-55327110D01*
X178467466Y-55467783D01*
X178372820Y-55631715D01*
X178314326Y-55811742D01*
X178294540Y-56000000D01*
X176834601Y-56000000D01*
X176702782Y-55907699D01*
X176702778Y-55907697D01*
X176702777Y-55907696D01*
X176691380Y-55902382D01*
X176639204Y-55856625D01*
X176619784Y-55790000D01*
X176639204Y-55723375D01*
X176691380Y-55677618D01*
X176695312Y-55675784D01*
X176702782Y-55672301D01*
X176892769Y-55539270D01*
X177056770Y-55375269D01*
X177189801Y-55185282D01*
X177287820Y-54975079D01*
X177347849Y-54751050D01*
X177368063Y-54520000D01*
X177347849Y-54288950D01*
X177287820Y-54064921D01*
X177189801Y-53854719D01*
X177056770Y-53664731D01*
X176892769Y-53500730D01*
X176702782Y-53367699D01*
X176605865Y-53322506D01*
X176492580Y-53269680D01*
X176268547Y-53209650D01*
X176037500Y-53189436D01*
X175806452Y-53209650D01*
X175582419Y-53269680D01*
X175372221Y-53367698D01*
X175372219Y-53367699D01*
X175182231Y-53500730D01*
X175182227Y-53500733D01*
X175018233Y-53664727D01*
X175018230Y-53664730D01*
X175018230Y-53664731D01*
X174963228Y-53743283D01*
X174885198Y-53854721D01*
X174787180Y-54064919D01*
X174727150Y-54288952D01*
X174706936Y-54520000D01*
X174727150Y-54751047D01*
X174787180Y-54975080D01*
X174826616Y-55059651D01*
X174885199Y-55185282D01*
X175018230Y-55375269D01*
X175182231Y-55539270D01*
X175372218Y-55672301D01*
X175372221Y-55672302D01*
X175372222Y-55672303D01*
X175383620Y-55677618D01*
X175435796Y-55723374D01*
X175455216Y-55789999D01*
X175435797Y-55856624D01*
X175383623Y-55902381D01*
X175372222Y-55907697D01*
X175372219Y-55907698D01*
X175372219Y-55907699D01*
X175240400Y-56000000D01*
X175182227Y-56040733D01*
X175018233Y-56204727D01*
X174885198Y-56394721D01*
X174787180Y-56604919D01*
X174727150Y-56828952D01*
X174706936Y-57060000D01*
X174727150Y-57291047D01*
X174727151Y-57291050D01*
X174787180Y-57515079D01*
X174885199Y-57725282D01*
X175018230Y-57915269D01*
X175182231Y-58079270D01*
X175372218Y-58212301D01*
X175372221Y-58212302D01*
X175372222Y-58212303D01*
X175383620Y-58217618D01*
X175435796Y-58263374D01*
X175455216Y-58329999D01*
X175435797Y-58396624D01*
X175383623Y-58442381D01*
X175372222Y-58447697D01*
X175182227Y-58580733D01*
X175018233Y-58744727D01*
X174885198Y-58934721D01*
X174787180Y-59144919D01*
X174727150Y-59368952D01*
X174706936Y-59599999D01*
X141000500Y-59599999D01*
X141000500Y-54999999D01*
X163094540Y-54999999D01*
X163114326Y-55188257D01*
X163172820Y-55368284D01*
X163267466Y-55532216D01*
X163394129Y-55672889D01*
X163547269Y-55784151D01*
X163720197Y-55861144D01*
X163905352Y-55900500D01*
X163905354Y-55900500D01*
X164094646Y-55900500D01*
X164094648Y-55900500D01*
X164218084Y-55874262D01*
X164279803Y-55861144D01*
X164452730Y-55784151D01*
X164471767Y-55770320D01*
X164605870Y-55672889D01*
X164606400Y-55672301D01*
X164732533Y-55532216D01*
X164827179Y-55368284D01*
X164861816Y-55261680D01*
X164887597Y-55217028D01*
X164929312Y-55186720D01*
X164979747Y-55176000D01*
X165094648Y-55176000D01*
X165218084Y-55149762D01*
X165279803Y-55136644D01*
X165452730Y-55059651D01*
X165534834Y-54999999D01*
X165605870Y-54948389D01*
X165732533Y-54807716D01*
X165827179Y-54643784D01*
X165884365Y-54467784D01*
X165885674Y-54463756D01*
X165905460Y-54275500D01*
X165885674Y-54087244D01*
X165827179Y-53907216D01*
X165827179Y-53907215D01*
X165732533Y-53743283D01*
X165605870Y-53602610D01*
X165500425Y-53526000D01*
X167294540Y-53526000D01*
X167314326Y-53714257D01*
X167372820Y-53894284D01*
X167467466Y-54058216D01*
X167594129Y-54198889D01*
X167747269Y-54310151D01*
X167920197Y-54387144D01*
X168105352Y-54426500D01*
X168105354Y-54426500D01*
X168294646Y-54426500D01*
X168294648Y-54426500D01*
X168418084Y-54400262D01*
X168479803Y-54387144D01*
X168652730Y-54310151D01*
X168782526Y-54215849D01*
X168805870Y-54198889D01*
X168932533Y-54058216D01*
X169027179Y-53894284D01*
X169040034Y-53854721D01*
X169085674Y-53714256D01*
X169105460Y-53526000D01*
X169085674Y-53337744D01*
X169044054Y-53209651D01*
X169027179Y-53157715D01*
X168932533Y-52993783D01*
X168805870Y-52853110D01*
X168652730Y-52741848D01*
X168479802Y-52664855D01*
X168294648Y-52625500D01*
X168294646Y-52625500D01*
X168105354Y-52625500D01*
X168105352Y-52625500D01*
X167920197Y-52664855D01*
X167747269Y-52741848D01*
X167594129Y-52853110D01*
X167467466Y-52993783D01*
X167372820Y-53157715D01*
X167314326Y-53337742D01*
X167294540Y-53526000D01*
X165500425Y-53526000D01*
X165452730Y-53491348D01*
X165279802Y-53414355D01*
X165094648Y-53375000D01*
X165094646Y-53375000D01*
X164905354Y-53375000D01*
X164905352Y-53375000D01*
X164720197Y-53414355D01*
X164547269Y-53491348D01*
X164394129Y-53602610D01*
X164267466Y-53743283D01*
X164172820Y-53907215D01*
X164138184Y-54013818D01*
X164112403Y-54058472D01*
X164070688Y-54088780D01*
X164020253Y-54099500D01*
X163905352Y-54099500D01*
X163720197Y-54138855D01*
X163547269Y-54215848D01*
X163394129Y-54327110D01*
X163267466Y-54467783D01*
X163172820Y-54631715D01*
X163114326Y-54811742D01*
X163094540Y-54999999D01*
X141000500Y-54999999D01*
X141000500Y-48799999D01*
X153694540Y-48799999D01*
X153714326Y-48988257D01*
X153772820Y-49168284D01*
X153867466Y-49332216D01*
X153994129Y-49472889D01*
X154147269Y-49584151D01*
X154320197Y-49661144D01*
X154505352Y-49700500D01*
X154505354Y-49700500D01*
X154694646Y-49700500D01*
X154694648Y-49700500D01*
X154818084Y-49674262D01*
X154879803Y-49661144D01*
X155052730Y-49584151D01*
X155146740Y-49515849D01*
X155168555Y-49500000D01*
X157594540Y-49500000D01*
X157614326Y-49688257D01*
X157672820Y-49868284D01*
X157767466Y-50032216D01*
X157894129Y-50172889D01*
X158047269Y-50284151D01*
X158220197Y-50361144D01*
X158405352Y-50400500D01*
X158405354Y-50400500D01*
X158594646Y-50400500D01*
X158594648Y-50400500D01*
X158718083Y-50374262D01*
X158779803Y-50361144D01*
X158917135Y-50299999D01*
X163294540Y-50299999D01*
X163314326Y-50488257D01*
X163372820Y-50668284D01*
X163467466Y-50832216D01*
X163594129Y-50972889D01*
X163747269Y-51084151D01*
X163920197Y-51161144D01*
X164105352Y-51200500D01*
X164105354Y-51200500D01*
X164294646Y-51200500D01*
X164294648Y-51200500D01*
X164418084Y-51174262D01*
X164479803Y-51161144D01*
X164652730Y-51084151D01*
X164805871Y-50972888D01*
X164932533Y-50832216D01*
X165027179Y-50668284D01*
X165085674Y-50488256D01*
X165105460Y-50300000D01*
X165105460Y-50299999D01*
X168694540Y-50299999D01*
X168714326Y-50488257D01*
X168772820Y-50668284D01*
X168867466Y-50832216D01*
X168994129Y-50972889D01*
X169147269Y-51084151D01*
X169320197Y-51161144D01*
X169505352Y-51200500D01*
X169505354Y-51200500D01*
X169694646Y-51200500D01*
X169694648Y-51200500D01*
X169818084Y-51174262D01*
X169879803Y-51161144D01*
X170052730Y-51084151D01*
X170205871Y-50972888D01*
X170332533Y-50832216D01*
X170427179Y-50668284D01*
X170485674Y-50488256D01*
X170505460Y-50300000D01*
X170485674Y-50111744D01*
X170427179Y-49931716D01*
X170427179Y-49931715D01*
X170332533Y-49767783D01*
X170205870Y-49627110D01*
X170052730Y-49515848D01*
X169879802Y-49438855D01*
X169694648Y-49399500D01*
X169694646Y-49399500D01*
X169505354Y-49399500D01*
X169505352Y-49399500D01*
X169320197Y-49438855D01*
X169147269Y-49515848D01*
X168994129Y-49627110D01*
X168867466Y-49767783D01*
X168772820Y-49931715D01*
X168714326Y-50111742D01*
X168694540Y-50299999D01*
X165105460Y-50299999D01*
X165085674Y-50111744D01*
X165027179Y-49931716D01*
X165027179Y-49931715D01*
X164932533Y-49767783D01*
X164805870Y-49627110D01*
X164652730Y-49515848D01*
X164479802Y-49438855D01*
X164294648Y-49399500D01*
X164294646Y-49399500D01*
X164105354Y-49399500D01*
X164105352Y-49399500D01*
X163920197Y-49438855D01*
X163747269Y-49515848D01*
X163594129Y-49627110D01*
X163467466Y-49767783D01*
X163372820Y-49931715D01*
X163314326Y-50111742D01*
X163294540Y-50299999D01*
X158917135Y-50299999D01*
X158952730Y-50284151D01*
X159105871Y-50172888D01*
X159232533Y-50032216D01*
X159327179Y-49868284D01*
X159385674Y-49688256D01*
X159405460Y-49500000D01*
X159385674Y-49311744D01*
X159337285Y-49162818D01*
X159332743Y-49105102D01*
X159354898Y-49051615D01*
X159398921Y-49014015D01*
X159455216Y-49000500D01*
X159594648Y-49000500D01*
X159718084Y-48974262D01*
X159779803Y-48961144D01*
X159952730Y-48884151D01*
X160031241Y-48827110D01*
X160105870Y-48772889D01*
X160232533Y-48632216D01*
X160327179Y-48468284D01*
X160371390Y-48332216D01*
X160385674Y-48288256D01*
X160405460Y-48100000D01*
X160385674Y-47911744D01*
X160327179Y-47731716D01*
X160327179Y-47731715D01*
X160232535Y-47567786D01*
X160224571Y-47558942D01*
X160196234Y-47527470D01*
X160168954Y-47477847D01*
X160166582Y-47421265D01*
X160189616Y-47369530D01*
X160233251Y-47333432D01*
X160288386Y-47320500D01*
X160394648Y-47320500D01*
X160518084Y-47294262D01*
X160579803Y-47281144D01*
X160752730Y-47204151D01*
X160858766Y-47127112D01*
X160905870Y-47092889D01*
X161032533Y-46952216D01*
X161127179Y-46788284D01*
X161127179Y-46788283D01*
X161185674Y-46608256D01*
X161205460Y-46420000D01*
X161185674Y-46231744D01*
X161127179Y-46051716D01*
X161127179Y-46051715D01*
X161032533Y-45887783D01*
X160905870Y-45747110D01*
X160752730Y-45635848D01*
X160579802Y-45558855D01*
X160394648Y-45519500D01*
X160394646Y-45519500D01*
X160205354Y-45519500D01*
X160205352Y-45519500D01*
X160020197Y-45558855D01*
X159847269Y-45635848D01*
X159694129Y-45747110D01*
X159567466Y-45887783D01*
X159472820Y-46051715D01*
X159414326Y-46231742D01*
X159394540Y-46420000D01*
X159414326Y-46608257D01*
X159472820Y-46788284D01*
X159567464Y-46952213D01*
X159567467Y-46952216D01*
X159603765Y-46992529D01*
X159631046Y-47042153D01*
X159633418Y-47098735D01*
X159610384Y-47150470D01*
X159566749Y-47186568D01*
X159511614Y-47199500D01*
X159405352Y-47199500D01*
X159220197Y-47238855D01*
X159047269Y-47315848D01*
X158894129Y-47427110D01*
X158767466Y-47567783D01*
X158672820Y-47731715D01*
X158614326Y-47911742D01*
X158594540Y-48100000D01*
X158614326Y-48288257D01*
X158662715Y-48437182D01*
X158667257Y-48494898D01*
X158645102Y-48548385D01*
X158601079Y-48585985D01*
X158544784Y-48599500D01*
X158405352Y-48599500D01*
X158220197Y-48638855D01*
X158047269Y-48715848D01*
X157894129Y-48827110D01*
X157767466Y-48967783D01*
X157672820Y-49131715D01*
X157614326Y-49311742D01*
X157594540Y-49500000D01*
X155168555Y-49500000D01*
X155205870Y-49472889D01*
X155236515Y-49438855D01*
X155332533Y-49332216D01*
X155427179Y-49168284D01*
X155485674Y-48988256D01*
X155505460Y-48800000D01*
X155485674Y-48611744D01*
X155427179Y-48431716D01*
X155427179Y-48431715D01*
X155332533Y-48267783D01*
X155205870Y-48127110D01*
X155052730Y-48015848D01*
X154879802Y-47938855D01*
X154694648Y-47899500D01*
X154694646Y-47899500D01*
X154505354Y-47899500D01*
X154505352Y-47899500D01*
X154320197Y-47938855D01*
X154147269Y-48015848D01*
X153994129Y-48127110D01*
X153867466Y-48267783D01*
X153772820Y-48431715D01*
X153714326Y-48611742D01*
X153694540Y-48799999D01*
X141000500Y-48799999D01*
X141000500Y-47800000D01*
X150994540Y-47800000D01*
X151014326Y-47988257D01*
X151072820Y-48168284D01*
X151167466Y-48332216D01*
X151294129Y-48472889D01*
X151447269Y-48584151D01*
X151620197Y-48661144D01*
X151805352Y-48700500D01*
X151805354Y-48700500D01*
X151994646Y-48700500D01*
X151994648Y-48700500D01*
X152118083Y-48674262D01*
X152179803Y-48661144D01*
X152352730Y-48584151D01*
X152505871Y-48472888D01*
X152632533Y-48332216D01*
X152727179Y-48168284D01*
X152785674Y-47988256D01*
X152805460Y-47800000D01*
X152785674Y-47611744D01*
X152727179Y-47431716D01*
X152727179Y-47431715D01*
X152632533Y-47267783D01*
X152505870Y-47127110D01*
X152352730Y-47015848D01*
X152179802Y-46938855D01*
X151994648Y-46899500D01*
X151994646Y-46899500D01*
X151805354Y-46899500D01*
X151805352Y-46899500D01*
X151620197Y-46938855D01*
X151447269Y-47015848D01*
X151294129Y-47127110D01*
X151167466Y-47267783D01*
X151072820Y-47431715D01*
X151014326Y-47611742D01*
X150994540Y-47800000D01*
X141000500Y-47800000D01*
X141000500Y-43788903D01*
X142564648Y-43788903D01*
X142564649Y-43788904D01*
X142822207Y-43997469D01*
X143147456Y-44208690D01*
X143493009Y-44384757D01*
X143855068Y-44523739D01*
X144229674Y-44624114D01*
X144612711Y-44684780D01*
X145000000Y-44705077D01*
X145387288Y-44684780D01*
X145770325Y-44624114D01*
X146144931Y-44523739D01*
X146506990Y-44384757D01*
X146852543Y-44208690D01*
X147177786Y-43997473D01*
X147422236Y-43799521D01*
X152575747Y-43799521D01*
X152595533Y-43987778D01*
X152654027Y-44167805D01*
X152748673Y-44331737D01*
X152875336Y-44472410D01*
X153028476Y-44583672D01*
X153201404Y-44660665D01*
X153386559Y-44700021D01*
X153386561Y-44700021D01*
X153575853Y-44700021D01*
X153575855Y-44700021D01*
X153699291Y-44673783D01*
X153761010Y-44660665D01*
X153933937Y-44583672D01*
X154087078Y-44472409D01*
X154213740Y-44331737D01*
X154308386Y-44167805D01*
X154366881Y-43987777D01*
X154386667Y-43799521D01*
X154385551Y-43788903D01*
X185564648Y-43788903D01*
X185564649Y-43788904D01*
X185822207Y-43997469D01*
X186147456Y-44208690D01*
X186493009Y-44384757D01*
X186855068Y-44523739D01*
X187229674Y-44624114D01*
X187612711Y-44684780D01*
X188000000Y-44705077D01*
X188387288Y-44684780D01*
X188770325Y-44624114D01*
X189144931Y-44523739D01*
X189506990Y-44384757D01*
X189852543Y-44208690D01*
X190177786Y-43997473D01*
X190435349Y-43788902D01*
X188000000Y-41353553D01*
X185564648Y-43788903D01*
X154385551Y-43788903D01*
X154366881Y-43611265D01*
X154330891Y-43500500D01*
X154308386Y-43431236D01*
X154213740Y-43267304D01*
X154087077Y-43126631D01*
X153933937Y-43015369D01*
X153761009Y-42938376D01*
X153575855Y-42899021D01*
X153575853Y-42899021D01*
X153386561Y-42899021D01*
X153386559Y-42899021D01*
X153201404Y-42938376D01*
X153028476Y-43015369D01*
X152875336Y-43126631D01*
X152748673Y-43267304D01*
X152654027Y-43431236D01*
X152595533Y-43611263D01*
X152575747Y-43799521D01*
X147422236Y-43799521D01*
X147435349Y-43788902D01*
X145000000Y-41353553D01*
X142564648Y-43788903D01*
X141000500Y-43788903D01*
X141000500Y-41002872D01*
X141000566Y-41000000D01*
X141294922Y-41000000D01*
X141315219Y-41387288D01*
X141375885Y-41770325D01*
X141476260Y-42144931D01*
X141615242Y-42506990D01*
X141791309Y-42852543D01*
X142002530Y-43177792D01*
X142211095Y-43435350D01*
X142211096Y-43435350D01*
X144646447Y-41000001D01*
X144646447Y-41000000D01*
X145353553Y-41000000D01*
X147788902Y-43435349D01*
X147997473Y-43177786D01*
X148208690Y-42852543D01*
X148337367Y-42599999D01*
X155094540Y-42599999D01*
X155114326Y-42788257D01*
X155172820Y-42968284D01*
X155267466Y-43132216D01*
X155394129Y-43272889D01*
X155547269Y-43384151D01*
X155720197Y-43461144D01*
X155905352Y-43500500D01*
X155905354Y-43500500D01*
X156094646Y-43500500D01*
X156094648Y-43500500D01*
X156218083Y-43474262D01*
X156279803Y-43461144D01*
X156452730Y-43384151D01*
X156605871Y-43272888D01*
X156732533Y-43132216D01*
X156827179Y-42968284D01*
X156885674Y-42788256D01*
X156905460Y-42600000D01*
X156885674Y-42411744D01*
X156827179Y-42231716D01*
X156827179Y-42231715D01*
X156732533Y-42067783D01*
X156605870Y-41927110D01*
X156452730Y-41815848D01*
X156417135Y-41800000D01*
X157094540Y-41800000D01*
X157114326Y-41988257D01*
X157172820Y-42168284D01*
X157267466Y-42332216D01*
X157394129Y-42472889D01*
X157547269Y-42584151D01*
X157720197Y-42661144D01*
X157905352Y-42700500D01*
X157905354Y-42700500D01*
X158094646Y-42700500D01*
X158094648Y-42700500D01*
X158218083Y-42674262D01*
X158279803Y-42661144D01*
X158452730Y-42584151D01*
X158452729Y-42584151D01*
X158605870Y-42472889D01*
X158732533Y-42332216D01*
X158827179Y-42168284D01*
X158834767Y-42144931D01*
X158885674Y-41988256D01*
X158905460Y-41800000D01*
X158885674Y-41611744D01*
X158827179Y-41431716D01*
X158827179Y-41431715D01*
X158732533Y-41267783D01*
X158605870Y-41127110D01*
X158452730Y-41015848D01*
X158417135Y-41000000D01*
X184294922Y-41000000D01*
X184315219Y-41387288D01*
X184375885Y-41770325D01*
X184476260Y-42144931D01*
X184615242Y-42506990D01*
X184791309Y-42852543D01*
X185002530Y-43177792D01*
X185211095Y-43435350D01*
X185211096Y-43435350D01*
X187646447Y-41000001D01*
X187646447Y-41000000D01*
X188353553Y-41000000D01*
X190788902Y-43435349D01*
X190997473Y-43177786D01*
X191208690Y-42852543D01*
X191384757Y-42506990D01*
X191523739Y-42144931D01*
X191624114Y-41770325D01*
X191684780Y-41387288D01*
X191705077Y-41000000D01*
X191684780Y-40612711D01*
X191624114Y-40229674D01*
X191523739Y-39855068D01*
X191384757Y-39493009D01*
X191208690Y-39147456D01*
X190997469Y-38822207D01*
X190788904Y-38564649D01*
X190788903Y-38564648D01*
X188353553Y-41000000D01*
X187646447Y-41000000D01*
X185211096Y-38564648D01*
X185002526Y-38822214D01*
X184791309Y-39147456D01*
X184615242Y-39493009D01*
X184476260Y-39855068D01*
X184375885Y-40229674D01*
X184315219Y-40612711D01*
X184294922Y-41000000D01*
X158417135Y-41000000D01*
X158279802Y-40938855D01*
X158094648Y-40899500D01*
X158094646Y-40899500D01*
X157905354Y-40899500D01*
X157905352Y-40899500D01*
X157720197Y-40938855D01*
X157547269Y-41015848D01*
X157394129Y-41127110D01*
X157267466Y-41267783D01*
X157172820Y-41431715D01*
X157114326Y-41611742D01*
X157094540Y-41800000D01*
X156417135Y-41800000D01*
X156279802Y-41738855D01*
X156094648Y-41699500D01*
X156094646Y-41699500D01*
X155905354Y-41699500D01*
X155905352Y-41699500D01*
X155720197Y-41738855D01*
X155547269Y-41815848D01*
X155394129Y-41927110D01*
X155267466Y-42067783D01*
X155172820Y-42231715D01*
X155114326Y-42411742D01*
X155094540Y-42599999D01*
X148337367Y-42599999D01*
X148384757Y-42506990D01*
X148523739Y-42144931D01*
X148624114Y-41770325D01*
X148684780Y-41387288D01*
X148705077Y-41000000D01*
X151194540Y-41000000D01*
X151214326Y-41188257D01*
X151272820Y-41368284D01*
X151367466Y-41532216D01*
X151494129Y-41672889D01*
X151647269Y-41784151D01*
X151820197Y-41861144D01*
X152005352Y-41900500D01*
X152005354Y-41900500D01*
X152194646Y-41900500D01*
X152194648Y-41900500D01*
X152318083Y-41874262D01*
X152379803Y-41861144D01*
X152552730Y-41784151D01*
X152571760Y-41770325D01*
X152705870Y-41672889D01*
X152832533Y-41532216D01*
X152927179Y-41368284D01*
X152931965Y-41353553D01*
X152985674Y-41188256D01*
X153005460Y-41000000D01*
X152985674Y-40811744D01*
X152955332Y-40718363D01*
X152927179Y-40631715D01*
X152832533Y-40467783D01*
X152705870Y-40327110D01*
X152552730Y-40215848D01*
X152379802Y-40138855D01*
X152194648Y-40099500D01*
X152194646Y-40099500D01*
X152005354Y-40099500D01*
X152005352Y-40099500D01*
X151820197Y-40138855D01*
X151647269Y-40215848D01*
X151494129Y-40327110D01*
X151367466Y-40467783D01*
X151272820Y-40631715D01*
X151214326Y-40811742D01*
X151194540Y-41000000D01*
X148705077Y-41000000D01*
X148684780Y-40612711D01*
X148624114Y-40229674D01*
X148523739Y-39855068D01*
X148384757Y-39493009D01*
X148208690Y-39147456D01*
X147997469Y-38822207D01*
X147788904Y-38564649D01*
X147788903Y-38564648D01*
X145353553Y-41000000D01*
X144646447Y-41000000D01*
X142211096Y-38564648D01*
X142002526Y-38822214D01*
X141791309Y-39147456D01*
X141615242Y-39493009D01*
X141476260Y-39855068D01*
X141375885Y-40229674D01*
X141315219Y-40612711D01*
X141294922Y-41000000D01*
X141000566Y-41000000D01*
X141000632Y-40997146D01*
X141005146Y-40899500D01*
X141008490Y-40827168D01*
X141009248Y-40811742D01*
X141018166Y-40630200D01*
X141019200Y-40619217D01*
X141044611Y-40437054D01*
X141044722Y-40436286D01*
X141071950Y-40252729D01*
X141073890Y-40242595D01*
X141116526Y-40061318D01*
X141116837Y-40060037D01*
X141161405Y-39882111D01*
X141164091Y-39872922D01*
X141223572Y-39695457D01*
X141224270Y-39693442D01*
X141285699Y-39521759D01*
X141288996Y-39513497D01*
X141364713Y-39342015D01*
X141366051Y-39339089D01*
X141443727Y-39174855D01*
X141447452Y-39167612D01*
X141538864Y-39003497D01*
X141540745Y-39000243D01*
X141634036Y-38844598D01*
X141638034Y-38838363D01*
X141744270Y-38683278D01*
X141746899Y-38679590D01*
X141854909Y-38533954D01*
X141859011Y-38528728D01*
X141979239Y-38383944D01*
X141982577Y-38380097D01*
X142104340Y-38245752D01*
X142108437Y-38241450D01*
X142138791Y-38211096D01*
X142564648Y-38211096D01*
X145000000Y-40646447D01*
X145000001Y-40646447D01*
X147435350Y-38211096D01*
X185564648Y-38211096D01*
X188000000Y-40646447D01*
X188000001Y-40646447D01*
X190435350Y-38211096D01*
X190435350Y-38211095D01*
X190177792Y-38002530D01*
X189852543Y-37791309D01*
X189506990Y-37615242D01*
X189144931Y-37476260D01*
X188770325Y-37375885D01*
X188387288Y-37315219D01*
X188000000Y-37294922D01*
X187612711Y-37315219D01*
X187229674Y-37375885D01*
X186855068Y-37476260D01*
X186493009Y-37615242D01*
X186147456Y-37791309D01*
X185822214Y-38002526D01*
X185564648Y-38211096D01*
X147435350Y-38211096D01*
X147435350Y-38211095D01*
X147177792Y-38002530D01*
X146852543Y-37791309D01*
X146506990Y-37615242D01*
X146144931Y-37476260D01*
X145770325Y-37375885D01*
X145387288Y-37315219D01*
X145000000Y-37294922D01*
X144612711Y-37315219D01*
X144229674Y-37375885D01*
X143855068Y-37476260D01*
X143493009Y-37615242D01*
X143147456Y-37791309D01*
X142822214Y-38002526D01*
X142564648Y-38211096D01*
X142138791Y-38211096D01*
X142241450Y-38108437D01*
X142245752Y-38104340D01*
X142380097Y-37982577D01*
X142383944Y-37979239D01*
X142528728Y-37859011D01*
X142533954Y-37854909D01*
X142679590Y-37746899D01*
X142683278Y-37744270D01*
X142838363Y-37638034D01*
X142844598Y-37634036D01*
X143000243Y-37540745D01*
X143003497Y-37538864D01*
X143167612Y-37447452D01*
X143174855Y-37443727D01*
X143339098Y-37366046D01*
X143342018Y-37364712D01*
X143406007Y-37336458D01*
X143513497Y-37288996D01*
X143521759Y-37285699D01*
X143693442Y-37224270D01*
X143695457Y-37223572D01*
X143872922Y-37164091D01*
X143882111Y-37161405D01*
X144060037Y-37116837D01*
X144061318Y-37116526D01*
X144242595Y-37073890D01*
X144252729Y-37071950D01*
X144436286Y-37044722D01*
X144437054Y-37044611D01*
X144619217Y-37019200D01*
X144630200Y-37018166D01*
X144826898Y-37008502D01*
X144991674Y-37000884D01*
X144997146Y-37000632D01*
X145002872Y-37000500D01*
X187997128Y-37000500D01*
X188002854Y-37000632D01*
G37*
%TD.AperFunction*%
%TD*%
M02*
