%TF.GenerationSoftware,KiCad,Pcbnew,7.0.1*%
%TF.CreationDate,2023-06-17T09:34:49+02:00*%
%TF.ProjectId,Had_Konzole,4861645f-4b6f-46e7-9a6f-6c652e6b6963,rev?*%
%TF.SameCoordinates,Original*%
%TF.FileFunction,Copper,L3,Inr*%
%TF.FilePolarity,Positive*%
%FSLAX46Y46*%
G04 Gerber Fmt 4.6, Leading zero omitted, Abs format (unit mm)*
G04 Created by KiCad (PCBNEW 7.0.1) date 2023-06-17 09:34:49*
%MOMM*%
%LPD*%
G01*
G04 APERTURE LIST*
%TA.AperFunction,ComponentPad*%
%ADD10C,6.400000*%
%TD*%
%TA.AperFunction,ComponentPad*%
%ADD11R,1.800000X1.800000*%
%TD*%
%TA.AperFunction,ComponentPad*%
%ADD12C,1.800000*%
%TD*%
%TA.AperFunction,ComponentPad*%
%ADD13C,1.000000*%
%TD*%
%TA.AperFunction,ComponentPad*%
%ADD14O,1.000000X1.800000*%
%TD*%
%TA.AperFunction,ComponentPad*%
%ADD15R,1.650000X1.650000*%
%TD*%
%TA.AperFunction,ComponentPad*%
%ADD16C,1.650000*%
%TD*%
%TA.AperFunction,ViaPad*%
%ADD17C,0.800000*%
%TD*%
G04 APERTURE END LIST*
D10*
%TO.N,GND*%
%TO.C,H1*%
X145000000Y-41000000D03*
%TD*%
%TO.N,GND*%
%TO.C,H3*%
X145000000Y-102000000D03*
%TD*%
D11*
%TO.N,Net-(D1-K)*%
%TO.C,D1*%
X181725000Y-84275000D03*
D12*
%TO.N,+3V3*%
X181725000Y-81735000D03*
%TD*%
D10*
%TO.N,GND*%
%TO.C,H2*%
X188000000Y-41000000D03*
%TD*%
%TO.N,GND*%
%TO.C,H4*%
X188000000Y-102000000D03*
%TD*%
D13*
%TO.N,unconnected-(J4-SHIELD-PadS1)*%
%TO.C,J4*%
X153980000Y-104575000D03*
X162620000Y-104575000D03*
D14*
X153980000Y-100575000D03*
X162620000Y-100575000D03*
%TD*%
D15*
%TO.N,Reset*%
%TO.C,J2*%
X176037500Y-62140000D03*
D16*
%TO.N,MOSI*%
X176037500Y-59600000D03*
%TO.N,MISO*%
X176037500Y-57060000D03*
%TO.N,SCK*%
X176037500Y-54520000D03*
%TD*%
D17*
%TO.N,USB_Conn_D-*%
X160400000Y-93700000D03*
X158400000Y-101800000D03*
%TO.N,GND*%
X146100000Y-53000000D03*
X147200000Y-45900000D03*
X154000000Y-45400000D03*
X161200000Y-56300000D03*
X148700000Y-65900000D03*
X161400000Y-76600000D03*
X173000000Y-66900000D03*
X177300000Y-86000000D03*
X154700000Y-98800000D03*
X161700000Y-98800000D03*
X171300000Y-97200000D03*
X174000000Y-94800000D03*
X167600000Y-93200000D03*
X164000000Y-94800000D03*
X162200000Y-91100000D03*
X157600000Y-90100000D03*
X150100000Y-92200000D03*
X154800000Y-90800000D03*
%TO.N,+3V3*%
X150100000Y-88900000D03*
X164200000Y-50300000D03*
X158500000Y-49500000D03*
X154600000Y-48800000D03*
X151900000Y-47800000D03*
X152100000Y-41000000D03*
%TO.N,RST_PROG*%
X153481207Y-43799521D03*
%TO.N,DTR*%
X145634952Y-66056808D03*
%TO.N,Reset*%
X152400000Y-63500000D03*
X160409444Y-65112559D03*
%TO.N,GND*%
X169600000Y-51900000D03*
X179200000Y-57200000D03*
X169600000Y-47200000D03*
X179200000Y-58500000D03*
%TO.N,+3V3*%
X163200000Y-83300000D03*
X172100000Y-82200000D03*
X171800000Y-64000000D03*
X175800000Y-72600000D03*
X169600000Y-50300000D03*
X179200000Y-56000000D03*
X160000000Y-90800000D03*
X184900000Y-73700000D03*
X179900000Y-81700000D03*
X159494500Y-71500000D03*
X160100000Y-92100000D03*
X150400000Y-72600000D03*
X157600000Y-91500000D03*
X162800000Y-63000000D03*
X165000000Y-100000000D03*
%TO.N,+5V*%
X168000000Y-96000000D03*
%TO.N,SCK*%
X168200000Y-53526000D03*
%TO.N,MISO*%
X165000000Y-54275500D03*
%TO.N,MOSI*%
X164000000Y-55000000D03*
%TO.N,Button_Up*%
X160300000Y-46420000D03*
X161100000Y-60600000D03*
%TO.N,Button_Down*%
X159500000Y-48100000D03*
X159230000Y-79290000D03*
%TO.N,TX*%
X157300000Y-80600000D03*
X158000000Y-41800000D03*
%TO.N,RX*%
X156000000Y-42600000D03*
X155400000Y-80800000D03*
%TD*%
%TA.AperFunction,Conductor*%
%TO.N,+3V3*%
G36*
X188002854Y-37000632D02*
G01*
X188018811Y-37001369D01*
X188173088Y-37008502D01*
X188369795Y-37018166D01*
X188380787Y-37019201D01*
X188562876Y-37044601D01*
X188563781Y-37044732D01*
X188747261Y-37071949D01*
X188757413Y-37073892D01*
X188938614Y-37116510D01*
X188940023Y-37116852D01*
X189117874Y-37161401D01*
X189127091Y-37164096D01*
X189304478Y-37223550D01*
X189306618Y-37224292D01*
X189478220Y-37285692D01*
X189486519Y-37289004D01*
X189657980Y-37364712D01*
X189660909Y-37366051D01*
X189747263Y-37406892D01*
X189825119Y-37443715D01*
X189832411Y-37447465D01*
X189929135Y-37501341D01*
X189996435Y-37538827D01*
X189999810Y-37540777D01*
X190155371Y-37634017D01*
X190161670Y-37638058D01*
X190316699Y-37744256D01*
X190320459Y-37746935D01*
X190466009Y-37854882D01*
X190471305Y-37859040D01*
X190616009Y-37979200D01*
X190619947Y-37982617D01*
X190754206Y-38104303D01*
X190758590Y-38108478D01*
X190891520Y-38241408D01*
X190895698Y-38245795D01*
X191017375Y-38380045D01*
X191020805Y-38383998D01*
X191140951Y-38528684D01*
X191145124Y-38534000D01*
X191253041Y-38679509D01*
X191255742Y-38683299D01*
X191361940Y-38838328D01*
X191365999Y-38844656D01*
X191459200Y-39000153D01*
X191461171Y-39003563D01*
X191552525Y-39167573D01*
X191556291Y-39174896D01*
X191633947Y-39339089D01*
X191635286Y-39342018D01*
X191710994Y-39513479D01*
X191714311Y-39521791D01*
X191775666Y-39693265D01*
X191776487Y-39695634D01*
X191835894Y-39872881D01*
X191838606Y-39882157D01*
X191883104Y-40059803D01*
X191883526Y-40061543D01*
X191926101Y-40242562D01*
X191928053Y-40252758D01*
X191955257Y-40436156D01*
X191955410Y-40437218D01*
X191980794Y-40619184D01*
X191981834Y-40630232D01*
X191991512Y-40827238D01*
X191991529Y-40827595D01*
X191999368Y-40997145D01*
X191999500Y-41002872D01*
X191999500Y-101997128D01*
X191999368Y-102002855D01*
X191991529Y-102172404D01*
X191991512Y-102172761D01*
X191981834Y-102369766D01*
X191980794Y-102380814D01*
X191955410Y-102562780D01*
X191955257Y-102563842D01*
X191928053Y-102747240D01*
X191926101Y-102757436D01*
X191883526Y-102938455D01*
X191883104Y-102940195D01*
X191838606Y-103117841D01*
X191835894Y-103127117D01*
X191776487Y-103304364D01*
X191775666Y-103306733D01*
X191714311Y-103478207D01*
X191710994Y-103486519D01*
X191635286Y-103657980D01*
X191633947Y-103660909D01*
X191556291Y-103825102D01*
X191552525Y-103832425D01*
X191461171Y-103996435D01*
X191459200Y-103999845D01*
X191365999Y-104155342D01*
X191361940Y-104161670D01*
X191255742Y-104316699D01*
X191253041Y-104320489D01*
X191145135Y-104465984D01*
X191140935Y-104471334D01*
X191020851Y-104615947D01*
X191017331Y-104620004D01*
X190895717Y-104754183D01*
X190891520Y-104758590D01*
X190758590Y-104891520D01*
X190754183Y-104895717D01*
X190620004Y-105017331D01*
X190615947Y-105020851D01*
X190471334Y-105140935D01*
X190465984Y-105145135D01*
X190320489Y-105253041D01*
X190316699Y-105255742D01*
X190161670Y-105361940D01*
X190155342Y-105365999D01*
X189999845Y-105459200D01*
X189996435Y-105461171D01*
X189832425Y-105552525D01*
X189825102Y-105556291D01*
X189660909Y-105633947D01*
X189657980Y-105635286D01*
X189486519Y-105710994D01*
X189478207Y-105714311D01*
X189306733Y-105775666D01*
X189304364Y-105776487D01*
X189127117Y-105835894D01*
X189117841Y-105838606D01*
X188940195Y-105883104D01*
X188938455Y-105883526D01*
X188757436Y-105926101D01*
X188747240Y-105928053D01*
X188563842Y-105955257D01*
X188562780Y-105955410D01*
X188380814Y-105980794D01*
X188369766Y-105981834D01*
X188172931Y-105991503D01*
X188172575Y-105991520D01*
X188007393Y-105999158D01*
X188002854Y-105999368D01*
X187997128Y-105999500D01*
X145002872Y-105999500D01*
X144997145Y-105999368D01*
X144992305Y-105999144D01*
X144827423Y-105991520D01*
X144827067Y-105991503D01*
X144630232Y-105981834D01*
X144619184Y-105980794D01*
X144437218Y-105955410D01*
X144436156Y-105955257D01*
X144252758Y-105928053D01*
X144242562Y-105926101D01*
X144061543Y-105883526D01*
X144059803Y-105883104D01*
X143882157Y-105838606D01*
X143872881Y-105835894D01*
X143695634Y-105776487D01*
X143693265Y-105775666D01*
X143521791Y-105714311D01*
X143513479Y-105710994D01*
X143342018Y-105635286D01*
X143339089Y-105633947D01*
X143174896Y-105556291D01*
X143167573Y-105552525D01*
X143003563Y-105461171D01*
X143000153Y-105459200D01*
X142919586Y-105410910D01*
X142844645Y-105365992D01*
X142838328Y-105361940D01*
X142683299Y-105255742D01*
X142679509Y-105253041D01*
X142534000Y-105145124D01*
X142528684Y-105140951D01*
X142383998Y-105020805D01*
X142380045Y-105017375D01*
X142245795Y-104895698D01*
X142241408Y-104891520D01*
X142108478Y-104758590D01*
X142104303Y-104754206D01*
X141982617Y-104619947D01*
X141979200Y-104616009D01*
X141859040Y-104471305D01*
X141854882Y-104466009D01*
X141746935Y-104320459D01*
X141744256Y-104316699D01*
X141638058Y-104161670D01*
X141634017Y-104155371D01*
X141540777Y-103999810D01*
X141538827Y-103996435D01*
X141465126Y-103864117D01*
X141447465Y-103832411D01*
X141443715Y-103825119D01*
X141403027Y-103739089D01*
X141366051Y-103660909D01*
X141364712Y-103657980D01*
X141289004Y-103486519D01*
X141285692Y-103478220D01*
X141224292Y-103306618D01*
X141223550Y-103304478D01*
X141164096Y-103127091D01*
X141161401Y-103117874D01*
X141116852Y-102940023D01*
X141116510Y-102938614D01*
X141073892Y-102757413D01*
X141071949Y-102747261D01*
X141044732Y-102563781D01*
X141044588Y-102562780D01*
X141019201Y-102380787D01*
X141018166Y-102369795D01*
X141008480Y-102172611D01*
X141000632Y-102002854D01*
X141000566Y-102000000D01*
X141294422Y-102000000D01*
X141314722Y-102387340D01*
X141375396Y-102770429D01*
X141475785Y-103145086D01*
X141614785Y-103507193D01*
X141790876Y-103852793D01*
X142002121Y-104178080D01*
X142002124Y-104178084D01*
X142246219Y-104479516D01*
X142520484Y-104753781D01*
X142821916Y-104997876D01*
X142821918Y-104997877D01*
X142821919Y-104997878D01*
X143147206Y-105209123D01*
X143492806Y-105385214D01*
X143854913Y-105524214D01*
X144229570Y-105624603D01*
X144421114Y-105654939D01*
X144612662Y-105685278D01*
X145000000Y-105705578D01*
X145387338Y-105685278D01*
X145636686Y-105645785D01*
X145770429Y-105624603D01*
X145770433Y-105624602D01*
X146145087Y-105524214D01*
X146507194Y-105385214D01*
X146852789Y-105209125D01*
X146852788Y-105209125D01*
X146852793Y-105209123D01*
X147050072Y-105081008D01*
X147178084Y-104997876D01*
X147479516Y-104753781D01*
X147658297Y-104575000D01*
X152974659Y-104575000D01*
X152993976Y-104771133D01*
X153051185Y-104959726D01*
X153083857Y-105020851D01*
X153144090Y-105133538D01*
X153269117Y-105285883D01*
X153421462Y-105410910D01*
X153595273Y-105503814D01*
X153783868Y-105561024D01*
X153980000Y-105580341D01*
X154176132Y-105561024D01*
X154364727Y-105503814D01*
X154538538Y-105410910D01*
X154690883Y-105285883D01*
X154815910Y-105133538D01*
X154908814Y-104959727D01*
X154966024Y-104771132D01*
X154985341Y-104575000D01*
X161614659Y-104575000D01*
X161633976Y-104771133D01*
X161691185Y-104959726D01*
X161723857Y-105020851D01*
X161784090Y-105133538D01*
X161909117Y-105285883D01*
X162061462Y-105410910D01*
X162235273Y-105503814D01*
X162423868Y-105561024D01*
X162620000Y-105580341D01*
X162816132Y-105561024D01*
X163004727Y-105503814D01*
X163178538Y-105410910D01*
X163330883Y-105285883D01*
X163455910Y-105133538D01*
X163548814Y-104959727D01*
X163606024Y-104771132D01*
X163625341Y-104575000D01*
X163606024Y-104378868D01*
X163548814Y-104190273D01*
X163455910Y-104016462D01*
X163330883Y-103864117D01*
X163178538Y-103739090D01*
X163032272Y-103660909D01*
X163004726Y-103646185D01*
X162816133Y-103588976D01*
X162620000Y-103569659D01*
X162423866Y-103588976D01*
X162235273Y-103646185D01*
X162061463Y-103739089D01*
X161909117Y-103864117D01*
X161784089Y-104016463D01*
X161691185Y-104190273D01*
X161633976Y-104378866D01*
X161614659Y-104575000D01*
X154985341Y-104575000D01*
X154966024Y-104378868D01*
X154908814Y-104190273D01*
X154815910Y-104016462D01*
X154690883Y-103864117D01*
X154538538Y-103739090D01*
X154392272Y-103660909D01*
X154364726Y-103646185D01*
X154176133Y-103588976D01*
X153980000Y-103569659D01*
X153783866Y-103588976D01*
X153595273Y-103646185D01*
X153421463Y-103739089D01*
X153269117Y-103864117D01*
X153144089Y-104016463D01*
X153051185Y-104190273D01*
X152993976Y-104378866D01*
X152974659Y-104575000D01*
X147658297Y-104575000D01*
X147753781Y-104479516D01*
X147997876Y-104178084D01*
X148113626Y-103999845D01*
X148209123Y-103852793D01*
X148314394Y-103646186D01*
X148385214Y-103507194D01*
X148524214Y-103145087D01*
X148624602Y-102770433D01*
X148628276Y-102747240D01*
X148654106Y-102584151D01*
X148685278Y-102387338D01*
X148705578Y-102000000D01*
X148685278Y-101612662D01*
X148647096Y-101371587D01*
X148624603Y-101229570D01*
X148569987Y-101025740D01*
X152979500Y-101025740D01*
X152994926Y-101177440D01*
X153023272Y-101267783D01*
X153055841Y-101371588D01*
X153154591Y-101549502D01*
X153287134Y-101703895D01*
X153448042Y-101828448D01*
X153630729Y-101918060D01*
X153827715Y-101969063D01*
X154030936Y-101979369D01*
X154030936Y-101979368D01*
X154030937Y-101979369D01*
X154232071Y-101948556D01*
X154314413Y-101918060D01*
X154422887Y-101877886D01*
X154547844Y-101800000D01*
X157494540Y-101800000D01*
X157514326Y-101988257D01*
X157572820Y-102168284D01*
X157667466Y-102332216D01*
X157794129Y-102472889D01*
X157947269Y-102584151D01*
X158120197Y-102661144D01*
X158305352Y-102700500D01*
X158305354Y-102700500D01*
X158494646Y-102700500D01*
X158494648Y-102700500D01*
X158618083Y-102674262D01*
X158679803Y-102661144D01*
X158852730Y-102584151D01*
X159005871Y-102472888D01*
X159132533Y-102332216D01*
X159227179Y-102168284D01*
X159281858Y-102000000D01*
X184294422Y-102000000D01*
X184314722Y-102387340D01*
X184375396Y-102770429D01*
X184475785Y-103145086D01*
X184614785Y-103507193D01*
X184790876Y-103852793D01*
X185002121Y-104178080D01*
X185002124Y-104178084D01*
X185246219Y-104479516D01*
X185520484Y-104753781D01*
X185821916Y-104997876D01*
X185821918Y-104997877D01*
X185821919Y-104997878D01*
X186147206Y-105209123D01*
X186492806Y-105385214D01*
X186854913Y-105524214D01*
X187229570Y-105624603D01*
X187421114Y-105654939D01*
X187612662Y-105685278D01*
X188000000Y-105705578D01*
X188387338Y-105685278D01*
X188636686Y-105645785D01*
X188770429Y-105624603D01*
X188770433Y-105624602D01*
X189145087Y-105524214D01*
X189507194Y-105385214D01*
X189852789Y-105209125D01*
X189852788Y-105209125D01*
X189852793Y-105209123D01*
X190050072Y-105081008D01*
X190178084Y-104997876D01*
X190479516Y-104753781D01*
X190753781Y-104479516D01*
X190997876Y-104178084D01*
X191113626Y-103999845D01*
X191209123Y-103852793D01*
X191314394Y-103646186D01*
X191385214Y-103507194D01*
X191524214Y-103145087D01*
X191624602Y-102770433D01*
X191628276Y-102747240D01*
X191654106Y-102584151D01*
X191685278Y-102387338D01*
X191705578Y-102000000D01*
X191685278Y-101612662D01*
X191647096Y-101371587D01*
X191624603Y-101229570D01*
X191524214Y-100854913D01*
X191385214Y-100492806D01*
X191209123Y-100147206D01*
X190997878Y-99821919D01*
X190946587Y-99758580D01*
X190753781Y-99520484D01*
X190479516Y-99246219D01*
X190178084Y-99002124D01*
X190178082Y-99002123D01*
X190178080Y-99002121D01*
X189852793Y-98790876D01*
X189507193Y-98614785D01*
X189145086Y-98475785D01*
X188770429Y-98375396D01*
X188387340Y-98314722D01*
X188000000Y-98294422D01*
X187612659Y-98314722D01*
X187229570Y-98375396D01*
X186854913Y-98475785D01*
X186492806Y-98614785D01*
X186147206Y-98790876D01*
X185821919Y-99002121D01*
X185520480Y-99246222D01*
X185246222Y-99520480D01*
X185002121Y-99821919D01*
X184790876Y-100147206D01*
X184614785Y-100492806D01*
X184475785Y-100854913D01*
X184375396Y-101229570D01*
X184314722Y-101612659D01*
X184294422Y-102000000D01*
X159281858Y-102000000D01*
X159285674Y-101988256D01*
X159305460Y-101800000D01*
X159285674Y-101611744D01*
X159227179Y-101431716D01*
X159227179Y-101431715D01*
X159132533Y-101267783D01*
X159005870Y-101127110D01*
X158852730Y-101015848D01*
X158679802Y-100938855D01*
X158494648Y-100899500D01*
X158494646Y-100899500D01*
X158305354Y-100899500D01*
X158305352Y-100899500D01*
X158120197Y-100938855D01*
X157947269Y-101015848D01*
X157794129Y-101127110D01*
X157667466Y-101267783D01*
X157572820Y-101431715D01*
X157514326Y-101611742D01*
X157494540Y-101800000D01*
X154547844Y-101800000D01*
X154595571Y-101770252D01*
X154743053Y-101630059D01*
X154859295Y-101463049D01*
X154939540Y-101276058D01*
X154980500Y-101076741D01*
X154980500Y-100124258D01*
X154965074Y-99972562D01*
X154914231Y-99810516D01*
X154910577Y-99751039D01*
X154935090Y-99696724D01*
X154982107Y-99660117D01*
X155152730Y-99584151D01*
X155152730Y-99584150D01*
X155152732Y-99584150D01*
X155305870Y-99472889D01*
X155432533Y-99332216D01*
X155527179Y-99168284D01*
X155551645Y-99092986D01*
X155585674Y-98988256D01*
X155605460Y-98800000D01*
X160794540Y-98800000D01*
X160814326Y-98988257D01*
X160872820Y-99168284D01*
X160967466Y-99332216D01*
X161094129Y-99472889D01*
X161247269Y-99584151D01*
X161420193Y-99661143D01*
X161420196Y-99661143D01*
X161420197Y-99661144D01*
X161576337Y-99694332D01*
X161625705Y-99716990D01*
X161660653Y-99758580D01*
X161674470Y-99811118D01*
X161664503Y-99864520D01*
X161660461Y-99873938D01*
X161660460Y-99873941D01*
X161660460Y-99873942D01*
X161640194Y-99972562D01*
X161619500Y-100073261D01*
X161619500Y-101025740D01*
X161634926Y-101177440D01*
X161663272Y-101267783D01*
X161695841Y-101371588D01*
X161794591Y-101549502D01*
X161927134Y-101703895D01*
X162088042Y-101828448D01*
X162270729Y-101918060D01*
X162467715Y-101969063D01*
X162670936Y-101979369D01*
X162670936Y-101979368D01*
X162670937Y-101979369D01*
X162872071Y-101948556D01*
X162954413Y-101918060D01*
X163062887Y-101877886D01*
X163235571Y-101770252D01*
X163383053Y-101630059D01*
X163499295Y-101463049D01*
X163579540Y-101276058D01*
X163620500Y-101076741D01*
X163620500Y-100124258D01*
X163605074Y-99972562D01*
X163544159Y-99778412D01*
X163445409Y-99600498D01*
X163312866Y-99446105D01*
X163151958Y-99321552D01*
X163151957Y-99321551D01*
X162969272Y-99231940D01*
X162903608Y-99214938D01*
X162772285Y-99180937D01*
X162750668Y-99179840D01*
X162688782Y-99176702D01*
X162634610Y-99161127D01*
X162592930Y-99123181D01*
X162572354Y-99070705D01*
X162577131Y-99014546D01*
X162585674Y-98988256D01*
X162605460Y-98800000D01*
X162585674Y-98611744D01*
X162527179Y-98431716D01*
X162527179Y-98431715D01*
X162432533Y-98267783D01*
X162305870Y-98127110D01*
X162152730Y-98015848D01*
X161979802Y-97938855D01*
X161794648Y-97899500D01*
X161794646Y-97899500D01*
X161605354Y-97899500D01*
X161605352Y-97899500D01*
X161420197Y-97938855D01*
X161247269Y-98015848D01*
X161094129Y-98127110D01*
X160967466Y-98267783D01*
X160872820Y-98431715D01*
X160814326Y-98611742D01*
X160794540Y-98800000D01*
X155605460Y-98800000D01*
X155585674Y-98611744D01*
X155527179Y-98431716D01*
X155527179Y-98431715D01*
X155432533Y-98267783D01*
X155305870Y-98127110D01*
X155152730Y-98015848D01*
X154979802Y-97938855D01*
X154794648Y-97899500D01*
X154794646Y-97899500D01*
X154605354Y-97899500D01*
X154605352Y-97899500D01*
X154420197Y-97938855D01*
X154247269Y-98015848D01*
X154094129Y-98127110D01*
X153967466Y-98267783D01*
X153872820Y-98431715D01*
X153814326Y-98611742D01*
X153794540Y-98800000D01*
X153814326Y-98988259D01*
X153831118Y-99039938D01*
X153836309Y-99092986D01*
X153818750Y-99143311D01*
X153781687Y-99181617D01*
X153731967Y-99200825D01*
X153727928Y-99201443D01*
X153537113Y-99272113D01*
X153364431Y-99379745D01*
X153294623Y-99446104D01*
X153216947Y-99519941D01*
X153216946Y-99519943D01*
X153100705Y-99686950D01*
X153020461Y-99873938D01*
X153020460Y-99873942D01*
X153000194Y-99972562D01*
X152979500Y-100073261D01*
X152979500Y-101025740D01*
X148569987Y-101025740D01*
X148524214Y-100854913D01*
X148385214Y-100492806D01*
X148209123Y-100147206D01*
X147997878Y-99821919D01*
X147946587Y-99758580D01*
X147753781Y-99520484D01*
X147479516Y-99246219D01*
X147178084Y-99002124D01*
X147178082Y-99002123D01*
X147178080Y-99002121D01*
X146852793Y-98790876D01*
X146507193Y-98614785D01*
X146145086Y-98475785D01*
X145770429Y-98375396D01*
X145387340Y-98314722D01*
X145000000Y-98294422D01*
X144612659Y-98314722D01*
X144229570Y-98375396D01*
X143854913Y-98475785D01*
X143492806Y-98614785D01*
X143147206Y-98790876D01*
X142821919Y-99002121D01*
X142520480Y-99246222D01*
X142246222Y-99520480D01*
X142002121Y-99821919D01*
X141790876Y-100147206D01*
X141614785Y-100492806D01*
X141475785Y-100854913D01*
X141375396Y-101229570D01*
X141314722Y-101612659D01*
X141294422Y-102000000D01*
X141000566Y-102000000D01*
X141000500Y-101997128D01*
X141000500Y-97199999D01*
X170394540Y-97199999D01*
X170414326Y-97388257D01*
X170472820Y-97568284D01*
X170567466Y-97732216D01*
X170694129Y-97872889D01*
X170847269Y-97984151D01*
X171020197Y-98061144D01*
X171205352Y-98100500D01*
X171205354Y-98100500D01*
X171394646Y-98100500D01*
X171394648Y-98100500D01*
X171518084Y-98074262D01*
X171579803Y-98061144D01*
X171752730Y-97984151D01*
X171752730Y-97984150D01*
X171905870Y-97872889D01*
X172032533Y-97732216D01*
X172127179Y-97568284D01*
X172127179Y-97568283D01*
X172185674Y-97388256D01*
X172205460Y-97200000D01*
X172185674Y-97011744D01*
X172127179Y-96831716D01*
X172127179Y-96831715D01*
X172032533Y-96667783D01*
X171905870Y-96527110D01*
X171752730Y-96415848D01*
X171579802Y-96338855D01*
X171394648Y-96299500D01*
X171394646Y-96299500D01*
X171205354Y-96299500D01*
X171205352Y-96299500D01*
X171020197Y-96338855D01*
X170847269Y-96415848D01*
X170694129Y-96527110D01*
X170567466Y-96667783D01*
X170472820Y-96831715D01*
X170414326Y-97011742D01*
X170394540Y-97199999D01*
X141000500Y-97199999D01*
X141000500Y-95999999D01*
X167094540Y-95999999D01*
X167114326Y-96188257D01*
X167172820Y-96368284D01*
X167267466Y-96532216D01*
X167394129Y-96672889D01*
X167547269Y-96784151D01*
X167720197Y-96861144D01*
X167905352Y-96900500D01*
X167905354Y-96900500D01*
X168094646Y-96900500D01*
X168094648Y-96900500D01*
X168218083Y-96874262D01*
X168279803Y-96861144D01*
X168452730Y-96784151D01*
X168605871Y-96672888D01*
X168732533Y-96532216D01*
X168827179Y-96368284D01*
X168885674Y-96188256D01*
X168905460Y-96000000D01*
X168885674Y-95811744D01*
X168827179Y-95631716D01*
X168827179Y-95631715D01*
X168732533Y-95467783D01*
X168605870Y-95327110D01*
X168452730Y-95215848D01*
X168279802Y-95138855D01*
X168094648Y-95099500D01*
X168094646Y-95099500D01*
X167905354Y-95099500D01*
X167905352Y-95099500D01*
X167720197Y-95138855D01*
X167547269Y-95215848D01*
X167394129Y-95327110D01*
X167267466Y-95467783D01*
X167172820Y-95631715D01*
X167114326Y-95811742D01*
X167094540Y-95999999D01*
X141000500Y-95999999D01*
X141000500Y-94799999D01*
X163094540Y-94799999D01*
X163114326Y-94988257D01*
X163172820Y-95168284D01*
X163267466Y-95332216D01*
X163394129Y-95472889D01*
X163547269Y-95584151D01*
X163720197Y-95661144D01*
X163905352Y-95700500D01*
X163905354Y-95700500D01*
X164094646Y-95700500D01*
X164094648Y-95700500D01*
X164218083Y-95674262D01*
X164279803Y-95661144D01*
X164452730Y-95584151D01*
X164605871Y-95472888D01*
X164732533Y-95332216D01*
X164827179Y-95168284D01*
X164885674Y-94988256D01*
X164905460Y-94800000D01*
X164905460Y-94799999D01*
X173094540Y-94799999D01*
X173114326Y-94988257D01*
X173172820Y-95168284D01*
X173267466Y-95332216D01*
X173394129Y-95472889D01*
X173547269Y-95584151D01*
X173720197Y-95661144D01*
X173905352Y-95700500D01*
X173905354Y-95700500D01*
X174094646Y-95700500D01*
X174094648Y-95700500D01*
X174218083Y-95674262D01*
X174279803Y-95661144D01*
X174452730Y-95584151D01*
X174605871Y-95472888D01*
X174732533Y-95332216D01*
X174827179Y-95168284D01*
X174885674Y-94988256D01*
X174905460Y-94800000D01*
X174885674Y-94611744D01*
X174827179Y-94431716D01*
X174827179Y-94431715D01*
X174732533Y-94267783D01*
X174605870Y-94127110D01*
X174452730Y-94015848D01*
X174279802Y-93938855D01*
X174094648Y-93899500D01*
X174094646Y-93899500D01*
X173905354Y-93899500D01*
X173905352Y-93899500D01*
X173720197Y-93938855D01*
X173547269Y-94015848D01*
X173394129Y-94127110D01*
X173267466Y-94267783D01*
X173172820Y-94431715D01*
X173114326Y-94611742D01*
X173094540Y-94799999D01*
X164905460Y-94799999D01*
X164885674Y-94611744D01*
X164827179Y-94431716D01*
X164827179Y-94431715D01*
X164732533Y-94267783D01*
X164605870Y-94127110D01*
X164452730Y-94015848D01*
X164279802Y-93938855D01*
X164094648Y-93899500D01*
X164094646Y-93899500D01*
X163905354Y-93899500D01*
X163905352Y-93899500D01*
X163720197Y-93938855D01*
X163547269Y-94015848D01*
X163394129Y-94127110D01*
X163267466Y-94267783D01*
X163172820Y-94431715D01*
X163114326Y-94611742D01*
X163094540Y-94799999D01*
X141000500Y-94799999D01*
X141000500Y-93700000D01*
X159494540Y-93700000D01*
X159514326Y-93888257D01*
X159572820Y-94068284D01*
X159667466Y-94232216D01*
X159794129Y-94372889D01*
X159947269Y-94484151D01*
X160120197Y-94561144D01*
X160305352Y-94600500D01*
X160305354Y-94600500D01*
X160494646Y-94600500D01*
X160494648Y-94600500D01*
X160618083Y-94574262D01*
X160679803Y-94561144D01*
X160852730Y-94484151D01*
X161005871Y-94372888D01*
X161132533Y-94232216D01*
X161227179Y-94068284D01*
X161285674Y-93888256D01*
X161305460Y-93700000D01*
X161285674Y-93511744D01*
X161255332Y-93418363D01*
X161227179Y-93331715D01*
X161151133Y-93200000D01*
X166694540Y-93200000D01*
X166714326Y-93388257D01*
X166772820Y-93568284D01*
X166867466Y-93732216D01*
X166994129Y-93872889D01*
X167147269Y-93984151D01*
X167320197Y-94061144D01*
X167505352Y-94100500D01*
X167505354Y-94100500D01*
X167694646Y-94100500D01*
X167694648Y-94100500D01*
X167818083Y-94074262D01*
X167879803Y-94061144D01*
X168052730Y-93984151D01*
X168052729Y-93984151D01*
X168205870Y-93872889D01*
X168332533Y-93732216D01*
X168427179Y-93568284D01*
X168445551Y-93511742D01*
X168485674Y-93388256D01*
X168505460Y-93200000D01*
X168485674Y-93011744D01*
X168427179Y-92831716D01*
X168427179Y-92831715D01*
X168332533Y-92667783D01*
X168205870Y-92527110D01*
X168052730Y-92415848D01*
X167879802Y-92338855D01*
X167694648Y-92299500D01*
X167694646Y-92299500D01*
X167505354Y-92299500D01*
X167505352Y-92299500D01*
X167320197Y-92338855D01*
X167147269Y-92415848D01*
X166994129Y-92527110D01*
X166867466Y-92667783D01*
X166772820Y-92831715D01*
X166714326Y-93011742D01*
X166694540Y-93200000D01*
X161151133Y-93200000D01*
X161132533Y-93167783D01*
X161005870Y-93027110D01*
X160852730Y-92915848D01*
X160679802Y-92838855D01*
X160494648Y-92799500D01*
X160494646Y-92799500D01*
X160305354Y-92799500D01*
X160305352Y-92799500D01*
X160120197Y-92838855D01*
X159947269Y-92915848D01*
X159794129Y-93027110D01*
X159667466Y-93167783D01*
X159572820Y-93331715D01*
X159514326Y-93511742D01*
X159494540Y-93700000D01*
X141000500Y-93700000D01*
X141000500Y-92199999D01*
X149194540Y-92199999D01*
X149214326Y-92388257D01*
X149272820Y-92568284D01*
X149367466Y-92732216D01*
X149494129Y-92872889D01*
X149647269Y-92984151D01*
X149820197Y-93061144D01*
X150005352Y-93100500D01*
X150005354Y-93100500D01*
X150194646Y-93100500D01*
X150194648Y-93100500D01*
X150318083Y-93074262D01*
X150379803Y-93061144D01*
X150552730Y-92984151D01*
X150646740Y-92915849D01*
X150705870Y-92872889D01*
X150736515Y-92838855D01*
X150832533Y-92732216D01*
X150927179Y-92568284D01*
X150985674Y-92388256D01*
X151005460Y-92200000D01*
X150985674Y-92011744D01*
X150927179Y-91831716D01*
X150927179Y-91831715D01*
X150832533Y-91667783D01*
X150705870Y-91527110D01*
X150552730Y-91415848D01*
X150379802Y-91338855D01*
X150194648Y-91299500D01*
X150194646Y-91299500D01*
X150005354Y-91299500D01*
X150005352Y-91299500D01*
X149820197Y-91338855D01*
X149647269Y-91415848D01*
X149494129Y-91527110D01*
X149367466Y-91667783D01*
X149272820Y-91831715D01*
X149214326Y-92011742D01*
X149194540Y-92199999D01*
X141000500Y-92199999D01*
X141000500Y-90800000D01*
X153894540Y-90800000D01*
X153914326Y-90988257D01*
X153972820Y-91168284D01*
X154067466Y-91332216D01*
X154194129Y-91472889D01*
X154347269Y-91584151D01*
X154520197Y-91661144D01*
X154705352Y-91700500D01*
X154705354Y-91700500D01*
X154894646Y-91700500D01*
X154894648Y-91700500D01*
X155018083Y-91674262D01*
X155079803Y-91661144D01*
X155252730Y-91584151D01*
X155405871Y-91472888D01*
X155532533Y-91332216D01*
X155627179Y-91168284D01*
X155649366Y-91099999D01*
X161294540Y-91099999D01*
X161314326Y-91288257D01*
X161372820Y-91468284D01*
X161467466Y-91632216D01*
X161594129Y-91772889D01*
X161747269Y-91884151D01*
X161920197Y-91961144D01*
X162105352Y-92000500D01*
X162105354Y-92000500D01*
X162294646Y-92000500D01*
X162294648Y-92000500D01*
X162418084Y-91974262D01*
X162479803Y-91961144D01*
X162652730Y-91884151D01*
X162805871Y-91772888D01*
X162932533Y-91632216D01*
X163027179Y-91468284D01*
X163085674Y-91288256D01*
X163105460Y-91100000D01*
X163085674Y-90911744D01*
X163027179Y-90731716D01*
X163027179Y-90731715D01*
X162932533Y-90567783D01*
X162805870Y-90427110D01*
X162652730Y-90315848D01*
X162479802Y-90238855D01*
X162294648Y-90199500D01*
X162294646Y-90199500D01*
X162105354Y-90199500D01*
X162105352Y-90199500D01*
X161920197Y-90238855D01*
X161747269Y-90315848D01*
X161594129Y-90427110D01*
X161467466Y-90567783D01*
X161372820Y-90731715D01*
X161314326Y-90911742D01*
X161294540Y-91099999D01*
X155649366Y-91099999D01*
X155685674Y-90988256D01*
X155705460Y-90800000D01*
X155685674Y-90611744D01*
X155627179Y-90431716D01*
X155627179Y-90431715D01*
X155532533Y-90267783D01*
X155405870Y-90127110D01*
X155368555Y-90099999D01*
X156694540Y-90099999D01*
X156714326Y-90288257D01*
X156772820Y-90468284D01*
X156867466Y-90632216D01*
X156994129Y-90772889D01*
X157147269Y-90884151D01*
X157320197Y-90961144D01*
X157505352Y-91000500D01*
X157505354Y-91000500D01*
X157694646Y-91000500D01*
X157694648Y-91000500D01*
X157818083Y-90974262D01*
X157879803Y-90961144D01*
X158052730Y-90884151D01*
X158052729Y-90884151D01*
X158205870Y-90772889D01*
X158242943Y-90731716D01*
X158332533Y-90632216D01*
X158427179Y-90468284D01*
X158485674Y-90288256D01*
X158505460Y-90100000D01*
X158485674Y-89911744D01*
X158427179Y-89731716D01*
X158427179Y-89731715D01*
X158332533Y-89567783D01*
X158205870Y-89427110D01*
X158052730Y-89315848D01*
X157879802Y-89238855D01*
X157694648Y-89199500D01*
X157694646Y-89199500D01*
X157505354Y-89199500D01*
X157505352Y-89199500D01*
X157320197Y-89238855D01*
X157147269Y-89315848D01*
X156994129Y-89427110D01*
X156867466Y-89567783D01*
X156772820Y-89731715D01*
X156714326Y-89911742D01*
X156694540Y-90099999D01*
X155368555Y-90099999D01*
X155252730Y-90015848D01*
X155079802Y-89938855D01*
X154894648Y-89899500D01*
X154894646Y-89899500D01*
X154705354Y-89899500D01*
X154705352Y-89899500D01*
X154520197Y-89938855D01*
X154347269Y-90015848D01*
X154194129Y-90127110D01*
X154067466Y-90267783D01*
X153972820Y-90431715D01*
X153914326Y-90611742D01*
X153894540Y-90800000D01*
X141000500Y-90800000D01*
X141000500Y-85999999D01*
X176394540Y-85999999D01*
X176414326Y-86188257D01*
X176472820Y-86368284D01*
X176567466Y-86532216D01*
X176694129Y-86672889D01*
X176847269Y-86784151D01*
X177020197Y-86861144D01*
X177205352Y-86900500D01*
X177205354Y-86900500D01*
X177394646Y-86900500D01*
X177394648Y-86900500D01*
X177518084Y-86874262D01*
X177579803Y-86861144D01*
X177752730Y-86784151D01*
X177905871Y-86672888D01*
X178032533Y-86532216D01*
X178127179Y-86368284D01*
X178185674Y-86188256D01*
X178205460Y-86000000D01*
X178185674Y-85811744D01*
X178155332Y-85718363D01*
X178127179Y-85631715D01*
X178032533Y-85467783D01*
X177905870Y-85327110D01*
X177762394Y-85222869D01*
X180324500Y-85222869D01*
X180330909Y-85282484D01*
X180356056Y-85349907D01*
X180381204Y-85417331D01*
X180467454Y-85532546D01*
X180582669Y-85618796D01*
X180717517Y-85669091D01*
X180777127Y-85675500D01*
X182672872Y-85675499D01*
X182732483Y-85669091D01*
X182867331Y-85618796D01*
X182982546Y-85532546D01*
X183068796Y-85417331D01*
X183119091Y-85282483D01*
X183125500Y-85222873D01*
X183125499Y-83327128D01*
X183119091Y-83267517D01*
X183068796Y-83132669D01*
X182982546Y-83017454D01*
X182867331Y-82931204D01*
X182732483Y-82880909D01*
X182672873Y-82874500D01*
X182672869Y-82874500D01*
X182562309Y-82874500D01*
X182514856Y-82865061D01*
X182474628Y-82838181D01*
X181725000Y-82088553D01*
X180975370Y-82838181D01*
X180935142Y-82865061D01*
X180887690Y-82874500D01*
X180777130Y-82874500D01*
X180717515Y-82880909D01*
X180582669Y-82931204D01*
X180467454Y-83017454D01*
X180381204Y-83132668D01*
X180330909Y-83267516D01*
X180324500Y-83327130D01*
X180324500Y-85222869D01*
X177762394Y-85222869D01*
X177752730Y-85215848D01*
X177579802Y-85138855D01*
X177394648Y-85099500D01*
X177394646Y-85099500D01*
X177205354Y-85099500D01*
X177205352Y-85099500D01*
X177020197Y-85138855D01*
X176847269Y-85215848D01*
X176694129Y-85327110D01*
X176567466Y-85467783D01*
X176472820Y-85631715D01*
X176414326Y-85811742D01*
X176394540Y-85999999D01*
X141000500Y-85999999D01*
X141000500Y-81735000D01*
X180320201Y-81735000D01*
X180339361Y-81966217D01*
X180396319Y-82191139D01*
X180489516Y-82403609D01*
X180573812Y-82532633D01*
X181371447Y-81735001D01*
X182078553Y-81735001D01*
X182876186Y-82532634D01*
X182960483Y-82403607D01*
X183053680Y-82191138D01*
X183110638Y-81966217D01*
X183129798Y-81735000D01*
X183110638Y-81503782D01*
X183053680Y-81278860D01*
X182960484Y-81066392D01*
X182876186Y-80937364D01*
X182078553Y-81735000D01*
X182078553Y-81735001D01*
X181371447Y-81735001D01*
X181371447Y-81735000D01*
X180573812Y-80937365D01*
X180489516Y-81066390D01*
X180396319Y-81278860D01*
X180339361Y-81503782D01*
X180320201Y-81735000D01*
X141000500Y-81735000D01*
X141000500Y-80800000D01*
X154494540Y-80800000D01*
X154514326Y-80988257D01*
X154572820Y-81168284D01*
X154667466Y-81332216D01*
X154794129Y-81472889D01*
X154947269Y-81584151D01*
X155120197Y-81661144D01*
X155305352Y-81700500D01*
X155305354Y-81700500D01*
X155494646Y-81700500D01*
X155494648Y-81700500D01*
X155618083Y-81674262D01*
X155679803Y-81661144D01*
X155852730Y-81584151D01*
X156005871Y-81472888D01*
X156132533Y-81332216D01*
X156227179Y-81168284D01*
X156271157Y-81032934D01*
X156300492Y-80984495D01*
X156348307Y-80954150D01*
X156404628Y-80948231D01*
X156457708Y-80967971D01*
X156496474Y-81009253D01*
X156567466Y-81132216D01*
X156694129Y-81272889D01*
X156847269Y-81384151D01*
X157020197Y-81461144D01*
X157205352Y-81500500D01*
X157205354Y-81500500D01*
X157394646Y-81500500D01*
X157394648Y-81500500D01*
X157524551Y-81472888D01*
X157579803Y-81461144D01*
X157752730Y-81384151D01*
X157824213Y-81332216D01*
X157905870Y-81272889D01*
X158032533Y-81132216D01*
X158127179Y-80968284D01*
X158137225Y-80937365D01*
X158185674Y-80788256D01*
X158205460Y-80600000D01*
X158203636Y-80582647D01*
X180926200Y-80582647D01*
X181725000Y-81381447D01*
X181725001Y-81381447D01*
X182523799Y-80582648D01*
X182523799Y-80582647D01*
X182493349Y-80558948D01*
X182289299Y-80448522D01*
X182069859Y-80373188D01*
X181841007Y-80335000D01*
X181608993Y-80335000D01*
X181380140Y-80373188D01*
X181160703Y-80448521D01*
X180956645Y-80558952D01*
X180926200Y-80582646D01*
X180926200Y-80582647D01*
X158203636Y-80582647D01*
X158185674Y-80411744D01*
X158127179Y-80231716D01*
X158127179Y-80231715D01*
X158032533Y-80067783D01*
X157905870Y-79927110D01*
X157752730Y-79815848D01*
X157579802Y-79738855D01*
X157394648Y-79699500D01*
X157394646Y-79699500D01*
X157205354Y-79699500D01*
X157205352Y-79699500D01*
X157020197Y-79738855D01*
X156847269Y-79815848D01*
X156694129Y-79927110D01*
X156567466Y-80067783D01*
X156472820Y-80231715D01*
X156428843Y-80367064D01*
X156399506Y-80415504D01*
X156351691Y-80445849D01*
X156295370Y-80451768D01*
X156242291Y-80432028D01*
X156203525Y-80390746D01*
X156132533Y-80267783D01*
X156005870Y-80127110D01*
X155852730Y-80015848D01*
X155679802Y-79938855D01*
X155494648Y-79899500D01*
X155494646Y-79899500D01*
X155305354Y-79899500D01*
X155305352Y-79899500D01*
X155120197Y-79938855D01*
X154947269Y-80015848D01*
X154794129Y-80127110D01*
X154667466Y-80267783D01*
X154572820Y-80431715D01*
X154514326Y-80611742D01*
X154494540Y-80800000D01*
X141000500Y-80800000D01*
X141000500Y-79289999D01*
X158324540Y-79289999D01*
X158344326Y-79478257D01*
X158402820Y-79658284D01*
X158497466Y-79822216D01*
X158624129Y-79962889D01*
X158777269Y-80074151D01*
X158950197Y-80151144D01*
X159135352Y-80190500D01*
X159135354Y-80190500D01*
X159324646Y-80190500D01*
X159324648Y-80190500D01*
X159448084Y-80164262D01*
X159509803Y-80151144D01*
X159682730Y-80074151D01*
X159835871Y-79962888D01*
X159962533Y-79822216D01*
X160057179Y-79658284D01*
X160115674Y-79478256D01*
X160135460Y-79290000D01*
X160115674Y-79101744D01*
X160057179Y-78921716D01*
X160057179Y-78921715D01*
X159962533Y-78757783D01*
X159835870Y-78617110D01*
X159682730Y-78505848D01*
X159509802Y-78428855D01*
X159324648Y-78389500D01*
X159324646Y-78389500D01*
X159135354Y-78389500D01*
X159135352Y-78389500D01*
X158950197Y-78428855D01*
X158777269Y-78505848D01*
X158624129Y-78617110D01*
X158497466Y-78757783D01*
X158402820Y-78921715D01*
X158344326Y-79101742D01*
X158324540Y-79289999D01*
X141000500Y-79289999D01*
X141000500Y-76600000D01*
X160494540Y-76600000D01*
X160514326Y-76788257D01*
X160572820Y-76968284D01*
X160667466Y-77132216D01*
X160794129Y-77272889D01*
X160947269Y-77384151D01*
X161120197Y-77461144D01*
X161305352Y-77500500D01*
X161305354Y-77500500D01*
X161494646Y-77500500D01*
X161494648Y-77500500D01*
X161618083Y-77474262D01*
X161679803Y-77461144D01*
X161852730Y-77384151D01*
X162005871Y-77272888D01*
X162132533Y-77132216D01*
X162227179Y-76968284D01*
X162285674Y-76788256D01*
X162305460Y-76600000D01*
X162285674Y-76411744D01*
X162227179Y-76231716D01*
X162227179Y-76231715D01*
X162132533Y-76067783D01*
X162005870Y-75927110D01*
X161852730Y-75815848D01*
X161679802Y-75738855D01*
X161494648Y-75699500D01*
X161494646Y-75699500D01*
X161305354Y-75699500D01*
X161305352Y-75699500D01*
X161120197Y-75738855D01*
X160947269Y-75815848D01*
X160794129Y-75927110D01*
X160667466Y-76067783D01*
X160572820Y-76231715D01*
X160514326Y-76411742D01*
X160494540Y-76600000D01*
X141000500Y-76600000D01*
X141000500Y-66056808D01*
X144729492Y-66056808D01*
X144749278Y-66245065D01*
X144807772Y-66425092D01*
X144902418Y-66589024D01*
X145029081Y-66729697D01*
X145182221Y-66840959D01*
X145355149Y-66917952D01*
X145540304Y-66957308D01*
X145540306Y-66957308D01*
X145729598Y-66957308D01*
X145729600Y-66957308D01*
X145853035Y-66931070D01*
X145914755Y-66917952D01*
X145955078Y-66899999D01*
X172094540Y-66899999D01*
X172114326Y-67088257D01*
X172172820Y-67268284D01*
X172267466Y-67432216D01*
X172394129Y-67572889D01*
X172547269Y-67684151D01*
X172720197Y-67761144D01*
X172905352Y-67800500D01*
X172905354Y-67800500D01*
X173094646Y-67800500D01*
X173094648Y-67800500D01*
X173218084Y-67774262D01*
X173279803Y-67761144D01*
X173452730Y-67684151D01*
X173605871Y-67572888D01*
X173732533Y-67432216D01*
X173827179Y-67268284D01*
X173885674Y-67088256D01*
X173905460Y-66900000D01*
X173885674Y-66711744D01*
X173827179Y-66531716D01*
X173827179Y-66531715D01*
X173732533Y-66367783D01*
X173605870Y-66227110D01*
X173452730Y-66115848D01*
X173279802Y-66038855D01*
X173094648Y-65999500D01*
X173094646Y-65999500D01*
X172905354Y-65999500D01*
X172905352Y-65999500D01*
X172720197Y-66038855D01*
X172547269Y-66115848D01*
X172394129Y-66227110D01*
X172267466Y-66367783D01*
X172172820Y-66531715D01*
X172114326Y-66711742D01*
X172094540Y-66899999D01*
X145955078Y-66899999D01*
X146087682Y-66840959D01*
X146143369Y-66800500D01*
X146240822Y-66729697D01*
X146367485Y-66589024D01*
X146462131Y-66425092D01*
X146462130Y-66425092D01*
X146520626Y-66245064D01*
X146540412Y-66056808D01*
X146523931Y-65899999D01*
X147794540Y-65899999D01*
X147814326Y-66088257D01*
X147872820Y-66268284D01*
X147967466Y-66432216D01*
X148094129Y-66572889D01*
X148247269Y-66684151D01*
X148420197Y-66761144D01*
X148605352Y-66800500D01*
X148605354Y-66800500D01*
X148794646Y-66800500D01*
X148794648Y-66800500D01*
X148918084Y-66774262D01*
X148979803Y-66761144D01*
X149152730Y-66684151D01*
X149305871Y-66572888D01*
X149432533Y-66432216D01*
X149527179Y-66268284D01*
X149585674Y-66088256D01*
X149605460Y-65900000D01*
X149585674Y-65711744D01*
X149527179Y-65531716D01*
X149527179Y-65531715D01*
X149432533Y-65367783D01*
X149305870Y-65227110D01*
X149152730Y-65115848D01*
X149145343Y-65112559D01*
X159503984Y-65112559D01*
X159523770Y-65300816D01*
X159582264Y-65480843D01*
X159676910Y-65644775D01*
X159803573Y-65785448D01*
X159956713Y-65896710D01*
X160129641Y-65973703D01*
X160314796Y-66013059D01*
X160314798Y-66013059D01*
X160504090Y-66013059D01*
X160504092Y-66013059D01*
X160627528Y-65986821D01*
X160689247Y-65973703D01*
X160862174Y-65896710D01*
X161015315Y-65785447D01*
X161141977Y-65644775D01*
X161236623Y-65480843D01*
X161295118Y-65300815D01*
X161314904Y-65112559D01*
X161295118Y-64924303D01*
X161236623Y-64744275D01*
X161236623Y-64744274D01*
X161141977Y-64580342D01*
X161015314Y-64439669D01*
X160862174Y-64328407D01*
X160689246Y-64251414D01*
X160504092Y-64212059D01*
X160504090Y-64212059D01*
X160314798Y-64212059D01*
X160314796Y-64212059D01*
X160129641Y-64251414D01*
X159956713Y-64328407D01*
X159803573Y-64439669D01*
X159676910Y-64580342D01*
X159582264Y-64744274D01*
X159523770Y-64924301D01*
X159503984Y-65112559D01*
X149145343Y-65112559D01*
X148979802Y-65038855D01*
X148794648Y-64999500D01*
X148794646Y-64999500D01*
X148605354Y-64999500D01*
X148605352Y-64999500D01*
X148420197Y-65038855D01*
X148247269Y-65115848D01*
X148094129Y-65227110D01*
X147967466Y-65367783D01*
X147872820Y-65531715D01*
X147814326Y-65711742D01*
X147794540Y-65899999D01*
X146523931Y-65899999D01*
X146520626Y-65868552D01*
X146462131Y-65688524D01*
X146462131Y-65688523D01*
X146367485Y-65524591D01*
X146240822Y-65383918D01*
X146087682Y-65272656D01*
X145914754Y-65195663D01*
X145729600Y-65156308D01*
X145729598Y-65156308D01*
X145540306Y-65156308D01*
X145540304Y-65156308D01*
X145355149Y-65195663D01*
X145182221Y-65272656D01*
X145029081Y-65383918D01*
X144902418Y-65524591D01*
X144807772Y-65688523D01*
X144749278Y-65868550D01*
X144729492Y-66056808D01*
X141000500Y-66056808D01*
X141000500Y-63499999D01*
X151494540Y-63499999D01*
X151514326Y-63688257D01*
X151572820Y-63868284D01*
X151667466Y-64032216D01*
X151794129Y-64172889D01*
X151947269Y-64284151D01*
X152120197Y-64361144D01*
X152305352Y-64400500D01*
X152305354Y-64400500D01*
X152494646Y-64400500D01*
X152494648Y-64400500D01*
X152618084Y-64374262D01*
X152679803Y-64361144D01*
X152852730Y-64284151D01*
X152852730Y-64284150D01*
X153005870Y-64172889D01*
X153132533Y-64032216D01*
X153227179Y-63868284D01*
X153227178Y-63868284D01*
X153285674Y-63688256D01*
X153305460Y-63500000D01*
X153285674Y-63311744D01*
X153227179Y-63131716D01*
X153227179Y-63131715D01*
X153132533Y-62967783D01*
X153005870Y-62827110D01*
X152852730Y-62715848D01*
X152679802Y-62638855D01*
X152494648Y-62599500D01*
X152494646Y-62599500D01*
X152305354Y-62599500D01*
X152305352Y-62599500D01*
X152120197Y-62638855D01*
X151947269Y-62715848D01*
X151794129Y-62827110D01*
X151667466Y-62967783D01*
X151572820Y-63131715D01*
X151514326Y-63311742D01*
X151494540Y-63499999D01*
X141000500Y-63499999D01*
X141000500Y-60599999D01*
X160194540Y-60599999D01*
X160214326Y-60788257D01*
X160272820Y-60968284D01*
X160367466Y-61132216D01*
X160494129Y-61272889D01*
X160647269Y-61384151D01*
X160820197Y-61461144D01*
X161005352Y-61500500D01*
X161005354Y-61500500D01*
X161194646Y-61500500D01*
X161194648Y-61500500D01*
X161318083Y-61474262D01*
X161379803Y-61461144D01*
X161552730Y-61384151D01*
X161705871Y-61272888D01*
X161832533Y-61132216D01*
X161927179Y-60968284D01*
X161985674Y-60788256D01*
X162005460Y-60600000D01*
X161985674Y-60411744D01*
X161955332Y-60318363D01*
X161927179Y-60231715D01*
X161832533Y-60067783D01*
X161705870Y-59927110D01*
X161552730Y-59815848D01*
X161379802Y-59738855D01*
X161194648Y-59699500D01*
X161194646Y-59699500D01*
X161005354Y-59699500D01*
X161005352Y-59699500D01*
X160820197Y-59738855D01*
X160647269Y-59815848D01*
X160494129Y-59927110D01*
X160367466Y-60067783D01*
X160272820Y-60231715D01*
X160214326Y-60411742D01*
X160194540Y-60599999D01*
X141000500Y-60599999D01*
X141000500Y-59599999D01*
X174706936Y-59599999D01*
X174727150Y-59831047D01*
X174727151Y-59831050D01*
X174787180Y-60055079D01*
X174885199Y-60265282D01*
X175018230Y-60455269D01*
X175018233Y-60455271D01*
X175018233Y-60455272D01*
X175173534Y-60610573D01*
X175206779Y-60670814D01*
X175202791Y-60739504D01*
X175162798Y-60795493D01*
X175118863Y-60813464D01*
X175119610Y-60815466D01*
X174970169Y-60871204D01*
X174854954Y-60957454D01*
X174768704Y-61072668D01*
X174718409Y-61207516D01*
X174712000Y-61267130D01*
X174712000Y-63012869D01*
X174718409Y-63072483D01*
X174768704Y-63207331D01*
X174854954Y-63322546D01*
X174970169Y-63408796D01*
X175105017Y-63459091D01*
X175164627Y-63465500D01*
X176910372Y-63465499D01*
X176969983Y-63459091D01*
X177104831Y-63408796D01*
X177220046Y-63322546D01*
X177306296Y-63207331D01*
X177356591Y-63072483D01*
X177363000Y-63012873D01*
X177362999Y-61267128D01*
X177356591Y-61207517D01*
X177306296Y-61072669D01*
X177220046Y-60957454D01*
X177104831Y-60871204D01*
X176969983Y-60820909D01*
X176955390Y-60815466D01*
X176956136Y-60813464D01*
X176912203Y-60795495D01*
X176872209Y-60739505D01*
X176868220Y-60670814D01*
X176901462Y-60610576D01*
X177056770Y-60455269D01*
X177189801Y-60265282D01*
X177287820Y-60055079D01*
X177347849Y-59831050D01*
X177368063Y-59600000D01*
X177347849Y-59368950D01*
X177287820Y-59144921D01*
X177189801Y-58934719D01*
X177056770Y-58744731D01*
X176892769Y-58580730D01*
X176777474Y-58499999D01*
X178294540Y-58499999D01*
X178314326Y-58688257D01*
X178372820Y-58868284D01*
X178467466Y-59032216D01*
X178594129Y-59172889D01*
X178747269Y-59284151D01*
X178920197Y-59361144D01*
X179105352Y-59400500D01*
X179105354Y-59400500D01*
X179294646Y-59400500D01*
X179294648Y-59400500D01*
X179443078Y-59368950D01*
X179479803Y-59361144D01*
X179652730Y-59284151D01*
X179805871Y-59172888D01*
X179932533Y-59032216D01*
X180027179Y-58868284D01*
X180085674Y-58688256D01*
X180105460Y-58500000D01*
X180085674Y-58311744D01*
X180027179Y-58131716D01*
X180027179Y-58131715D01*
X179932533Y-57967784D01*
X179901188Y-57932972D01*
X179873020Y-57879997D01*
X179873021Y-57819999D01*
X179901187Y-57767028D01*
X179932533Y-57732216D01*
X180027179Y-57568284D01*
X180085674Y-57388256D01*
X180105460Y-57200000D01*
X180085674Y-57011744D01*
X180055332Y-56918363D01*
X180027179Y-56831715D01*
X179932533Y-56667783D01*
X179805870Y-56527110D01*
X179652730Y-56415848D01*
X179479802Y-56338855D01*
X179294648Y-56299500D01*
X179294646Y-56299500D01*
X179105354Y-56299500D01*
X179105352Y-56299500D01*
X178920197Y-56338855D01*
X178747269Y-56415848D01*
X178594129Y-56527110D01*
X178467466Y-56667783D01*
X178372820Y-56831715D01*
X178314326Y-57011742D01*
X178294540Y-57200000D01*
X178314326Y-57388257D01*
X178372820Y-57568284D01*
X178467466Y-57732216D01*
X178498811Y-57767028D01*
X178526978Y-57820002D01*
X178526978Y-57879998D01*
X178498811Y-57932972D01*
X178467466Y-57967783D01*
X178372820Y-58131715D01*
X178314326Y-58311742D01*
X178294540Y-58499999D01*
X176777474Y-58499999D01*
X176702782Y-58447699D01*
X176702778Y-58447697D01*
X176702777Y-58447696D01*
X176691380Y-58442382D01*
X176639204Y-58396625D01*
X176619784Y-58330000D01*
X176639204Y-58263375D01*
X176691380Y-58217618D01*
X176695312Y-58215784D01*
X176702782Y-58212301D01*
X176892769Y-58079270D01*
X177056770Y-57915269D01*
X177189801Y-57725282D01*
X177287820Y-57515079D01*
X177347849Y-57291050D01*
X177368063Y-57060000D01*
X177347849Y-56828950D01*
X177287820Y-56604921D01*
X177189801Y-56394719D01*
X177056770Y-56204731D01*
X176892769Y-56040730D01*
X176702782Y-55907699D01*
X176702778Y-55907697D01*
X176702777Y-55907696D01*
X176691380Y-55902382D01*
X176639204Y-55856625D01*
X176619784Y-55790000D01*
X176639204Y-55723375D01*
X176691380Y-55677618D01*
X176695312Y-55675784D01*
X176702782Y-55672301D01*
X176892769Y-55539270D01*
X177056770Y-55375269D01*
X177189801Y-55185282D01*
X177287820Y-54975079D01*
X177347849Y-54751050D01*
X177368063Y-54520000D01*
X177347849Y-54288950D01*
X177287820Y-54064921D01*
X177189801Y-53854719D01*
X177056770Y-53664731D01*
X176892769Y-53500730D01*
X176702782Y-53367699D01*
X176605865Y-53322506D01*
X176492580Y-53269680D01*
X176268547Y-53209650D01*
X176037500Y-53189436D01*
X175806452Y-53209650D01*
X175582419Y-53269680D01*
X175372221Y-53367698D01*
X175372219Y-53367699D01*
X175182231Y-53500730D01*
X175182227Y-53500733D01*
X175018233Y-53664727D01*
X175018230Y-53664730D01*
X175018230Y-53664731D01*
X174934612Y-53784151D01*
X174885198Y-53854721D01*
X174787180Y-54064919D01*
X174727150Y-54288952D01*
X174706936Y-54520000D01*
X174727150Y-54751047D01*
X174787180Y-54975080D01*
X174826616Y-55059651D01*
X174885199Y-55185282D01*
X175018230Y-55375269D01*
X175182231Y-55539270D01*
X175372218Y-55672301D01*
X175372221Y-55672302D01*
X175372222Y-55672303D01*
X175383620Y-55677618D01*
X175435796Y-55723374D01*
X175455216Y-55789999D01*
X175435797Y-55856624D01*
X175383623Y-55902381D01*
X175372222Y-55907697D01*
X175182227Y-56040733D01*
X175018233Y-56204727D01*
X175018230Y-56204730D01*
X175018230Y-56204731D01*
X174924316Y-56338855D01*
X174885198Y-56394721D01*
X174787180Y-56604919D01*
X174727150Y-56828952D01*
X174706936Y-57060000D01*
X174727150Y-57291047D01*
X174753197Y-57388256D01*
X174787180Y-57515079D01*
X174885199Y-57725282D01*
X175018230Y-57915269D01*
X175182231Y-58079270D01*
X175372218Y-58212301D01*
X175372221Y-58212302D01*
X175372222Y-58212303D01*
X175383620Y-58217618D01*
X175435796Y-58263374D01*
X175455216Y-58329999D01*
X175435797Y-58396624D01*
X175383623Y-58442381D01*
X175372222Y-58447697D01*
X175372219Y-58447698D01*
X175372219Y-58447699D01*
X175297526Y-58500000D01*
X175182227Y-58580733D01*
X175018233Y-58744727D01*
X175018230Y-58744730D01*
X175018230Y-58744731D01*
X174931718Y-58868284D01*
X174885198Y-58934721D01*
X174787180Y-59144919D01*
X174727150Y-59368952D01*
X174706936Y-59599999D01*
X141000500Y-59599999D01*
X141000500Y-56300000D01*
X160294540Y-56300000D01*
X160314326Y-56488257D01*
X160372820Y-56668284D01*
X160467466Y-56832216D01*
X160594129Y-56972889D01*
X160747269Y-57084151D01*
X160920197Y-57161144D01*
X161105352Y-57200500D01*
X161105354Y-57200500D01*
X161294646Y-57200500D01*
X161294648Y-57200500D01*
X161418084Y-57174262D01*
X161479803Y-57161144D01*
X161652730Y-57084151D01*
X161805871Y-56972888D01*
X161932533Y-56832216D01*
X162027179Y-56668284D01*
X162085674Y-56488256D01*
X162105460Y-56300000D01*
X162085674Y-56111744D01*
X162027179Y-55931716D01*
X162027179Y-55931715D01*
X161932533Y-55767783D01*
X161805870Y-55627110D01*
X161652730Y-55515848D01*
X161479802Y-55438855D01*
X161294648Y-55399500D01*
X161294646Y-55399500D01*
X161105354Y-55399500D01*
X161105352Y-55399500D01*
X160920197Y-55438855D01*
X160747269Y-55515848D01*
X160594129Y-55627110D01*
X160467466Y-55767783D01*
X160372820Y-55931715D01*
X160314326Y-56111742D01*
X160294540Y-56300000D01*
X141000500Y-56300000D01*
X141000500Y-54999999D01*
X163094540Y-54999999D01*
X163114326Y-55188257D01*
X163172820Y-55368284D01*
X163267466Y-55532216D01*
X163394129Y-55672889D01*
X163547269Y-55784151D01*
X163720197Y-55861144D01*
X163905352Y-55900500D01*
X163905354Y-55900500D01*
X164094646Y-55900500D01*
X164094648Y-55900500D01*
X164218084Y-55874262D01*
X164279803Y-55861144D01*
X164452730Y-55784151D01*
X164475259Y-55767783D01*
X164605870Y-55672889D01*
X164606400Y-55672301D01*
X164732533Y-55532216D01*
X164827179Y-55368284D01*
X164861816Y-55261680D01*
X164887597Y-55217028D01*
X164929312Y-55186720D01*
X164979747Y-55176000D01*
X165094648Y-55176000D01*
X165218084Y-55149762D01*
X165279803Y-55136644D01*
X165452730Y-55059651D01*
X165534834Y-54999999D01*
X165605870Y-54948389D01*
X165732533Y-54807716D01*
X165827179Y-54643784D01*
X165884365Y-54467784D01*
X165885674Y-54463756D01*
X165905460Y-54275500D01*
X165885674Y-54087244D01*
X165827179Y-53907216D01*
X165827179Y-53907215D01*
X165732533Y-53743283D01*
X165605870Y-53602610D01*
X165500425Y-53526000D01*
X167294540Y-53526000D01*
X167314326Y-53714257D01*
X167372820Y-53894284D01*
X167467466Y-54058216D01*
X167594129Y-54198889D01*
X167747269Y-54310151D01*
X167920197Y-54387144D01*
X168105352Y-54426500D01*
X168105354Y-54426500D01*
X168294646Y-54426500D01*
X168294648Y-54426500D01*
X168418084Y-54400262D01*
X168479803Y-54387144D01*
X168652730Y-54310151D01*
X168782526Y-54215849D01*
X168805870Y-54198889D01*
X168932533Y-54058216D01*
X169027179Y-53894284D01*
X169040034Y-53854721D01*
X169085674Y-53714256D01*
X169105460Y-53526000D01*
X169085674Y-53337744D01*
X169044054Y-53209651D01*
X169027179Y-53157715D01*
X168932533Y-52993783D01*
X168805870Y-52853110D01*
X168652730Y-52741848D01*
X168479802Y-52664855D01*
X168294648Y-52625500D01*
X168294646Y-52625500D01*
X168105354Y-52625500D01*
X168105352Y-52625500D01*
X167920197Y-52664855D01*
X167747269Y-52741848D01*
X167594129Y-52853110D01*
X167467466Y-52993783D01*
X167372820Y-53157715D01*
X167314326Y-53337742D01*
X167294540Y-53526000D01*
X165500425Y-53526000D01*
X165452730Y-53491348D01*
X165279802Y-53414355D01*
X165094648Y-53375000D01*
X165094646Y-53375000D01*
X164905354Y-53375000D01*
X164905352Y-53375000D01*
X164720197Y-53414355D01*
X164547269Y-53491348D01*
X164394129Y-53602610D01*
X164267466Y-53743283D01*
X164172820Y-53907215D01*
X164138184Y-54013818D01*
X164112403Y-54058472D01*
X164070688Y-54088780D01*
X164020253Y-54099500D01*
X163905352Y-54099500D01*
X163720197Y-54138855D01*
X163547269Y-54215848D01*
X163394129Y-54327110D01*
X163267466Y-54467783D01*
X163172820Y-54631715D01*
X163114326Y-54811742D01*
X163094540Y-54999999D01*
X141000500Y-54999999D01*
X141000500Y-53000000D01*
X145194540Y-53000000D01*
X145214326Y-53188257D01*
X145272820Y-53368284D01*
X145367466Y-53532216D01*
X145494129Y-53672889D01*
X145647269Y-53784151D01*
X145820197Y-53861144D01*
X146005352Y-53900500D01*
X146005354Y-53900500D01*
X146194646Y-53900500D01*
X146194648Y-53900500D01*
X146318083Y-53874262D01*
X146379803Y-53861144D01*
X146552730Y-53784151D01*
X146705871Y-53672888D01*
X146832533Y-53532216D01*
X146927179Y-53368284D01*
X146985674Y-53188256D01*
X147005460Y-53000000D01*
X146985674Y-52811744D01*
X146927179Y-52631716D01*
X146927179Y-52631715D01*
X146832533Y-52467783D01*
X146705870Y-52327110D01*
X146552730Y-52215848D01*
X146379802Y-52138855D01*
X146194648Y-52099500D01*
X146194646Y-52099500D01*
X146005354Y-52099500D01*
X146005352Y-52099500D01*
X145820197Y-52138855D01*
X145647269Y-52215848D01*
X145494129Y-52327110D01*
X145367466Y-52467783D01*
X145272820Y-52631715D01*
X145214326Y-52811742D01*
X145194540Y-53000000D01*
X141000500Y-53000000D01*
X141000500Y-51900000D01*
X168694540Y-51900000D01*
X168714326Y-52088257D01*
X168772820Y-52268284D01*
X168867466Y-52432216D01*
X168994129Y-52572889D01*
X169147269Y-52684151D01*
X169320197Y-52761144D01*
X169505352Y-52800500D01*
X169505354Y-52800500D01*
X169694646Y-52800500D01*
X169694648Y-52800500D01*
X169818084Y-52774262D01*
X169879803Y-52761144D01*
X170052730Y-52684151D01*
X170205871Y-52572888D01*
X170332533Y-52432216D01*
X170427179Y-52268284D01*
X170485674Y-52088256D01*
X170505460Y-51900000D01*
X170485674Y-51711744D01*
X170427179Y-51531716D01*
X170427179Y-51531715D01*
X170332533Y-51367783D01*
X170205870Y-51227110D01*
X170052730Y-51115848D01*
X169879802Y-51038855D01*
X169694648Y-50999500D01*
X169694646Y-50999500D01*
X169505354Y-50999500D01*
X169505352Y-50999500D01*
X169320197Y-51038855D01*
X169147269Y-51115848D01*
X168994129Y-51227110D01*
X168867466Y-51367783D01*
X168772820Y-51531715D01*
X168714326Y-51711742D01*
X168694540Y-51900000D01*
X141000500Y-51900000D01*
X141000500Y-48100000D01*
X158594540Y-48100000D01*
X158614326Y-48288257D01*
X158672820Y-48468284D01*
X158767466Y-48632216D01*
X158894129Y-48772889D01*
X159047269Y-48884151D01*
X159220197Y-48961144D01*
X159405352Y-49000500D01*
X159405354Y-49000500D01*
X159594646Y-49000500D01*
X159594648Y-49000500D01*
X159718084Y-48974262D01*
X159779803Y-48961144D01*
X159952730Y-48884151D01*
X160105871Y-48772888D01*
X160232533Y-48632216D01*
X160327179Y-48468284D01*
X160385674Y-48288256D01*
X160405460Y-48100000D01*
X160385674Y-47911744D01*
X160355332Y-47818363D01*
X160327179Y-47731715D01*
X160232535Y-47567786D01*
X160224571Y-47558942D01*
X160196234Y-47527470D01*
X160168954Y-47477847D01*
X160166582Y-47421265D01*
X160189616Y-47369530D01*
X160233251Y-47333432D01*
X160288386Y-47320500D01*
X160394648Y-47320500D01*
X160518084Y-47294262D01*
X160579803Y-47281144D01*
X160752730Y-47204151D01*
X160758443Y-47200000D01*
X168694540Y-47200000D01*
X168714326Y-47388257D01*
X168772820Y-47568284D01*
X168867466Y-47732216D01*
X168994129Y-47872889D01*
X169147269Y-47984151D01*
X169320197Y-48061144D01*
X169505352Y-48100500D01*
X169505354Y-48100500D01*
X169694646Y-48100500D01*
X169694648Y-48100500D01*
X169818083Y-48074262D01*
X169879803Y-48061144D01*
X170052730Y-47984151D01*
X170205871Y-47872888D01*
X170332533Y-47732216D01*
X170427179Y-47568284D01*
X170485674Y-47388256D01*
X170505460Y-47200000D01*
X170485674Y-47011744D01*
X170427179Y-46831716D01*
X170427179Y-46831715D01*
X170332533Y-46667783D01*
X170205870Y-46527110D01*
X170052730Y-46415848D01*
X169879802Y-46338855D01*
X169694648Y-46299500D01*
X169694646Y-46299500D01*
X169505354Y-46299500D01*
X169505352Y-46299500D01*
X169320197Y-46338855D01*
X169147269Y-46415848D01*
X168994129Y-46527110D01*
X168867466Y-46667783D01*
X168772820Y-46831715D01*
X168714326Y-47011742D01*
X168694540Y-47200000D01*
X160758443Y-47200000D01*
X160826616Y-47150470D01*
X160905870Y-47092889D01*
X161032533Y-46952216D01*
X161127179Y-46788284D01*
X161166332Y-46667783D01*
X161185674Y-46608256D01*
X161205460Y-46420000D01*
X161185674Y-46231744D01*
X161127179Y-46051716D01*
X161127179Y-46051715D01*
X161032533Y-45887783D01*
X160905870Y-45747110D01*
X160752730Y-45635848D01*
X160579802Y-45558855D01*
X160394648Y-45519500D01*
X160394646Y-45519500D01*
X160205354Y-45519500D01*
X160205352Y-45519500D01*
X160020197Y-45558855D01*
X159847269Y-45635848D01*
X159694129Y-45747110D01*
X159567466Y-45887783D01*
X159472820Y-46051715D01*
X159414326Y-46231742D01*
X159394540Y-46420000D01*
X159414326Y-46608257D01*
X159472820Y-46788284D01*
X159567464Y-46952213D01*
X159567467Y-46952216D01*
X159603765Y-46992529D01*
X159631046Y-47042153D01*
X159633418Y-47098735D01*
X159610384Y-47150470D01*
X159566749Y-47186568D01*
X159511614Y-47199500D01*
X159405352Y-47199500D01*
X159220197Y-47238855D01*
X159047269Y-47315848D01*
X158894129Y-47427110D01*
X158767466Y-47567783D01*
X158672820Y-47731715D01*
X158614326Y-47911742D01*
X158594540Y-48100000D01*
X141000500Y-48100000D01*
X141000500Y-45900000D01*
X146294540Y-45900000D01*
X146314326Y-46088257D01*
X146372820Y-46268284D01*
X146467466Y-46432216D01*
X146594129Y-46572889D01*
X146747269Y-46684151D01*
X146920197Y-46761144D01*
X147105352Y-46800500D01*
X147105354Y-46800500D01*
X147294646Y-46800500D01*
X147294648Y-46800500D01*
X147418083Y-46774262D01*
X147479803Y-46761144D01*
X147652730Y-46684151D01*
X147805871Y-46572888D01*
X147932533Y-46432216D01*
X148027179Y-46268284D01*
X148085674Y-46088256D01*
X148105460Y-45900000D01*
X148085674Y-45711744D01*
X148055332Y-45618363D01*
X148027179Y-45531715D01*
X147932533Y-45367783D01*
X147805870Y-45227110D01*
X147652730Y-45115848D01*
X147479802Y-45038855D01*
X147294648Y-44999500D01*
X147294646Y-44999500D01*
X147105354Y-44999500D01*
X147105352Y-44999500D01*
X146920197Y-45038855D01*
X146747269Y-45115848D01*
X146594129Y-45227110D01*
X146467466Y-45367783D01*
X146372820Y-45531715D01*
X146314326Y-45711742D01*
X146294540Y-45900000D01*
X141000500Y-45900000D01*
X141000500Y-41002872D01*
X141000566Y-41000000D01*
X141294422Y-41000000D01*
X141314722Y-41387340D01*
X141375396Y-41770429D01*
X141475785Y-42145086D01*
X141614785Y-42507193D01*
X141790876Y-42852793D01*
X142002121Y-43178080D01*
X142002124Y-43178084D01*
X142246219Y-43479516D01*
X142520484Y-43753781D01*
X142821916Y-43997876D01*
X142821918Y-43997877D01*
X142821919Y-43997878D01*
X143147206Y-44209123D01*
X143492806Y-44385214D01*
X143854913Y-44524214D01*
X144229570Y-44624603D01*
X144421114Y-44654939D01*
X144612662Y-44685278D01*
X145000000Y-44705578D01*
X145387338Y-44685278D01*
X145636686Y-44645785D01*
X145770429Y-44624603D01*
X145770433Y-44624602D01*
X146145087Y-44524214D01*
X146507194Y-44385214D01*
X146852789Y-44209125D01*
X146852788Y-44209125D01*
X146852793Y-44209123D01*
X147015436Y-44103500D01*
X147178084Y-43997876D01*
X147423032Y-43799521D01*
X152575747Y-43799521D01*
X152595533Y-43987778D01*
X152654027Y-44167805D01*
X152748673Y-44331737D01*
X152875336Y-44472410D01*
X153028476Y-44583672D01*
X153201398Y-44660663D01*
X153201400Y-44660663D01*
X153201404Y-44660665D01*
X153203301Y-44661068D01*
X153210185Y-44664575D01*
X153213311Y-44665967D01*
X153213238Y-44666130D01*
X153260492Y-44690205D01*
X153295453Y-44744035D01*
X153298816Y-44808134D01*
X153269678Y-44865327D01*
X153267467Y-44867782D01*
X153172820Y-45031715D01*
X153114326Y-45211742D01*
X153094540Y-45400000D01*
X153114326Y-45588257D01*
X153172820Y-45768284D01*
X153267466Y-45932216D01*
X153394129Y-46072889D01*
X153547269Y-46184151D01*
X153720197Y-46261144D01*
X153905352Y-46300500D01*
X153905354Y-46300500D01*
X154094646Y-46300500D01*
X154094648Y-46300500D01*
X154218083Y-46274262D01*
X154279803Y-46261144D01*
X154452730Y-46184151D01*
X154452729Y-46184151D01*
X154605870Y-46072889D01*
X154732533Y-45932216D01*
X154827179Y-45768284D01*
X154870210Y-45635848D01*
X154885674Y-45588256D01*
X154905460Y-45400000D01*
X154885674Y-45211744D01*
X154827179Y-45031716D01*
X154827179Y-45031715D01*
X154732533Y-44867783D01*
X154605870Y-44727110D01*
X154452730Y-44615848D01*
X154279802Y-44538855D01*
X154277901Y-44538451D01*
X154271019Y-44534944D01*
X154267896Y-44533554D01*
X154267968Y-44533390D01*
X154220709Y-44509310D01*
X154185750Y-44455477D01*
X154182392Y-44391377D01*
X154211533Y-44334187D01*
X154213740Y-44331737D01*
X154308386Y-44167805D01*
X154366881Y-43987777D01*
X154386667Y-43799521D01*
X154366881Y-43611265D01*
X154324073Y-43479516D01*
X154308386Y-43431236D01*
X154213740Y-43267304D01*
X154087077Y-43126631D01*
X153933937Y-43015369D01*
X153761009Y-42938376D01*
X153575855Y-42899021D01*
X153575853Y-42899021D01*
X153386561Y-42899021D01*
X153386559Y-42899021D01*
X153201404Y-42938376D01*
X153028476Y-43015369D01*
X152875336Y-43126631D01*
X152748673Y-43267304D01*
X152654027Y-43431236D01*
X152595533Y-43611263D01*
X152575747Y-43799521D01*
X147423032Y-43799521D01*
X147479516Y-43753781D01*
X147753781Y-43479516D01*
X147997876Y-43178084D01*
X148179102Y-42899021D01*
X148209123Y-42852793D01*
X148286720Y-42700500D01*
X148337928Y-42599999D01*
X155094540Y-42599999D01*
X155114326Y-42788257D01*
X155172820Y-42968284D01*
X155267466Y-43132216D01*
X155394129Y-43272889D01*
X155547269Y-43384151D01*
X155720197Y-43461144D01*
X155905352Y-43500500D01*
X155905354Y-43500500D01*
X156094646Y-43500500D01*
X156094648Y-43500500D01*
X156218083Y-43474262D01*
X156279803Y-43461144D01*
X156452730Y-43384151D01*
X156605871Y-43272888D01*
X156732533Y-43132216D01*
X156827179Y-42968284D01*
X156885674Y-42788256D01*
X156905460Y-42600000D01*
X156885674Y-42411744D01*
X156827179Y-42231716D01*
X156827179Y-42231715D01*
X156732533Y-42067783D01*
X156605870Y-41927110D01*
X156452730Y-41815848D01*
X156417135Y-41800000D01*
X157094540Y-41800000D01*
X157114326Y-41988257D01*
X157172820Y-42168284D01*
X157267466Y-42332216D01*
X157394129Y-42472889D01*
X157547269Y-42584151D01*
X157720197Y-42661144D01*
X157905352Y-42700500D01*
X157905354Y-42700500D01*
X158094646Y-42700500D01*
X158094648Y-42700500D01*
X158218083Y-42674262D01*
X158279803Y-42661144D01*
X158452730Y-42584151D01*
X158605871Y-42472888D01*
X158732533Y-42332216D01*
X158827179Y-42168284D01*
X158885674Y-41988256D01*
X158905460Y-41800000D01*
X158885674Y-41611744D01*
X158827179Y-41431716D01*
X158827179Y-41431715D01*
X158732533Y-41267783D01*
X158605870Y-41127110D01*
X158452730Y-41015848D01*
X158417135Y-41000000D01*
X184294422Y-41000000D01*
X184314722Y-41387340D01*
X184375396Y-41770429D01*
X184475785Y-42145086D01*
X184614785Y-42507193D01*
X184790876Y-42852793D01*
X185002121Y-43178080D01*
X185002124Y-43178084D01*
X185246219Y-43479516D01*
X185520484Y-43753781D01*
X185821916Y-43997876D01*
X185821918Y-43997877D01*
X185821919Y-43997878D01*
X186147206Y-44209123D01*
X186492806Y-44385214D01*
X186854913Y-44524214D01*
X187229570Y-44624603D01*
X187421114Y-44654939D01*
X187612662Y-44685278D01*
X188000000Y-44705578D01*
X188387338Y-44685278D01*
X188636686Y-44645785D01*
X188770429Y-44624603D01*
X188770433Y-44624602D01*
X189145087Y-44524214D01*
X189507194Y-44385214D01*
X189852789Y-44209125D01*
X189852788Y-44209125D01*
X189852793Y-44209123D01*
X190015436Y-44103500D01*
X190178084Y-43997876D01*
X190479516Y-43753781D01*
X190753781Y-43479516D01*
X190997876Y-43178084D01*
X191179102Y-42899021D01*
X191209123Y-42852793D01*
X191286720Y-42700500D01*
X191385214Y-42507194D01*
X191524214Y-42145087D01*
X191624602Y-41770433D01*
X191629604Y-41738856D01*
X191678249Y-41431715D01*
X191685278Y-41387338D01*
X191705578Y-41000000D01*
X191685278Y-40612662D01*
X191630229Y-40265094D01*
X191624603Y-40229570D01*
X191524214Y-39854913D01*
X191385214Y-39492806D01*
X191209123Y-39147206D01*
X190997878Y-38821919D01*
X190997876Y-38821916D01*
X190753781Y-38520484D01*
X190479516Y-38246219D01*
X190178084Y-38002124D01*
X190178082Y-38002123D01*
X190178080Y-38002121D01*
X189852793Y-37790876D01*
X189507193Y-37614785D01*
X189145086Y-37475785D01*
X188770429Y-37375396D01*
X188387340Y-37314722D01*
X188000000Y-37294422D01*
X187612659Y-37314722D01*
X187229570Y-37375396D01*
X186854913Y-37475785D01*
X186492806Y-37614785D01*
X186147206Y-37790876D01*
X185821919Y-38002121D01*
X185520480Y-38246222D01*
X185246222Y-38520480D01*
X185002121Y-38821919D01*
X184790876Y-39147206D01*
X184614785Y-39492806D01*
X184475785Y-39854913D01*
X184375396Y-40229570D01*
X184314722Y-40612659D01*
X184294422Y-41000000D01*
X158417135Y-41000000D01*
X158279802Y-40938855D01*
X158094648Y-40899500D01*
X158094646Y-40899500D01*
X157905354Y-40899500D01*
X157905352Y-40899500D01*
X157720197Y-40938855D01*
X157547269Y-41015848D01*
X157394129Y-41127110D01*
X157267466Y-41267783D01*
X157172820Y-41431715D01*
X157114326Y-41611742D01*
X157094540Y-41800000D01*
X156417135Y-41800000D01*
X156279802Y-41738855D01*
X156094648Y-41699500D01*
X156094646Y-41699500D01*
X155905354Y-41699500D01*
X155905352Y-41699500D01*
X155720197Y-41738855D01*
X155547269Y-41815848D01*
X155394129Y-41927110D01*
X155267466Y-42067783D01*
X155172820Y-42231715D01*
X155114326Y-42411742D01*
X155094540Y-42599999D01*
X148337928Y-42599999D01*
X148385214Y-42507194D01*
X148524214Y-42145087D01*
X148624602Y-41770433D01*
X148629604Y-41738856D01*
X148678249Y-41431715D01*
X148685278Y-41387338D01*
X148705578Y-41000000D01*
X148685278Y-40612662D01*
X148630229Y-40265094D01*
X148624603Y-40229570D01*
X148524214Y-39854913D01*
X148385214Y-39492806D01*
X148209123Y-39147206D01*
X147997878Y-38821919D01*
X147997876Y-38821916D01*
X147753781Y-38520484D01*
X147479516Y-38246219D01*
X147178084Y-38002124D01*
X147178082Y-38002123D01*
X147178080Y-38002121D01*
X146852793Y-37790876D01*
X146507193Y-37614785D01*
X146145086Y-37475785D01*
X145770429Y-37375396D01*
X145387340Y-37314722D01*
X145000000Y-37294422D01*
X144612659Y-37314722D01*
X144229570Y-37375396D01*
X143854913Y-37475785D01*
X143492806Y-37614785D01*
X143147206Y-37790876D01*
X142821919Y-38002121D01*
X142520480Y-38246222D01*
X142246222Y-38520480D01*
X142002121Y-38821919D01*
X141790876Y-39147206D01*
X141614785Y-39492806D01*
X141475785Y-39854913D01*
X141375396Y-40229570D01*
X141314722Y-40612659D01*
X141294422Y-41000000D01*
X141000566Y-41000000D01*
X141000632Y-40997146D01*
X141005146Y-40899500D01*
X141008490Y-40827168D01*
X141018166Y-40630200D01*
X141019200Y-40619217D01*
X141044611Y-40437054D01*
X141044722Y-40436286D01*
X141071950Y-40252729D01*
X141073890Y-40242595D01*
X141116526Y-40061318D01*
X141116837Y-40060037D01*
X141161405Y-39882111D01*
X141164091Y-39872922D01*
X141223572Y-39695457D01*
X141224270Y-39693442D01*
X141285699Y-39521759D01*
X141288996Y-39513497D01*
X141364713Y-39342015D01*
X141366051Y-39339089D01*
X141443727Y-39174855D01*
X141447452Y-39167612D01*
X141538864Y-39003497D01*
X141540745Y-39000243D01*
X141634036Y-38844598D01*
X141638034Y-38838363D01*
X141744270Y-38683278D01*
X141746899Y-38679590D01*
X141854909Y-38533954D01*
X141859011Y-38528728D01*
X141979239Y-38383944D01*
X141982577Y-38380097D01*
X142104340Y-38245752D01*
X142108437Y-38241450D01*
X142241450Y-38108437D01*
X142245752Y-38104340D01*
X142380097Y-37982577D01*
X142383944Y-37979239D01*
X142528728Y-37859011D01*
X142533954Y-37854909D01*
X142679590Y-37746899D01*
X142683278Y-37744270D01*
X142838363Y-37638034D01*
X142844598Y-37634036D01*
X143000243Y-37540745D01*
X143003497Y-37538864D01*
X143167612Y-37447452D01*
X143174855Y-37443727D01*
X143339098Y-37366046D01*
X143342018Y-37364712D01*
X143406007Y-37336458D01*
X143513497Y-37288996D01*
X143521759Y-37285699D01*
X143693442Y-37224270D01*
X143695457Y-37223572D01*
X143872922Y-37164091D01*
X143882111Y-37161405D01*
X144060037Y-37116837D01*
X144061318Y-37116526D01*
X144242595Y-37073890D01*
X144252729Y-37071950D01*
X144436286Y-37044722D01*
X144437054Y-37044611D01*
X144619217Y-37019200D01*
X144630200Y-37018166D01*
X144826898Y-37008502D01*
X144991674Y-37000884D01*
X144997146Y-37000632D01*
X145002872Y-37000500D01*
X187997128Y-37000500D01*
X188002854Y-37000632D01*
G37*
%TD.AperFunction*%
%TD*%
M02*
