%TF.GenerationSoftware,KiCad,Pcbnew,7.0.1*%
%TF.CreationDate,2023-06-17T09:34:49+02:00*%
%TF.ProjectId,Had_Konzole,4861645f-4b6f-46e7-9a6f-6c652e6b6963,rev?*%
%TF.SameCoordinates,Original*%
%TF.FileFunction,Copper,L4,Bot*%
%TF.FilePolarity,Positive*%
%FSLAX46Y46*%
G04 Gerber Fmt 4.6, Leading zero omitted, Abs format (unit mm)*
G04 Created by KiCad (PCBNEW 7.0.1) date 2023-06-17 09:34:49*
%MOMM*%
%LPD*%
G01*
G04 APERTURE LIST*
G04 Aperture macros list*
%AMRoundRect*
0 Rectangle with rounded corners*
0 $1 Rounding radius*
0 $2 $3 $4 $5 $6 $7 $8 $9 X,Y pos of 4 corners*
0 Add a 4 corners polygon primitive as box body*
4,1,4,$2,$3,$4,$5,$6,$7,$8,$9,$2,$3,0*
0 Add four circle primitives for the rounded corners*
1,1,$1+$1,$2,$3*
1,1,$1+$1,$4,$5*
1,1,$1+$1,$6,$7*
1,1,$1+$1,$8,$9*
0 Add four rect primitives between the rounded corners*
20,1,$1+$1,$2,$3,$4,$5,0*
20,1,$1+$1,$4,$5,$6,$7,0*
20,1,$1+$1,$6,$7,$8,$9,0*
20,1,$1+$1,$8,$9,$2,$3,0*%
G04 Aperture macros list end*
%TA.AperFunction,EtchedComponent*%
%ADD10C,0.010000*%
%TD*%
%TA.AperFunction,SMDPad,CuDef*%
%ADD11R,1.000000X1.600000*%
%TD*%
%TA.AperFunction,ComponentPad*%
%ADD12C,6.400000*%
%TD*%
%TA.AperFunction,ComponentPad*%
%ADD13R,1.800000X1.800000*%
%TD*%
%TA.AperFunction,ComponentPad*%
%ADD14C,1.800000*%
%TD*%
%TA.AperFunction,ComponentPad*%
%ADD15C,1.000000*%
%TD*%
%TA.AperFunction,ComponentPad*%
%ADD16O,1.000000X1.800000*%
%TD*%
%TA.AperFunction,ComponentPad*%
%ADD17R,1.650000X1.650000*%
%TD*%
%TA.AperFunction,ComponentPad*%
%ADD18C,1.650000*%
%TD*%
%TA.AperFunction,SMDPad,CuDef*%
%ADD19RoundRect,0.200000X0.200000X0.600000X-0.200000X0.600000X-0.200000X-0.600000X0.200000X-0.600000X0*%
%TD*%
%TA.AperFunction,SMDPad,CuDef*%
%ADD20RoundRect,0.250001X0.799999X1.249999X-0.799999X1.249999X-0.799999X-1.249999X0.799999X-1.249999X0*%
%TD*%
%TA.AperFunction,ViaPad*%
%ADD21C,0.800000*%
%TD*%
%TA.AperFunction,Conductor*%
%ADD22C,0.250000*%
%TD*%
%TA.AperFunction,Conductor*%
%ADD23C,0.300000*%
%TD*%
%TA.AperFunction,Conductor*%
%ADD24C,0.500000*%
%TD*%
G04 APERTURE END LIST*
%TO.C,J4*%
D10*
X154006000Y-103476000D02*
X154032000Y-103478000D01*
X154058000Y-103481000D01*
X154084000Y-103486000D01*
X154109000Y-103492000D01*
X154135000Y-103499000D01*
X154159000Y-103508000D01*
X154183000Y-103518000D01*
X154207000Y-103529000D01*
X154230000Y-103542000D01*
X154252000Y-103556000D01*
X154274000Y-103570000D01*
X154295000Y-103586000D01*
X154315000Y-103603000D01*
X154334000Y-103621000D01*
X154352000Y-103640000D01*
X154369000Y-103660000D01*
X154385000Y-103681000D01*
X154399000Y-103703000D01*
X154413000Y-103725000D01*
X154426000Y-103748000D01*
X154437000Y-103772000D01*
X154447000Y-103796000D01*
X154456000Y-103820000D01*
X154463000Y-103846000D01*
X154469000Y-103871000D01*
X154474000Y-103897000D01*
X154477000Y-103923000D01*
X154479000Y-103949000D01*
X154480000Y-103975000D01*
X154480000Y-105175000D01*
X154479000Y-105201000D01*
X154477000Y-105227000D01*
X154474000Y-105253000D01*
X154469000Y-105279000D01*
X154463000Y-105304000D01*
X154456000Y-105330000D01*
X154447000Y-105354000D01*
X154437000Y-105378000D01*
X154426000Y-105402000D01*
X154413000Y-105425000D01*
X154399000Y-105447000D01*
X154385000Y-105469000D01*
X154369000Y-105490000D01*
X154352000Y-105510000D01*
X154334000Y-105529000D01*
X154315000Y-105547000D01*
X154295000Y-105564000D01*
X154274000Y-105580000D01*
X154252000Y-105594000D01*
X154230000Y-105608000D01*
X154207000Y-105621000D01*
X154183000Y-105632000D01*
X154159000Y-105642000D01*
X154135000Y-105651000D01*
X154109000Y-105658000D01*
X154084000Y-105664000D01*
X154058000Y-105669000D01*
X154032000Y-105672000D01*
X154006000Y-105674000D01*
X153980000Y-105675000D01*
X153954000Y-105674000D01*
X153928000Y-105672000D01*
X153902000Y-105669000D01*
X153876000Y-105664000D01*
X153851000Y-105658000D01*
X153825000Y-105651000D01*
X153801000Y-105642000D01*
X153777000Y-105632000D01*
X153753000Y-105621000D01*
X153730000Y-105608000D01*
X153708000Y-105594000D01*
X153686000Y-105580000D01*
X153665000Y-105564000D01*
X153645000Y-105547000D01*
X153626000Y-105529000D01*
X153608000Y-105510000D01*
X153591000Y-105490000D01*
X153575000Y-105469000D01*
X153561000Y-105447000D01*
X153547000Y-105425000D01*
X153534000Y-105402000D01*
X153523000Y-105378000D01*
X153513000Y-105354000D01*
X153504000Y-105330000D01*
X153497000Y-105304000D01*
X153491000Y-105279000D01*
X153486000Y-105253000D01*
X153483000Y-105227000D01*
X153481000Y-105201000D01*
X153480000Y-105175000D01*
X153480000Y-103975000D01*
X153481000Y-103949000D01*
X153483000Y-103923000D01*
X153486000Y-103897000D01*
X153491000Y-103871000D01*
X153497000Y-103846000D01*
X153504000Y-103820000D01*
X153513000Y-103796000D01*
X153523000Y-103772000D01*
X153534000Y-103748000D01*
X153547000Y-103725000D01*
X153561000Y-103703000D01*
X153575000Y-103681000D01*
X153591000Y-103660000D01*
X153608000Y-103640000D01*
X153626000Y-103621000D01*
X153645000Y-103603000D01*
X153665000Y-103586000D01*
X153686000Y-103570000D01*
X153708000Y-103556000D01*
X153730000Y-103542000D01*
X153753000Y-103529000D01*
X153777000Y-103518000D01*
X153801000Y-103508000D01*
X153825000Y-103499000D01*
X153851000Y-103492000D01*
X153876000Y-103486000D01*
X153902000Y-103481000D01*
X153928000Y-103478000D01*
X153954000Y-103476000D01*
X153980000Y-103475000D01*
X154006000Y-103476000D01*
%TA.AperFunction,EtchedComponent*%
G36*
X154006000Y-103476000D02*
G01*
X154032000Y-103478000D01*
X154058000Y-103481000D01*
X154084000Y-103486000D01*
X154109000Y-103492000D01*
X154135000Y-103499000D01*
X154159000Y-103508000D01*
X154183000Y-103518000D01*
X154207000Y-103529000D01*
X154230000Y-103542000D01*
X154252000Y-103556000D01*
X154274000Y-103570000D01*
X154295000Y-103586000D01*
X154315000Y-103603000D01*
X154334000Y-103621000D01*
X154352000Y-103640000D01*
X154369000Y-103660000D01*
X154385000Y-103681000D01*
X154399000Y-103703000D01*
X154413000Y-103725000D01*
X154426000Y-103748000D01*
X154437000Y-103772000D01*
X154447000Y-103796000D01*
X154456000Y-103820000D01*
X154463000Y-103846000D01*
X154469000Y-103871000D01*
X154474000Y-103897000D01*
X154477000Y-103923000D01*
X154479000Y-103949000D01*
X154480000Y-103975000D01*
X154480000Y-105175000D01*
X154479000Y-105201000D01*
X154477000Y-105227000D01*
X154474000Y-105253000D01*
X154469000Y-105279000D01*
X154463000Y-105304000D01*
X154456000Y-105330000D01*
X154447000Y-105354000D01*
X154437000Y-105378000D01*
X154426000Y-105402000D01*
X154413000Y-105425000D01*
X154399000Y-105447000D01*
X154385000Y-105469000D01*
X154369000Y-105490000D01*
X154352000Y-105510000D01*
X154334000Y-105529000D01*
X154315000Y-105547000D01*
X154295000Y-105564000D01*
X154274000Y-105580000D01*
X154252000Y-105594000D01*
X154230000Y-105608000D01*
X154207000Y-105621000D01*
X154183000Y-105632000D01*
X154159000Y-105642000D01*
X154135000Y-105651000D01*
X154109000Y-105658000D01*
X154084000Y-105664000D01*
X154058000Y-105669000D01*
X154032000Y-105672000D01*
X154006000Y-105674000D01*
X153980000Y-105675000D01*
X153954000Y-105674000D01*
X153928000Y-105672000D01*
X153902000Y-105669000D01*
X153876000Y-105664000D01*
X153851000Y-105658000D01*
X153825000Y-105651000D01*
X153801000Y-105642000D01*
X153777000Y-105632000D01*
X153753000Y-105621000D01*
X153730000Y-105608000D01*
X153708000Y-105594000D01*
X153686000Y-105580000D01*
X153665000Y-105564000D01*
X153645000Y-105547000D01*
X153626000Y-105529000D01*
X153608000Y-105510000D01*
X153591000Y-105490000D01*
X153575000Y-105469000D01*
X153561000Y-105447000D01*
X153547000Y-105425000D01*
X153534000Y-105402000D01*
X153523000Y-105378000D01*
X153513000Y-105354000D01*
X153504000Y-105330000D01*
X153497000Y-105304000D01*
X153491000Y-105279000D01*
X153486000Y-105253000D01*
X153483000Y-105227000D01*
X153481000Y-105201000D01*
X153480000Y-105175000D01*
X153480000Y-103975000D01*
X153481000Y-103949000D01*
X153483000Y-103923000D01*
X153486000Y-103897000D01*
X153491000Y-103871000D01*
X153497000Y-103846000D01*
X153504000Y-103820000D01*
X153513000Y-103796000D01*
X153523000Y-103772000D01*
X153534000Y-103748000D01*
X153547000Y-103725000D01*
X153561000Y-103703000D01*
X153575000Y-103681000D01*
X153591000Y-103660000D01*
X153608000Y-103640000D01*
X153626000Y-103621000D01*
X153645000Y-103603000D01*
X153665000Y-103586000D01*
X153686000Y-103570000D01*
X153708000Y-103556000D01*
X153730000Y-103542000D01*
X153753000Y-103529000D01*
X153777000Y-103518000D01*
X153801000Y-103508000D01*
X153825000Y-103499000D01*
X153851000Y-103492000D01*
X153876000Y-103486000D01*
X153902000Y-103481000D01*
X153928000Y-103478000D01*
X153954000Y-103476000D01*
X153980000Y-103475000D01*
X154006000Y-103476000D01*
G37*
%TD.AperFunction*%
X162646000Y-103476000D02*
X162672000Y-103478000D01*
X162698000Y-103481000D01*
X162724000Y-103486000D01*
X162749000Y-103492000D01*
X162775000Y-103499000D01*
X162799000Y-103508000D01*
X162823000Y-103518000D01*
X162847000Y-103529000D01*
X162870000Y-103542000D01*
X162892000Y-103556000D01*
X162914000Y-103570000D01*
X162935000Y-103586000D01*
X162955000Y-103603000D01*
X162974000Y-103621000D01*
X162992000Y-103640000D01*
X163009000Y-103660000D01*
X163025000Y-103681000D01*
X163039000Y-103703000D01*
X163053000Y-103725000D01*
X163066000Y-103748000D01*
X163077000Y-103772000D01*
X163087000Y-103796000D01*
X163096000Y-103820000D01*
X163103000Y-103846000D01*
X163109000Y-103871000D01*
X163114000Y-103897000D01*
X163117000Y-103923000D01*
X163119000Y-103949000D01*
X163120000Y-103975000D01*
X163120000Y-105175000D01*
X163119000Y-105201000D01*
X163117000Y-105227000D01*
X163114000Y-105253000D01*
X163109000Y-105279000D01*
X163103000Y-105304000D01*
X163096000Y-105330000D01*
X163087000Y-105354000D01*
X163077000Y-105378000D01*
X163066000Y-105402000D01*
X163053000Y-105425000D01*
X163039000Y-105447000D01*
X163025000Y-105469000D01*
X163009000Y-105490000D01*
X162992000Y-105510000D01*
X162974000Y-105529000D01*
X162955000Y-105547000D01*
X162935000Y-105564000D01*
X162914000Y-105580000D01*
X162892000Y-105594000D01*
X162870000Y-105608000D01*
X162847000Y-105621000D01*
X162823000Y-105632000D01*
X162799000Y-105642000D01*
X162775000Y-105651000D01*
X162749000Y-105658000D01*
X162724000Y-105664000D01*
X162698000Y-105669000D01*
X162672000Y-105672000D01*
X162646000Y-105674000D01*
X162620000Y-105675000D01*
X162594000Y-105674000D01*
X162568000Y-105672000D01*
X162542000Y-105669000D01*
X162516000Y-105664000D01*
X162491000Y-105658000D01*
X162465000Y-105651000D01*
X162441000Y-105642000D01*
X162417000Y-105632000D01*
X162393000Y-105621000D01*
X162370000Y-105608000D01*
X162348000Y-105594000D01*
X162326000Y-105580000D01*
X162305000Y-105564000D01*
X162285000Y-105547000D01*
X162266000Y-105529000D01*
X162248000Y-105510000D01*
X162231000Y-105490000D01*
X162215000Y-105469000D01*
X162201000Y-105447000D01*
X162187000Y-105425000D01*
X162174000Y-105402000D01*
X162163000Y-105378000D01*
X162153000Y-105354000D01*
X162144000Y-105330000D01*
X162137000Y-105304000D01*
X162131000Y-105279000D01*
X162126000Y-105253000D01*
X162123000Y-105227000D01*
X162121000Y-105201000D01*
X162120000Y-105175000D01*
X162120000Y-103975000D01*
X162121000Y-103949000D01*
X162123000Y-103923000D01*
X162126000Y-103897000D01*
X162131000Y-103871000D01*
X162137000Y-103846000D01*
X162144000Y-103820000D01*
X162153000Y-103796000D01*
X162163000Y-103772000D01*
X162174000Y-103748000D01*
X162187000Y-103725000D01*
X162201000Y-103703000D01*
X162215000Y-103681000D01*
X162231000Y-103660000D01*
X162248000Y-103640000D01*
X162266000Y-103621000D01*
X162285000Y-103603000D01*
X162305000Y-103586000D01*
X162326000Y-103570000D01*
X162348000Y-103556000D01*
X162370000Y-103542000D01*
X162393000Y-103529000D01*
X162417000Y-103518000D01*
X162441000Y-103508000D01*
X162465000Y-103499000D01*
X162491000Y-103492000D01*
X162516000Y-103486000D01*
X162542000Y-103481000D01*
X162568000Y-103478000D01*
X162594000Y-103476000D01*
X162620000Y-103475000D01*
X162646000Y-103476000D01*
%TA.AperFunction,EtchedComponent*%
G36*
X162646000Y-103476000D02*
G01*
X162672000Y-103478000D01*
X162698000Y-103481000D01*
X162724000Y-103486000D01*
X162749000Y-103492000D01*
X162775000Y-103499000D01*
X162799000Y-103508000D01*
X162823000Y-103518000D01*
X162847000Y-103529000D01*
X162870000Y-103542000D01*
X162892000Y-103556000D01*
X162914000Y-103570000D01*
X162935000Y-103586000D01*
X162955000Y-103603000D01*
X162974000Y-103621000D01*
X162992000Y-103640000D01*
X163009000Y-103660000D01*
X163025000Y-103681000D01*
X163039000Y-103703000D01*
X163053000Y-103725000D01*
X163066000Y-103748000D01*
X163077000Y-103772000D01*
X163087000Y-103796000D01*
X163096000Y-103820000D01*
X163103000Y-103846000D01*
X163109000Y-103871000D01*
X163114000Y-103897000D01*
X163117000Y-103923000D01*
X163119000Y-103949000D01*
X163120000Y-103975000D01*
X163120000Y-105175000D01*
X163119000Y-105201000D01*
X163117000Y-105227000D01*
X163114000Y-105253000D01*
X163109000Y-105279000D01*
X163103000Y-105304000D01*
X163096000Y-105330000D01*
X163087000Y-105354000D01*
X163077000Y-105378000D01*
X163066000Y-105402000D01*
X163053000Y-105425000D01*
X163039000Y-105447000D01*
X163025000Y-105469000D01*
X163009000Y-105490000D01*
X162992000Y-105510000D01*
X162974000Y-105529000D01*
X162955000Y-105547000D01*
X162935000Y-105564000D01*
X162914000Y-105580000D01*
X162892000Y-105594000D01*
X162870000Y-105608000D01*
X162847000Y-105621000D01*
X162823000Y-105632000D01*
X162799000Y-105642000D01*
X162775000Y-105651000D01*
X162749000Y-105658000D01*
X162724000Y-105664000D01*
X162698000Y-105669000D01*
X162672000Y-105672000D01*
X162646000Y-105674000D01*
X162620000Y-105675000D01*
X162594000Y-105674000D01*
X162568000Y-105672000D01*
X162542000Y-105669000D01*
X162516000Y-105664000D01*
X162491000Y-105658000D01*
X162465000Y-105651000D01*
X162441000Y-105642000D01*
X162417000Y-105632000D01*
X162393000Y-105621000D01*
X162370000Y-105608000D01*
X162348000Y-105594000D01*
X162326000Y-105580000D01*
X162305000Y-105564000D01*
X162285000Y-105547000D01*
X162266000Y-105529000D01*
X162248000Y-105510000D01*
X162231000Y-105490000D01*
X162215000Y-105469000D01*
X162201000Y-105447000D01*
X162187000Y-105425000D01*
X162174000Y-105402000D01*
X162163000Y-105378000D01*
X162153000Y-105354000D01*
X162144000Y-105330000D01*
X162137000Y-105304000D01*
X162131000Y-105279000D01*
X162126000Y-105253000D01*
X162123000Y-105227000D01*
X162121000Y-105201000D01*
X162120000Y-105175000D01*
X162120000Y-103975000D01*
X162121000Y-103949000D01*
X162123000Y-103923000D01*
X162126000Y-103897000D01*
X162131000Y-103871000D01*
X162137000Y-103846000D01*
X162144000Y-103820000D01*
X162153000Y-103796000D01*
X162163000Y-103772000D01*
X162174000Y-103748000D01*
X162187000Y-103725000D01*
X162201000Y-103703000D01*
X162215000Y-103681000D01*
X162231000Y-103660000D01*
X162248000Y-103640000D01*
X162266000Y-103621000D01*
X162285000Y-103603000D01*
X162305000Y-103586000D01*
X162326000Y-103570000D01*
X162348000Y-103556000D01*
X162370000Y-103542000D01*
X162393000Y-103529000D01*
X162417000Y-103518000D01*
X162441000Y-103508000D01*
X162465000Y-103499000D01*
X162491000Y-103492000D01*
X162516000Y-103486000D01*
X162542000Y-103481000D01*
X162568000Y-103478000D01*
X162594000Y-103476000D01*
X162620000Y-103475000D01*
X162646000Y-103476000D01*
G37*
%TD.AperFunction*%
%TD*%
D11*
%TO.P,SW6,1,A*%
%TO.N,Reset*%
X149070000Y-60720000D03*
%TO.P,SW6,2,B*%
%TO.N,RST_PROG*%
X147320000Y-58420000D03*
%TO.P,SW6,3,C*%
%TO.N,DTR*%
X145570000Y-60720000D03*
%TD*%
D12*
%TO.P,H1,1,1*%
%TO.N,GND*%
X145000000Y-41000000D03*
%TD*%
%TO.P,H3,1,1*%
%TO.N,GND*%
X145000000Y-102000000D03*
%TD*%
D13*
%TO.P,D1,1,K*%
%TO.N,Net-(D1-K)*%
X181725000Y-84275000D03*
D14*
%TO.P,D1,2,A*%
%TO.N,+3V3*%
X181725000Y-81735000D03*
%TD*%
D12*
%TO.P,H2,1,1*%
%TO.N,GND*%
X188000000Y-41000000D03*
%TD*%
%TO.P,H4,1,1*%
%TO.N,GND*%
X188000000Y-102000000D03*
%TD*%
D15*
%TO.P,J4,S1,SHIELD*%
%TO.N,unconnected-(J4-SHIELD-PadS1)*%
X153980000Y-104575000D03*
%TO.P,J4,S2,SHIELD*%
X162620000Y-104575000D03*
D16*
%TO.P,J4,S3,SHIELD*%
X153980000Y-100575000D03*
%TO.P,J4,S4,SHIELD*%
X162620000Y-100575000D03*
%TD*%
D17*
%TO.P,J2,1,Pin_1*%
%TO.N,Reset*%
X176037500Y-62140000D03*
D18*
%TO.P,J2,2,Pin_2*%
%TO.N,MOSI*%
X176037500Y-59600000D03*
%TO.P,J2,3,Pin_3*%
%TO.N,MISO*%
X176037500Y-57060000D03*
%TO.P,J2,4,Pin_4*%
%TO.N,SCK*%
X176037500Y-54520000D03*
%TD*%
D19*
%TO.P,J1,1,1*%
%TO.N,+5V*%
X172625000Y-98600000D03*
%TO.P,J1,2,2*%
%TO.N,GND*%
X171375000Y-98600000D03*
D20*
%TO.P,J1,MP*%
%TO.N,N/C*%
X175175000Y-101500000D03*
X168825000Y-101500000D03*
%TD*%
D21*
%TO.N,USB_Conn_D-*%
X160400000Y-93700000D03*
X158400000Y-101800000D03*
%TO.N,GND*%
X146100000Y-53000000D03*
X147200000Y-45900000D03*
X154000000Y-45400000D03*
X161200000Y-56300000D03*
X148700000Y-65900000D03*
X161400000Y-76600000D03*
X173000000Y-66900000D03*
X177300000Y-86000000D03*
X154700000Y-98800000D03*
X161700000Y-98800000D03*
X171300000Y-97200000D03*
X174000000Y-94800000D03*
X167600000Y-93200000D03*
X164000000Y-94800000D03*
X162200000Y-91100000D03*
X157600000Y-90100000D03*
X150100000Y-92200000D03*
X154800000Y-90800000D03*
%TO.N,+3V3*%
X150100000Y-88900000D03*
X164200000Y-50300000D03*
X158500000Y-49500000D03*
X154600000Y-48800000D03*
X151900000Y-47800000D03*
X152100000Y-41000000D03*
%TO.N,RST_PROG*%
X153481207Y-43799521D03*
%TO.N,DTR*%
X145634952Y-66056808D03*
%TO.N,Reset*%
X152400000Y-63500000D03*
X160409444Y-65112559D03*
%TO.N,GND*%
X169600000Y-51900000D03*
X179200000Y-57200000D03*
X169600000Y-47200000D03*
X179200000Y-58500000D03*
%TO.N,+3V3*%
X163200000Y-83300000D03*
X172100000Y-82200000D03*
X171800000Y-64000000D03*
X175800000Y-72600000D03*
X169600000Y-50300000D03*
X179200000Y-56000000D03*
X160000000Y-90800000D03*
X184900000Y-73700000D03*
X179900000Y-81700000D03*
X159494500Y-71500000D03*
X160100000Y-92100000D03*
X150400000Y-72600000D03*
X157600000Y-91500000D03*
X162800000Y-63000000D03*
X165000000Y-100000000D03*
%TO.N,+5V*%
X168000000Y-96000000D03*
%TO.N,SCK*%
X168200000Y-53526000D03*
%TO.N,MISO*%
X165000000Y-54275500D03*
%TO.N,MOSI*%
X164000000Y-55000000D03*
%TO.N,Button_Up*%
X160300000Y-46420000D03*
X161100000Y-60600000D03*
%TO.N,Button_Down*%
X159500000Y-48100000D03*
X159230000Y-79290000D03*
%TO.N,TX*%
X157300000Y-80600000D03*
X158000000Y-41800000D03*
%TO.N,RX*%
X156000000Y-42600000D03*
X155400000Y-80800000D03*
%TD*%
D22*
%TO.N,Reset*%
X173064941Y-65112559D02*
X160409444Y-65112559D01*
X176037500Y-62140000D02*
X173064941Y-65112559D01*
%TO.N,MOSI*%
X165000000Y-56000000D02*
X164000000Y-55000000D01*
X176037500Y-59600000D02*
X172437500Y-56000000D01*
X172437500Y-56000000D02*
X165000000Y-56000000D01*
%TO.N,MISO*%
X165724500Y-55000000D02*
X165000000Y-54275500D01*
X173977500Y-55000000D02*
X165724500Y-55000000D01*
X176037500Y-57060000D02*
X173977500Y-55000000D01*
%TO.N,SCK*%
X168314785Y-53640785D02*
X168200000Y-53526000D01*
X175158285Y-53640785D02*
X168314785Y-53640785D01*
X176037500Y-54520000D02*
X175158285Y-53640785D01*
%TO.N,USB_Conn_D-*%
X159600000Y-94500000D02*
X160400000Y-93700000D01*
X159600000Y-94510000D02*
X159600000Y-94500000D01*
X159600000Y-100600000D02*
X159600000Y-94510000D01*
X158400000Y-101800000D02*
X159600000Y-100600000D01*
D23*
%TO.N,GND*%
X171300000Y-98525000D02*
X171375000Y-98600000D01*
X171300000Y-97200000D02*
X171300000Y-98525000D01*
D24*
%TO.N,+5V*%
X172100000Y-96000000D02*
X168000000Y-96000000D01*
X172625000Y-98600000D02*
X172625000Y-96525000D01*
X172625000Y-96525000D02*
X172100000Y-96000000D01*
D22*
%TO.N,Button_Down*%
X160600000Y-77920000D02*
X159230000Y-79290000D01*
X159684444Y-65412864D02*
X160600000Y-66328420D01*
X159684444Y-48615556D02*
X159684444Y-65412864D01*
X160600000Y-66328420D02*
X160600000Y-77920000D01*
X159500000Y-48100000D02*
X159850000Y-48450000D01*
X159850000Y-48450000D02*
X159684444Y-48615556D01*
%TO.N,Button_Up*%
X161100000Y-60600000D02*
X160300000Y-59800000D01*
X160300000Y-59800000D02*
X160300000Y-46420000D01*
%TO.N,RST_PROG*%
X147320000Y-49960728D02*
X153481207Y-43799521D01*
X147320000Y-58420000D02*
X147320000Y-49960728D01*
%TO.N,DTR*%
X145570000Y-65991856D02*
X145570000Y-60720000D01*
X145634952Y-66056808D02*
X145570000Y-65991856D01*
%TO.N,Reset*%
X152400000Y-63500000D02*
X149620000Y-60720000D01*
X149620000Y-60720000D02*
X149070000Y-60720000D01*
D23*
%TO.N,SCK*%
X168200000Y-53526000D02*
X168274000Y-53600000D01*
D22*
%TO.N,TX*%
X157300000Y-42500000D02*
X158000000Y-41800000D01*
X157300000Y-80600000D02*
X157300000Y-42500000D01*
%TO.N,RX*%
X156000000Y-42600000D02*
X155400000Y-43200000D01*
X155400000Y-43200000D02*
X155400000Y-80800000D01*
%TD*%
M02*
