%TF.GenerationSoftware,KiCad,Pcbnew,7.0.1*%
%TF.CreationDate,2023-06-17T09:34:49+02:00*%
%TF.ProjectId,Had_Konzole,4861645f-4b6f-46e7-9a6f-6c652e6b6963,rev?*%
%TF.SameCoordinates,Original*%
%TF.FileFunction,Paste,Top*%
%TF.FilePolarity,Positive*%
%FSLAX46Y46*%
G04 Gerber Fmt 4.6, Leading zero omitted, Abs format (unit mm)*
G04 Created by KiCad (PCBNEW 7.0.1) date 2023-06-17 09:34:49*
%MOMM*%
%LPD*%
G01*
G04 APERTURE LIST*
G04 Aperture macros list*
%AMRoundRect*
0 Rectangle with rounded corners*
0 $1 Rounding radius*
0 $2 $3 $4 $5 $6 $7 $8 $9 X,Y pos of 4 corners*
0 Add a 4 corners polygon primitive as box body*
4,1,4,$2,$3,$4,$5,$6,$7,$8,$9,$2,$3,0*
0 Add four circle primitives for the rounded corners*
1,1,$1+$1,$2,$3*
1,1,$1+$1,$4,$5*
1,1,$1+$1,$6,$7*
1,1,$1+$1,$8,$9*
0 Add four rect primitives between the rounded corners*
20,1,$1+$1,$2,$3,$4,$5,0*
20,1,$1+$1,$4,$5,$6,$7,0*
20,1,$1+$1,$6,$7,$8,$9,0*
20,1,$1+$1,$8,$9,$2,$3,0*%
G04 Aperture macros list end*
%ADD10RoundRect,0.225000X-0.250000X0.225000X-0.250000X-0.225000X0.250000X-0.225000X0.250000X0.225000X0*%
%ADD11RoundRect,0.200000X-0.275000X0.200000X-0.275000X-0.200000X0.275000X-0.200000X0.275000X0.200000X0*%
%ADD12RoundRect,0.225000X0.250000X-0.225000X0.250000X0.225000X-0.250000X0.225000X-0.250000X-0.225000X0*%
%ADD13RoundRect,0.200000X0.275000X-0.200000X0.275000X0.200000X-0.275000X0.200000X-0.275000X-0.200000X0*%
%ADD14R,1.600000X0.550000*%
%ADD15R,0.550000X1.600000*%
%ADD16RoundRect,0.200000X0.600000X-0.200000X0.600000X0.200000X-0.600000X0.200000X-0.600000X-0.200000X0*%
%ADD17RoundRect,0.250001X1.249999X-0.799999X1.249999X0.799999X-1.249999X0.799999X-1.249999X-0.799999X0*%
%ADD18RoundRect,0.225000X0.225000X0.250000X-0.225000X0.250000X-0.225000X-0.250000X0.225000X-0.250000X0*%
%ADD19R,2.750000X1.000000*%
%ADD20RoundRect,0.200000X-0.200000X-0.275000X0.200000X-0.275000X0.200000X0.275000X-0.200000X0.275000X0*%
%ADD21R,1.400000X1.200000*%
%ADD22R,1.200000X0.400000*%
%ADD23RoundRect,0.200000X0.200000X0.275000X-0.200000X0.275000X-0.200000X-0.275000X0.200000X-0.275000X0*%
%ADD24RoundRect,0.218750X0.256250X-0.218750X0.256250X0.218750X-0.256250X0.218750X-0.256250X-0.218750X0*%
%ADD25R,1.500000X1.100000*%
%ADD26RoundRect,0.150000X-0.512500X-0.150000X0.512500X-0.150000X0.512500X0.150000X-0.512500X0.150000X0*%
%ADD27R,0.600000X1.150000*%
%ADD28R,0.300000X1.150000*%
G04 APERTURE END LIST*
D10*
%TO.C,C1*%
X164000000Y-92225000D03*
X164000000Y-93775000D03*
%TD*%
%TO.C,C5*%
X168500000Y-50325000D03*
X168500000Y-51875000D03*
%TD*%
D11*
%TO.C,R1*%
X178440000Y-84285000D03*
X178440000Y-85935000D03*
%TD*%
D12*
%TO.C,C4*%
X155000000Y-47775000D03*
X155000000Y-46225000D03*
%TD*%
D10*
%TO.C,C2*%
X174000000Y-92225000D03*
X174000000Y-93775000D03*
%TD*%
D13*
%TO.C,R4*%
X161120000Y-58965000D03*
X161120000Y-57315000D03*
%TD*%
%TO.C,R7*%
X161390000Y-79285000D03*
X161390000Y-77635000D03*
%TD*%
D14*
%TO.C,U1*%
X157150000Y-45450000D03*
X157150000Y-46250000D03*
X157150000Y-47050000D03*
X157150000Y-47850000D03*
X157150000Y-48650000D03*
X157150000Y-49450000D03*
X157150000Y-50250000D03*
X157150000Y-51050000D03*
D15*
X158600000Y-52500000D03*
X159400000Y-52500000D03*
X160200000Y-52500000D03*
X161000000Y-52500000D03*
X161800000Y-52500000D03*
X162600000Y-52500000D03*
X163400000Y-52500000D03*
X164200000Y-52500000D03*
D14*
X165650000Y-51050000D03*
X165650000Y-50250000D03*
X165650000Y-49450000D03*
X165650000Y-48650000D03*
X165650000Y-47850000D03*
X165650000Y-47050000D03*
X165650000Y-46250000D03*
X165650000Y-45450000D03*
D15*
X164200000Y-44000000D03*
X163400000Y-44000000D03*
X162600000Y-44000000D03*
X161800000Y-44000000D03*
X161000000Y-44000000D03*
X160200000Y-44000000D03*
X159400000Y-44000000D03*
X158600000Y-44000000D03*
%TD*%
D13*
%TO.C,R9*%
X162170000Y-93795000D03*
X162170000Y-92145000D03*
%TD*%
%TO.C,R8*%
X151190000Y-93815000D03*
X151190000Y-92165000D03*
%TD*%
D16*
%TO.C,J3*%
X180640000Y-58450000D03*
X180640000Y-57200000D03*
X180640000Y-55950000D03*
X180640000Y-54700000D03*
X180640000Y-53450000D03*
X180640000Y-52200000D03*
X180640000Y-50950000D03*
X180640000Y-49700000D03*
D17*
X183540000Y-61000000D03*
X183540000Y-47150000D03*
%TD*%
D18*
%TO.C,C7*%
X148775000Y-53000000D03*
X147225000Y-53000000D03*
%TD*%
D19*
%TO.C,SW3*%
X152400000Y-72580000D03*
X158150000Y-72580000D03*
X152400000Y-68580000D03*
X158150000Y-68580000D03*
%TD*%
D10*
%TO.C,C8*%
X151210000Y-88905000D03*
X151210000Y-90455000D03*
%TD*%
D13*
%TO.C,R5*%
X148710000Y-68595000D03*
X148710000Y-66945000D03*
%TD*%
D20*
%TO.C,R2*%
X153175000Y-41000000D03*
X154825000Y-41000000D03*
%TD*%
D19*
%TO.C,SW2*%
X165100000Y-83280000D03*
X170850000Y-83280000D03*
X165100000Y-79280000D03*
X170850000Y-79280000D03*
%TD*%
D21*
%TO.C,Y1*%
X149100000Y-49150000D03*
X146900000Y-49150000D03*
X146900000Y-50850000D03*
X149100000Y-50850000D03*
%TD*%
D19*
%TO.C,SW4*%
X177800000Y-72580000D03*
X183550000Y-72580000D03*
X177800000Y-68580000D03*
X183550000Y-68580000D03*
%TD*%
D12*
%TO.C,C10*%
X168500000Y-48775000D03*
X168500000Y-47225000D03*
%TD*%
D22*
%TO.C,U2*%
X153620000Y-87632500D03*
X153620000Y-88267500D03*
X153620000Y-88902500D03*
X153620000Y-89537500D03*
X153620000Y-90172500D03*
X153620000Y-90807500D03*
X153620000Y-91442500D03*
X153620000Y-92077500D03*
X153620000Y-92712500D03*
X153620000Y-93347500D03*
X158820000Y-93347500D03*
X158820000Y-92712500D03*
X158820000Y-92077500D03*
X158820000Y-91442500D03*
X158820000Y-90807500D03*
X158820000Y-90172500D03*
X158820000Y-89537500D03*
X158820000Y-88902500D03*
X158820000Y-88267500D03*
X158820000Y-87632500D03*
%TD*%
D12*
%TO.C,C3*%
X153000000Y-47775000D03*
X153000000Y-46225000D03*
%TD*%
D19*
%TO.C,SW1*%
X164765000Y-62960000D03*
X170515000Y-62960000D03*
X164765000Y-58960000D03*
X170515000Y-58960000D03*
%TD*%
D23*
%TO.C,R3*%
X152825000Y-53000000D03*
X151175000Y-53000000D03*
%TD*%
D13*
%TO.C,R6*%
X174080000Y-68575000D03*
X174080000Y-66925000D03*
%TD*%
D24*
%TO.C,F1*%
X166000000Y-93787500D03*
X166000000Y-92212500D03*
%TD*%
D25*
%TO.C,SW5*%
X176461529Y-100074147D03*
X167561529Y-100074147D03*
%TD*%
D26*
%TO.C,U4*%
X168862500Y-92050000D03*
X168862500Y-93000000D03*
X168862500Y-93950000D03*
X171137500Y-93950000D03*
X171137500Y-92050000D03*
%TD*%
D27*
%TO.C,J4*%
X155900000Y-100000000D03*
X160700000Y-100000000D03*
D28*
X159550000Y-100000000D03*
X156550000Y-100000000D03*
X158050000Y-100000000D03*
X159050000Y-100000000D03*
X158550000Y-100000000D03*
X157550000Y-100000000D03*
X157050000Y-100000000D03*
X160050000Y-100000000D03*
D27*
X155100000Y-100000000D03*
X161500000Y-100000000D03*
%TD*%
D18*
%TO.C,C6*%
X148775000Y-47000000D03*
X147225000Y-47000000D03*
%TD*%
M02*
