%TF.GenerationSoftware,KiCad,Pcbnew,7.0.1*%
%TF.CreationDate,2023-06-17T09:34:49+02:00*%
%TF.ProjectId,Had_Konzole,4861645f-4b6f-46e7-9a6f-6c652e6b6963,rev?*%
%TF.SameCoordinates,Original*%
%TF.FileFunction,Soldermask,Bot*%
%TF.FilePolarity,Negative*%
%FSLAX46Y46*%
G04 Gerber Fmt 4.6, Leading zero omitted, Abs format (unit mm)*
G04 Created by KiCad (PCBNEW 7.0.1) date 2023-06-17 09:34:49*
%MOMM*%
%LPD*%
G01*
G04 APERTURE LIST*
G04 Aperture macros list*
%AMRoundRect*
0 Rectangle with rounded corners*
0 $1 Rounding radius*
0 $2 $3 $4 $5 $6 $7 $8 $9 X,Y pos of 4 corners*
0 Add a 4 corners polygon primitive as box body*
4,1,4,$2,$3,$4,$5,$6,$7,$8,$9,$2,$3,0*
0 Add four circle primitives for the rounded corners*
1,1,$1+$1,$2,$3*
1,1,$1+$1,$4,$5*
1,1,$1+$1,$6,$7*
1,1,$1+$1,$8,$9*
0 Add four rect primitives between the rounded corners*
20,1,$1+$1,$2,$3,$4,$5,0*
20,1,$1+$1,$4,$5,$6,$7,0*
20,1,$1+$1,$6,$7,$8,$9,0*
20,1,$1+$1,$8,$9,$2,$3,0*%
G04 Aperture macros list end*
%ADD10C,0.010000*%
%ADD11R,1.000000X1.600000*%
%ADD12C,6.400000*%
%ADD13R,1.800000X1.800000*%
%ADD14C,1.800000*%
%ADD15O,1.000000X1.800000*%
%ADD16R,1.650000X1.650000*%
%ADD17C,1.650000*%
%ADD18RoundRect,0.200000X0.200000X0.600000X-0.200000X0.600000X-0.200000X-0.600000X0.200000X-0.600000X0*%
%ADD19RoundRect,0.250001X0.799999X1.249999X-0.799999X1.249999X-0.799999X-1.249999X0.799999X-1.249999X0*%
G04 APERTURE END LIST*
%TO.C,J4*%
D10*
X154010000Y-103400000D02*
X154040000Y-103402000D01*
X154070000Y-103406000D01*
X154100000Y-103411000D01*
X154129000Y-103418000D01*
X154158000Y-103427000D01*
X154186000Y-103437000D01*
X154214000Y-103449000D01*
X154242000Y-103462000D01*
X154268000Y-103476000D01*
X154294000Y-103492000D01*
X154319000Y-103509000D01*
X154343000Y-103527000D01*
X154366000Y-103547000D01*
X154387000Y-103568000D01*
X154408000Y-103589000D01*
X154428000Y-103612000D01*
X154446000Y-103636000D01*
X154463000Y-103661000D01*
X154479000Y-103687000D01*
X154493000Y-103713000D01*
X154506000Y-103741000D01*
X154518000Y-103769000D01*
X154528000Y-103797000D01*
X154537000Y-103826000D01*
X154544000Y-103855000D01*
X154549000Y-103885000D01*
X154553000Y-103915000D01*
X154555000Y-103945000D01*
X154556000Y-103975000D01*
X154556000Y-105175000D01*
X154555000Y-105205000D01*
X154553000Y-105235000D01*
X154549000Y-105265000D01*
X154544000Y-105295000D01*
X154537000Y-105324000D01*
X154528000Y-105353000D01*
X154518000Y-105381000D01*
X154506000Y-105409000D01*
X154493000Y-105437000D01*
X154479000Y-105463000D01*
X154463000Y-105489000D01*
X154446000Y-105514000D01*
X154428000Y-105538000D01*
X154408000Y-105561000D01*
X154387000Y-105582000D01*
X154366000Y-105603000D01*
X154343000Y-105623000D01*
X154319000Y-105641000D01*
X154294000Y-105658000D01*
X154268000Y-105674000D01*
X154242000Y-105688000D01*
X154214000Y-105701000D01*
X154186000Y-105713000D01*
X154158000Y-105723000D01*
X154129000Y-105732000D01*
X154100000Y-105739000D01*
X154070000Y-105744000D01*
X154040000Y-105748000D01*
X154010000Y-105750000D01*
X153980000Y-105751000D01*
X153950000Y-105750000D01*
X153920000Y-105748000D01*
X153890000Y-105744000D01*
X153860000Y-105739000D01*
X153831000Y-105732000D01*
X153802000Y-105723000D01*
X153774000Y-105713000D01*
X153746000Y-105701000D01*
X153718000Y-105688000D01*
X153692000Y-105674000D01*
X153666000Y-105658000D01*
X153641000Y-105641000D01*
X153617000Y-105623000D01*
X153594000Y-105603000D01*
X153573000Y-105582000D01*
X153552000Y-105561000D01*
X153532000Y-105538000D01*
X153514000Y-105514000D01*
X153497000Y-105489000D01*
X153481000Y-105463000D01*
X153467000Y-105437000D01*
X153454000Y-105409000D01*
X153442000Y-105381000D01*
X153432000Y-105353000D01*
X153423000Y-105324000D01*
X153416000Y-105295000D01*
X153411000Y-105265000D01*
X153407000Y-105235000D01*
X153405000Y-105205000D01*
X153404000Y-105175000D01*
X153403800Y-103975000D01*
X153404000Y-103975000D01*
X153405000Y-103945000D01*
X153407000Y-103915000D01*
X153411000Y-103885000D01*
X153416000Y-103855000D01*
X153423000Y-103826000D01*
X153432000Y-103797000D01*
X153442000Y-103769000D01*
X153454000Y-103741000D01*
X153467000Y-103713000D01*
X153481000Y-103687000D01*
X153497000Y-103661000D01*
X153514000Y-103636000D01*
X153532000Y-103612000D01*
X153552000Y-103589000D01*
X153573000Y-103568000D01*
X153594000Y-103547000D01*
X153617000Y-103527000D01*
X153641000Y-103509000D01*
X153666000Y-103492000D01*
X153692000Y-103476000D01*
X153718000Y-103462000D01*
X153746000Y-103449000D01*
X153774000Y-103437000D01*
X153802000Y-103427000D01*
X153831000Y-103418000D01*
X153860000Y-103411000D01*
X153890000Y-103406000D01*
X153920000Y-103402000D01*
X153950000Y-103400000D01*
X153980000Y-103399000D01*
X154010000Y-103400000D01*
G36*
X154010000Y-103400000D02*
G01*
X154040000Y-103402000D01*
X154070000Y-103406000D01*
X154100000Y-103411000D01*
X154129000Y-103418000D01*
X154158000Y-103427000D01*
X154186000Y-103437000D01*
X154214000Y-103449000D01*
X154242000Y-103462000D01*
X154268000Y-103476000D01*
X154294000Y-103492000D01*
X154319000Y-103509000D01*
X154343000Y-103527000D01*
X154366000Y-103547000D01*
X154387000Y-103568000D01*
X154408000Y-103589000D01*
X154428000Y-103612000D01*
X154446000Y-103636000D01*
X154463000Y-103661000D01*
X154479000Y-103687000D01*
X154493000Y-103713000D01*
X154506000Y-103741000D01*
X154518000Y-103769000D01*
X154528000Y-103797000D01*
X154537000Y-103826000D01*
X154544000Y-103855000D01*
X154549000Y-103885000D01*
X154553000Y-103915000D01*
X154555000Y-103945000D01*
X154556000Y-103975000D01*
X154556000Y-105175000D01*
X154555000Y-105205000D01*
X154553000Y-105235000D01*
X154549000Y-105265000D01*
X154544000Y-105295000D01*
X154537000Y-105324000D01*
X154528000Y-105353000D01*
X154518000Y-105381000D01*
X154506000Y-105409000D01*
X154493000Y-105437000D01*
X154479000Y-105463000D01*
X154463000Y-105489000D01*
X154446000Y-105514000D01*
X154428000Y-105538000D01*
X154408000Y-105561000D01*
X154387000Y-105582000D01*
X154366000Y-105603000D01*
X154343000Y-105623000D01*
X154319000Y-105641000D01*
X154294000Y-105658000D01*
X154268000Y-105674000D01*
X154242000Y-105688000D01*
X154214000Y-105701000D01*
X154186000Y-105713000D01*
X154158000Y-105723000D01*
X154129000Y-105732000D01*
X154100000Y-105739000D01*
X154070000Y-105744000D01*
X154040000Y-105748000D01*
X154010000Y-105750000D01*
X153980000Y-105751000D01*
X153950000Y-105750000D01*
X153920000Y-105748000D01*
X153890000Y-105744000D01*
X153860000Y-105739000D01*
X153831000Y-105732000D01*
X153802000Y-105723000D01*
X153774000Y-105713000D01*
X153746000Y-105701000D01*
X153718000Y-105688000D01*
X153692000Y-105674000D01*
X153666000Y-105658000D01*
X153641000Y-105641000D01*
X153617000Y-105623000D01*
X153594000Y-105603000D01*
X153573000Y-105582000D01*
X153552000Y-105561000D01*
X153532000Y-105538000D01*
X153514000Y-105514000D01*
X153497000Y-105489000D01*
X153481000Y-105463000D01*
X153467000Y-105437000D01*
X153454000Y-105409000D01*
X153442000Y-105381000D01*
X153432000Y-105353000D01*
X153423000Y-105324000D01*
X153416000Y-105295000D01*
X153411000Y-105265000D01*
X153407000Y-105235000D01*
X153405000Y-105205000D01*
X153404000Y-105175000D01*
X153403800Y-103975000D01*
X153404000Y-103975000D01*
X153405000Y-103945000D01*
X153407000Y-103915000D01*
X153411000Y-103885000D01*
X153416000Y-103855000D01*
X153423000Y-103826000D01*
X153432000Y-103797000D01*
X153442000Y-103769000D01*
X153454000Y-103741000D01*
X153467000Y-103713000D01*
X153481000Y-103687000D01*
X153497000Y-103661000D01*
X153514000Y-103636000D01*
X153532000Y-103612000D01*
X153552000Y-103589000D01*
X153573000Y-103568000D01*
X153594000Y-103547000D01*
X153617000Y-103527000D01*
X153641000Y-103509000D01*
X153666000Y-103492000D01*
X153692000Y-103476000D01*
X153718000Y-103462000D01*
X153746000Y-103449000D01*
X153774000Y-103437000D01*
X153802000Y-103427000D01*
X153831000Y-103418000D01*
X153860000Y-103411000D01*
X153890000Y-103406000D01*
X153920000Y-103402000D01*
X153950000Y-103400000D01*
X153980000Y-103399000D01*
X154010000Y-103400000D01*
G37*
X162650000Y-103400000D02*
X162680000Y-103402000D01*
X162710000Y-103406000D01*
X162740000Y-103411000D01*
X162769000Y-103418000D01*
X162798000Y-103427000D01*
X162826000Y-103437000D01*
X162854000Y-103449000D01*
X162882000Y-103462000D01*
X162908000Y-103476000D01*
X162934000Y-103492000D01*
X162959000Y-103509000D01*
X162983000Y-103527000D01*
X163006000Y-103547000D01*
X163027000Y-103568000D01*
X163048000Y-103589000D01*
X163068000Y-103612000D01*
X163086000Y-103636000D01*
X163103000Y-103661000D01*
X163119000Y-103687000D01*
X163133000Y-103713000D01*
X163146000Y-103741000D01*
X163158000Y-103769000D01*
X163168000Y-103797000D01*
X163177000Y-103826000D01*
X163184000Y-103855000D01*
X163189000Y-103885000D01*
X163193000Y-103915000D01*
X163195000Y-103945000D01*
X163196000Y-103975000D01*
X163196000Y-105175000D01*
X163195000Y-105205000D01*
X163193000Y-105235000D01*
X163189000Y-105265000D01*
X163184000Y-105295000D01*
X163177000Y-105324000D01*
X163168000Y-105353000D01*
X163158000Y-105381000D01*
X163146000Y-105409000D01*
X163133000Y-105437000D01*
X163119000Y-105463000D01*
X163103000Y-105489000D01*
X163086000Y-105514000D01*
X163068000Y-105538000D01*
X163048000Y-105561000D01*
X163027000Y-105582000D01*
X163006000Y-105603000D01*
X162983000Y-105623000D01*
X162959000Y-105641000D01*
X162934000Y-105658000D01*
X162908000Y-105674000D01*
X162882000Y-105688000D01*
X162854000Y-105701000D01*
X162826000Y-105713000D01*
X162798000Y-105723000D01*
X162769000Y-105732000D01*
X162740000Y-105739000D01*
X162710000Y-105744000D01*
X162680000Y-105748000D01*
X162650000Y-105750000D01*
X162620000Y-105751000D01*
X162590000Y-105750000D01*
X162560000Y-105748000D01*
X162530000Y-105744000D01*
X162500000Y-105739000D01*
X162471000Y-105732000D01*
X162442000Y-105723000D01*
X162414000Y-105713000D01*
X162386000Y-105701000D01*
X162358000Y-105688000D01*
X162332000Y-105674000D01*
X162306000Y-105658000D01*
X162281000Y-105641000D01*
X162257000Y-105623000D01*
X162234000Y-105603000D01*
X162213000Y-105582000D01*
X162192000Y-105561000D01*
X162172000Y-105538000D01*
X162154000Y-105514000D01*
X162137000Y-105489000D01*
X162121000Y-105463000D01*
X162107000Y-105437000D01*
X162094000Y-105409000D01*
X162082000Y-105381000D01*
X162072000Y-105353000D01*
X162063000Y-105324000D01*
X162056000Y-105295000D01*
X162051000Y-105265000D01*
X162047000Y-105235000D01*
X162045000Y-105205000D01*
X162044000Y-105175000D01*
X162043800Y-103975000D01*
X162044000Y-103975000D01*
X162045000Y-103945000D01*
X162047000Y-103915000D01*
X162051000Y-103885000D01*
X162056000Y-103855000D01*
X162063000Y-103826000D01*
X162072000Y-103797000D01*
X162082000Y-103769000D01*
X162094000Y-103741000D01*
X162107000Y-103713000D01*
X162121000Y-103687000D01*
X162137000Y-103661000D01*
X162154000Y-103636000D01*
X162172000Y-103612000D01*
X162192000Y-103589000D01*
X162213000Y-103568000D01*
X162234000Y-103547000D01*
X162257000Y-103527000D01*
X162281000Y-103509000D01*
X162306000Y-103492000D01*
X162332000Y-103476000D01*
X162358000Y-103462000D01*
X162386000Y-103449000D01*
X162414000Y-103437000D01*
X162442000Y-103427000D01*
X162471000Y-103418000D01*
X162500000Y-103411000D01*
X162530000Y-103406000D01*
X162560000Y-103402000D01*
X162590000Y-103400000D01*
X162620000Y-103399000D01*
X162650000Y-103400000D01*
G36*
X162650000Y-103400000D02*
G01*
X162680000Y-103402000D01*
X162710000Y-103406000D01*
X162740000Y-103411000D01*
X162769000Y-103418000D01*
X162798000Y-103427000D01*
X162826000Y-103437000D01*
X162854000Y-103449000D01*
X162882000Y-103462000D01*
X162908000Y-103476000D01*
X162934000Y-103492000D01*
X162959000Y-103509000D01*
X162983000Y-103527000D01*
X163006000Y-103547000D01*
X163027000Y-103568000D01*
X163048000Y-103589000D01*
X163068000Y-103612000D01*
X163086000Y-103636000D01*
X163103000Y-103661000D01*
X163119000Y-103687000D01*
X163133000Y-103713000D01*
X163146000Y-103741000D01*
X163158000Y-103769000D01*
X163168000Y-103797000D01*
X163177000Y-103826000D01*
X163184000Y-103855000D01*
X163189000Y-103885000D01*
X163193000Y-103915000D01*
X163195000Y-103945000D01*
X163196000Y-103975000D01*
X163196000Y-105175000D01*
X163195000Y-105205000D01*
X163193000Y-105235000D01*
X163189000Y-105265000D01*
X163184000Y-105295000D01*
X163177000Y-105324000D01*
X163168000Y-105353000D01*
X163158000Y-105381000D01*
X163146000Y-105409000D01*
X163133000Y-105437000D01*
X163119000Y-105463000D01*
X163103000Y-105489000D01*
X163086000Y-105514000D01*
X163068000Y-105538000D01*
X163048000Y-105561000D01*
X163027000Y-105582000D01*
X163006000Y-105603000D01*
X162983000Y-105623000D01*
X162959000Y-105641000D01*
X162934000Y-105658000D01*
X162908000Y-105674000D01*
X162882000Y-105688000D01*
X162854000Y-105701000D01*
X162826000Y-105713000D01*
X162798000Y-105723000D01*
X162769000Y-105732000D01*
X162740000Y-105739000D01*
X162710000Y-105744000D01*
X162680000Y-105748000D01*
X162650000Y-105750000D01*
X162620000Y-105751000D01*
X162590000Y-105750000D01*
X162560000Y-105748000D01*
X162530000Y-105744000D01*
X162500000Y-105739000D01*
X162471000Y-105732000D01*
X162442000Y-105723000D01*
X162414000Y-105713000D01*
X162386000Y-105701000D01*
X162358000Y-105688000D01*
X162332000Y-105674000D01*
X162306000Y-105658000D01*
X162281000Y-105641000D01*
X162257000Y-105623000D01*
X162234000Y-105603000D01*
X162213000Y-105582000D01*
X162192000Y-105561000D01*
X162172000Y-105538000D01*
X162154000Y-105514000D01*
X162137000Y-105489000D01*
X162121000Y-105463000D01*
X162107000Y-105437000D01*
X162094000Y-105409000D01*
X162082000Y-105381000D01*
X162072000Y-105353000D01*
X162063000Y-105324000D01*
X162056000Y-105295000D01*
X162051000Y-105265000D01*
X162047000Y-105235000D01*
X162045000Y-105205000D01*
X162044000Y-105175000D01*
X162043800Y-103975000D01*
X162044000Y-103975000D01*
X162045000Y-103945000D01*
X162047000Y-103915000D01*
X162051000Y-103885000D01*
X162056000Y-103855000D01*
X162063000Y-103826000D01*
X162072000Y-103797000D01*
X162082000Y-103769000D01*
X162094000Y-103741000D01*
X162107000Y-103713000D01*
X162121000Y-103687000D01*
X162137000Y-103661000D01*
X162154000Y-103636000D01*
X162172000Y-103612000D01*
X162192000Y-103589000D01*
X162213000Y-103568000D01*
X162234000Y-103547000D01*
X162257000Y-103527000D01*
X162281000Y-103509000D01*
X162306000Y-103492000D01*
X162332000Y-103476000D01*
X162358000Y-103462000D01*
X162386000Y-103449000D01*
X162414000Y-103437000D01*
X162442000Y-103427000D01*
X162471000Y-103418000D01*
X162500000Y-103411000D01*
X162530000Y-103406000D01*
X162560000Y-103402000D01*
X162590000Y-103400000D01*
X162620000Y-103399000D01*
X162650000Y-103400000D01*
G37*
%TD*%
D11*
%TO.C,SW6*%
X149070000Y-60720000D03*
X147320000Y-58420000D03*
X145570000Y-60720000D03*
%TD*%
D12*
%TO.C,H1*%
X145000000Y-41000000D03*
%TD*%
%TO.C,H3*%
X145000000Y-102000000D03*
%TD*%
D13*
%TO.C,D1*%
X181725000Y-84275000D03*
D14*
X181725000Y-81735000D03*
%TD*%
D12*
%TO.C,H2*%
X188000000Y-41000000D03*
%TD*%
%TO.C,H4*%
X188000000Y-102000000D03*
%TD*%
D15*
%TO.C,J4*%
X153980000Y-100575000D03*
X162620000Y-100575000D03*
%TD*%
D16*
%TO.C,J2*%
X176037500Y-62140000D03*
D17*
X176037500Y-59600000D03*
X176037500Y-57060000D03*
X176037500Y-54520000D03*
%TD*%
D18*
%TO.C,J1*%
X172625000Y-98600000D03*
X171375000Y-98600000D03*
D19*
X175175000Y-101500000D03*
X168825000Y-101500000D03*
%TD*%
M02*
