M48
; DRILL file {KiCad 7.0.1} date Sat Jun 17 09:34:36 2023
; FORMAT={-:-/ absolute / inch / decimal}
; #@! TF.CreationDate,2023-06-17T09:34:36+02:00
; #@! TF.GenerationSoftware,Kicad,Pcbnew,7.0.1
; #@! TF.FileFunction,Plated,1,4,PTH
FMAT,2
INCH
; #@! TA.AperFunction,Plated,PTH,ViaDrill
T1C0.0157
; #@! TA.AperFunction,Plated,PTH,ComponentDrill
T2C0.0236
; #@! TA.AperFunction,Plated,PTH,ComponentDrill
T3C0.0354
; #@! TA.AperFunction,Plated,PTH,ComponentDrill
T4C0.0433
; #@! TA.AperFunction,Plated,PTH,ComponentDrill
T5C0.1260
%
G90
G05
T1
X5.7337Y-2.6007
X5.752Y-2.0866
X5.7953Y-1.8071
X5.8543Y-2.5945
X5.9094Y-3.5
X5.9094Y-3.6299
X5.9213Y-2.8583
X5.9803Y-1.8819
X5.9882Y-1.6142
X6.0Y-2.5
X6.0426Y-1.7244
X6.063Y-1.7874
X6.0866Y-1.9213
X6.0906Y-3.8898
X6.0945Y-3.5748
X6.1181Y-3.1811
X6.1417Y-1.6772
X6.1929Y-3.1732
X6.2047Y-3.5472
X6.2047Y-3.6024
X6.2205Y-1.6457
X6.2362Y-4.0079
X6.2402Y-1.9488
X6.2689Y-3.1217
X6.2793Y-2.815
X6.2795Y-1.8937
X6.2992Y-3.5748
X6.3031Y-3.626
X6.311Y-1.8276
X6.315Y-3.689
X6.3153Y-2.5635
X6.3425Y-2.3858
X6.3465Y-2.2165
X6.3543Y-3.0157
X6.3661Y-3.8898
X6.3858Y-3.5866
X6.4094Y-2.4803
X6.4252Y-3.2795
X6.4567Y-2.1654
X6.4567Y-3.7323
X6.4646Y-1.9803
X6.4961Y-2.1368
X6.4961Y-3.937
X6.5984Y-3.6693
X6.6142Y-3.7795
X6.622Y-2.1073
X6.6772Y-1.8583
X6.6772Y-1.9803
X6.6772Y-2.0433
X6.7441Y-3.8268
X6.7638Y-2.5197
X6.7756Y-3.2362
X6.811Y-2.6339
X6.8504Y-3.7323
X6.9213Y-2.8583
X6.9803Y-3.3858
X7.0551Y-2.2047
X7.0551Y-2.252
X7.0551Y-2.3031
X7.0827Y-3.2165
X7.2795Y-2.9016
T2
X6.0622Y-4.1171
X6.4024Y-4.1171
T3
X7.1545Y-3.2179
X7.1545Y-3.3179
T4
X6.9306Y-2.1465
X6.9306Y-2.2465
X6.9306Y-2.3465
X6.9306Y-2.4465
T5
X5.7087Y-1.6142
X5.7087Y-4.0157
X7.4016Y-1.6142
X7.4016Y-4.0157
T2
G00X6.0622Y-3.9439
M15
G01X6.0622Y-3.9754
M16
G05
G00X6.4024Y-3.9439
M15
G01X6.4024Y-3.9754
M16
G05
T0
M30
