%TF.GenerationSoftware,KiCad,Pcbnew,7.0.1*%
%TF.CreationDate,2023-06-17T09:34:49+02:00*%
%TF.ProjectId,Had_Konzole,4861645f-4b6f-46e7-9a6f-6c652e6b6963,rev?*%
%TF.SameCoordinates,Original*%
%TF.FileFunction,Legend,Top*%
%TF.FilePolarity,Positive*%
%FSLAX46Y46*%
G04 Gerber Fmt 4.6, Leading zero omitted, Abs format (unit mm)*
G04 Created by KiCad (PCBNEW 7.0.1) date 2023-06-17 09:34:49*
%MOMM*%
%LPD*%
G01*
G04 APERTURE LIST*
%ADD10C,0.150000*%
%ADD11C,0.120000*%
%ADD12C,0.200000*%
%ADD13C,0.100000*%
%ADD14C,0.127000*%
G04 APERTURE END LIST*
D10*
X179677619Y-102761904D02*
X178677619Y-102761904D01*
X178677619Y-102761904D02*
X178677619Y-102380952D01*
X178677619Y-102380952D02*
X178725238Y-102285714D01*
X178725238Y-102285714D02*
X178772857Y-102238095D01*
X178772857Y-102238095D02*
X178868095Y-102190476D01*
X178868095Y-102190476D02*
X179010952Y-102190476D01*
X179010952Y-102190476D02*
X179106190Y-102238095D01*
X179106190Y-102238095D02*
X179153809Y-102285714D01*
X179153809Y-102285714D02*
X179201428Y-102380952D01*
X179201428Y-102380952D02*
X179201428Y-102761904D01*
X179677619Y-101619047D02*
X179630000Y-101714285D01*
X179630000Y-101714285D02*
X179582380Y-101761904D01*
X179582380Y-101761904D02*
X179487142Y-101809523D01*
X179487142Y-101809523D02*
X179201428Y-101809523D01*
X179201428Y-101809523D02*
X179106190Y-101761904D01*
X179106190Y-101761904D02*
X179058571Y-101714285D01*
X179058571Y-101714285D02*
X179010952Y-101619047D01*
X179010952Y-101619047D02*
X179010952Y-101476190D01*
X179010952Y-101476190D02*
X179058571Y-101380952D01*
X179058571Y-101380952D02*
X179106190Y-101333333D01*
X179106190Y-101333333D02*
X179201428Y-101285714D01*
X179201428Y-101285714D02*
X179487142Y-101285714D01*
X179487142Y-101285714D02*
X179582380Y-101333333D01*
X179582380Y-101333333D02*
X179630000Y-101380952D01*
X179630000Y-101380952D02*
X179677619Y-101476190D01*
X179677619Y-101476190D02*
X179677619Y-101619047D01*
X179010952Y-100952380D02*
X179677619Y-100761904D01*
X179677619Y-100761904D02*
X179201428Y-100571428D01*
X179201428Y-100571428D02*
X179677619Y-100380952D01*
X179677619Y-100380952D02*
X179010952Y-100190476D01*
X179630000Y-99428571D02*
X179677619Y-99523809D01*
X179677619Y-99523809D02*
X179677619Y-99714285D01*
X179677619Y-99714285D02*
X179630000Y-99809523D01*
X179630000Y-99809523D02*
X179534761Y-99857142D01*
X179534761Y-99857142D02*
X179153809Y-99857142D01*
X179153809Y-99857142D02*
X179058571Y-99809523D01*
X179058571Y-99809523D02*
X179010952Y-99714285D01*
X179010952Y-99714285D02*
X179010952Y-99523809D01*
X179010952Y-99523809D02*
X179058571Y-99428571D01*
X179058571Y-99428571D02*
X179153809Y-99380952D01*
X179153809Y-99380952D02*
X179249047Y-99380952D01*
X179249047Y-99380952D02*
X179344285Y-99857142D01*
X179677619Y-98952380D02*
X179010952Y-98952380D01*
X179201428Y-98952380D02*
X179106190Y-98904761D01*
X179106190Y-98904761D02*
X179058571Y-98857142D01*
X179058571Y-98857142D02*
X179010952Y-98761904D01*
X179010952Y-98761904D02*
X179010952Y-98666666D01*
X179772857Y-98571428D02*
X179772857Y-97809523D01*
X179630000Y-97619046D02*
X179677619Y-97523808D01*
X179677619Y-97523808D02*
X179677619Y-97333332D01*
X179677619Y-97333332D02*
X179630000Y-97238094D01*
X179630000Y-97238094D02*
X179534761Y-97190475D01*
X179534761Y-97190475D02*
X179487142Y-97190475D01*
X179487142Y-97190475D02*
X179391904Y-97238094D01*
X179391904Y-97238094D02*
X179344285Y-97333332D01*
X179344285Y-97333332D02*
X179344285Y-97476189D01*
X179344285Y-97476189D02*
X179296666Y-97571427D01*
X179296666Y-97571427D02*
X179201428Y-97619046D01*
X179201428Y-97619046D02*
X179153809Y-97619046D01*
X179153809Y-97619046D02*
X179058571Y-97571427D01*
X179058571Y-97571427D02*
X179010952Y-97476189D01*
X179010952Y-97476189D02*
X179010952Y-97333332D01*
X179010952Y-97333332D02*
X179058571Y-97238094D01*
X179010952Y-96857141D02*
X179677619Y-96666665D01*
X179677619Y-96666665D02*
X179201428Y-96476189D01*
X179201428Y-96476189D02*
X179677619Y-96285713D01*
X179677619Y-96285713D02*
X179010952Y-96095237D01*
X179677619Y-95714284D02*
X179010952Y-95714284D01*
X178677619Y-95714284D02*
X178725238Y-95761903D01*
X178725238Y-95761903D02*
X178772857Y-95714284D01*
X178772857Y-95714284D02*
X178725238Y-95666665D01*
X178725238Y-95666665D02*
X178677619Y-95714284D01*
X178677619Y-95714284D02*
X178772857Y-95714284D01*
X179010952Y-95380951D02*
X179010952Y-94999999D01*
X178677619Y-95238094D02*
X179534761Y-95238094D01*
X179534761Y-95238094D02*
X179630000Y-95190475D01*
X179630000Y-95190475D02*
X179677619Y-95095237D01*
X179677619Y-95095237D02*
X179677619Y-94999999D01*
X179630000Y-94238094D02*
X179677619Y-94333332D01*
X179677619Y-94333332D02*
X179677619Y-94523808D01*
X179677619Y-94523808D02*
X179630000Y-94619046D01*
X179630000Y-94619046D02*
X179582380Y-94666665D01*
X179582380Y-94666665D02*
X179487142Y-94714284D01*
X179487142Y-94714284D02*
X179201428Y-94714284D01*
X179201428Y-94714284D02*
X179106190Y-94666665D01*
X179106190Y-94666665D02*
X179058571Y-94619046D01*
X179058571Y-94619046D02*
X179010952Y-94523808D01*
X179010952Y-94523808D02*
X179010952Y-94333332D01*
X179010952Y-94333332D02*
X179058571Y-94238094D01*
X179677619Y-93809522D02*
X178677619Y-93809522D01*
X179677619Y-93380951D02*
X179153809Y-93380951D01*
X179153809Y-93380951D02*
X179058571Y-93428570D01*
X179058571Y-93428570D02*
X179010952Y-93523808D01*
X179010952Y-93523808D02*
X179010952Y-93666665D01*
X179010952Y-93666665D02*
X179058571Y-93761903D01*
X179058571Y-93761903D02*
X179106190Y-93809522D01*
X168142857Y-89777619D02*
X168761904Y-89777619D01*
X168761904Y-89777619D02*
X168428571Y-90158571D01*
X168428571Y-90158571D02*
X168571428Y-90158571D01*
X168571428Y-90158571D02*
X168666666Y-90206190D01*
X168666666Y-90206190D02*
X168714285Y-90253809D01*
X168714285Y-90253809D02*
X168761904Y-90349047D01*
X168761904Y-90349047D02*
X168761904Y-90587142D01*
X168761904Y-90587142D02*
X168714285Y-90682380D01*
X168714285Y-90682380D02*
X168666666Y-90730000D01*
X168666666Y-90730000D02*
X168571428Y-90777619D01*
X168571428Y-90777619D02*
X168285714Y-90777619D01*
X168285714Y-90777619D02*
X168190476Y-90730000D01*
X168190476Y-90730000D02*
X168142857Y-90682380D01*
X169190476Y-90682380D02*
X169238095Y-90730000D01*
X169238095Y-90730000D02*
X169190476Y-90777619D01*
X169190476Y-90777619D02*
X169142857Y-90730000D01*
X169142857Y-90730000D02*
X169190476Y-90682380D01*
X169190476Y-90682380D02*
X169190476Y-90777619D01*
X169571428Y-89777619D02*
X170190475Y-89777619D01*
X170190475Y-89777619D02*
X169857142Y-90158571D01*
X169857142Y-90158571D02*
X169999999Y-90158571D01*
X169999999Y-90158571D02*
X170095237Y-90206190D01*
X170095237Y-90206190D02*
X170142856Y-90253809D01*
X170142856Y-90253809D02*
X170190475Y-90349047D01*
X170190475Y-90349047D02*
X170190475Y-90587142D01*
X170190475Y-90587142D02*
X170142856Y-90682380D01*
X170142856Y-90682380D02*
X170095237Y-90730000D01*
X170095237Y-90730000D02*
X169999999Y-90777619D01*
X169999999Y-90777619D02*
X169714285Y-90777619D01*
X169714285Y-90777619D02*
X169619047Y-90730000D01*
X169619047Y-90730000D02*
X169571428Y-90682380D01*
X170476190Y-89777619D02*
X170809523Y-90777619D01*
X170809523Y-90777619D02*
X171142856Y-89777619D01*
X172809523Y-90777619D02*
X172476190Y-90301428D01*
X172238095Y-90777619D02*
X172238095Y-89777619D01*
X172238095Y-89777619D02*
X172619047Y-89777619D01*
X172619047Y-89777619D02*
X172714285Y-89825238D01*
X172714285Y-89825238D02*
X172761904Y-89872857D01*
X172761904Y-89872857D02*
X172809523Y-89968095D01*
X172809523Y-89968095D02*
X172809523Y-90110952D01*
X172809523Y-90110952D02*
X172761904Y-90206190D01*
X172761904Y-90206190D02*
X172714285Y-90253809D01*
X172714285Y-90253809D02*
X172619047Y-90301428D01*
X172619047Y-90301428D02*
X172238095Y-90301428D01*
X173619047Y-90730000D02*
X173523809Y-90777619D01*
X173523809Y-90777619D02*
X173333333Y-90777619D01*
X173333333Y-90777619D02*
X173238095Y-90730000D01*
X173238095Y-90730000D02*
X173190476Y-90634761D01*
X173190476Y-90634761D02*
X173190476Y-90253809D01*
X173190476Y-90253809D02*
X173238095Y-90158571D01*
X173238095Y-90158571D02*
X173333333Y-90110952D01*
X173333333Y-90110952D02*
X173523809Y-90110952D01*
X173523809Y-90110952D02*
X173619047Y-90158571D01*
X173619047Y-90158571D02*
X173666666Y-90253809D01*
X173666666Y-90253809D02*
X173666666Y-90349047D01*
X173666666Y-90349047D02*
X173190476Y-90444285D01*
X174523809Y-90110952D02*
X174523809Y-90920476D01*
X174523809Y-90920476D02*
X174476190Y-91015714D01*
X174476190Y-91015714D02*
X174428571Y-91063333D01*
X174428571Y-91063333D02*
X174333333Y-91110952D01*
X174333333Y-91110952D02*
X174190476Y-91110952D01*
X174190476Y-91110952D02*
X174095238Y-91063333D01*
X174523809Y-90730000D02*
X174428571Y-90777619D01*
X174428571Y-90777619D02*
X174238095Y-90777619D01*
X174238095Y-90777619D02*
X174142857Y-90730000D01*
X174142857Y-90730000D02*
X174095238Y-90682380D01*
X174095238Y-90682380D02*
X174047619Y-90587142D01*
X174047619Y-90587142D02*
X174047619Y-90301428D01*
X174047619Y-90301428D02*
X174095238Y-90206190D01*
X174095238Y-90206190D02*
X174142857Y-90158571D01*
X174142857Y-90158571D02*
X174238095Y-90110952D01*
X174238095Y-90110952D02*
X174428571Y-90110952D01*
X174428571Y-90110952D02*
X174523809Y-90158571D01*
X150977619Y-104161904D02*
X151787142Y-104161904D01*
X151787142Y-104161904D02*
X151882380Y-104114285D01*
X151882380Y-104114285D02*
X151930000Y-104066666D01*
X151930000Y-104066666D02*
X151977619Y-103971428D01*
X151977619Y-103971428D02*
X151977619Y-103780952D01*
X151977619Y-103780952D02*
X151930000Y-103685714D01*
X151930000Y-103685714D02*
X151882380Y-103638095D01*
X151882380Y-103638095D02*
X151787142Y-103590476D01*
X151787142Y-103590476D02*
X150977619Y-103590476D01*
X151930000Y-103161904D02*
X151977619Y-103019047D01*
X151977619Y-103019047D02*
X151977619Y-102780952D01*
X151977619Y-102780952D02*
X151930000Y-102685714D01*
X151930000Y-102685714D02*
X151882380Y-102638095D01*
X151882380Y-102638095D02*
X151787142Y-102590476D01*
X151787142Y-102590476D02*
X151691904Y-102590476D01*
X151691904Y-102590476D02*
X151596666Y-102638095D01*
X151596666Y-102638095D02*
X151549047Y-102685714D01*
X151549047Y-102685714D02*
X151501428Y-102780952D01*
X151501428Y-102780952D02*
X151453809Y-102971428D01*
X151453809Y-102971428D02*
X151406190Y-103066666D01*
X151406190Y-103066666D02*
X151358571Y-103114285D01*
X151358571Y-103114285D02*
X151263333Y-103161904D01*
X151263333Y-103161904D02*
X151168095Y-103161904D01*
X151168095Y-103161904D02*
X151072857Y-103114285D01*
X151072857Y-103114285D02*
X151025238Y-103066666D01*
X151025238Y-103066666D02*
X150977619Y-102971428D01*
X150977619Y-102971428D02*
X150977619Y-102733333D01*
X150977619Y-102733333D02*
X151025238Y-102590476D01*
X151453809Y-101828571D02*
X151501428Y-101685714D01*
X151501428Y-101685714D02*
X151549047Y-101638095D01*
X151549047Y-101638095D02*
X151644285Y-101590476D01*
X151644285Y-101590476D02*
X151787142Y-101590476D01*
X151787142Y-101590476D02*
X151882380Y-101638095D01*
X151882380Y-101638095D02*
X151930000Y-101685714D01*
X151930000Y-101685714D02*
X151977619Y-101780952D01*
X151977619Y-101780952D02*
X151977619Y-102161904D01*
X151977619Y-102161904D02*
X150977619Y-102161904D01*
X150977619Y-102161904D02*
X150977619Y-101828571D01*
X150977619Y-101828571D02*
X151025238Y-101733333D01*
X151025238Y-101733333D02*
X151072857Y-101685714D01*
X151072857Y-101685714D02*
X151168095Y-101638095D01*
X151168095Y-101638095D02*
X151263333Y-101638095D01*
X151263333Y-101638095D02*
X151358571Y-101685714D01*
X151358571Y-101685714D02*
X151406190Y-101733333D01*
X151406190Y-101733333D02*
X151453809Y-101828571D01*
X151453809Y-101828571D02*
X151453809Y-102161904D01*
X147777619Y-94561904D02*
X148587142Y-94561904D01*
X148587142Y-94561904D02*
X148682380Y-94514285D01*
X148682380Y-94514285D02*
X148730000Y-94466666D01*
X148730000Y-94466666D02*
X148777619Y-94371428D01*
X148777619Y-94371428D02*
X148777619Y-94180952D01*
X148777619Y-94180952D02*
X148730000Y-94085714D01*
X148730000Y-94085714D02*
X148682380Y-94038095D01*
X148682380Y-94038095D02*
X148587142Y-93990476D01*
X148587142Y-93990476D02*
X147777619Y-93990476D01*
X148730000Y-93561904D02*
X148777619Y-93419047D01*
X148777619Y-93419047D02*
X148777619Y-93180952D01*
X148777619Y-93180952D02*
X148730000Y-93085714D01*
X148730000Y-93085714D02*
X148682380Y-93038095D01*
X148682380Y-93038095D02*
X148587142Y-92990476D01*
X148587142Y-92990476D02*
X148491904Y-92990476D01*
X148491904Y-92990476D02*
X148396666Y-93038095D01*
X148396666Y-93038095D02*
X148349047Y-93085714D01*
X148349047Y-93085714D02*
X148301428Y-93180952D01*
X148301428Y-93180952D02*
X148253809Y-93371428D01*
X148253809Y-93371428D02*
X148206190Y-93466666D01*
X148206190Y-93466666D02*
X148158571Y-93514285D01*
X148158571Y-93514285D02*
X148063333Y-93561904D01*
X148063333Y-93561904D02*
X147968095Y-93561904D01*
X147968095Y-93561904D02*
X147872857Y-93514285D01*
X147872857Y-93514285D02*
X147825238Y-93466666D01*
X147825238Y-93466666D02*
X147777619Y-93371428D01*
X147777619Y-93371428D02*
X147777619Y-93133333D01*
X147777619Y-93133333D02*
X147825238Y-92990476D01*
X148253809Y-92228571D02*
X148301428Y-92085714D01*
X148301428Y-92085714D02*
X148349047Y-92038095D01*
X148349047Y-92038095D02*
X148444285Y-91990476D01*
X148444285Y-91990476D02*
X148587142Y-91990476D01*
X148587142Y-91990476D02*
X148682380Y-92038095D01*
X148682380Y-92038095D02*
X148730000Y-92085714D01*
X148730000Y-92085714D02*
X148777619Y-92180952D01*
X148777619Y-92180952D02*
X148777619Y-92561904D01*
X148777619Y-92561904D02*
X147777619Y-92561904D01*
X147777619Y-92561904D02*
X147777619Y-92228571D01*
X147777619Y-92228571D02*
X147825238Y-92133333D01*
X147825238Y-92133333D02*
X147872857Y-92085714D01*
X147872857Y-92085714D02*
X147968095Y-92038095D01*
X147968095Y-92038095D02*
X148063333Y-92038095D01*
X148063333Y-92038095D02*
X148158571Y-92085714D01*
X148158571Y-92085714D02*
X148206190Y-92133333D01*
X148206190Y-92133333D02*
X148253809Y-92228571D01*
X148253809Y-92228571D02*
X148253809Y-92561904D01*
X147730000Y-90847619D02*
X149015714Y-91704761D01*
X147777619Y-90514285D02*
X148587142Y-90514285D01*
X148587142Y-90514285D02*
X148682380Y-90466666D01*
X148682380Y-90466666D02*
X148730000Y-90419047D01*
X148730000Y-90419047D02*
X148777619Y-90323809D01*
X148777619Y-90323809D02*
X148777619Y-90133333D01*
X148777619Y-90133333D02*
X148730000Y-90038095D01*
X148730000Y-90038095D02*
X148682380Y-89990476D01*
X148682380Y-89990476D02*
X148587142Y-89942857D01*
X148587142Y-89942857D02*
X147777619Y-89942857D01*
X148491904Y-89514285D02*
X148491904Y-89038095D01*
X148777619Y-89609523D02*
X147777619Y-89276190D01*
X147777619Y-89276190D02*
X148777619Y-88942857D01*
X148777619Y-88038095D02*
X148301428Y-88371428D01*
X148777619Y-88609523D02*
X147777619Y-88609523D01*
X147777619Y-88609523D02*
X147777619Y-88228571D01*
X147777619Y-88228571D02*
X147825238Y-88133333D01*
X147825238Y-88133333D02*
X147872857Y-88085714D01*
X147872857Y-88085714D02*
X147968095Y-88038095D01*
X147968095Y-88038095D02*
X148110952Y-88038095D01*
X148110952Y-88038095D02*
X148206190Y-88085714D01*
X148206190Y-88085714D02*
X148253809Y-88133333D01*
X148253809Y-88133333D02*
X148301428Y-88228571D01*
X148301428Y-88228571D02*
X148301428Y-88609523D01*
X147777619Y-87752380D02*
X147777619Y-87180952D01*
X148777619Y-87466666D02*
X147777619Y-87466666D01*
X180314285Y-63977619D02*
X179838095Y-63977619D01*
X179838095Y-63977619D02*
X179838095Y-62977619D01*
X181219047Y-63882380D02*
X181171428Y-63930000D01*
X181171428Y-63930000D02*
X181028571Y-63977619D01*
X181028571Y-63977619D02*
X180933333Y-63977619D01*
X180933333Y-63977619D02*
X180790476Y-63930000D01*
X180790476Y-63930000D02*
X180695238Y-63834761D01*
X180695238Y-63834761D02*
X180647619Y-63739523D01*
X180647619Y-63739523D02*
X180600000Y-63549047D01*
X180600000Y-63549047D02*
X180600000Y-63406190D01*
X180600000Y-63406190D02*
X180647619Y-63215714D01*
X180647619Y-63215714D02*
X180695238Y-63120476D01*
X180695238Y-63120476D02*
X180790476Y-63025238D01*
X180790476Y-63025238D02*
X180933333Y-62977619D01*
X180933333Y-62977619D02*
X181028571Y-62977619D01*
X181028571Y-62977619D02*
X181171428Y-63025238D01*
X181171428Y-63025238D02*
X181219047Y-63072857D01*
X181647619Y-63977619D02*
X181647619Y-62977619D01*
X181647619Y-62977619D02*
X181885714Y-62977619D01*
X181885714Y-62977619D02*
X182028571Y-63025238D01*
X182028571Y-63025238D02*
X182123809Y-63120476D01*
X182123809Y-63120476D02*
X182171428Y-63215714D01*
X182171428Y-63215714D02*
X182219047Y-63406190D01*
X182219047Y-63406190D02*
X182219047Y-63549047D01*
X182219047Y-63549047D02*
X182171428Y-63739523D01*
X182171428Y-63739523D02*
X182123809Y-63834761D01*
X182123809Y-63834761D02*
X182028571Y-63930000D01*
X182028571Y-63930000D02*
X181885714Y-63977619D01*
X181885714Y-63977619D02*
X181647619Y-63977619D01*
X182409524Y-64072857D02*
X183171428Y-64072857D01*
X183980952Y-63882380D02*
X183933333Y-63930000D01*
X183933333Y-63930000D02*
X183790476Y-63977619D01*
X183790476Y-63977619D02*
X183695238Y-63977619D01*
X183695238Y-63977619D02*
X183552381Y-63930000D01*
X183552381Y-63930000D02*
X183457143Y-63834761D01*
X183457143Y-63834761D02*
X183409524Y-63739523D01*
X183409524Y-63739523D02*
X183361905Y-63549047D01*
X183361905Y-63549047D02*
X183361905Y-63406190D01*
X183361905Y-63406190D02*
X183409524Y-63215714D01*
X183409524Y-63215714D02*
X183457143Y-63120476D01*
X183457143Y-63120476D02*
X183552381Y-63025238D01*
X183552381Y-63025238D02*
X183695238Y-62977619D01*
X183695238Y-62977619D02*
X183790476Y-62977619D01*
X183790476Y-62977619D02*
X183933333Y-63025238D01*
X183933333Y-63025238D02*
X183980952Y-63072857D01*
X184552381Y-63977619D02*
X184457143Y-63930000D01*
X184457143Y-63930000D02*
X184409524Y-63882380D01*
X184409524Y-63882380D02*
X184361905Y-63787142D01*
X184361905Y-63787142D02*
X184361905Y-63501428D01*
X184361905Y-63501428D02*
X184409524Y-63406190D01*
X184409524Y-63406190D02*
X184457143Y-63358571D01*
X184457143Y-63358571D02*
X184552381Y-63310952D01*
X184552381Y-63310952D02*
X184695238Y-63310952D01*
X184695238Y-63310952D02*
X184790476Y-63358571D01*
X184790476Y-63358571D02*
X184838095Y-63406190D01*
X184838095Y-63406190D02*
X184885714Y-63501428D01*
X184885714Y-63501428D02*
X184885714Y-63787142D01*
X184885714Y-63787142D02*
X184838095Y-63882380D01*
X184838095Y-63882380D02*
X184790476Y-63930000D01*
X184790476Y-63930000D02*
X184695238Y-63977619D01*
X184695238Y-63977619D02*
X184552381Y-63977619D01*
X185314286Y-63310952D02*
X185314286Y-63977619D01*
X185314286Y-63406190D02*
X185361905Y-63358571D01*
X185361905Y-63358571D02*
X185457143Y-63310952D01*
X185457143Y-63310952D02*
X185600000Y-63310952D01*
X185600000Y-63310952D02*
X185695238Y-63358571D01*
X185695238Y-63358571D02*
X185742857Y-63453809D01*
X185742857Y-63453809D02*
X185742857Y-63977619D01*
X186219048Y-63310952D02*
X186219048Y-63977619D01*
X186219048Y-63406190D02*
X186266667Y-63358571D01*
X186266667Y-63358571D02*
X186361905Y-63310952D01*
X186361905Y-63310952D02*
X186504762Y-63310952D01*
X186504762Y-63310952D02*
X186600000Y-63358571D01*
X186600000Y-63358571D02*
X186647619Y-63453809D01*
X186647619Y-63453809D02*
X186647619Y-63977619D01*
X185514285Y-87477619D02*
X185038095Y-87477619D01*
X185038095Y-87477619D02*
X185038095Y-86477619D01*
X185847619Y-86953809D02*
X186180952Y-86953809D01*
X186323809Y-87477619D02*
X185847619Y-87477619D01*
X185847619Y-87477619D02*
X185847619Y-86477619D01*
X185847619Y-86477619D02*
X186323809Y-86477619D01*
X186752381Y-87477619D02*
X186752381Y-86477619D01*
X186752381Y-86477619D02*
X186990476Y-86477619D01*
X186990476Y-86477619D02*
X187133333Y-86525238D01*
X187133333Y-86525238D02*
X187228571Y-86620476D01*
X187228571Y-86620476D02*
X187276190Y-86715714D01*
X187276190Y-86715714D02*
X187323809Y-86906190D01*
X187323809Y-86906190D02*
X187323809Y-87049047D01*
X187323809Y-87049047D02*
X187276190Y-87239523D01*
X187276190Y-87239523D02*
X187228571Y-87334761D01*
X187228571Y-87334761D02*
X187133333Y-87430000D01*
X187133333Y-87430000D02*
X186990476Y-87477619D01*
X186990476Y-87477619D02*
X186752381Y-87477619D01*
X163971428Y-86353809D02*
X164114285Y-86401428D01*
X164114285Y-86401428D02*
X164161904Y-86449047D01*
X164161904Y-86449047D02*
X164209523Y-86544285D01*
X164209523Y-86544285D02*
X164209523Y-86687142D01*
X164209523Y-86687142D02*
X164161904Y-86782380D01*
X164161904Y-86782380D02*
X164114285Y-86830000D01*
X164114285Y-86830000D02*
X164019047Y-86877619D01*
X164019047Y-86877619D02*
X163638095Y-86877619D01*
X163638095Y-86877619D02*
X163638095Y-85877619D01*
X163638095Y-85877619D02*
X163971428Y-85877619D01*
X163971428Y-85877619D02*
X164066666Y-85925238D01*
X164066666Y-85925238D02*
X164114285Y-85972857D01*
X164114285Y-85972857D02*
X164161904Y-86068095D01*
X164161904Y-86068095D02*
X164161904Y-86163333D01*
X164161904Y-86163333D02*
X164114285Y-86258571D01*
X164114285Y-86258571D02*
X164066666Y-86306190D01*
X164066666Y-86306190D02*
X163971428Y-86353809D01*
X163971428Y-86353809D02*
X163638095Y-86353809D01*
X165066666Y-86210952D02*
X165066666Y-86877619D01*
X164638095Y-86210952D02*
X164638095Y-86734761D01*
X164638095Y-86734761D02*
X164685714Y-86830000D01*
X164685714Y-86830000D02*
X164780952Y-86877619D01*
X164780952Y-86877619D02*
X164923809Y-86877619D01*
X164923809Y-86877619D02*
X165019047Y-86830000D01*
X165019047Y-86830000D02*
X165066666Y-86782380D01*
X165400000Y-86210952D02*
X165780952Y-86210952D01*
X165542857Y-85877619D02*
X165542857Y-86734761D01*
X165542857Y-86734761D02*
X165590476Y-86830000D01*
X165590476Y-86830000D02*
X165685714Y-86877619D01*
X165685714Y-86877619D02*
X165780952Y-86877619D01*
X165971429Y-86210952D02*
X166352381Y-86210952D01*
X166114286Y-85877619D02*
X166114286Y-86734761D01*
X166114286Y-86734761D02*
X166161905Y-86830000D01*
X166161905Y-86830000D02*
X166257143Y-86877619D01*
X166257143Y-86877619D02*
X166352381Y-86877619D01*
X166828572Y-86877619D02*
X166733334Y-86830000D01*
X166733334Y-86830000D02*
X166685715Y-86782380D01*
X166685715Y-86782380D02*
X166638096Y-86687142D01*
X166638096Y-86687142D02*
X166638096Y-86401428D01*
X166638096Y-86401428D02*
X166685715Y-86306190D01*
X166685715Y-86306190D02*
X166733334Y-86258571D01*
X166733334Y-86258571D02*
X166828572Y-86210952D01*
X166828572Y-86210952D02*
X166971429Y-86210952D01*
X166971429Y-86210952D02*
X167066667Y-86258571D01*
X167066667Y-86258571D02*
X167114286Y-86306190D01*
X167114286Y-86306190D02*
X167161905Y-86401428D01*
X167161905Y-86401428D02*
X167161905Y-86687142D01*
X167161905Y-86687142D02*
X167114286Y-86782380D01*
X167114286Y-86782380D02*
X167066667Y-86830000D01*
X167066667Y-86830000D02*
X166971429Y-86877619D01*
X166971429Y-86877619D02*
X166828572Y-86877619D01*
X167590477Y-86210952D02*
X167590477Y-86877619D01*
X167590477Y-86306190D02*
X167638096Y-86258571D01*
X167638096Y-86258571D02*
X167733334Y-86210952D01*
X167733334Y-86210952D02*
X167876191Y-86210952D01*
X167876191Y-86210952D02*
X167971429Y-86258571D01*
X167971429Y-86258571D02*
X168019048Y-86353809D01*
X168019048Y-86353809D02*
X168019048Y-86877619D01*
X168257144Y-86972857D02*
X169019048Y-86972857D01*
X169257144Y-86877619D02*
X169257144Y-85877619D01*
X169257144Y-85877619D02*
X169495239Y-85877619D01*
X169495239Y-85877619D02*
X169638096Y-85925238D01*
X169638096Y-85925238D02*
X169733334Y-86020476D01*
X169733334Y-86020476D02*
X169780953Y-86115714D01*
X169780953Y-86115714D02*
X169828572Y-86306190D01*
X169828572Y-86306190D02*
X169828572Y-86449047D01*
X169828572Y-86449047D02*
X169780953Y-86639523D01*
X169780953Y-86639523D02*
X169733334Y-86734761D01*
X169733334Y-86734761D02*
X169638096Y-86830000D01*
X169638096Y-86830000D02*
X169495239Y-86877619D01*
X169495239Y-86877619D02*
X169257144Y-86877619D01*
X170400001Y-86877619D02*
X170304763Y-86830000D01*
X170304763Y-86830000D02*
X170257144Y-86782380D01*
X170257144Y-86782380D02*
X170209525Y-86687142D01*
X170209525Y-86687142D02*
X170209525Y-86401428D01*
X170209525Y-86401428D02*
X170257144Y-86306190D01*
X170257144Y-86306190D02*
X170304763Y-86258571D01*
X170304763Y-86258571D02*
X170400001Y-86210952D01*
X170400001Y-86210952D02*
X170542858Y-86210952D01*
X170542858Y-86210952D02*
X170638096Y-86258571D01*
X170638096Y-86258571D02*
X170685715Y-86306190D01*
X170685715Y-86306190D02*
X170733334Y-86401428D01*
X170733334Y-86401428D02*
X170733334Y-86687142D01*
X170733334Y-86687142D02*
X170685715Y-86782380D01*
X170685715Y-86782380D02*
X170638096Y-86830000D01*
X170638096Y-86830000D02*
X170542858Y-86877619D01*
X170542858Y-86877619D02*
X170400001Y-86877619D01*
X171066668Y-86210952D02*
X171257144Y-86877619D01*
X171257144Y-86877619D02*
X171447620Y-86401428D01*
X171447620Y-86401428D02*
X171638096Y-86877619D01*
X171638096Y-86877619D02*
X171828572Y-86210952D01*
X172209525Y-86210952D02*
X172209525Y-86877619D01*
X172209525Y-86306190D02*
X172257144Y-86258571D01*
X172257144Y-86258571D02*
X172352382Y-86210952D01*
X172352382Y-86210952D02*
X172495239Y-86210952D01*
X172495239Y-86210952D02*
X172590477Y-86258571D01*
X172590477Y-86258571D02*
X172638096Y-86353809D01*
X172638096Y-86353809D02*
X172638096Y-86877619D01*
X176671428Y-75553809D02*
X176814285Y-75601428D01*
X176814285Y-75601428D02*
X176861904Y-75649047D01*
X176861904Y-75649047D02*
X176909523Y-75744285D01*
X176909523Y-75744285D02*
X176909523Y-75887142D01*
X176909523Y-75887142D02*
X176861904Y-75982380D01*
X176861904Y-75982380D02*
X176814285Y-76030000D01*
X176814285Y-76030000D02*
X176719047Y-76077619D01*
X176719047Y-76077619D02*
X176338095Y-76077619D01*
X176338095Y-76077619D02*
X176338095Y-75077619D01*
X176338095Y-75077619D02*
X176671428Y-75077619D01*
X176671428Y-75077619D02*
X176766666Y-75125238D01*
X176766666Y-75125238D02*
X176814285Y-75172857D01*
X176814285Y-75172857D02*
X176861904Y-75268095D01*
X176861904Y-75268095D02*
X176861904Y-75363333D01*
X176861904Y-75363333D02*
X176814285Y-75458571D01*
X176814285Y-75458571D02*
X176766666Y-75506190D01*
X176766666Y-75506190D02*
X176671428Y-75553809D01*
X176671428Y-75553809D02*
X176338095Y-75553809D01*
X177766666Y-75410952D02*
X177766666Y-76077619D01*
X177338095Y-75410952D02*
X177338095Y-75934761D01*
X177338095Y-75934761D02*
X177385714Y-76030000D01*
X177385714Y-76030000D02*
X177480952Y-76077619D01*
X177480952Y-76077619D02*
X177623809Y-76077619D01*
X177623809Y-76077619D02*
X177719047Y-76030000D01*
X177719047Y-76030000D02*
X177766666Y-75982380D01*
X178100000Y-75410952D02*
X178480952Y-75410952D01*
X178242857Y-75077619D02*
X178242857Y-75934761D01*
X178242857Y-75934761D02*
X178290476Y-76030000D01*
X178290476Y-76030000D02*
X178385714Y-76077619D01*
X178385714Y-76077619D02*
X178480952Y-76077619D01*
X178671429Y-75410952D02*
X179052381Y-75410952D01*
X178814286Y-75077619D02*
X178814286Y-75934761D01*
X178814286Y-75934761D02*
X178861905Y-76030000D01*
X178861905Y-76030000D02*
X178957143Y-76077619D01*
X178957143Y-76077619D02*
X179052381Y-76077619D01*
X179528572Y-76077619D02*
X179433334Y-76030000D01*
X179433334Y-76030000D02*
X179385715Y-75982380D01*
X179385715Y-75982380D02*
X179338096Y-75887142D01*
X179338096Y-75887142D02*
X179338096Y-75601428D01*
X179338096Y-75601428D02*
X179385715Y-75506190D01*
X179385715Y-75506190D02*
X179433334Y-75458571D01*
X179433334Y-75458571D02*
X179528572Y-75410952D01*
X179528572Y-75410952D02*
X179671429Y-75410952D01*
X179671429Y-75410952D02*
X179766667Y-75458571D01*
X179766667Y-75458571D02*
X179814286Y-75506190D01*
X179814286Y-75506190D02*
X179861905Y-75601428D01*
X179861905Y-75601428D02*
X179861905Y-75887142D01*
X179861905Y-75887142D02*
X179814286Y-75982380D01*
X179814286Y-75982380D02*
X179766667Y-76030000D01*
X179766667Y-76030000D02*
X179671429Y-76077619D01*
X179671429Y-76077619D02*
X179528572Y-76077619D01*
X180290477Y-75410952D02*
X180290477Y-76077619D01*
X180290477Y-75506190D02*
X180338096Y-75458571D01*
X180338096Y-75458571D02*
X180433334Y-75410952D01*
X180433334Y-75410952D02*
X180576191Y-75410952D01*
X180576191Y-75410952D02*
X180671429Y-75458571D01*
X180671429Y-75458571D02*
X180719048Y-75553809D01*
X180719048Y-75553809D02*
X180719048Y-76077619D01*
X180957144Y-76172857D02*
X181719048Y-76172857D01*
X182528572Y-76077619D02*
X182195239Y-75601428D01*
X181957144Y-76077619D02*
X181957144Y-75077619D01*
X181957144Y-75077619D02*
X182338096Y-75077619D01*
X182338096Y-75077619D02*
X182433334Y-75125238D01*
X182433334Y-75125238D02*
X182480953Y-75172857D01*
X182480953Y-75172857D02*
X182528572Y-75268095D01*
X182528572Y-75268095D02*
X182528572Y-75410952D01*
X182528572Y-75410952D02*
X182480953Y-75506190D01*
X182480953Y-75506190D02*
X182433334Y-75553809D01*
X182433334Y-75553809D02*
X182338096Y-75601428D01*
X182338096Y-75601428D02*
X181957144Y-75601428D01*
X182957144Y-76077619D02*
X182957144Y-75410952D01*
X182957144Y-75077619D02*
X182909525Y-75125238D01*
X182909525Y-75125238D02*
X182957144Y-75172857D01*
X182957144Y-75172857D02*
X183004763Y-75125238D01*
X183004763Y-75125238D02*
X182957144Y-75077619D01*
X182957144Y-75077619D02*
X182957144Y-75172857D01*
X183861905Y-75410952D02*
X183861905Y-76220476D01*
X183861905Y-76220476D02*
X183814286Y-76315714D01*
X183814286Y-76315714D02*
X183766667Y-76363333D01*
X183766667Y-76363333D02*
X183671429Y-76410952D01*
X183671429Y-76410952D02*
X183528572Y-76410952D01*
X183528572Y-76410952D02*
X183433334Y-76363333D01*
X183861905Y-76030000D02*
X183766667Y-76077619D01*
X183766667Y-76077619D02*
X183576191Y-76077619D01*
X183576191Y-76077619D02*
X183480953Y-76030000D01*
X183480953Y-76030000D02*
X183433334Y-75982380D01*
X183433334Y-75982380D02*
X183385715Y-75887142D01*
X183385715Y-75887142D02*
X183385715Y-75601428D01*
X183385715Y-75601428D02*
X183433334Y-75506190D01*
X183433334Y-75506190D02*
X183480953Y-75458571D01*
X183480953Y-75458571D02*
X183576191Y-75410952D01*
X183576191Y-75410952D02*
X183766667Y-75410952D01*
X183766667Y-75410952D02*
X183861905Y-75458571D01*
X184338096Y-76077619D02*
X184338096Y-75077619D01*
X184766667Y-76077619D02*
X184766667Y-75553809D01*
X184766667Y-75553809D02*
X184719048Y-75458571D01*
X184719048Y-75458571D02*
X184623810Y-75410952D01*
X184623810Y-75410952D02*
X184480953Y-75410952D01*
X184480953Y-75410952D02*
X184385715Y-75458571D01*
X184385715Y-75458571D02*
X184338096Y-75506190D01*
X185100001Y-75410952D02*
X185480953Y-75410952D01*
X185242858Y-75077619D02*
X185242858Y-75934761D01*
X185242858Y-75934761D02*
X185290477Y-76030000D01*
X185290477Y-76030000D02*
X185385715Y-76077619D01*
X185385715Y-76077619D02*
X185480953Y-76077619D01*
X151471428Y-75553809D02*
X151614285Y-75601428D01*
X151614285Y-75601428D02*
X151661904Y-75649047D01*
X151661904Y-75649047D02*
X151709523Y-75744285D01*
X151709523Y-75744285D02*
X151709523Y-75887142D01*
X151709523Y-75887142D02*
X151661904Y-75982380D01*
X151661904Y-75982380D02*
X151614285Y-76030000D01*
X151614285Y-76030000D02*
X151519047Y-76077619D01*
X151519047Y-76077619D02*
X151138095Y-76077619D01*
X151138095Y-76077619D02*
X151138095Y-75077619D01*
X151138095Y-75077619D02*
X151471428Y-75077619D01*
X151471428Y-75077619D02*
X151566666Y-75125238D01*
X151566666Y-75125238D02*
X151614285Y-75172857D01*
X151614285Y-75172857D02*
X151661904Y-75268095D01*
X151661904Y-75268095D02*
X151661904Y-75363333D01*
X151661904Y-75363333D02*
X151614285Y-75458571D01*
X151614285Y-75458571D02*
X151566666Y-75506190D01*
X151566666Y-75506190D02*
X151471428Y-75553809D01*
X151471428Y-75553809D02*
X151138095Y-75553809D01*
X152566666Y-75410952D02*
X152566666Y-76077619D01*
X152138095Y-75410952D02*
X152138095Y-75934761D01*
X152138095Y-75934761D02*
X152185714Y-76030000D01*
X152185714Y-76030000D02*
X152280952Y-76077619D01*
X152280952Y-76077619D02*
X152423809Y-76077619D01*
X152423809Y-76077619D02*
X152519047Y-76030000D01*
X152519047Y-76030000D02*
X152566666Y-75982380D01*
X152900000Y-75410952D02*
X153280952Y-75410952D01*
X153042857Y-75077619D02*
X153042857Y-75934761D01*
X153042857Y-75934761D02*
X153090476Y-76030000D01*
X153090476Y-76030000D02*
X153185714Y-76077619D01*
X153185714Y-76077619D02*
X153280952Y-76077619D01*
X153471429Y-75410952D02*
X153852381Y-75410952D01*
X153614286Y-75077619D02*
X153614286Y-75934761D01*
X153614286Y-75934761D02*
X153661905Y-76030000D01*
X153661905Y-76030000D02*
X153757143Y-76077619D01*
X153757143Y-76077619D02*
X153852381Y-76077619D01*
X154328572Y-76077619D02*
X154233334Y-76030000D01*
X154233334Y-76030000D02*
X154185715Y-75982380D01*
X154185715Y-75982380D02*
X154138096Y-75887142D01*
X154138096Y-75887142D02*
X154138096Y-75601428D01*
X154138096Y-75601428D02*
X154185715Y-75506190D01*
X154185715Y-75506190D02*
X154233334Y-75458571D01*
X154233334Y-75458571D02*
X154328572Y-75410952D01*
X154328572Y-75410952D02*
X154471429Y-75410952D01*
X154471429Y-75410952D02*
X154566667Y-75458571D01*
X154566667Y-75458571D02*
X154614286Y-75506190D01*
X154614286Y-75506190D02*
X154661905Y-75601428D01*
X154661905Y-75601428D02*
X154661905Y-75887142D01*
X154661905Y-75887142D02*
X154614286Y-75982380D01*
X154614286Y-75982380D02*
X154566667Y-76030000D01*
X154566667Y-76030000D02*
X154471429Y-76077619D01*
X154471429Y-76077619D02*
X154328572Y-76077619D01*
X155090477Y-75410952D02*
X155090477Y-76077619D01*
X155090477Y-75506190D02*
X155138096Y-75458571D01*
X155138096Y-75458571D02*
X155233334Y-75410952D01*
X155233334Y-75410952D02*
X155376191Y-75410952D01*
X155376191Y-75410952D02*
X155471429Y-75458571D01*
X155471429Y-75458571D02*
X155519048Y-75553809D01*
X155519048Y-75553809D02*
X155519048Y-76077619D01*
X155757144Y-76172857D02*
X156519048Y-76172857D01*
X157233334Y-76077619D02*
X156757144Y-76077619D01*
X156757144Y-76077619D02*
X156757144Y-75077619D01*
X157947620Y-76030000D02*
X157852382Y-76077619D01*
X157852382Y-76077619D02*
X157661906Y-76077619D01*
X157661906Y-76077619D02*
X157566668Y-76030000D01*
X157566668Y-76030000D02*
X157519049Y-75934761D01*
X157519049Y-75934761D02*
X157519049Y-75553809D01*
X157519049Y-75553809D02*
X157566668Y-75458571D01*
X157566668Y-75458571D02*
X157661906Y-75410952D01*
X157661906Y-75410952D02*
X157852382Y-75410952D01*
X157852382Y-75410952D02*
X157947620Y-75458571D01*
X157947620Y-75458571D02*
X157995239Y-75553809D01*
X157995239Y-75553809D02*
X157995239Y-75649047D01*
X157995239Y-75649047D02*
X157519049Y-75744285D01*
X158280954Y-75410952D02*
X158661906Y-75410952D01*
X158423811Y-76077619D02*
X158423811Y-75220476D01*
X158423811Y-75220476D02*
X158471430Y-75125238D01*
X158471430Y-75125238D02*
X158566668Y-75077619D01*
X158566668Y-75077619D02*
X158661906Y-75077619D01*
X158852383Y-75410952D02*
X159233335Y-75410952D01*
X158995240Y-75077619D02*
X158995240Y-75934761D01*
X158995240Y-75934761D02*
X159042859Y-76030000D01*
X159042859Y-76030000D02*
X159138097Y-76077619D01*
X159138097Y-76077619D02*
X159233335Y-76077619D01*
X164771428Y-65853809D02*
X164914285Y-65901428D01*
X164914285Y-65901428D02*
X164961904Y-65949047D01*
X164961904Y-65949047D02*
X165009523Y-66044285D01*
X165009523Y-66044285D02*
X165009523Y-66187142D01*
X165009523Y-66187142D02*
X164961904Y-66282380D01*
X164961904Y-66282380D02*
X164914285Y-66330000D01*
X164914285Y-66330000D02*
X164819047Y-66377619D01*
X164819047Y-66377619D02*
X164438095Y-66377619D01*
X164438095Y-66377619D02*
X164438095Y-65377619D01*
X164438095Y-65377619D02*
X164771428Y-65377619D01*
X164771428Y-65377619D02*
X164866666Y-65425238D01*
X164866666Y-65425238D02*
X164914285Y-65472857D01*
X164914285Y-65472857D02*
X164961904Y-65568095D01*
X164961904Y-65568095D02*
X164961904Y-65663333D01*
X164961904Y-65663333D02*
X164914285Y-65758571D01*
X164914285Y-65758571D02*
X164866666Y-65806190D01*
X164866666Y-65806190D02*
X164771428Y-65853809D01*
X164771428Y-65853809D02*
X164438095Y-65853809D01*
X165866666Y-65710952D02*
X165866666Y-66377619D01*
X165438095Y-65710952D02*
X165438095Y-66234761D01*
X165438095Y-66234761D02*
X165485714Y-66330000D01*
X165485714Y-66330000D02*
X165580952Y-66377619D01*
X165580952Y-66377619D02*
X165723809Y-66377619D01*
X165723809Y-66377619D02*
X165819047Y-66330000D01*
X165819047Y-66330000D02*
X165866666Y-66282380D01*
X166200000Y-65710952D02*
X166580952Y-65710952D01*
X166342857Y-65377619D02*
X166342857Y-66234761D01*
X166342857Y-66234761D02*
X166390476Y-66330000D01*
X166390476Y-66330000D02*
X166485714Y-66377619D01*
X166485714Y-66377619D02*
X166580952Y-66377619D01*
X166771429Y-65710952D02*
X167152381Y-65710952D01*
X166914286Y-65377619D02*
X166914286Y-66234761D01*
X166914286Y-66234761D02*
X166961905Y-66330000D01*
X166961905Y-66330000D02*
X167057143Y-66377619D01*
X167057143Y-66377619D02*
X167152381Y-66377619D01*
X167628572Y-66377619D02*
X167533334Y-66330000D01*
X167533334Y-66330000D02*
X167485715Y-66282380D01*
X167485715Y-66282380D02*
X167438096Y-66187142D01*
X167438096Y-66187142D02*
X167438096Y-65901428D01*
X167438096Y-65901428D02*
X167485715Y-65806190D01*
X167485715Y-65806190D02*
X167533334Y-65758571D01*
X167533334Y-65758571D02*
X167628572Y-65710952D01*
X167628572Y-65710952D02*
X167771429Y-65710952D01*
X167771429Y-65710952D02*
X167866667Y-65758571D01*
X167866667Y-65758571D02*
X167914286Y-65806190D01*
X167914286Y-65806190D02*
X167961905Y-65901428D01*
X167961905Y-65901428D02*
X167961905Y-66187142D01*
X167961905Y-66187142D02*
X167914286Y-66282380D01*
X167914286Y-66282380D02*
X167866667Y-66330000D01*
X167866667Y-66330000D02*
X167771429Y-66377619D01*
X167771429Y-66377619D02*
X167628572Y-66377619D01*
X168390477Y-65710952D02*
X168390477Y-66377619D01*
X168390477Y-65806190D02*
X168438096Y-65758571D01*
X168438096Y-65758571D02*
X168533334Y-65710952D01*
X168533334Y-65710952D02*
X168676191Y-65710952D01*
X168676191Y-65710952D02*
X168771429Y-65758571D01*
X168771429Y-65758571D02*
X168819048Y-65853809D01*
X168819048Y-65853809D02*
X168819048Y-66377619D01*
X169057144Y-66472857D02*
X169819048Y-66472857D01*
X170057144Y-65377619D02*
X170057144Y-66187142D01*
X170057144Y-66187142D02*
X170104763Y-66282380D01*
X170104763Y-66282380D02*
X170152382Y-66330000D01*
X170152382Y-66330000D02*
X170247620Y-66377619D01*
X170247620Y-66377619D02*
X170438096Y-66377619D01*
X170438096Y-66377619D02*
X170533334Y-66330000D01*
X170533334Y-66330000D02*
X170580953Y-66282380D01*
X170580953Y-66282380D02*
X170628572Y-66187142D01*
X170628572Y-66187142D02*
X170628572Y-65377619D01*
X171104763Y-65710952D02*
X171104763Y-66710952D01*
X171104763Y-65758571D02*
X171200001Y-65710952D01*
X171200001Y-65710952D02*
X171390477Y-65710952D01*
X171390477Y-65710952D02*
X171485715Y-65758571D01*
X171485715Y-65758571D02*
X171533334Y-65806190D01*
X171533334Y-65806190D02*
X171580953Y-65901428D01*
X171580953Y-65901428D02*
X171580953Y-66187142D01*
X171580953Y-66187142D02*
X171533334Y-66282380D01*
X171533334Y-66282380D02*
X171485715Y-66330000D01*
X171485715Y-66330000D02*
X171390477Y-66377619D01*
X171390477Y-66377619D02*
X171200001Y-66377619D01*
X171200001Y-66377619D02*
X171104763Y-66330000D01*
X145282380Y-50990476D02*
X145330000Y-51038095D01*
X145330000Y-51038095D02*
X145377619Y-51180952D01*
X145377619Y-51180952D02*
X145377619Y-51276190D01*
X145377619Y-51276190D02*
X145330000Y-51419047D01*
X145330000Y-51419047D02*
X145234761Y-51514285D01*
X145234761Y-51514285D02*
X145139523Y-51561904D01*
X145139523Y-51561904D02*
X144949047Y-51609523D01*
X144949047Y-51609523D02*
X144806190Y-51609523D01*
X144806190Y-51609523D02*
X144615714Y-51561904D01*
X144615714Y-51561904D02*
X144520476Y-51514285D01*
X144520476Y-51514285D02*
X144425238Y-51419047D01*
X144425238Y-51419047D02*
X144377619Y-51276190D01*
X144377619Y-51276190D02*
X144377619Y-51180952D01*
X144377619Y-51180952D02*
X144425238Y-51038095D01*
X144425238Y-51038095D02*
X144472857Y-50990476D01*
X145377619Y-50561904D02*
X144710952Y-50561904D01*
X144901428Y-50561904D02*
X144806190Y-50514285D01*
X144806190Y-50514285D02*
X144758571Y-50466666D01*
X144758571Y-50466666D02*
X144710952Y-50371428D01*
X144710952Y-50371428D02*
X144710952Y-50276190D01*
X144710952Y-50038094D02*
X145377619Y-49799999D01*
X144710952Y-49561904D02*
X145377619Y-49799999D01*
X145377619Y-49799999D02*
X145615714Y-49895237D01*
X145615714Y-49895237D02*
X145663333Y-49942856D01*
X145663333Y-49942856D02*
X145710952Y-50038094D01*
X145330000Y-49228570D02*
X145377619Y-49133332D01*
X145377619Y-49133332D02*
X145377619Y-48942856D01*
X145377619Y-48942856D02*
X145330000Y-48847618D01*
X145330000Y-48847618D02*
X145234761Y-48799999D01*
X145234761Y-48799999D02*
X145187142Y-48799999D01*
X145187142Y-48799999D02*
X145091904Y-48847618D01*
X145091904Y-48847618D02*
X145044285Y-48942856D01*
X145044285Y-48942856D02*
X145044285Y-49085713D01*
X145044285Y-49085713D02*
X144996666Y-49180951D01*
X144996666Y-49180951D02*
X144901428Y-49228570D01*
X144901428Y-49228570D02*
X144853809Y-49228570D01*
X144853809Y-49228570D02*
X144758571Y-49180951D01*
X144758571Y-49180951D02*
X144710952Y-49085713D01*
X144710952Y-49085713D02*
X144710952Y-48942856D01*
X144710952Y-48942856D02*
X144758571Y-48847618D01*
X144710952Y-48514284D02*
X144710952Y-48133332D01*
X144377619Y-48371427D02*
X145234761Y-48371427D01*
X145234761Y-48371427D02*
X145330000Y-48323808D01*
X145330000Y-48323808D02*
X145377619Y-48228570D01*
X145377619Y-48228570D02*
X145377619Y-48133332D01*
X145377619Y-47371427D02*
X144853809Y-47371427D01*
X144853809Y-47371427D02*
X144758571Y-47419046D01*
X144758571Y-47419046D02*
X144710952Y-47514284D01*
X144710952Y-47514284D02*
X144710952Y-47704760D01*
X144710952Y-47704760D02*
X144758571Y-47799998D01*
X145330000Y-47371427D02*
X145377619Y-47466665D01*
X145377619Y-47466665D02*
X145377619Y-47704760D01*
X145377619Y-47704760D02*
X145330000Y-47799998D01*
X145330000Y-47799998D02*
X145234761Y-47847617D01*
X145234761Y-47847617D02*
X145139523Y-47847617D01*
X145139523Y-47847617D02*
X145044285Y-47799998D01*
X145044285Y-47799998D02*
X144996666Y-47704760D01*
X144996666Y-47704760D02*
X144996666Y-47466665D01*
X144996666Y-47466665D02*
X144949047Y-47371427D01*
X145377619Y-46752379D02*
X145330000Y-46847617D01*
X145330000Y-46847617D02*
X145234761Y-46895236D01*
X145234761Y-46895236D02*
X144377619Y-46895236D01*
X167138095Y-43577619D02*
X167138095Y-42577619D01*
X168185713Y-43482380D02*
X168138094Y-43530000D01*
X168138094Y-43530000D02*
X167995237Y-43577619D01*
X167995237Y-43577619D02*
X167899999Y-43577619D01*
X167899999Y-43577619D02*
X167757142Y-43530000D01*
X167757142Y-43530000D02*
X167661904Y-43434761D01*
X167661904Y-43434761D02*
X167614285Y-43339523D01*
X167614285Y-43339523D02*
X167566666Y-43149047D01*
X167566666Y-43149047D02*
X167566666Y-43006190D01*
X167566666Y-43006190D02*
X167614285Y-42815714D01*
X167614285Y-42815714D02*
X167661904Y-42720476D01*
X167661904Y-42720476D02*
X167757142Y-42625238D01*
X167757142Y-42625238D02*
X167899999Y-42577619D01*
X167899999Y-42577619D02*
X167995237Y-42577619D01*
X167995237Y-42577619D02*
X168138094Y-42625238D01*
X168138094Y-42625238D02*
X168185713Y-42672857D01*
D11*
%TO.C,D1*%
X182935000Y-85565000D02*
X189095000Y-85565000D01*
X182935000Y-85565000D02*
X182935000Y-80445000D01*
X182805000Y-84275000D02*
X182805000Y-84275000D01*
X182805000Y-84275000D02*
X182935000Y-84275000D01*
X182935000Y-84275000D02*
X182805000Y-84275000D01*
X182935000Y-84275000D02*
X182935000Y-84275000D01*
X182805000Y-81735000D02*
X182805000Y-81735000D01*
X182805000Y-81735000D02*
X182935000Y-81735000D01*
X182935000Y-81735000D02*
X182805000Y-81735000D01*
X182935000Y-81735000D02*
X182935000Y-81735000D01*
X182935000Y-80445000D02*
X189095000Y-80445000D01*
X182935000Y-80445000D02*
X182935000Y-80045000D01*
X184055000Y-80445000D02*
X182935000Y-80445000D01*
X182935000Y-80045000D02*
X184055000Y-80045000D01*
X184055000Y-80045000D02*
X184055000Y-80445000D01*
X189095000Y-85565000D02*
G75*
G03*
X189095000Y-80445000I0J2560000D01*
G01*
D10*
%TO.C,U1*%
X157775000Y-44625000D02*
X157775000Y-44850000D01*
X157775000Y-44625000D02*
X158100000Y-44625000D01*
X157775000Y-44850000D02*
X156350000Y-44850000D01*
X157775000Y-51875000D02*
X157775000Y-51550000D01*
X157775000Y-51875000D02*
X158100000Y-51875000D01*
X165025000Y-44625000D02*
X164700000Y-44625000D01*
X165025000Y-44625000D02*
X165025000Y-44950000D01*
X165025000Y-51875000D02*
X164700000Y-51875000D01*
X165025000Y-51875000D02*
X165025000Y-51550000D01*
D11*
%TO.C,J3*%
X181330000Y-60060000D02*
X181330000Y-59110000D01*
X181780000Y-60060000D02*
X181330000Y-60060000D01*
X185300000Y-60060000D02*
X185750000Y-60060000D01*
X185750000Y-60060000D02*
X185750000Y-48090000D01*
X181330000Y-59110000D02*
X179840000Y-59110000D01*
X181330000Y-48090000D02*
X181330000Y-49040000D01*
X181780000Y-48090000D02*
X181330000Y-48090000D01*
X185750000Y-48090000D02*
X185300000Y-48090000D01*
D12*
%TO.C,SW3*%
X152175000Y-67330000D02*
X158375000Y-67330000D01*
X152175000Y-67580000D02*
X152175000Y-67330000D01*
X152175000Y-71580000D02*
X152175000Y-69580000D01*
X152175000Y-73580000D02*
X152175000Y-73830000D01*
X152175000Y-73830000D02*
X158375000Y-73830000D01*
X158375000Y-67330000D02*
X158375000Y-67580000D01*
X158375000Y-71580000D02*
X158375000Y-69580000D01*
X158375000Y-73830000D02*
X158375000Y-73580000D01*
D13*
X159975000Y-72580000D02*
X159975000Y-72580000D01*
X160075000Y-72580000D02*
X160075000Y-72580000D01*
X160075000Y-72580000D02*
G75*
G03*
X159975000Y-72580000I-50000J0D01*
G01*
X159975000Y-72580000D02*
G75*
G03*
X160075000Y-72580000I50000J0D01*
G01*
D12*
%TO.C,SW2*%
X164875000Y-78030000D02*
X171075000Y-78030000D01*
X164875000Y-78280000D02*
X164875000Y-78030000D01*
X164875000Y-82280000D02*
X164875000Y-80280000D01*
X164875000Y-84280000D02*
X164875000Y-84530000D01*
X164875000Y-84530000D02*
X171075000Y-84530000D01*
X171075000Y-78030000D02*
X171075000Y-78280000D01*
X171075000Y-82280000D02*
X171075000Y-80280000D01*
X171075000Y-84530000D02*
X171075000Y-84280000D01*
D13*
X172675000Y-83280000D02*
X172675000Y-83280000D01*
X172775000Y-83280000D02*
X172775000Y-83280000D01*
X172775000Y-83280000D02*
G75*
G03*
X172675000Y-83280000I-50000J0D01*
G01*
X172675000Y-83280000D02*
G75*
G03*
X172775000Y-83280000I50000J0D01*
G01*
D11*
%TO.C,Y1*%
X150000000Y-51650000D02*
X150000000Y-48350000D01*
X150000000Y-48350000D02*
X146000000Y-48350000D01*
D12*
%TO.C,SW4*%
X177575000Y-67330000D02*
X183775000Y-67330000D01*
X177575000Y-67580000D02*
X177575000Y-67330000D01*
X177575000Y-71580000D02*
X177575000Y-69580000D01*
X177575000Y-73580000D02*
X177575000Y-73830000D01*
X177575000Y-73830000D02*
X183775000Y-73830000D01*
X183775000Y-67330000D02*
X183775000Y-67580000D01*
X183775000Y-71580000D02*
X183775000Y-69580000D01*
X183775000Y-73830000D02*
X183775000Y-73580000D01*
D13*
X185375000Y-72580000D02*
X185375000Y-72580000D01*
X185475000Y-72580000D02*
X185475000Y-72580000D01*
X185475000Y-72580000D02*
G75*
G03*
X185375000Y-72580000I-50000J0D01*
G01*
X185375000Y-72580000D02*
G75*
G03*
X185475000Y-72580000I50000J0D01*
G01*
D10*
%TO.C,U2*%
X154145000Y-86015000D02*
X158295000Y-86015000D01*
X154145000Y-87125000D02*
X153020000Y-87125000D01*
X154145000Y-87125000D02*
X154145000Y-86015000D01*
X154145000Y-94965000D02*
X154145000Y-93855000D01*
X154145000Y-94965000D02*
X158295000Y-94965000D01*
X158295000Y-86015000D02*
X158295000Y-87125000D01*
X158295000Y-94965000D02*
X158295000Y-93855000D01*
D12*
%TO.C,SW1*%
X164540000Y-57710000D02*
X170740000Y-57710000D01*
X164540000Y-57960000D02*
X164540000Y-57710000D01*
X164540000Y-61960000D02*
X164540000Y-59960000D01*
X164540000Y-63960000D02*
X164540000Y-64210000D01*
X164540000Y-64210000D02*
X170740000Y-64210000D01*
X170740000Y-57710000D02*
X170740000Y-57960000D01*
X170740000Y-61960000D02*
X170740000Y-59960000D01*
X170740000Y-64210000D02*
X170740000Y-63960000D01*
D13*
X172340000Y-62960000D02*
X172340000Y-62960000D01*
X172440000Y-62960000D02*
X172440000Y-62960000D01*
X172440000Y-62960000D02*
G75*
G03*
X172340000Y-62960000I-50000J0D01*
G01*
X172340000Y-62960000D02*
G75*
G03*
X172440000Y-62960000I50000J0D01*
G01*
D12*
%TO.C,SW5*%
X168911529Y-101844147D02*
X168911529Y-98304147D01*
X175111529Y-101844147D02*
X168911529Y-101844147D01*
X177711529Y-100074147D02*
X177711529Y-100074147D01*
X177811529Y-100074147D02*
X177811529Y-100074147D01*
X177811529Y-100074147D02*
X177811529Y-100074147D01*
X168911529Y-98304147D02*
X175111529Y-98304147D01*
X175111529Y-98304147D02*
X175111529Y-101844147D01*
X177811529Y-100074147D02*
G75*
G03*
X177711529Y-100074147I-50000J0D01*
G01*
X177811529Y-100074147D02*
G75*
G03*
X177711529Y-100074147I-50000J0D01*
G01*
X177711529Y-100074147D02*
G75*
G03*
X177811529Y-100074147I50000J0D01*
G01*
D11*
%TO.C,U4*%
X170000000Y-91440000D02*
X168200000Y-91440000D01*
X170000000Y-91440000D02*
X170800000Y-91440000D01*
X170000000Y-94560000D02*
X169200000Y-94560000D01*
X170000000Y-94560000D02*
X170800000Y-94560000D01*
D14*
%TO.C,J4*%
X153830000Y-103155000D02*
X153830000Y-101795000D01*
X153830000Y-106675000D02*
X153830000Y-105995000D01*
X162770000Y-101795000D02*
X162770000Y-103155000D01*
X162770000Y-105995000D02*
X162770000Y-106675000D01*
X162770000Y-106675000D02*
X153830000Y-106675000D01*
%TD*%
M02*
