%TF.GenerationSoftware,KiCad,Pcbnew,7.0.1*%
%TF.CreationDate,2023-06-17T09:34:48+02:00*%
%TF.ProjectId,Had_Konzole,4861645f-4b6f-46e7-9a6f-6c652e6b6963,rev?*%
%TF.SameCoordinates,Original*%
%TF.FileFunction,Copper,L1,Top*%
%TF.FilePolarity,Positive*%
%FSLAX46Y46*%
G04 Gerber Fmt 4.6, Leading zero omitted, Abs format (unit mm)*
G04 Created by KiCad (PCBNEW 7.0.1) date 2023-06-17 09:34:48*
%MOMM*%
%LPD*%
G01*
G04 APERTURE LIST*
G04 Aperture macros list*
%AMRoundRect*
0 Rectangle with rounded corners*
0 $1 Rounding radius*
0 $2 $3 $4 $5 $6 $7 $8 $9 X,Y pos of 4 corners*
0 Add a 4 corners polygon primitive as box body*
4,1,4,$2,$3,$4,$5,$6,$7,$8,$9,$2,$3,0*
0 Add four circle primitives for the rounded corners*
1,1,$1+$1,$2,$3*
1,1,$1+$1,$4,$5*
1,1,$1+$1,$6,$7*
1,1,$1+$1,$8,$9*
0 Add four rect primitives between the rounded corners*
20,1,$1+$1,$2,$3,$4,$5,0*
20,1,$1+$1,$4,$5,$6,$7,0*
20,1,$1+$1,$6,$7,$8,$9,0*
20,1,$1+$1,$8,$9,$2,$3,0*%
G04 Aperture macros list end*
%TA.AperFunction,EtchedComponent*%
%ADD10C,0.010000*%
%TD*%
%TA.AperFunction,SMDPad,CuDef*%
%ADD11RoundRect,0.225000X-0.250000X0.225000X-0.250000X-0.225000X0.250000X-0.225000X0.250000X0.225000X0*%
%TD*%
%TA.AperFunction,ComponentPad*%
%ADD12C,6.400000*%
%TD*%
%TA.AperFunction,SMDPad,CuDef*%
%ADD13RoundRect,0.200000X-0.275000X0.200000X-0.275000X-0.200000X0.275000X-0.200000X0.275000X0.200000X0*%
%TD*%
%TA.AperFunction,SMDPad,CuDef*%
%ADD14RoundRect,0.225000X0.250000X-0.225000X0.250000X0.225000X-0.250000X0.225000X-0.250000X-0.225000X0*%
%TD*%
%TA.AperFunction,ComponentPad*%
%ADD15R,1.800000X1.800000*%
%TD*%
%TA.AperFunction,ComponentPad*%
%ADD16C,1.800000*%
%TD*%
%TA.AperFunction,SMDPad,CuDef*%
%ADD17RoundRect,0.200000X0.275000X-0.200000X0.275000X0.200000X-0.275000X0.200000X-0.275000X-0.200000X0*%
%TD*%
%TA.AperFunction,SMDPad,CuDef*%
%ADD18R,1.600000X0.550000*%
%TD*%
%TA.AperFunction,SMDPad,CuDef*%
%ADD19R,0.550000X1.600000*%
%TD*%
%TA.AperFunction,SMDPad,CuDef*%
%ADD20RoundRect,0.200000X0.600000X-0.200000X0.600000X0.200000X-0.600000X0.200000X-0.600000X-0.200000X0*%
%TD*%
%TA.AperFunction,SMDPad,CuDef*%
%ADD21RoundRect,0.250001X1.249999X-0.799999X1.249999X0.799999X-1.249999X0.799999X-1.249999X-0.799999X0*%
%TD*%
%TA.AperFunction,SMDPad,CuDef*%
%ADD22RoundRect,0.225000X0.225000X0.250000X-0.225000X0.250000X-0.225000X-0.250000X0.225000X-0.250000X0*%
%TD*%
%TA.AperFunction,SMDPad,CuDef*%
%ADD23R,2.750000X1.000000*%
%TD*%
%TA.AperFunction,SMDPad,CuDef*%
%ADD24RoundRect,0.200000X-0.200000X-0.275000X0.200000X-0.275000X0.200000X0.275000X-0.200000X0.275000X0*%
%TD*%
%TA.AperFunction,SMDPad,CuDef*%
%ADD25R,1.400000X1.200000*%
%TD*%
%TA.AperFunction,SMDPad,CuDef*%
%ADD26R,1.200000X0.400000*%
%TD*%
%TA.AperFunction,SMDPad,CuDef*%
%ADD27RoundRect,0.200000X0.200000X0.275000X-0.200000X0.275000X-0.200000X-0.275000X0.200000X-0.275000X0*%
%TD*%
%TA.AperFunction,SMDPad,CuDef*%
%ADD28RoundRect,0.218750X0.256250X-0.218750X0.256250X0.218750X-0.256250X0.218750X-0.256250X-0.218750X0*%
%TD*%
%TA.AperFunction,SMDPad,CuDef*%
%ADD29R,1.500000X1.100000*%
%TD*%
%TA.AperFunction,SMDPad,CuDef*%
%ADD30RoundRect,0.150000X-0.512500X-0.150000X0.512500X-0.150000X0.512500X0.150000X-0.512500X0.150000X0*%
%TD*%
%TA.AperFunction,SMDPad,CuDef*%
%ADD31R,0.600000X1.150000*%
%TD*%
%TA.AperFunction,SMDPad,CuDef*%
%ADD32R,0.300000X1.150000*%
%TD*%
%TA.AperFunction,ComponentPad*%
%ADD33C,1.000000*%
%TD*%
%TA.AperFunction,ComponentPad*%
%ADD34O,1.000000X1.800000*%
%TD*%
%TA.AperFunction,ComponentPad*%
%ADD35R,1.650000X1.650000*%
%TD*%
%TA.AperFunction,ComponentPad*%
%ADD36C,1.650000*%
%TD*%
%TA.AperFunction,ViaPad*%
%ADD37C,0.800000*%
%TD*%
%TA.AperFunction,Conductor*%
%ADD38C,0.300000*%
%TD*%
%TA.AperFunction,Conductor*%
%ADD39C,0.250000*%
%TD*%
%TA.AperFunction,Conductor*%
%ADD40C,0.500000*%
%TD*%
G04 APERTURE END LIST*
%TO.C,J4*%
D10*
X154006000Y-103476000D02*
X154032000Y-103478000D01*
X154058000Y-103481000D01*
X154084000Y-103486000D01*
X154109000Y-103492000D01*
X154135000Y-103499000D01*
X154159000Y-103508000D01*
X154183000Y-103518000D01*
X154207000Y-103529000D01*
X154230000Y-103542000D01*
X154252000Y-103556000D01*
X154274000Y-103570000D01*
X154295000Y-103586000D01*
X154315000Y-103603000D01*
X154334000Y-103621000D01*
X154352000Y-103640000D01*
X154369000Y-103660000D01*
X154385000Y-103681000D01*
X154399000Y-103703000D01*
X154413000Y-103725000D01*
X154426000Y-103748000D01*
X154437000Y-103772000D01*
X154447000Y-103796000D01*
X154456000Y-103820000D01*
X154463000Y-103846000D01*
X154469000Y-103871000D01*
X154474000Y-103897000D01*
X154477000Y-103923000D01*
X154479000Y-103949000D01*
X154480000Y-103975000D01*
X154480000Y-105175000D01*
X154479000Y-105201000D01*
X154477000Y-105227000D01*
X154474000Y-105253000D01*
X154469000Y-105279000D01*
X154463000Y-105304000D01*
X154456000Y-105330000D01*
X154447000Y-105354000D01*
X154437000Y-105378000D01*
X154426000Y-105402000D01*
X154413000Y-105425000D01*
X154399000Y-105447000D01*
X154385000Y-105469000D01*
X154369000Y-105490000D01*
X154352000Y-105510000D01*
X154334000Y-105529000D01*
X154315000Y-105547000D01*
X154295000Y-105564000D01*
X154274000Y-105580000D01*
X154252000Y-105594000D01*
X154230000Y-105608000D01*
X154207000Y-105621000D01*
X154183000Y-105632000D01*
X154159000Y-105642000D01*
X154135000Y-105651000D01*
X154109000Y-105658000D01*
X154084000Y-105664000D01*
X154058000Y-105669000D01*
X154032000Y-105672000D01*
X154006000Y-105674000D01*
X153980000Y-105675000D01*
X153954000Y-105674000D01*
X153928000Y-105672000D01*
X153902000Y-105669000D01*
X153876000Y-105664000D01*
X153851000Y-105658000D01*
X153825000Y-105651000D01*
X153801000Y-105642000D01*
X153777000Y-105632000D01*
X153753000Y-105621000D01*
X153730000Y-105608000D01*
X153708000Y-105594000D01*
X153686000Y-105580000D01*
X153665000Y-105564000D01*
X153645000Y-105547000D01*
X153626000Y-105529000D01*
X153608000Y-105510000D01*
X153591000Y-105490000D01*
X153575000Y-105469000D01*
X153561000Y-105447000D01*
X153547000Y-105425000D01*
X153534000Y-105402000D01*
X153523000Y-105378000D01*
X153513000Y-105354000D01*
X153504000Y-105330000D01*
X153497000Y-105304000D01*
X153491000Y-105279000D01*
X153486000Y-105253000D01*
X153483000Y-105227000D01*
X153481000Y-105201000D01*
X153480000Y-105175000D01*
X153480000Y-103975000D01*
X153481000Y-103949000D01*
X153483000Y-103923000D01*
X153486000Y-103897000D01*
X153491000Y-103871000D01*
X153497000Y-103846000D01*
X153504000Y-103820000D01*
X153513000Y-103796000D01*
X153523000Y-103772000D01*
X153534000Y-103748000D01*
X153547000Y-103725000D01*
X153561000Y-103703000D01*
X153575000Y-103681000D01*
X153591000Y-103660000D01*
X153608000Y-103640000D01*
X153626000Y-103621000D01*
X153645000Y-103603000D01*
X153665000Y-103586000D01*
X153686000Y-103570000D01*
X153708000Y-103556000D01*
X153730000Y-103542000D01*
X153753000Y-103529000D01*
X153777000Y-103518000D01*
X153801000Y-103508000D01*
X153825000Y-103499000D01*
X153851000Y-103492000D01*
X153876000Y-103486000D01*
X153902000Y-103481000D01*
X153928000Y-103478000D01*
X153954000Y-103476000D01*
X153980000Y-103475000D01*
X154006000Y-103476000D01*
%TA.AperFunction,EtchedComponent*%
G36*
X154006000Y-103476000D02*
G01*
X154032000Y-103478000D01*
X154058000Y-103481000D01*
X154084000Y-103486000D01*
X154109000Y-103492000D01*
X154135000Y-103499000D01*
X154159000Y-103508000D01*
X154183000Y-103518000D01*
X154207000Y-103529000D01*
X154230000Y-103542000D01*
X154252000Y-103556000D01*
X154274000Y-103570000D01*
X154295000Y-103586000D01*
X154315000Y-103603000D01*
X154334000Y-103621000D01*
X154352000Y-103640000D01*
X154369000Y-103660000D01*
X154385000Y-103681000D01*
X154399000Y-103703000D01*
X154413000Y-103725000D01*
X154426000Y-103748000D01*
X154437000Y-103772000D01*
X154447000Y-103796000D01*
X154456000Y-103820000D01*
X154463000Y-103846000D01*
X154469000Y-103871000D01*
X154474000Y-103897000D01*
X154477000Y-103923000D01*
X154479000Y-103949000D01*
X154480000Y-103975000D01*
X154480000Y-105175000D01*
X154479000Y-105201000D01*
X154477000Y-105227000D01*
X154474000Y-105253000D01*
X154469000Y-105279000D01*
X154463000Y-105304000D01*
X154456000Y-105330000D01*
X154447000Y-105354000D01*
X154437000Y-105378000D01*
X154426000Y-105402000D01*
X154413000Y-105425000D01*
X154399000Y-105447000D01*
X154385000Y-105469000D01*
X154369000Y-105490000D01*
X154352000Y-105510000D01*
X154334000Y-105529000D01*
X154315000Y-105547000D01*
X154295000Y-105564000D01*
X154274000Y-105580000D01*
X154252000Y-105594000D01*
X154230000Y-105608000D01*
X154207000Y-105621000D01*
X154183000Y-105632000D01*
X154159000Y-105642000D01*
X154135000Y-105651000D01*
X154109000Y-105658000D01*
X154084000Y-105664000D01*
X154058000Y-105669000D01*
X154032000Y-105672000D01*
X154006000Y-105674000D01*
X153980000Y-105675000D01*
X153954000Y-105674000D01*
X153928000Y-105672000D01*
X153902000Y-105669000D01*
X153876000Y-105664000D01*
X153851000Y-105658000D01*
X153825000Y-105651000D01*
X153801000Y-105642000D01*
X153777000Y-105632000D01*
X153753000Y-105621000D01*
X153730000Y-105608000D01*
X153708000Y-105594000D01*
X153686000Y-105580000D01*
X153665000Y-105564000D01*
X153645000Y-105547000D01*
X153626000Y-105529000D01*
X153608000Y-105510000D01*
X153591000Y-105490000D01*
X153575000Y-105469000D01*
X153561000Y-105447000D01*
X153547000Y-105425000D01*
X153534000Y-105402000D01*
X153523000Y-105378000D01*
X153513000Y-105354000D01*
X153504000Y-105330000D01*
X153497000Y-105304000D01*
X153491000Y-105279000D01*
X153486000Y-105253000D01*
X153483000Y-105227000D01*
X153481000Y-105201000D01*
X153480000Y-105175000D01*
X153480000Y-103975000D01*
X153481000Y-103949000D01*
X153483000Y-103923000D01*
X153486000Y-103897000D01*
X153491000Y-103871000D01*
X153497000Y-103846000D01*
X153504000Y-103820000D01*
X153513000Y-103796000D01*
X153523000Y-103772000D01*
X153534000Y-103748000D01*
X153547000Y-103725000D01*
X153561000Y-103703000D01*
X153575000Y-103681000D01*
X153591000Y-103660000D01*
X153608000Y-103640000D01*
X153626000Y-103621000D01*
X153645000Y-103603000D01*
X153665000Y-103586000D01*
X153686000Y-103570000D01*
X153708000Y-103556000D01*
X153730000Y-103542000D01*
X153753000Y-103529000D01*
X153777000Y-103518000D01*
X153801000Y-103508000D01*
X153825000Y-103499000D01*
X153851000Y-103492000D01*
X153876000Y-103486000D01*
X153902000Y-103481000D01*
X153928000Y-103478000D01*
X153954000Y-103476000D01*
X153980000Y-103475000D01*
X154006000Y-103476000D01*
G37*
%TD.AperFunction*%
X162646000Y-103476000D02*
X162672000Y-103478000D01*
X162698000Y-103481000D01*
X162724000Y-103486000D01*
X162749000Y-103492000D01*
X162775000Y-103499000D01*
X162799000Y-103508000D01*
X162823000Y-103518000D01*
X162847000Y-103529000D01*
X162870000Y-103542000D01*
X162892000Y-103556000D01*
X162914000Y-103570000D01*
X162935000Y-103586000D01*
X162955000Y-103603000D01*
X162974000Y-103621000D01*
X162992000Y-103640000D01*
X163009000Y-103660000D01*
X163025000Y-103681000D01*
X163039000Y-103703000D01*
X163053000Y-103725000D01*
X163066000Y-103748000D01*
X163077000Y-103772000D01*
X163087000Y-103796000D01*
X163096000Y-103820000D01*
X163103000Y-103846000D01*
X163109000Y-103871000D01*
X163114000Y-103897000D01*
X163117000Y-103923000D01*
X163119000Y-103949000D01*
X163120000Y-103975000D01*
X163120000Y-105175000D01*
X163119000Y-105201000D01*
X163117000Y-105227000D01*
X163114000Y-105253000D01*
X163109000Y-105279000D01*
X163103000Y-105304000D01*
X163096000Y-105330000D01*
X163087000Y-105354000D01*
X163077000Y-105378000D01*
X163066000Y-105402000D01*
X163053000Y-105425000D01*
X163039000Y-105447000D01*
X163025000Y-105469000D01*
X163009000Y-105490000D01*
X162992000Y-105510000D01*
X162974000Y-105529000D01*
X162955000Y-105547000D01*
X162935000Y-105564000D01*
X162914000Y-105580000D01*
X162892000Y-105594000D01*
X162870000Y-105608000D01*
X162847000Y-105621000D01*
X162823000Y-105632000D01*
X162799000Y-105642000D01*
X162775000Y-105651000D01*
X162749000Y-105658000D01*
X162724000Y-105664000D01*
X162698000Y-105669000D01*
X162672000Y-105672000D01*
X162646000Y-105674000D01*
X162620000Y-105675000D01*
X162594000Y-105674000D01*
X162568000Y-105672000D01*
X162542000Y-105669000D01*
X162516000Y-105664000D01*
X162491000Y-105658000D01*
X162465000Y-105651000D01*
X162441000Y-105642000D01*
X162417000Y-105632000D01*
X162393000Y-105621000D01*
X162370000Y-105608000D01*
X162348000Y-105594000D01*
X162326000Y-105580000D01*
X162305000Y-105564000D01*
X162285000Y-105547000D01*
X162266000Y-105529000D01*
X162248000Y-105510000D01*
X162231000Y-105490000D01*
X162215000Y-105469000D01*
X162201000Y-105447000D01*
X162187000Y-105425000D01*
X162174000Y-105402000D01*
X162163000Y-105378000D01*
X162153000Y-105354000D01*
X162144000Y-105330000D01*
X162137000Y-105304000D01*
X162131000Y-105279000D01*
X162126000Y-105253000D01*
X162123000Y-105227000D01*
X162121000Y-105201000D01*
X162120000Y-105175000D01*
X162120000Y-103975000D01*
X162121000Y-103949000D01*
X162123000Y-103923000D01*
X162126000Y-103897000D01*
X162131000Y-103871000D01*
X162137000Y-103846000D01*
X162144000Y-103820000D01*
X162153000Y-103796000D01*
X162163000Y-103772000D01*
X162174000Y-103748000D01*
X162187000Y-103725000D01*
X162201000Y-103703000D01*
X162215000Y-103681000D01*
X162231000Y-103660000D01*
X162248000Y-103640000D01*
X162266000Y-103621000D01*
X162285000Y-103603000D01*
X162305000Y-103586000D01*
X162326000Y-103570000D01*
X162348000Y-103556000D01*
X162370000Y-103542000D01*
X162393000Y-103529000D01*
X162417000Y-103518000D01*
X162441000Y-103508000D01*
X162465000Y-103499000D01*
X162491000Y-103492000D01*
X162516000Y-103486000D01*
X162542000Y-103481000D01*
X162568000Y-103478000D01*
X162594000Y-103476000D01*
X162620000Y-103475000D01*
X162646000Y-103476000D01*
%TA.AperFunction,EtchedComponent*%
G36*
X162646000Y-103476000D02*
G01*
X162672000Y-103478000D01*
X162698000Y-103481000D01*
X162724000Y-103486000D01*
X162749000Y-103492000D01*
X162775000Y-103499000D01*
X162799000Y-103508000D01*
X162823000Y-103518000D01*
X162847000Y-103529000D01*
X162870000Y-103542000D01*
X162892000Y-103556000D01*
X162914000Y-103570000D01*
X162935000Y-103586000D01*
X162955000Y-103603000D01*
X162974000Y-103621000D01*
X162992000Y-103640000D01*
X163009000Y-103660000D01*
X163025000Y-103681000D01*
X163039000Y-103703000D01*
X163053000Y-103725000D01*
X163066000Y-103748000D01*
X163077000Y-103772000D01*
X163087000Y-103796000D01*
X163096000Y-103820000D01*
X163103000Y-103846000D01*
X163109000Y-103871000D01*
X163114000Y-103897000D01*
X163117000Y-103923000D01*
X163119000Y-103949000D01*
X163120000Y-103975000D01*
X163120000Y-105175000D01*
X163119000Y-105201000D01*
X163117000Y-105227000D01*
X163114000Y-105253000D01*
X163109000Y-105279000D01*
X163103000Y-105304000D01*
X163096000Y-105330000D01*
X163087000Y-105354000D01*
X163077000Y-105378000D01*
X163066000Y-105402000D01*
X163053000Y-105425000D01*
X163039000Y-105447000D01*
X163025000Y-105469000D01*
X163009000Y-105490000D01*
X162992000Y-105510000D01*
X162974000Y-105529000D01*
X162955000Y-105547000D01*
X162935000Y-105564000D01*
X162914000Y-105580000D01*
X162892000Y-105594000D01*
X162870000Y-105608000D01*
X162847000Y-105621000D01*
X162823000Y-105632000D01*
X162799000Y-105642000D01*
X162775000Y-105651000D01*
X162749000Y-105658000D01*
X162724000Y-105664000D01*
X162698000Y-105669000D01*
X162672000Y-105672000D01*
X162646000Y-105674000D01*
X162620000Y-105675000D01*
X162594000Y-105674000D01*
X162568000Y-105672000D01*
X162542000Y-105669000D01*
X162516000Y-105664000D01*
X162491000Y-105658000D01*
X162465000Y-105651000D01*
X162441000Y-105642000D01*
X162417000Y-105632000D01*
X162393000Y-105621000D01*
X162370000Y-105608000D01*
X162348000Y-105594000D01*
X162326000Y-105580000D01*
X162305000Y-105564000D01*
X162285000Y-105547000D01*
X162266000Y-105529000D01*
X162248000Y-105510000D01*
X162231000Y-105490000D01*
X162215000Y-105469000D01*
X162201000Y-105447000D01*
X162187000Y-105425000D01*
X162174000Y-105402000D01*
X162163000Y-105378000D01*
X162153000Y-105354000D01*
X162144000Y-105330000D01*
X162137000Y-105304000D01*
X162131000Y-105279000D01*
X162126000Y-105253000D01*
X162123000Y-105227000D01*
X162121000Y-105201000D01*
X162120000Y-105175000D01*
X162120000Y-103975000D01*
X162121000Y-103949000D01*
X162123000Y-103923000D01*
X162126000Y-103897000D01*
X162131000Y-103871000D01*
X162137000Y-103846000D01*
X162144000Y-103820000D01*
X162153000Y-103796000D01*
X162163000Y-103772000D01*
X162174000Y-103748000D01*
X162187000Y-103725000D01*
X162201000Y-103703000D01*
X162215000Y-103681000D01*
X162231000Y-103660000D01*
X162248000Y-103640000D01*
X162266000Y-103621000D01*
X162285000Y-103603000D01*
X162305000Y-103586000D01*
X162326000Y-103570000D01*
X162348000Y-103556000D01*
X162370000Y-103542000D01*
X162393000Y-103529000D01*
X162417000Y-103518000D01*
X162441000Y-103508000D01*
X162465000Y-103499000D01*
X162491000Y-103492000D01*
X162516000Y-103486000D01*
X162542000Y-103481000D01*
X162568000Y-103478000D01*
X162594000Y-103476000D01*
X162620000Y-103475000D01*
X162646000Y-103476000D01*
G37*
%TD.AperFunction*%
%TD*%
D11*
%TO.P,C1,1*%
%TO.N,Net-(U4-VIN)*%
X164000000Y-92225000D03*
%TO.P,C1,2*%
%TO.N,GND*%
X164000000Y-93775000D03*
%TD*%
%TO.P,C5,1*%
%TO.N,+3V3*%
X168500000Y-50325000D03*
%TO.P,C5,2*%
%TO.N,GND*%
X168500000Y-51875000D03*
%TD*%
D12*
%TO.P,H1,1,1*%
%TO.N,GND*%
X145000000Y-41000000D03*
%TD*%
D13*
%TO.P,R1,1*%
%TO.N,Net-(D1-K)*%
X178440000Y-84285000D03*
%TO.P,R1,2*%
%TO.N,GND*%
X178440000Y-85935000D03*
%TD*%
D12*
%TO.P,H3,1,1*%
%TO.N,GND*%
X145000000Y-102000000D03*
%TD*%
D14*
%TO.P,C4,1*%
%TO.N,+3V3*%
X155000000Y-47775000D03*
%TO.P,C4,2*%
%TO.N,GND*%
X155000000Y-46225000D03*
%TD*%
D11*
%TO.P,C2,1*%
%TO.N,3.3 Out*%
X174000000Y-92225000D03*
%TO.P,C2,2*%
%TO.N,GND*%
X174000000Y-93775000D03*
%TD*%
D15*
%TO.P,D1,1,K*%
%TO.N,Net-(D1-K)*%
X181725000Y-84275000D03*
D16*
%TO.P,D1,2,A*%
%TO.N,+3V3*%
X181725000Y-81735000D03*
%TD*%
D17*
%TO.P,R4,1*%
%TO.N,Button_Up*%
X161120000Y-58965000D03*
%TO.P,R4,2*%
%TO.N,GND*%
X161120000Y-57315000D03*
%TD*%
%TO.P,R7,1*%
%TO.N,Button_Down*%
X161390000Y-79285000D03*
%TO.P,R7,2*%
%TO.N,GND*%
X161390000Y-77635000D03*
%TD*%
D18*
%TO.P,U1,1,PD3*%
%TO.N,Button_Up*%
X157150000Y-45450000D03*
%TO.P,U1,2,PD4*%
%TO.N,Button_Down*%
X157150000Y-46250000D03*
%TO.P,U1,3,GND*%
%TO.N,GND*%
X157150000Y-47050000D03*
%TO.P,U1,4,VCC*%
%TO.N,+3V3*%
X157150000Y-47850000D03*
%TO.P,U1,5,GND*%
%TO.N,GND*%
X157150000Y-48650000D03*
%TO.P,U1,6,VCC*%
%TO.N,+3V3*%
X157150000Y-49450000D03*
%TO.P,U1,7,XTAL1/PB6*%
%TO.N,HSE_IN*%
X157150000Y-50250000D03*
%TO.P,U1,8,XTAL2/PB7*%
%TO.N,HSE_OUT*%
X157150000Y-51050000D03*
D19*
%TO.P,U1,9,PD5*%
%TO.N,Button_Left*%
X158600000Y-52500000D03*
%TO.P,U1,10,PD6*%
%TO.N,Button_Right*%
X159400000Y-52500000D03*
%TO.P,U1,11,PD7*%
%TO.N,unconnected-(U1-PD7-Pad11)*%
X160200000Y-52500000D03*
%TO.P,U1,12,PB0*%
%TO.N,unconnected-(U1-PB0-Pad12)*%
X161000000Y-52500000D03*
%TO.P,U1,13,PB1*%
%TO.N,unconnected-(U1-PB1-Pad13)*%
X161800000Y-52500000D03*
%TO.P,U1,14,PB2*%
%TO.N,unconnected-(U1-PB2-Pad14)*%
X162600000Y-52500000D03*
%TO.P,U1,15,PB3*%
%TO.N,MOSI*%
X163400000Y-52500000D03*
%TO.P,U1,16,PB4*%
%TO.N,MISO*%
X164200000Y-52500000D03*
D18*
%TO.P,U1,17,PB5*%
%TO.N,SCK*%
X165650000Y-51050000D03*
%TO.P,U1,18,AVCC*%
%TO.N,+3V3*%
X165650000Y-50250000D03*
%TO.P,U1,19,ADC6*%
%TO.N,unconnected-(U1-ADC6-Pad19)*%
X165650000Y-49450000D03*
%TO.P,U1,20,AREF*%
%TO.N,Net-(U1-AREF)*%
X165650000Y-48650000D03*
%TO.P,U1,21,GND*%
%TO.N,GND*%
X165650000Y-47850000D03*
%TO.P,U1,22,ADC7*%
%TO.N,unconnected-(U1-ADC7-Pad22)*%
X165650000Y-47050000D03*
%TO.P,U1,23,PC0*%
%TO.N,CLK*%
X165650000Y-46250000D03*
%TO.P,U1,24,PC1*%
%TO.N,DIN*%
X165650000Y-45450000D03*
D19*
%TO.P,U1,25,PC2*%
%TO.N,DC*%
X164200000Y-44000000D03*
%TO.P,U1,26,PC3*%
%TO.N,CE*%
X163400000Y-44000000D03*
%TO.P,U1,27,PC4*%
%TO.N,RST*%
X162600000Y-44000000D03*
%TO.P,U1,28,PC5*%
%TO.N,unconnected-(U1-PC5-Pad28)*%
X161800000Y-44000000D03*
%TO.P,U1,29,~{RESET}/PC6*%
%TO.N,RST_PROG*%
X161000000Y-44000000D03*
%TO.P,U1,30,PD0*%
%TO.N,TX*%
X160200000Y-44000000D03*
%TO.P,U1,31,PD1*%
%TO.N,RX*%
X159400000Y-44000000D03*
%TO.P,U1,32,PD2*%
%TO.N,unconnected-(U1-PD2-Pad32)*%
X158600000Y-44000000D03*
%TD*%
D17*
%TO.P,R9,1*%
%TO.N,Net-(J4-CC2)*%
X162170000Y-93795000D03*
%TO.P,R9,2*%
%TO.N,GND*%
X162170000Y-92145000D03*
%TD*%
%TO.P,R8,1*%
%TO.N,Net-(J4-CC1)*%
X151190000Y-93815000D03*
%TO.P,R8,2*%
%TO.N,GND*%
X151190000Y-92165000D03*
%TD*%
D20*
%TO.P,J3,1,1*%
%TO.N,GND*%
X180640000Y-58450000D03*
%TO.P,J3,2,2*%
X180640000Y-57200000D03*
%TO.P,J3,3,3*%
%TO.N,+3V3*%
X180640000Y-55950000D03*
%TO.P,J3,4,4*%
%TO.N,CLK*%
X180640000Y-54700000D03*
%TO.P,J3,5,5*%
%TO.N,DIN*%
X180640000Y-53450000D03*
%TO.P,J3,6,6*%
%TO.N,DC*%
X180640000Y-52200000D03*
%TO.P,J3,7,7*%
%TO.N,CE*%
X180640000Y-50950000D03*
%TO.P,J3,8,8*%
%TO.N,RST*%
X180640000Y-49700000D03*
D21*
%TO.P,J3,MP,MP1*%
%TO.N,unconnected-(J3-MP1-PadMP)*%
X183540000Y-61000000D03*
X183540000Y-47150000D03*
%TD*%
D22*
%TO.P,C7,1*%
%TO.N,Net-(C7-Pad1)*%
X148775000Y-53000000D03*
%TO.P,C7,2*%
%TO.N,GND*%
X147225000Y-53000000D03*
%TD*%
D23*
%TO.P,SW3,1,1*%
%TO.N,+3V3*%
X152400000Y-72580000D03*
X158150000Y-72580000D03*
%TO.P,SW3,2,2*%
%TO.N,Button_Left*%
X152400000Y-68580000D03*
X158150000Y-68580000D03*
%TD*%
D11*
%TO.P,C8,1*%
%TO.N,+3V3*%
X151210000Y-88905000D03*
%TO.P,C8,2*%
%TO.N,GND*%
X151210000Y-90455000D03*
%TD*%
D17*
%TO.P,R5,1*%
%TO.N,Button_Left*%
X148710000Y-68595000D03*
%TO.P,R5,2*%
%TO.N,GND*%
X148710000Y-66945000D03*
%TD*%
D24*
%TO.P,R2,1*%
%TO.N,+3V3*%
X153175000Y-41000000D03*
%TO.P,R2,2*%
%TO.N,RST_PROG*%
X154825000Y-41000000D03*
%TD*%
D23*
%TO.P,SW2,1,1*%
%TO.N,+3V3*%
X165100000Y-83280000D03*
X170850000Y-83280000D03*
%TO.P,SW2,2,2*%
%TO.N,Button_Down*%
X165100000Y-79280000D03*
X170850000Y-79280000D03*
%TD*%
D25*
%TO.P,Y1,1,1*%
%TO.N,HSE_IN*%
X149100000Y-49150000D03*
%TO.P,Y1,2,2*%
%TO.N,GND*%
X146900000Y-49150000D03*
%TO.P,Y1,3,3*%
X146900000Y-50850000D03*
%TO.P,Y1,4,4*%
%TO.N,Net-(C7-Pad1)*%
X149100000Y-50850000D03*
%TD*%
D23*
%TO.P,SW4,1,1*%
%TO.N,+3V3*%
X177800000Y-72580000D03*
X183550000Y-72580000D03*
%TO.P,SW4,2,2*%
%TO.N,Button_Right*%
X177800000Y-68580000D03*
X183550000Y-68580000D03*
%TD*%
D12*
%TO.P,H2,1,1*%
%TO.N,GND*%
X188000000Y-41000000D03*
%TD*%
D14*
%TO.P,C10,1*%
%TO.N,Net-(U1-AREF)*%
X168500000Y-48775000D03*
%TO.P,C10,2*%
%TO.N,GND*%
X168500000Y-47225000D03*
%TD*%
D26*
%TO.P,U2,1,~{DTR}*%
%TO.N,DTR*%
X153620000Y-87632500D03*
%TO.P,U2,2,~{RTS}*%
%TO.N,unconnected-(U2-~{RTS}-Pad2)*%
X153620000Y-88267500D03*
%TO.P,U2,3,VCCIO*%
%TO.N,+3V3*%
X153620000Y-88902500D03*
%TO.P,U2,4,RXD*%
%TO.N,RX*%
X153620000Y-89537500D03*
%TO.P,U2,5,~{RI}*%
%TO.N,unconnected-(U2-~{RI}-Pad5)*%
X153620000Y-90172500D03*
%TO.P,U2,6,GND*%
%TO.N,GND*%
X153620000Y-90807500D03*
%TO.P,U2,7,~{DSR}*%
%TO.N,unconnected-(U2-~{DSR}-Pad7)*%
X153620000Y-91442500D03*
%TO.P,U2,8,~{DCD}*%
%TO.N,unconnected-(U2-~{DCD}-Pad8)*%
X153620000Y-92077500D03*
%TO.P,U2,9,~{CTS}*%
%TO.N,unconnected-(U2-~{CTS}-Pad9)*%
X153620000Y-92712500D03*
%TO.P,U2,10,CBUS2*%
%TO.N,unconnected-(U2-CBUS2-Pad10)*%
X153620000Y-93347500D03*
%TO.P,U2,11,USBDP*%
%TO.N,USB_Conn_D+*%
X158820000Y-93347500D03*
%TO.P,U2,12,USBDM*%
%TO.N,USB_Conn_D-*%
X158820000Y-92712500D03*
%TO.P,U2,13,3V3OUT*%
%TO.N,+3V3*%
X158820000Y-92077500D03*
%TO.P,U2,14,~{RESET}*%
X158820000Y-91442500D03*
%TO.P,U2,15,VCC*%
X158820000Y-90807500D03*
%TO.P,U2,16,GND*%
%TO.N,GND*%
X158820000Y-90172500D03*
%TO.P,U2,17,CBUS1*%
%TO.N,unconnected-(U2-CBUS1-Pad17)*%
X158820000Y-89537500D03*
%TO.P,U2,18,CBUS0*%
%TO.N,unconnected-(U2-CBUS0-Pad18)*%
X158820000Y-88902500D03*
%TO.P,U2,19,CBUS3*%
%TO.N,unconnected-(U2-CBUS3-Pad19)*%
X158820000Y-88267500D03*
%TO.P,U2,20,TXD*%
%TO.N,TX*%
X158820000Y-87632500D03*
%TD*%
D14*
%TO.P,C3,1*%
%TO.N,+3V3*%
X153000000Y-47775000D03*
%TO.P,C3,2*%
%TO.N,GND*%
X153000000Y-46225000D03*
%TD*%
D23*
%TO.P,SW1,1,1*%
%TO.N,+3V3*%
X164765000Y-62960000D03*
X170515000Y-62960000D03*
%TO.P,SW1,2,2*%
%TO.N,Button_Up*%
X164765000Y-58960000D03*
X170515000Y-58960000D03*
%TD*%
D27*
%TO.P,R3,1*%
%TO.N,HSE_OUT*%
X152825000Y-53000000D03*
%TO.P,R3,2*%
%TO.N,Net-(C7-Pad1)*%
X151175000Y-53000000D03*
%TD*%
D17*
%TO.P,R6,1*%
%TO.N,Button_Right*%
X174080000Y-68575000D03*
%TO.P,R6,2*%
%TO.N,GND*%
X174080000Y-66925000D03*
%TD*%
D28*
%TO.P,F1,1*%
%TO.N,+5V*%
X166000000Y-93787500D03*
%TO.P,F1,2*%
%TO.N,Net-(U4-VIN)*%
X166000000Y-92212500D03*
%TD*%
D29*
%TO.P,SW5,1*%
%TO.N,3.3 Out*%
X176461529Y-100074147D03*
%TO.P,SW5,2*%
%TO.N,+3V3*%
X167561529Y-100074147D03*
%TD*%
D30*
%TO.P,U4,1,VIN*%
%TO.N,Net-(U4-VIN)*%
X168862500Y-92050000D03*
%TO.P,U4,2,GND*%
%TO.N,GND*%
X168862500Y-93000000D03*
%TO.P,U4,3,EN*%
%TO.N,unconnected-(U4-EN-Pad3)*%
X168862500Y-93950000D03*
%TO.P,U4,4,NC*%
%TO.N,unconnected-(U4-NC-Pad4)*%
X171137500Y-93950000D03*
%TO.P,U4,5,VOUT*%
%TO.N,3.3 Out*%
X171137500Y-92050000D03*
%TD*%
D12*
%TO.P,H4,1,1*%
%TO.N,GND*%
X188000000Y-102000000D03*
%TD*%
D31*
%TO.P,J4,1,VBUS*%
%TO.N,+5V*%
X155900000Y-100000000D03*
X160700000Y-100000000D03*
D32*
%TO.P,J4,2,SBU1*%
%TO.N,unconnected-(J4-SBU1-Pad2)*%
X159550000Y-100000000D03*
%TO.P,J4,3,SBU2*%
%TO.N,unconnected-(J4-SBU2-Pad3)*%
X156550000Y-100000000D03*
%TO.P,J4,4,D+*%
%TO.N,USB_Conn_D-*%
X158050000Y-100000000D03*
%TO.P,J4,5,D+*%
X159050000Y-100000000D03*
%TO.P,J4,6,D-*%
%TO.N,USB_Conn_D+*%
X158550000Y-100000000D03*
%TO.P,J4,7,D-*%
X157550000Y-100000000D03*
%TO.P,J4,8,CC1*%
%TO.N,Net-(J4-CC1)*%
X157050000Y-100000000D03*
%TO.P,J4,9,CC2*%
%TO.N,Net-(J4-CC2)*%
X160050000Y-100000000D03*
D31*
%TO.P,J4,10,GND*%
%TO.N,GND*%
X155100000Y-100000000D03*
X161500000Y-100000000D03*
D33*
%TO.P,J4,S1,SHIELD*%
%TO.N,unconnected-(J4-SHIELD-PadS1)*%
X153980000Y-104575000D03*
%TO.P,J4,S2,SHIELD*%
X162620000Y-104575000D03*
D34*
%TO.P,J4,S3,SHIELD*%
X153980000Y-100575000D03*
%TO.P,J4,S4,SHIELD*%
X162620000Y-100575000D03*
%TD*%
D22*
%TO.P,C6,1*%
%TO.N,HSE_IN*%
X148775000Y-47000000D03*
%TO.P,C6,2*%
%TO.N,GND*%
X147225000Y-47000000D03*
%TD*%
D35*
%TO.P,J2,1,Pin_1*%
%TO.N,Reset*%
X176037500Y-62140000D03*
D36*
%TO.P,J2,2,Pin_2*%
%TO.N,MOSI*%
X176037500Y-59600000D03*
%TO.P,J2,3,Pin_3*%
%TO.N,MISO*%
X176037500Y-57060000D03*
%TO.P,J2,4,Pin_4*%
%TO.N,SCK*%
X176037500Y-54520000D03*
%TD*%
D37*
%TO.N,USB_Conn_D-*%
X160400000Y-93700000D03*
X158400000Y-101800000D03*
%TO.N,GND*%
X146100000Y-53000000D03*
X147200000Y-45900000D03*
X154000000Y-45400000D03*
X161200000Y-56300000D03*
X148700000Y-65900000D03*
X161400000Y-76600000D03*
X173000000Y-66900000D03*
X177300000Y-86000000D03*
X154700000Y-98800000D03*
X161700000Y-98800000D03*
X171300000Y-97200000D03*
X174000000Y-94800000D03*
X167600000Y-93200000D03*
X164000000Y-94800000D03*
X162200000Y-91100000D03*
X157600000Y-90100000D03*
X150100000Y-92200000D03*
X154800000Y-90800000D03*
%TO.N,+3V3*%
X150100000Y-88900000D03*
X164200000Y-50300000D03*
X158500000Y-49500000D03*
X154600000Y-48800000D03*
X151900000Y-47800000D03*
X152100000Y-41000000D03*
%TO.N,RST_PROG*%
X153481207Y-43799521D03*
%TO.N,DTR*%
X145634952Y-66056808D03*
%TO.N,Reset*%
X152400000Y-63500000D03*
X160409444Y-65112559D03*
%TO.N,GND*%
X169600000Y-51900000D03*
X179200000Y-57200000D03*
X169600000Y-47200000D03*
X179200000Y-58500000D03*
%TO.N,+3V3*%
X163200000Y-83300000D03*
X172100000Y-82200000D03*
X171800000Y-64000000D03*
X175800000Y-72600000D03*
X169600000Y-50300000D03*
X179200000Y-56000000D03*
X160000000Y-90800000D03*
X184900000Y-73700000D03*
X179900000Y-81700000D03*
X159494500Y-71500000D03*
X160100000Y-92100000D03*
X150400000Y-72600000D03*
X157600000Y-91500000D03*
X162800000Y-63000000D03*
X165000000Y-100000000D03*
%TO.N,+5V*%
X168000000Y-96000000D03*
%TO.N,SCK*%
X168200000Y-53526000D03*
%TO.N,MISO*%
X165000000Y-54275500D03*
%TO.N,MOSI*%
X164000000Y-55000000D03*
%TO.N,Button_Up*%
X160300000Y-46420000D03*
X161100000Y-60600000D03*
%TO.N,Button_Down*%
X159500000Y-48100000D03*
X159230000Y-79290000D03*
%TO.N,TX*%
X157300000Y-80600000D03*
X158000000Y-41800000D03*
%TO.N,RX*%
X156000000Y-42600000D03*
X155400000Y-80800000D03*
%TD*%
D38*
%TO.N,Net-(D1-K)*%
X178450000Y-84275000D02*
X181725000Y-84275000D01*
X178440000Y-84285000D02*
X178450000Y-84275000D01*
D39*
%TO.N,+3V3*%
X181690000Y-81700000D02*
X181725000Y-81735000D01*
X179900000Y-81700000D02*
X181690000Y-81700000D01*
X179900000Y-81700000D02*
X179935000Y-81735000D01*
D38*
%TO.N,RST*%
X164000000Y-41000000D02*
X162600000Y-42400000D01*
X171900000Y-41000000D02*
X164000000Y-41000000D01*
X180640000Y-49700000D02*
X180600000Y-49700000D01*
X180600000Y-49700000D02*
X171900000Y-41000000D01*
X162600000Y-42400000D02*
X162600000Y-44000000D01*
%TO.N,CE*%
X163400000Y-42900000D02*
X163400000Y-44000000D01*
X171362183Y-42000000D02*
X164300000Y-42000000D01*
X164300000Y-42000000D02*
X163400000Y-42900000D01*
X180640000Y-50950000D02*
X180312183Y-50950000D01*
X180312183Y-50950000D02*
X171362183Y-42000000D01*
%TO.N,DIN*%
X179950000Y-53450000D02*
X171950000Y-45450000D01*
X180640000Y-53450000D02*
X179950000Y-53450000D01*
X171950000Y-45450000D02*
X165650000Y-45450000D01*
%TO.N,DC*%
X172112183Y-44000000D02*
X164200000Y-44000000D01*
X180312183Y-52200000D02*
X172112183Y-44000000D01*
X180640000Y-52200000D02*
X180312183Y-52200000D01*
%TO.N,CLK*%
X179700000Y-54700000D02*
X171250000Y-46250000D01*
X171250000Y-46250000D02*
X165650000Y-46250000D01*
X180640000Y-54700000D02*
X179700000Y-54700000D01*
D39*
%TO.N,DTR*%
X145634952Y-82934952D02*
X145634952Y-66056808D01*
X150332500Y-87632500D02*
X145634952Y-82934952D01*
X153620000Y-87632500D02*
X150332500Y-87632500D01*
%TO.N,Net-(C7-Pad1)*%
X149100000Y-50850000D02*
X151175000Y-52925000D01*
X151175000Y-52925000D02*
X151175000Y-53000000D01*
X149100000Y-52675000D02*
X148775000Y-53000000D01*
X149100000Y-50850000D02*
X149100000Y-52675000D01*
%TO.N,RST_PROG*%
X154825000Y-41000000D02*
X154825000Y-42455728D01*
%TO.N,GND*%
X150100000Y-92200000D02*
X151155000Y-92200000D01*
X151155000Y-92200000D02*
X151190000Y-92165000D01*
%TO.N,USB_Conn_D-*%
X160400000Y-93477500D02*
X159635000Y-92712500D01*
X160400000Y-93700000D02*
X160400000Y-93477500D01*
X159635000Y-92712500D02*
X158820000Y-92712500D01*
%TO.N,unconnected-(J4-SHIELD-PadS1)*%
X153980000Y-102983310D02*
X154116691Y-103120001D01*
%TO.N,USB_Conn_D-*%
X159050000Y-101150000D02*
X158400000Y-101800000D01*
X159050000Y-100000000D02*
X159050000Y-101150000D01*
X158050000Y-101450000D02*
X158400000Y-101800000D01*
X158050000Y-100000000D02*
X158050000Y-101450000D01*
%TO.N,USB_Conn_D+*%
X158820000Y-93347500D02*
X158550000Y-93617500D01*
X158550000Y-93617500D02*
X158550000Y-100000000D01*
X158500000Y-93667500D02*
X158820000Y-93347500D01*
X157550000Y-94617500D02*
X158820000Y-93347500D01*
X157550000Y-100000000D02*
X157550000Y-94617500D01*
D40*
%TO.N,+5V*%
X161100000Y-96000000D02*
X165000000Y-96000000D01*
X165000000Y-96000000D02*
X166000000Y-95000000D01*
X160700000Y-100000000D02*
X160700000Y-96400000D01*
X160700000Y-96400000D02*
X161100000Y-96000000D01*
D39*
%TO.N,Net-(J4-CC2)*%
X160050000Y-95915000D02*
X162170000Y-93795000D01*
X160050000Y-100000000D02*
X160050000Y-95915000D01*
%TO.N,Net-(J4-CC1)*%
X151190000Y-95100000D02*
X151190000Y-93815000D01*
X152180000Y-96090000D02*
X151190000Y-95100000D01*
X157050000Y-97565690D02*
X155574310Y-96090000D01*
X157050000Y-100000000D02*
X157050000Y-97565690D01*
X155574310Y-96090000D02*
X152180000Y-96090000D01*
D40*
%TO.N,+5V*%
X155900000Y-101900000D02*
X155900000Y-100000000D01*
X156900000Y-102900000D02*
X155900000Y-101900000D01*
X159900000Y-102900000D02*
X156900000Y-102900000D01*
X160700000Y-100000000D02*
X160700000Y-102100000D01*
X160700000Y-102100000D02*
X159900000Y-102900000D01*
D38*
%TO.N,GND*%
X161700000Y-99800000D02*
X161500000Y-100000000D01*
X161700000Y-98800000D02*
X161700000Y-99800000D01*
X154700000Y-98800000D02*
X154700000Y-99600000D01*
X154700000Y-99600000D02*
X155100000Y-100000000D01*
X174000000Y-94800000D02*
X174000000Y-93775000D01*
X167600000Y-93200000D02*
X168662500Y-93200000D01*
X168662500Y-93200000D02*
X168862500Y-93000000D01*
X164000000Y-93775000D02*
X164000000Y-94800000D01*
X162170000Y-91130000D02*
X162200000Y-91100000D01*
X162170000Y-92145000D02*
X162170000Y-91130000D01*
X158747500Y-90100000D02*
X158820000Y-90172500D01*
X157600000Y-90100000D02*
X158747500Y-90100000D01*
X153627500Y-90800000D02*
X153620000Y-90807500D01*
X154800000Y-90800000D02*
X153627500Y-90800000D01*
X178375000Y-86000000D02*
X178440000Y-85935000D01*
X177300000Y-86000000D02*
X178375000Y-86000000D01*
X161390000Y-76610000D02*
X161400000Y-76600000D01*
X161390000Y-77635000D02*
X161390000Y-76610000D01*
X174055000Y-66900000D02*
X174080000Y-66925000D01*
X173000000Y-66900000D02*
X174055000Y-66900000D01*
X148710000Y-66945000D02*
X148710000Y-65910000D01*
X148710000Y-65910000D02*
X148700000Y-65900000D01*
X161120000Y-56380000D02*
X161200000Y-56300000D01*
X161120000Y-57315000D02*
X161120000Y-56380000D01*
X167375000Y-47225000D02*
X168500000Y-47225000D01*
X166750000Y-47850000D02*
X167375000Y-47225000D01*
X165650000Y-47850000D02*
X166750000Y-47850000D01*
X154175000Y-45400000D02*
X155000000Y-46225000D01*
X154000000Y-45400000D02*
X154175000Y-45400000D01*
X153825000Y-45400000D02*
X153000000Y-46225000D01*
X154000000Y-45400000D02*
X153825000Y-45400000D01*
X146100000Y-53000000D02*
X147225000Y-53000000D01*
X147200000Y-46975000D02*
X147225000Y-47000000D01*
X147200000Y-45900000D02*
X147200000Y-46975000D01*
%TO.N,+3V3*%
X151205000Y-88900000D02*
X151210000Y-88905000D01*
X150100000Y-88900000D02*
X151205000Y-88900000D01*
X164200000Y-50300000D02*
X165600000Y-50300000D01*
X165600000Y-50300000D02*
X165650000Y-50250000D01*
X169600000Y-50300000D02*
X168525000Y-50300000D01*
X168525000Y-50300000D02*
X168500000Y-50325000D01*
X157200000Y-49500000D02*
X157150000Y-49450000D01*
X158500000Y-49500000D02*
X157200000Y-49500000D01*
D39*
%TO.N,Button_Down*%
X159500000Y-47675000D02*
X158075000Y-46250000D01*
X159500000Y-48100000D02*
X159500000Y-47675000D01*
X158075000Y-46250000D02*
X157150000Y-46250000D01*
%TO.N,Button_Up*%
X161100000Y-58985000D02*
X161120000Y-58965000D01*
X161100000Y-60600000D02*
X161100000Y-58985000D01*
X159330000Y-45450000D02*
X157150000Y-45450000D01*
X160300000Y-46420000D02*
X159330000Y-45450000D01*
D38*
%TO.N,+3V3*%
X154600000Y-48175000D02*
X155000000Y-47775000D01*
X154600000Y-48800000D02*
X154600000Y-48175000D01*
X152975000Y-47800000D02*
X153000000Y-47775000D01*
X151900000Y-47800000D02*
X152975000Y-47800000D01*
X152100000Y-41000000D02*
X153175000Y-41000000D01*
D39*
X184670000Y-73700000D02*
X183550000Y-72580000D01*
X184900000Y-73700000D02*
X184670000Y-73700000D01*
X171800000Y-64000000D02*
X170760000Y-62960000D01*
X170760000Y-62960000D02*
X170515000Y-62960000D01*
X159494500Y-71500000D02*
X158414500Y-72580000D01*
X158414500Y-72580000D02*
X158150000Y-72580000D01*
X172100000Y-82200000D02*
X171020000Y-83280000D01*
X171020000Y-83280000D02*
X170850000Y-83280000D01*
X150400000Y-72600000D02*
X152380000Y-72600000D01*
X152380000Y-72600000D02*
X152400000Y-72580000D01*
%TO.N,RST_PROG*%
X153481207Y-43799521D02*
X154825000Y-42455728D01*
%TO.N,Reset*%
X154012559Y-65112559D02*
X152400000Y-63500000D01*
X160409444Y-65112559D02*
X154012559Y-65112559D01*
D40*
%TO.N,Net-(U4-VIN)*%
X166000000Y-92212500D02*
X164012500Y-92212500D01*
X168700000Y-92212500D02*
X168862500Y-92050000D01*
X164012500Y-92212500D02*
X164000000Y-92225000D01*
X166000000Y-92212500D02*
X168700000Y-92212500D01*
D39*
%TO.N,GND*%
X147225000Y-48825000D02*
X146900000Y-49150000D01*
D40*
X155825000Y-47050000D02*
X155000000Y-46225000D01*
D38*
X179200000Y-57200000D02*
X180640000Y-57200000D01*
D39*
X147225000Y-51175000D02*
X146900000Y-50850000D01*
D38*
X180590000Y-58500000D02*
X180640000Y-58450000D01*
D39*
X146900000Y-50850000D02*
X146900000Y-49150000D01*
D38*
X151562500Y-90807500D02*
X151210000Y-90455000D01*
X169600000Y-51900000D02*
X168525000Y-51900000D01*
D39*
X147225000Y-53000000D02*
X147225000Y-51175000D01*
D38*
X168525000Y-51900000D02*
X168500000Y-51875000D01*
X179200000Y-58500000D02*
X180590000Y-58500000D01*
D40*
X155000000Y-46225000D02*
X153000000Y-46225000D01*
D38*
X169600000Y-47200000D02*
X168525000Y-47200000D01*
D39*
X147225000Y-47000000D02*
X147225000Y-48825000D01*
D38*
X153620000Y-90807500D02*
X151562500Y-90807500D01*
D40*
X157150000Y-47050000D02*
X155825000Y-47050000D01*
D38*
X168525000Y-47200000D02*
X168500000Y-47225000D01*
D40*
%TO.N,3.3 Out*%
X174000000Y-92225000D02*
X176461529Y-94686529D01*
X171137500Y-92050000D02*
X173825000Y-92050000D01*
X176461529Y-94686529D02*
X176461529Y-100074147D01*
X173825000Y-92050000D02*
X174000000Y-92225000D01*
%TO.N,+3V3*%
X165074147Y-100074147D02*
X165000000Y-100000000D01*
D38*
X165650000Y-50250000D02*
X168275000Y-50250000D01*
X180590000Y-56000000D02*
X180640000Y-55950000D01*
X158827500Y-90800000D02*
X158820000Y-90807500D01*
D40*
X167561529Y-100074147D02*
X165074147Y-100074147D01*
D38*
X157600000Y-91500000D02*
X158762500Y-91500000D01*
D39*
X165080000Y-83300000D02*
X165100000Y-83280000D01*
X164725000Y-63000000D02*
X164765000Y-62960000D01*
D38*
X160100000Y-92100000D02*
X158842500Y-92100000D01*
X158842500Y-92100000D02*
X158820000Y-92077500D01*
X151212500Y-88902500D02*
X151210000Y-88905000D01*
D40*
X155000000Y-47775000D02*
X153000000Y-47775000D01*
D38*
X160000000Y-90800000D02*
X158827500Y-90800000D01*
D40*
X157150000Y-47850000D02*
X155075000Y-47850000D01*
D38*
X158762500Y-91500000D02*
X158820000Y-91442500D01*
D39*
X177780000Y-72600000D02*
X177800000Y-72580000D01*
D38*
X179200000Y-56000000D02*
X180590000Y-56000000D01*
D39*
X162800000Y-63000000D02*
X164725000Y-63000000D01*
D38*
X168275000Y-50250000D02*
X168300000Y-50225000D01*
D40*
X155075000Y-47850000D02*
X155000000Y-47775000D01*
D38*
X153620000Y-88902500D02*
X151212500Y-88902500D01*
D39*
X175800000Y-72600000D02*
X177780000Y-72600000D01*
X163200000Y-83300000D02*
X165080000Y-83300000D01*
%TO.N,HSE_IN*%
X148775000Y-48825000D02*
X149100000Y-49150000D01*
X157150000Y-50250000D02*
X152737818Y-50250000D01*
X148775000Y-47000000D02*
X148775000Y-48825000D01*
X152737818Y-50250000D02*
X151637818Y-49150000D01*
X151637818Y-49150000D02*
X149100000Y-49150000D01*
D40*
%TO.N,+5V*%
X168000000Y-96000000D02*
X167000000Y-96000000D01*
X167000000Y-96000000D02*
X166000000Y-95000000D01*
X166000000Y-95000000D02*
X166000000Y-93787500D01*
D38*
%TO.N,Net-(U1-AREF)*%
X168375000Y-48650000D02*
X168500000Y-48775000D01*
X165650000Y-48650000D02*
X168375000Y-48650000D01*
D39*
%TO.N,SCK*%
X165724000Y-51050000D02*
X165650000Y-51050000D01*
X168200000Y-53526000D02*
X165724000Y-51050000D01*
%TO.N,MISO*%
X164200000Y-52500000D02*
X164200000Y-53475500D01*
X164200000Y-53475500D02*
X165000000Y-54275500D01*
%TO.N,MOSI*%
X163400000Y-54400000D02*
X163400000Y-52500000D01*
X164000000Y-55000000D02*
X163400000Y-54400000D01*
%TO.N,DTR*%
X153667500Y-87632500D02*
X153700000Y-87600000D01*
X153620000Y-87632500D02*
X153667500Y-87632500D01*
%TO.N,RST_PROG*%
X159000000Y-41000000D02*
X161000000Y-43000000D01*
X154825000Y-41000000D02*
X159000000Y-41000000D01*
X161000000Y-43000000D02*
X161000000Y-44000000D01*
X154600000Y-41225000D02*
X154825000Y-41000000D01*
%TO.N,HSE_OUT*%
X154775000Y-51050000D02*
X157150000Y-51050000D01*
X152825000Y-53000000D02*
X154775000Y-51050000D01*
%TO.N,Button_Up*%
X161125000Y-58960000D02*
X161120000Y-58965000D01*
X170515000Y-58960000D02*
X161125000Y-58960000D01*
%TO.N,Button_Left*%
X148710000Y-68595000D02*
X147505000Y-68595000D01*
X146690000Y-67780000D02*
X146690000Y-65630000D01*
X158150000Y-68580000D02*
X148725000Y-68580000D01*
X148725000Y-68580000D02*
X148710000Y-68595000D01*
X147505000Y-68595000D02*
X146690000Y-67780000D01*
X146690000Y-65630000D02*
X158600000Y-53720000D01*
X158600000Y-53720000D02*
X158600000Y-52500000D01*
%TO.N,Button_Right*%
X157930000Y-60870000D02*
X157930000Y-56100000D01*
X183550000Y-68580000D02*
X174085000Y-68580000D01*
X157930000Y-56100000D02*
X159400000Y-54630000D01*
X159400000Y-54630000D02*
X159400000Y-52500000D01*
X165635000Y-68575000D02*
X157930000Y-60870000D01*
X174085000Y-68580000D02*
X174080000Y-68575000D01*
X174080000Y-68575000D02*
X165635000Y-68575000D01*
%TO.N,Button_Down*%
X161390000Y-79285000D02*
X159235000Y-79285000D01*
X161395000Y-79280000D02*
X161390000Y-79285000D01*
X170850000Y-79280000D02*
X161395000Y-79280000D01*
X159235000Y-79285000D02*
X159230000Y-79290000D01*
%TO.N,TX*%
X158000000Y-41800000D02*
X158886396Y-41800000D01*
X158820000Y-82120000D02*
X157300000Y-80600000D01*
X160200000Y-43113604D02*
X160200000Y-44000000D01*
X158820000Y-87632500D02*
X158820000Y-82120000D01*
X158886396Y-41800000D02*
X160200000Y-43113604D01*
%TO.N,RX*%
X159400000Y-42950000D02*
X159400000Y-44000000D01*
X154562500Y-89537500D02*
X155400000Y-88700000D01*
X155400000Y-88700000D02*
X155400000Y-80800000D01*
X159050000Y-42600000D02*
X159400000Y-42950000D01*
X153620000Y-89537500D02*
X154562500Y-89537500D01*
X156000000Y-42600000D02*
X159050000Y-42600000D01*
D38*
%TO.N,unconnected-(J3-MP1-PadMP)*%
X183540000Y-61000000D02*
X183540000Y-47150000D01*
D39*
%TO.N,Net-(C7-Pad1)*%
X148775000Y-53000000D02*
X151175000Y-53000000D01*
X148775000Y-51175000D02*
X149100000Y-50850000D01*
%TD*%
M02*
